%TF.GenerationSoftware,KiCad,Pcbnew,9.0.6*%
%TF.CreationDate,2026-01-08T09:33:55+01:00*%
%TF.ProjectId,Adapat_24pin_22pin,41646170-6174-45f3-9234-70696e5f3232,rev?*%
%TF.SameCoordinates,Original*%
%TF.FileFunction,Copper,L3,Inr*%
%TF.FilePolarity,Positive*%
%FSLAX46Y46*%
G04 Gerber Fmt 4.6, Leading zero omitted, Abs format (unit mm)*
G04 Created by KiCad (PCBNEW 9.0.6) date 2026-01-08 09:33:55*
%MOMM*%
%LPD*%
G01*
G04 APERTURE LIST*
%ADD10C,0.200000*%
%TA.AperFunction,ComponentPad*%
%ADD11R,1.700000X1.700000*%
%TD*%
%TA.AperFunction,ComponentPad*%
%ADD12C,1.700000*%
%TD*%
%TA.AperFunction,ViaPad*%
%ADD13C,0.600000*%
%TD*%
%TA.AperFunction,ViaPad*%
%ADD14C,1.200000*%
%TD*%
G04 APERTURE END LIST*
D10*
G36*
X29308015Y-52834584D02*
G01*
X29509820Y-52955667D01*
X29630902Y-53157470D01*
X29671202Y-53358971D01*
X29630902Y-53560470D01*
X29509820Y-53762274D01*
X29308015Y-53883357D01*
X29106516Y-53923657D01*
X28905017Y-53883357D01*
X28703212Y-53762274D01*
X28582130Y-53560469D01*
X28541830Y-53358971D01*
X28582130Y-53157470D01*
X28640163Y-53060749D01*
X28816825Y-53060749D01*
X28819591Y-53099669D01*
X28837040Y-53134568D01*
X28866517Y-53160133D01*
X28903532Y-53172472D01*
X28942452Y-53169706D01*
X28960761Y-53162700D01*
X29034886Y-53125638D01*
X29178148Y-53125638D01*
X29237756Y-53155442D01*
X29310046Y-53227732D01*
X29339850Y-53287340D01*
X29339850Y-53430602D01*
X29310046Y-53490210D01*
X29237756Y-53562499D01*
X29178148Y-53592304D01*
X29034886Y-53592304D01*
X28960761Y-53555242D01*
X28942452Y-53548236D01*
X28903532Y-53545470D01*
X28866517Y-53557809D01*
X28837040Y-53583374D01*
X28819591Y-53618273D01*
X28816825Y-53657193D01*
X28829164Y-53694208D01*
X28854729Y-53723685D01*
X28871319Y-53734128D01*
X28966558Y-53781747D01*
X28984866Y-53788753D01*
X28988449Y-53789007D01*
X28991770Y-53790383D01*
X29011279Y-53792304D01*
X29201755Y-53792304D01*
X29221264Y-53790383D01*
X29224584Y-53789007D01*
X29228168Y-53788753D01*
X29246476Y-53781747D01*
X29341714Y-53734128D01*
X29350110Y-53728842D01*
X29352550Y-53727832D01*
X29355296Y-53725578D01*
X29358304Y-53723685D01*
X29360033Y-53721690D01*
X29367704Y-53715396D01*
X29462942Y-53620158D01*
X29469233Y-53612491D01*
X29471231Y-53610759D01*
X29473126Y-53607747D01*
X29475378Y-53605004D01*
X29476387Y-53602566D01*
X29481674Y-53594168D01*
X29529293Y-53498931D01*
X29536299Y-53480622D01*
X29536553Y-53477038D01*
X29537929Y-53473718D01*
X29539850Y-53454209D01*
X29539850Y-53263733D01*
X29537929Y-53244224D01*
X29536553Y-53240903D01*
X29536299Y-53237320D01*
X29529293Y-53219011D01*
X29481674Y-53123774D01*
X29476387Y-53115375D01*
X29475378Y-53112938D01*
X29473126Y-53110194D01*
X29471231Y-53107183D01*
X29469233Y-53105450D01*
X29462942Y-53097784D01*
X29367704Y-53002546D01*
X29360033Y-52996251D01*
X29358304Y-52994257D01*
X29355296Y-52992363D01*
X29352550Y-52990110D01*
X29350110Y-52989099D01*
X29341714Y-52983814D01*
X29246476Y-52936195D01*
X29228168Y-52929189D01*
X29224584Y-52928934D01*
X29221264Y-52927559D01*
X29201755Y-52925638D01*
X29011279Y-52925638D01*
X28991770Y-52927559D01*
X28988449Y-52928934D01*
X28984866Y-52929189D01*
X28966558Y-52936195D01*
X28871319Y-52983814D01*
X28854729Y-52994257D01*
X28829164Y-53023734D01*
X28816825Y-53060749D01*
X28640163Y-53060749D01*
X28703212Y-52955667D01*
X28905016Y-52834584D01*
X29106516Y-52794284D01*
X29308015Y-52834584D01*
G37*
G36*
X40321520Y-53143967D02*
G01*
X40329186Y-53150259D01*
X40330919Y-53152257D01*
X40333927Y-53154150D01*
X40336673Y-53156404D01*
X40339113Y-53157414D01*
X40347510Y-53162700D01*
X40442747Y-53210319D01*
X40461056Y-53217325D01*
X40464639Y-53217579D01*
X40467960Y-53218955D01*
X40487469Y-53220876D01*
X40582707Y-53220876D01*
X40602216Y-53218955D01*
X40638264Y-53204023D01*
X40661319Y-53180967D01*
X40673183Y-53228423D01*
X40673183Y-53537137D01*
X40635268Y-53688796D01*
X40571089Y-53752975D01*
X40511481Y-53782780D01*
X40368219Y-53782780D01*
X40308611Y-53752976D01*
X40244432Y-53688797D01*
X40206517Y-53537137D01*
X40206517Y-53228424D01*
X40244432Y-53076764D01*
X40249374Y-53071821D01*
X40321520Y-53143967D01*
G37*
G36*
X40571087Y-53012583D02*
G01*
X40579380Y-53020876D01*
X40511076Y-53020876D01*
X40451466Y-52991071D01*
X40443175Y-52982780D01*
X40511482Y-52982780D01*
X40571087Y-53012583D01*
G37*
G36*
X42439850Y-53566552D02*
G01*
X42340498Y-53268495D01*
X42539203Y-53268495D01*
X42439850Y-53566552D01*
G37*
G36*
X43889056Y-54236749D02*
G01*
X28228739Y-54236749D01*
X28228739Y-53358866D01*
X28339850Y-53358866D01*
X28339870Y-53358971D01*
X28339850Y-53359076D01*
X28341792Y-53378583D01*
X28389411Y-53616677D01*
X28392966Y-53628354D01*
X28393330Y-53630798D01*
X28394395Y-53633048D01*
X28395121Y-53635431D01*
X28396496Y-53637484D01*
X28401720Y-53648516D01*
X28544577Y-53886610D01*
X28556261Y-53902351D01*
X28560209Y-53905276D01*
X28563136Y-53909226D01*
X28578876Y-53920910D01*
X28816971Y-54063768D01*
X28828002Y-54068991D01*
X28830056Y-54070367D01*
X28832439Y-54071092D01*
X28834689Y-54072158D01*
X28837132Y-54072521D01*
X28848809Y-54076077D01*
X29086905Y-54123696D01*
X29106412Y-54125638D01*
X29106517Y-54125617D01*
X29106622Y-54125638D01*
X29126129Y-54123696D01*
X29364223Y-54076077D01*
X29375899Y-54072521D01*
X29378345Y-54072158D01*
X29380596Y-54071091D01*
X29382977Y-54070367D01*
X29385029Y-54068992D01*
X29396062Y-54063768D01*
X29634157Y-53920910D01*
X29649898Y-53909225D01*
X29652823Y-53905276D01*
X29656772Y-53902351D01*
X29668456Y-53886611D01*
X29682460Y-53863271D01*
X30722724Y-53863271D01*
X30722724Y-53902289D01*
X30737656Y-53938337D01*
X30765246Y-53965927D01*
X30801294Y-53980859D01*
X30820803Y-53982780D01*
X31392231Y-53982780D01*
X31411740Y-53980859D01*
X31447788Y-53965927D01*
X31475378Y-53938337D01*
X31490310Y-53902289D01*
X31490310Y-53863271D01*
X31475378Y-53827223D01*
X31447788Y-53799633D01*
X31411740Y-53784701D01*
X31392231Y-53782780D01*
X31206517Y-53782780D01*
X31206517Y-52882780D01*
X31625565Y-52882780D01*
X31625565Y-53882780D01*
X31627486Y-53902289D01*
X31642418Y-53938337D01*
X31670008Y-53965927D01*
X31706056Y-53980859D01*
X31745074Y-53980859D01*
X31781122Y-53965927D01*
X31808712Y-53938337D01*
X31823644Y-53902289D01*
X31825565Y-53882780D01*
X31825565Y-53259336D01*
X32210169Y-53932394D01*
X32213087Y-53936504D01*
X32213846Y-53938337D01*
X32215712Y-53940203D01*
X32221516Y-53948379D01*
X32232032Y-53956523D01*
X32241436Y-53965927D01*
X32247323Y-53968365D01*
X32252365Y-53972270D01*
X32265197Y-53975769D01*
X32277484Y-53980859D01*
X32283860Y-53980859D01*
X32290009Y-53982536D01*
X32303202Y-53980859D01*
X32316502Y-53980859D01*
X32322390Y-53978419D01*
X32328715Y-53977616D01*
X32340264Y-53971015D01*
X32352550Y-53965927D01*
X32357057Y-53961419D01*
X32362592Y-53958257D01*
X32370736Y-53947740D01*
X32380140Y-53938337D01*
X32382578Y-53932449D01*
X32386483Y-53927408D01*
X32389982Y-53914575D01*
X32395072Y-53902289D01*
X32396054Y-53892311D01*
X32396749Y-53889765D01*
X32396498Y-53887797D01*
X32396993Y-53882780D01*
X32396993Y-52882780D01*
X32395072Y-52863271D01*
X32627486Y-52863271D01*
X32627486Y-52902289D01*
X32642418Y-52938337D01*
X32670008Y-52965927D01*
X32706056Y-52980859D01*
X32725565Y-52982780D01*
X33101755Y-52982780D01*
X33101755Y-53306590D01*
X32868422Y-53306590D01*
X32848913Y-53308511D01*
X32812865Y-53323443D01*
X32785275Y-53351033D01*
X32770343Y-53387081D01*
X32770343Y-53426099D01*
X32785275Y-53462147D01*
X32812865Y-53489737D01*
X32848913Y-53504669D01*
X32868422Y-53506590D01*
X33101755Y-53506590D01*
X33101755Y-53782780D01*
X32725565Y-53782780D01*
X32706056Y-53784701D01*
X32670008Y-53799633D01*
X32642418Y-53827223D01*
X32627486Y-53863271D01*
X32627486Y-53902289D01*
X32642418Y-53938337D01*
X32670008Y-53965927D01*
X32706056Y-53980859D01*
X32725565Y-53982780D01*
X33201755Y-53982780D01*
X33221264Y-53980859D01*
X33257312Y-53965927D01*
X33284902Y-53938337D01*
X33299834Y-53902289D01*
X33301755Y-53882780D01*
X33301755Y-52958510D01*
X33532248Y-52958510D01*
X33532248Y-52997528D01*
X33547180Y-53033576D01*
X33574770Y-53061166D01*
X33610818Y-53076098D01*
X33649836Y-53076098D01*
X33685884Y-53061166D01*
X33701038Y-53048730D01*
X33731964Y-53017802D01*
X33837031Y-52982780D01*
X33899814Y-52982780D01*
X34004878Y-53017802D01*
X34071951Y-53084875D01*
X34107403Y-53155780D01*
X34149374Y-53323661D01*
X34149374Y-53441899D01*
X34107403Y-53609780D01*
X34071951Y-53680686D01*
X34004878Y-53747758D01*
X33899814Y-53782780D01*
X33837029Y-53782780D01*
X33731964Y-53747758D01*
X33701038Y-53716831D01*
X33685884Y-53704395D01*
X33649836Y-53689463D01*
X33610818Y-53689463D01*
X33574770Y-53704395D01*
X33547180Y-53731985D01*
X33532248Y-53768033D01*
X33532248Y-53807051D01*
X33547180Y-53843099D01*
X33559616Y-53858253D01*
X33607235Y-53905871D01*
X33622388Y-53918308D01*
X33625707Y-53919682D01*
X33628423Y-53922038D01*
X33646323Y-53930029D01*
X33789180Y-53977648D01*
X33798852Y-53979847D01*
X33801294Y-53980859D01*
X33804831Y-53981207D01*
X33808295Y-53981995D01*
X33810929Y-53981807D01*
X33820803Y-53982780D01*
X33916041Y-53982780D01*
X33925914Y-53981807D01*
X33928548Y-53981995D01*
X33932011Y-53981207D01*
X33935550Y-53980859D01*
X33937992Y-53979847D01*
X33947664Y-53977648D01*
X34090520Y-53930029D01*
X34108421Y-53922038D01*
X34111136Y-53919682D01*
X34114455Y-53918308D01*
X34129609Y-53905872D01*
X34224847Y-53810634D01*
X34231138Y-53802967D01*
X34233136Y-53801235D01*
X34235031Y-53798223D01*
X34237283Y-53795480D01*
X34238292Y-53793042D01*
X34243579Y-53784644D01*
X34291198Y-53689407D01*
X34291744Y-53687978D01*
X34292174Y-53687399D01*
X34295095Y-53679222D01*
X34298204Y-53671098D01*
X34298255Y-53670377D01*
X34298769Y-53668939D01*
X34346388Y-53478463D01*
X34346888Y-53475081D01*
X34347453Y-53473718D01*
X34348176Y-53466367D01*
X34349256Y-53459070D01*
X34349038Y-53457611D01*
X34349374Y-53454209D01*
X34349374Y-53311352D01*
X34349038Y-53307949D01*
X34349256Y-53306491D01*
X34348176Y-53299193D01*
X34347453Y-53291843D01*
X34346888Y-53290479D01*
X34346388Y-53287098D01*
X34298769Y-53096622D01*
X34298255Y-53095183D01*
X34298204Y-53094463D01*
X34295095Y-53086338D01*
X34292174Y-53078162D01*
X34291744Y-53077582D01*
X34291198Y-53076154D01*
X34243579Y-52980917D01*
X34238292Y-52972518D01*
X34237283Y-52970081D01*
X34235031Y-52967337D01*
X34233136Y-52964326D01*
X34231138Y-52962593D01*
X34224847Y-52954927D01*
X34152700Y-52882780D01*
X34577946Y-52882780D01*
X34577946Y-53882780D01*
X34579867Y-53902289D01*
X34594799Y-53938337D01*
X34622389Y-53965927D01*
X34658437Y-53980859D01*
X34697455Y-53980859D01*
X34733503Y-53965927D01*
X34761093Y-53938337D01*
X34776025Y-53902289D01*
X34777946Y-53882780D01*
X34777946Y-53259336D01*
X35162550Y-53932394D01*
X35165468Y-53936504D01*
X35166227Y-53938337D01*
X35168093Y-53940203D01*
X35173897Y-53948379D01*
X35184413Y-53956523D01*
X35193817Y-53965927D01*
X35199704Y-53968365D01*
X35204746Y-53972270D01*
X35217578Y-53975769D01*
X35229865Y-53980859D01*
X35236241Y-53980859D01*
X35242390Y-53982536D01*
X35255583Y-53980859D01*
X35268883Y-53980859D01*
X35274771Y-53978419D01*
X35281096Y-53977616D01*
X35292645Y-53971015D01*
X35304931Y-53965927D01*
X35309438Y-53961419D01*
X35314973Y-53958257D01*
X35323117Y-53947740D01*
X35332521Y-53938337D01*
X35334959Y-53932449D01*
X35338864Y-53927408D01*
X35342363Y-53914575D01*
X35347453Y-53902289D01*
X35348435Y-53892311D01*
X35349130Y-53889765D01*
X35348879Y-53887797D01*
X35349374Y-53882780D01*
X35349374Y-52882780D01*
X35625564Y-52882780D01*
X35625564Y-53882780D01*
X35627485Y-53902289D01*
X35642417Y-53938337D01*
X35670007Y-53965927D01*
X35706055Y-53980859D01*
X35745073Y-53980859D01*
X35781121Y-53965927D01*
X35808711Y-53938337D01*
X35823643Y-53902289D01*
X35825564Y-53882780D01*
X35825564Y-53870273D01*
X35959683Y-53870273D01*
X35962449Y-53909193D01*
X35979899Y-53944092D01*
X36009375Y-53969657D01*
X36046391Y-53981995D01*
X36085311Y-53979229D01*
X36120210Y-53961779D01*
X36145775Y-53932303D01*
X36153766Y-53914403D01*
X36392231Y-53199007D01*
X36630696Y-53914402D01*
X36638687Y-53932303D01*
X36664252Y-53961779D01*
X36699151Y-53979228D01*
X36738071Y-53981995D01*
X36775087Y-53969656D01*
X36804563Y-53944091D01*
X36822013Y-53909192D01*
X36824779Y-53870272D01*
X36820432Y-53851157D01*
X36491137Y-52863271D01*
X37579867Y-52863271D01*
X37579867Y-52902289D01*
X37594799Y-52938337D01*
X37622389Y-52965927D01*
X37658437Y-52980859D01*
X37677946Y-52982780D01*
X38054136Y-52982780D01*
X38054136Y-53882780D01*
X38056057Y-53902289D01*
X38070989Y-53938337D01*
X38098579Y-53965927D01*
X38134627Y-53980859D01*
X38173645Y-53980859D01*
X38209693Y-53965927D01*
X38237283Y-53938337D01*
X38252215Y-53902289D01*
X38254136Y-53882780D01*
X38254136Y-52882780D01*
X38530326Y-52882780D01*
X38530326Y-53882780D01*
X38532247Y-53902289D01*
X38547179Y-53938337D01*
X38574769Y-53965927D01*
X38610817Y-53980859D01*
X38649835Y-53980859D01*
X38685883Y-53965927D01*
X38713473Y-53938337D01*
X38728405Y-53902289D01*
X38730326Y-53882780D01*
X38730326Y-53073257D01*
X39006517Y-53073257D01*
X39006517Y-53882780D01*
X39008438Y-53902289D01*
X39023370Y-53938337D01*
X39050960Y-53965927D01*
X39087008Y-53980859D01*
X39126026Y-53980859D01*
X39162074Y-53965927D01*
X39189664Y-53938337D01*
X39204596Y-53902289D01*
X39206517Y-53882780D01*
X39206517Y-53096864D01*
X39236322Y-53037254D01*
X39260991Y-53012584D01*
X39320599Y-52982780D01*
X39463863Y-52982780D01*
X39523469Y-53012583D01*
X39548140Y-53037254D01*
X39577945Y-53096864D01*
X39577945Y-53882780D01*
X39579866Y-53902289D01*
X39594798Y-53938337D01*
X39622388Y-53965927D01*
X39658436Y-53980859D01*
X39697454Y-53980859D01*
X39733502Y-53965927D01*
X39761092Y-53938337D01*
X39776024Y-53902289D01*
X39777945Y-53882780D01*
X39777945Y-53073257D01*
X39776024Y-53053748D01*
X39774648Y-53050427D01*
X39774394Y-53046844D01*
X39767388Y-53028535D01*
X39719769Y-52933298D01*
X39714483Y-52924901D01*
X39713473Y-52922461D01*
X39711219Y-52919715D01*
X39709326Y-52916707D01*
X39707328Y-52914974D01*
X39701036Y-52907308D01*
X39653418Y-52859689D01*
X39645751Y-52853397D01*
X39644020Y-52851401D01*
X39641009Y-52849506D01*
X39638264Y-52847253D01*
X39635824Y-52846242D01*
X39627429Y-52840958D01*
X39545613Y-52800049D01*
X39959683Y-52800049D01*
X39972022Y-52837065D01*
X39997586Y-52866542D01*
X40014177Y-52876985D01*
X40094901Y-52917347D01*
X40107952Y-52930399D01*
X40083425Y-52954927D01*
X40070989Y-52970081D01*
X40068143Y-52976949D01*
X40063717Y-52982924D01*
X40057122Y-53001385D01*
X40009503Y-53191860D01*
X40009002Y-53195241D01*
X40008438Y-53196605D01*
X40007714Y-53203955D01*
X40006635Y-53211253D01*
X40006852Y-53212711D01*
X40006517Y-53216114D01*
X40006517Y-53549447D01*
X40006852Y-53552849D01*
X40006635Y-53554308D01*
X40007714Y-53561605D01*
X40008438Y-53568956D01*
X40009002Y-53570319D01*
X40009503Y-53573701D01*
X40057122Y-53764176D01*
X40063717Y-53782637D01*
X40068143Y-53788611D01*
X40070989Y-53795480D01*
X40083425Y-53810634D01*
X40178663Y-53905872D01*
X40186329Y-53912163D01*
X40188062Y-53914161D01*
X40191073Y-53916056D01*
X40193817Y-53918308D01*
X40196254Y-53919317D01*
X40204653Y-53924604D01*
X40299890Y-53972223D01*
X40318199Y-53979229D01*
X40321782Y-53979483D01*
X40325103Y-53980859D01*
X40344612Y-53982780D01*
X40535088Y-53982780D01*
X40554597Y-53980859D01*
X40557917Y-53979483D01*
X40561501Y-53979229D01*
X40579809Y-53972223D01*
X40675047Y-53924604D01*
X40683443Y-53919318D01*
X40685883Y-53918308D01*
X40688629Y-53916054D01*
X40691637Y-53914161D01*
X40693366Y-53912166D01*
X40701037Y-53905872D01*
X40796275Y-53810634D01*
X40808711Y-53795480D01*
X40811556Y-53788611D01*
X40815983Y-53782637D01*
X40822578Y-53764177D01*
X40870197Y-53573701D01*
X40870697Y-53570319D01*
X40871262Y-53568956D01*
X40871985Y-53561605D01*
X40873065Y-53554308D01*
X40872847Y-53552849D01*
X40873183Y-53549447D01*
X40873183Y-53216114D01*
X40872847Y-53212711D01*
X40873065Y-53211253D01*
X40871985Y-53203955D01*
X40871262Y-53196605D01*
X40870697Y-53195241D01*
X40870197Y-53191860D01*
X40840546Y-53073257D01*
X41101755Y-53073257D01*
X41101755Y-53882780D01*
X41103676Y-53902289D01*
X41118608Y-53938337D01*
X41146198Y-53965927D01*
X41182246Y-53980859D01*
X41221264Y-53980859D01*
X41257312Y-53965927D01*
X41284902Y-53938337D01*
X41299834Y-53902289D01*
X41301755Y-53882780D01*
X41301755Y-53096864D01*
X41331560Y-53037254D01*
X41356229Y-53012584D01*
X41415837Y-52982780D01*
X41559101Y-52982780D01*
X41618707Y-53012583D01*
X41643378Y-53037254D01*
X41673183Y-53096864D01*
X41673183Y-53882780D01*
X41675104Y-53902289D01*
X41690036Y-53938337D01*
X41717626Y-53965927D01*
X41753674Y-53980859D01*
X41792692Y-53980859D01*
X41828740Y-53965927D01*
X41856330Y-53938337D01*
X41871262Y-53902289D01*
X41873183Y-53882780D01*
X41873183Y-53073257D01*
X41871262Y-53053748D01*
X41869886Y-53050427D01*
X41869632Y-53046844D01*
X41862626Y-53028535D01*
X41815007Y-52933298D01*
X41809721Y-52924901D01*
X41808711Y-52922461D01*
X41806457Y-52919715D01*
X41804564Y-52916707D01*
X41802566Y-52914974D01*
X41796274Y-52907308D01*
X41784253Y-52895287D01*
X42007302Y-52895287D01*
X42011649Y-52914403D01*
X42344982Y-53914402D01*
X42352973Y-53932303D01*
X42357656Y-53937702D01*
X42360851Y-53944092D01*
X42370322Y-53952307D01*
X42378538Y-53961779D01*
X42384926Y-53964973D01*
X42390327Y-53969657D01*
X42402228Y-53973624D01*
X42413437Y-53979228D01*
X42420561Y-53979734D01*
X42427343Y-53981995D01*
X42439852Y-53981105D01*
X42452357Y-53981995D01*
X42459135Y-53979735D01*
X42466263Y-53979229D01*
X42477479Y-53973620D01*
X42489373Y-53969656D01*
X42494770Y-53964975D01*
X42501162Y-53961779D01*
X42509380Y-53952303D01*
X42518849Y-53944091D01*
X42522042Y-53937704D01*
X42526727Y-53932303D01*
X42534718Y-53914403D01*
X42853349Y-52958510D01*
X42960819Y-52958510D01*
X42960819Y-52997528D01*
X42975751Y-53033576D01*
X43003341Y-53061166D01*
X43039389Y-53076098D01*
X43078407Y-53076098D01*
X43114455Y-53061166D01*
X43129609Y-53048730D01*
X43160535Y-53017802D01*
X43265602Y-52982780D01*
X43328385Y-52982780D01*
X43433449Y-53017802D01*
X43500522Y-53084875D01*
X43535974Y-53155780D01*
X43577945Y-53323661D01*
X43577945Y-53441899D01*
X43535974Y-53609780D01*
X43500522Y-53680686D01*
X43433449Y-53747758D01*
X43328385Y-53782780D01*
X43265600Y-53782780D01*
X43160535Y-53747758D01*
X43129609Y-53716831D01*
X43114455Y-53704395D01*
X43078407Y-53689463D01*
X43039389Y-53689463D01*
X43003341Y-53704395D01*
X42975751Y-53731985D01*
X42960819Y-53768033D01*
X42960819Y-53807051D01*
X42975751Y-53843099D01*
X42988187Y-53858253D01*
X43035806Y-53905871D01*
X43050959Y-53918308D01*
X43054278Y-53919682D01*
X43056994Y-53922038D01*
X43074894Y-53930029D01*
X43217751Y-53977648D01*
X43227423Y-53979847D01*
X43229865Y-53980859D01*
X43233402Y-53981207D01*
X43236866Y-53981995D01*
X43239500Y-53981807D01*
X43249374Y-53982780D01*
X43344612Y-53982780D01*
X43354485Y-53981807D01*
X43357119Y-53981995D01*
X43360582Y-53981207D01*
X43364121Y-53980859D01*
X43366563Y-53979847D01*
X43376235Y-53977648D01*
X43519091Y-53930029D01*
X43536992Y-53922038D01*
X43539707Y-53919682D01*
X43543026Y-53918308D01*
X43558180Y-53905872D01*
X43653418Y-53810634D01*
X43659709Y-53802967D01*
X43661707Y-53801235D01*
X43663602Y-53798223D01*
X43665854Y-53795480D01*
X43666863Y-53793042D01*
X43672150Y-53784644D01*
X43719769Y-53689407D01*
X43720315Y-53687978D01*
X43720745Y-53687399D01*
X43723666Y-53679222D01*
X43726775Y-53671098D01*
X43726826Y-53670377D01*
X43727340Y-53668939D01*
X43774959Y-53478463D01*
X43775459Y-53475081D01*
X43776024Y-53473718D01*
X43776747Y-53466367D01*
X43777827Y-53459070D01*
X43777609Y-53457611D01*
X43777945Y-53454209D01*
X43777945Y-53311352D01*
X43777609Y-53307949D01*
X43777827Y-53306491D01*
X43776747Y-53299193D01*
X43776024Y-53291843D01*
X43775459Y-53290479D01*
X43774959Y-53287098D01*
X43727340Y-53096622D01*
X43726826Y-53095183D01*
X43726775Y-53094463D01*
X43723666Y-53086338D01*
X43720745Y-53078162D01*
X43720315Y-53077582D01*
X43719769Y-53076154D01*
X43672150Y-52980917D01*
X43666863Y-52972518D01*
X43665854Y-52970081D01*
X43663602Y-52967337D01*
X43661707Y-52964326D01*
X43659709Y-52962593D01*
X43653418Y-52954927D01*
X43558180Y-52859689D01*
X43543026Y-52847253D01*
X43539707Y-52845878D01*
X43536993Y-52843524D01*
X43519093Y-52835532D01*
X43376235Y-52787912D01*
X43366562Y-52785712D01*
X43364121Y-52784701D01*
X43360583Y-52784352D01*
X43357120Y-52783565D01*
X43354485Y-52783752D01*
X43344612Y-52782780D01*
X43249374Y-52782780D01*
X43239500Y-52783752D01*
X43236866Y-52783565D01*
X43233402Y-52784352D01*
X43229865Y-52784701D01*
X43227423Y-52785712D01*
X43217751Y-52787912D01*
X43074894Y-52835532D01*
X43056993Y-52843524D01*
X43054278Y-52845877D01*
X43050959Y-52847253D01*
X43035806Y-52859690D01*
X42988187Y-52907308D01*
X42975751Y-52922462D01*
X42960819Y-52958510D01*
X42853349Y-52958510D01*
X42868051Y-52914403D01*
X42872398Y-52895288D01*
X42869632Y-52856368D01*
X42852182Y-52821469D01*
X42822706Y-52795904D01*
X42785690Y-52783565D01*
X42746770Y-52786332D01*
X42711871Y-52803781D01*
X42686306Y-52833257D01*
X42678315Y-52851158D01*
X42605869Y-53068495D01*
X42273831Y-53068495D01*
X42201385Y-52851157D01*
X42193394Y-52833257D01*
X42167829Y-52803781D01*
X42132930Y-52786331D01*
X42094010Y-52783565D01*
X42056994Y-52795903D01*
X42027518Y-52821468D01*
X42010068Y-52856367D01*
X42007302Y-52895287D01*
X41784253Y-52895287D01*
X41748656Y-52859689D01*
X41740989Y-52853397D01*
X41739258Y-52851401D01*
X41736247Y-52849506D01*
X41733502Y-52847253D01*
X41731062Y-52846242D01*
X41722667Y-52840958D01*
X41627429Y-52793338D01*
X41609121Y-52786331D01*
X41605535Y-52786076D01*
X41602216Y-52784701D01*
X41582707Y-52782780D01*
X41392231Y-52782780D01*
X41372722Y-52784701D01*
X41369401Y-52786076D01*
X41365818Y-52786331D01*
X41347509Y-52793338D01*
X41252271Y-52840958D01*
X41243878Y-52846241D01*
X41241435Y-52847253D01*
X41238685Y-52849509D01*
X41235681Y-52851401D01*
X41233951Y-52853395D01*
X41226282Y-52859690D01*
X41178663Y-52907308D01*
X41172368Y-52914978D01*
X41170374Y-52916708D01*
X41168480Y-52919715D01*
X41166227Y-52922462D01*
X41165216Y-52924901D01*
X41159931Y-52933298D01*
X41112312Y-53028536D01*
X41105306Y-53046844D01*
X41105051Y-53050427D01*
X41103676Y-53053748D01*
X41101755Y-53073257D01*
X40840546Y-53073257D01*
X40822578Y-53001384D01*
X40815983Y-52982924D01*
X40811556Y-52976949D01*
X40808711Y-52970081D01*
X40796275Y-52954927D01*
X40701037Y-52859689D01*
X40693370Y-52853397D01*
X40691639Y-52851401D01*
X40688628Y-52849506D01*
X40685883Y-52847253D01*
X40683443Y-52846242D01*
X40675048Y-52840958D01*
X40579810Y-52793338D01*
X40561502Y-52786331D01*
X40557916Y-52786076D01*
X40554597Y-52784701D01*
X40535088Y-52782780D01*
X40344612Y-52782780D01*
X40325103Y-52784701D01*
X40321782Y-52786076D01*
X40318199Y-52786331D01*
X40299890Y-52793338D01*
X40269119Y-52808723D01*
X40224847Y-52764451D01*
X40217177Y-52758155D01*
X40215447Y-52756161D01*
X40212441Y-52754269D01*
X40209694Y-52752014D01*
X40207252Y-52751002D01*
X40198857Y-52745718D01*
X40103619Y-52698099D01*
X40085311Y-52691093D01*
X40046391Y-52688327D01*
X40009375Y-52700666D01*
X39979898Y-52726230D01*
X39962449Y-52761129D01*
X39959683Y-52800049D01*
X39545613Y-52800049D01*
X39532191Y-52793338D01*
X39513883Y-52786331D01*
X39510297Y-52786076D01*
X39506978Y-52784701D01*
X39487469Y-52782780D01*
X39296993Y-52782780D01*
X39277484Y-52784701D01*
X39274163Y-52786076D01*
X39270580Y-52786331D01*
X39252271Y-52793338D01*
X39157033Y-52840958D01*
X39148640Y-52846241D01*
X39146197Y-52847253D01*
X39143447Y-52849509D01*
X39140443Y-52851401D01*
X39138713Y-52853395D01*
X39131044Y-52859690D01*
X39083425Y-52907308D01*
X39077130Y-52914978D01*
X39075136Y-52916708D01*
X39073242Y-52919715D01*
X39070989Y-52922462D01*
X39069978Y-52924901D01*
X39064693Y-52933298D01*
X39017074Y-53028536D01*
X39010068Y-53046844D01*
X39009813Y-53050427D01*
X39008438Y-53053748D01*
X39006517Y-53073257D01*
X38730326Y-53073257D01*
X38730326Y-52882780D01*
X38728405Y-52863271D01*
X38713473Y-52827223D01*
X38685883Y-52799633D01*
X38649835Y-52784701D01*
X38610817Y-52784701D01*
X38574769Y-52799633D01*
X38547179Y-52827223D01*
X38532247Y-52863271D01*
X38530326Y-52882780D01*
X38254136Y-52882780D01*
X38252215Y-52863271D01*
X38237283Y-52827223D01*
X38209693Y-52799633D01*
X38173645Y-52784701D01*
X38154136Y-52782780D01*
X37677946Y-52782780D01*
X37658437Y-52784701D01*
X37622389Y-52799633D01*
X37594799Y-52827223D01*
X37579867Y-52863271D01*
X36491137Y-52863271D01*
X36487099Y-52851157D01*
X36479108Y-52833257D01*
X36474423Y-52827855D01*
X36471230Y-52821469D01*
X36461761Y-52813256D01*
X36453543Y-52803781D01*
X36447151Y-52800584D01*
X36441754Y-52795904D01*
X36429860Y-52791939D01*
X36418644Y-52786331D01*
X36411516Y-52785824D01*
X36404738Y-52783565D01*
X36392233Y-52784454D01*
X36379724Y-52783565D01*
X36372942Y-52785825D01*
X36365818Y-52786332D01*
X36354609Y-52791935D01*
X36342708Y-52795903D01*
X36337307Y-52800586D01*
X36330919Y-52803781D01*
X36322703Y-52813252D01*
X36313232Y-52821468D01*
X36310037Y-52827857D01*
X36305354Y-52833257D01*
X36297363Y-52851158D01*
X35964030Y-53851157D01*
X35959683Y-53870273D01*
X35825564Y-53870273D01*
X35825564Y-52882780D01*
X35823643Y-52863271D01*
X35808711Y-52827223D01*
X35781121Y-52799633D01*
X35745073Y-52784701D01*
X35706055Y-52784701D01*
X35670007Y-52799633D01*
X35642417Y-52827223D01*
X35627485Y-52863271D01*
X35625564Y-52882780D01*
X35349374Y-52882780D01*
X35347453Y-52863271D01*
X35332521Y-52827223D01*
X35304931Y-52799633D01*
X35268883Y-52784701D01*
X35229865Y-52784701D01*
X35193817Y-52799633D01*
X35166227Y-52827223D01*
X35151295Y-52863271D01*
X35149374Y-52882780D01*
X35149374Y-53506223D01*
X34764770Y-52833166D01*
X34761851Y-52829055D01*
X34761093Y-52827223D01*
X34759226Y-52825356D01*
X34753423Y-52817181D01*
X34742908Y-52809038D01*
X34733503Y-52799633D01*
X34727612Y-52797193D01*
X34722574Y-52793291D01*
X34709745Y-52789792D01*
X34697455Y-52784701D01*
X34691080Y-52784701D01*
X34684931Y-52783024D01*
X34671738Y-52784701D01*
X34658437Y-52784701D01*
X34652548Y-52787140D01*
X34646224Y-52787944D01*
X34634674Y-52794544D01*
X34622389Y-52799633D01*
X34617881Y-52804140D01*
X34612347Y-52807303D01*
X34604204Y-52817817D01*
X34594799Y-52827223D01*
X34592359Y-52833113D01*
X34588457Y-52838152D01*
X34584958Y-52850980D01*
X34579867Y-52863271D01*
X34578884Y-52873248D01*
X34578190Y-52875795D01*
X34578440Y-52877762D01*
X34577946Y-52882780D01*
X34152700Y-52882780D01*
X34129609Y-52859689D01*
X34114455Y-52847253D01*
X34111136Y-52845878D01*
X34108422Y-52843524D01*
X34090522Y-52835532D01*
X33947664Y-52787912D01*
X33937991Y-52785712D01*
X33935550Y-52784701D01*
X33932012Y-52784352D01*
X33928549Y-52783565D01*
X33925914Y-52783752D01*
X33916041Y-52782780D01*
X33820803Y-52782780D01*
X33810929Y-52783752D01*
X33808295Y-52783565D01*
X33804831Y-52784352D01*
X33801294Y-52784701D01*
X33798852Y-52785712D01*
X33789180Y-52787912D01*
X33646323Y-52835532D01*
X33628422Y-52843524D01*
X33625707Y-52845877D01*
X33622388Y-52847253D01*
X33607235Y-52859690D01*
X33559616Y-52907308D01*
X33547180Y-52922462D01*
X33532248Y-52958510D01*
X33301755Y-52958510D01*
X33301755Y-52882780D01*
X33299834Y-52863271D01*
X33284902Y-52827223D01*
X33257312Y-52799633D01*
X33221264Y-52784701D01*
X33201755Y-52782780D01*
X32725565Y-52782780D01*
X32706056Y-52784701D01*
X32670008Y-52799633D01*
X32642418Y-52827223D01*
X32627486Y-52863271D01*
X32395072Y-52863271D01*
X32380140Y-52827223D01*
X32352550Y-52799633D01*
X32316502Y-52784701D01*
X32277484Y-52784701D01*
X32241436Y-52799633D01*
X32213846Y-52827223D01*
X32198914Y-52863271D01*
X32196993Y-52882780D01*
X32196993Y-53506223D01*
X31812389Y-52833166D01*
X31809470Y-52829055D01*
X31808712Y-52827223D01*
X31806845Y-52825356D01*
X31801042Y-52817181D01*
X31790527Y-52809038D01*
X31781122Y-52799633D01*
X31775231Y-52797193D01*
X31770193Y-52793291D01*
X31757364Y-52789792D01*
X31745074Y-52784701D01*
X31738699Y-52784701D01*
X31732550Y-52783024D01*
X31719357Y-52784701D01*
X31706056Y-52784701D01*
X31700167Y-52787140D01*
X31693843Y-52787944D01*
X31682293Y-52794544D01*
X31670008Y-52799633D01*
X31665500Y-52804140D01*
X31659966Y-52807303D01*
X31651823Y-52817817D01*
X31642418Y-52827223D01*
X31639978Y-52833113D01*
X31636076Y-52838152D01*
X31632577Y-52850980D01*
X31627486Y-52863271D01*
X31626503Y-52873248D01*
X31625809Y-52875795D01*
X31626059Y-52877762D01*
X31625565Y-52882780D01*
X31206517Y-52882780D01*
X31204596Y-52863271D01*
X31189664Y-52827223D01*
X31162074Y-52799633D01*
X31126026Y-52784701D01*
X31087008Y-52784701D01*
X31050960Y-52799633D01*
X31023370Y-52827223D01*
X31008438Y-52863271D01*
X31006517Y-52882780D01*
X31006517Y-53782780D01*
X30820803Y-53782780D01*
X30801294Y-53784701D01*
X30765246Y-53799633D01*
X30737656Y-53827223D01*
X30722724Y-53863271D01*
X29682460Y-53863271D01*
X29811313Y-53648516D01*
X29816536Y-53637484D01*
X29817912Y-53635431D01*
X29818637Y-53633047D01*
X29819703Y-53630798D01*
X29820066Y-53628354D01*
X29823622Y-53616678D01*
X29871241Y-53378583D01*
X29873183Y-53359076D01*
X29873162Y-53358971D01*
X29873183Y-53358866D01*
X29871241Y-53339359D01*
X29823622Y-53101264D01*
X29820066Y-53089587D01*
X29819703Y-53087144D01*
X29818637Y-53084894D01*
X29817912Y-53082511D01*
X29816535Y-53080456D01*
X29811313Y-53069427D01*
X29668456Y-52831331D01*
X29656772Y-52815590D01*
X29652822Y-52812664D01*
X29649897Y-52808715D01*
X29634156Y-52797031D01*
X29396062Y-52654174D01*
X29385030Y-52648950D01*
X29382977Y-52647575D01*
X29380594Y-52646849D01*
X29378344Y-52645784D01*
X29375900Y-52645420D01*
X29364223Y-52641865D01*
X29126129Y-52594246D01*
X29106622Y-52592304D01*
X29106517Y-52592324D01*
X29106412Y-52592304D01*
X29086905Y-52594246D01*
X28848809Y-52641865D01*
X28837132Y-52645420D01*
X28834689Y-52645784D01*
X28832439Y-52646849D01*
X28830056Y-52647575D01*
X28828002Y-52648950D01*
X28816971Y-52654174D01*
X28578876Y-52797031D01*
X28563136Y-52808715D01*
X28560209Y-52812664D01*
X28556261Y-52815590D01*
X28544577Y-52831331D01*
X28401720Y-53069427D01*
X28396496Y-53080456D01*
X28395121Y-53082511D01*
X28394395Y-53084894D01*
X28393330Y-53087144D01*
X28392966Y-53089587D01*
X28389411Y-53101265D01*
X28341792Y-53339359D01*
X28339850Y-53358866D01*
X28228739Y-53358866D01*
X28228739Y-52481193D01*
X43889056Y-52481193D01*
X43889056Y-54236749D01*
G37*
D11*
%TO.N,/SEN_PEN*%
%TO.C,J3*%
X27000000Y-32150000D03*
D12*
%TO.N,/DMIC_DAT*%
X27000000Y-34690000D03*
%TO.N,/DMIC_CLK*%
X27000000Y-37230000D03*
%TO.N,/ILED*%
X27000000Y-39770000D03*
%TD*%
D13*
%TO.N,GND*%
X31000000Y-40750000D03*
D14*
X43000000Y-40000000D03*
D13*
X21250000Y-34500000D03*
X20250000Y-42000000D03*
X53000000Y-37500000D03*
D14*
X21500000Y-45000000D03*
X35250000Y-49750000D03*
X48000000Y-21000000D03*
D13*
X51750000Y-18000000D03*
X46750000Y-18000000D03*
D14*
X53000000Y-21000000D03*
D13*
X27000000Y-19000000D03*
X17500000Y-33000000D03*
D14*
X50500000Y-42000000D03*
X49250000Y-40500000D03*
D13*
X48000000Y-40500000D03*
X24500000Y-26250000D03*
X51750000Y-21000000D03*
D14*
X17500000Y-19500000D03*
D13*
X25000000Y-34500000D03*
X37750000Y-17000000D03*
D14*
X26750000Y-50250000D03*
X51750000Y-19500000D03*
D13*
X35250000Y-17000000D03*
X30000000Y-35500000D03*
D14*
X21250000Y-30000000D03*
D13*
X49250000Y-24000000D03*
D14*
X49000000Y-29500000D03*
D13*
X50500000Y-37500000D03*
X33000000Y-48500000D03*
X29000000Y-36250000D03*
X18750000Y-22500000D03*
X44000000Y-17000000D03*
D14*
X53000000Y-18000000D03*
D13*
X17500000Y-42000000D03*
X35500000Y-38000000D03*
D14*
X18750000Y-30000000D03*
D13*
X50500000Y-40500000D03*
D14*
X51750000Y-43500000D03*
D13*
X44500000Y-30500000D03*
D14*
X17500000Y-40500000D03*
D13*
X24500000Y-21500000D03*
X23250000Y-42000000D03*
D14*
X46000000Y-26000000D03*
D13*
X34000000Y-27000000D03*
D14*
X25500000Y-25500000D03*
D13*
X24500000Y-23250000D03*
X23250000Y-45000000D03*
X26500000Y-23250000D03*
D14*
X17500000Y-31500000D03*
X18750000Y-21000000D03*
D13*
X46750000Y-45000000D03*
D14*
X27000000Y-20500000D03*
X50500000Y-45000000D03*
X28500000Y-19500000D03*
D13*
X32750000Y-17000000D03*
X17500000Y-18000000D03*
D14*
X23250000Y-43500000D03*
X51750000Y-37500000D03*
X50500000Y-39000000D03*
X53000000Y-45000000D03*
X23250000Y-40500000D03*
D13*
X48000000Y-43500000D03*
X20000000Y-33000000D03*
D14*
X30000000Y-43000000D03*
X44750000Y-24500000D03*
X21750000Y-39000000D03*
D13*
X18750000Y-31500000D03*
X18750000Y-43500000D03*
D14*
X45500000Y-50250000D03*
D13*
X50500000Y-17000000D03*
D14*
X48000000Y-39000000D03*
D13*
X23750000Y-36500000D03*
X29000000Y-31750000D03*
X21750000Y-40500000D03*
X29000000Y-34750000D03*
X53000000Y-40500000D03*
X18750000Y-34500000D03*
X17500000Y-36000000D03*
X34500000Y-26500000D03*
X39000000Y-48500000D03*
X36000000Y-48500000D03*
X29000000Y-42250000D03*
X24500000Y-24750000D03*
X40250000Y-17000000D03*
D14*
X17500000Y-34500000D03*
X38250000Y-49750000D03*
D13*
X22500000Y-18000000D03*
D14*
X46750000Y-37500000D03*
D13*
X35500000Y-32000000D03*
X53000000Y-22500000D03*
D14*
X48000000Y-18000000D03*
X20000000Y-34500000D03*
X21250000Y-33000000D03*
D13*
X21500000Y-43500000D03*
X23250000Y-39000000D03*
X31000000Y-42250000D03*
X24250000Y-33750000D03*
X29000000Y-28750000D03*
D14*
X23250000Y-46500000D03*
X21250000Y-24000000D03*
D13*
X24500000Y-46500000D03*
X42750000Y-17000000D03*
D14*
X49250000Y-22500000D03*
D13*
X36500000Y-17000000D03*
D14*
X43000000Y-46000000D03*
D13*
X35482999Y-30000000D03*
X51750000Y-39000000D03*
X48000000Y-17000000D03*
D14*
X53000000Y-42000000D03*
D13*
X21250000Y-25500000D03*
D14*
X36750000Y-49750000D03*
X27000000Y-24500000D03*
D13*
X53000000Y-43500000D03*
X20000000Y-30000000D03*
D14*
X18750000Y-33000000D03*
D13*
X49250000Y-42000000D03*
X37150000Y-42150000D03*
X25000000Y-37750000D03*
X25500000Y-24000000D03*
X35500000Y-33500000D03*
X48000000Y-46500000D03*
D14*
X49250000Y-37500000D03*
D13*
X18750000Y-40500000D03*
X17500000Y-45000000D03*
X24500000Y-30500000D03*
D14*
X49000000Y-33000000D03*
D13*
X49250000Y-36000000D03*
X21500000Y-46500000D03*
D14*
X17500000Y-43500000D03*
D13*
X29000000Y-37750000D03*
X50500000Y-22500000D03*
D14*
X30000000Y-40000000D03*
D13*
X45750000Y-35250000D03*
X46000000Y-24500000D03*
D14*
X49250000Y-19500000D03*
D13*
X50500000Y-43500000D03*
D14*
X24500000Y-45000000D03*
X18750000Y-42000000D03*
X17500000Y-28750000D03*
D13*
X29000000Y-30250000D03*
X39000000Y-17000000D03*
D14*
X30000000Y-37000000D03*
X49250000Y-46500000D03*
D13*
X34500000Y-48500000D03*
D14*
X48000000Y-36000000D03*
D13*
X48000000Y-37500000D03*
D14*
X48000000Y-42000000D03*
X46750000Y-46500000D03*
D13*
X24500000Y-27500000D03*
D14*
X20000000Y-28750000D03*
D13*
X21250000Y-19500000D03*
X21250000Y-31500000D03*
D14*
X21250000Y-21000000D03*
X51750000Y-22500000D03*
X32250000Y-49750000D03*
D13*
X21250000Y-28500000D03*
D14*
X21250000Y-18000000D03*
D13*
X35500000Y-31000000D03*
D14*
X17500000Y-22500000D03*
D13*
X46750000Y-42000000D03*
D14*
X50500000Y-18000000D03*
X39809597Y-49754438D03*
D13*
X35500000Y-37000000D03*
X30000000Y-41500000D03*
D14*
X20250000Y-40500000D03*
D13*
X35482999Y-29000000D03*
D14*
X30000000Y-28000000D03*
X50500000Y-21000000D03*
X30000000Y-31000000D03*
D13*
X20000000Y-18000000D03*
X51750000Y-45000000D03*
X50500000Y-46500000D03*
X50500000Y-19500000D03*
X18750000Y-19500000D03*
D14*
X43000000Y-37000000D03*
D13*
X42000000Y-30500000D03*
D14*
X20250000Y-37500000D03*
X25500000Y-28500000D03*
X46750000Y-19500000D03*
X20000000Y-22500000D03*
D13*
X53000000Y-19500000D03*
X17500000Y-21000000D03*
D14*
X20000000Y-31500000D03*
D13*
X49250000Y-39000000D03*
D14*
X20000000Y-19500000D03*
D13*
X51750000Y-42000000D03*
D14*
X49250000Y-43500000D03*
D13*
X20000000Y-21000000D03*
D14*
X20250000Y-43500000D03*
D13*
X25500000Y-30000000D03*
X26500000Y-26250000D03*
D14*
X46750000Y-43500000D03*
X43000000Y-43000000D03*
D13*
X48000000Y-19500000D03*
D14*
X18750000Y-45000000D03*
D13*
X41500000Y-17000000D03*
X39500000Y-45500000D03*
X29000000Y-40750000D03*
D14*
X18750000Y-36000000D03*
D13*
X29000000Y-33250000D03*
X43000000Y-44500000D03*
D14*
X45500000Y-18000000D03*
D13*
X30000000Y-38500000D03*
X49250000Y-18000000D03*
X24500000Y-20250000D03*
X21740000Y-37500000D03*
D14*
X18750000Y-18000000D03*
X17500000Y-37500000D03*
D13*
X17500000Y-39000000D03*
X25500000Y-27000000D03*
X24500000Y-29250000D03*
X31000000Y-26750000D03*
X30000000Y-32500000D03*
X43000000Y-41500000D03*
D14*
X21500000Y-42000000D03*
X53000000Y-39000000D03*
D13*
X18750000Y-28750000D03*
X17500000Y-30000000D03*
X43000000Y-38500000D03*
X20000000Y-36000000D03*
X34000000Y-17000000D03*
X46750000Y-39000000D03*
D14*
X25500000Y-22500000D03*
D13*
X26500000Y-21500000D03*
D14*
X46750000Y-40500000D03*
D13*
X20250000Y-45000000D03*
X29000000Y-39250000D03*
X45500000Y-17000000D03*
X37500000Y-48500000D03*
X46750000Y-34750000D03*
X21250000Y-22500000D03*
X49250000Y-21000000D03*
D14*
X30000000Y-34000000D03*
X21250000Y-27000000D03*
D13*
X37850000Y-41340000D03*
X30000000Y-29500000D03*
X20250000Y-39000000D03*
D14*
X25500000Y-19500000D03*
X18750000Y-39000000D03*
D13*
X44750000Y-26000000D03*
D14*
X48000000Y-45000000D03*
D13*
X31500000Y-48500000D03*
X18750000Y-37500000D03*
D14*
X33750000Y-49750000D03*
D13*
X24500000Y-43500000D03*
X25500000Y-21000000D03*
X49250000Y-45000000D03*
X46750000Y-36000000D03*
D14*
X51750000Y-40500000D03*
X24500000Y-42000000D03*
D13*
X40500000Y-48500000D03*
%TO.N,/SVDD*%
X45500000Y-28000000D03*
X50000000Y-34500000D03*
X41775000Y-35500000D03*
%TO.N,/MP_DP4*%
X38058191Y-43926278D03*
X32800521Y-23800521D03*
%TO.N,/MP_DN1*%
X31075000Y-44500000D03*
X35699479Y-39199479D03*
%TO.N,/MP_DN4*%
X37457149Y-43325236D03*
X32199479Y-23199479D03*
%TO.N,/MP_DP1*%
X31925000Y-44500000D03*
X36300521Y-39800521D03*
%TO.N,/SEN_RST*%
X39750000Y-31350000D03*
X39250000Y-35500000D03*
%TO.N,/SEN_SDA*%
X38650000Y-20500000D03*
X41000000Y-45000000D03*
%TO.N,/SEN_PEN*%
X30750000Y-21250000D03*
X47500000Y-23000000D03*
%TD*%
%TA.AperFunction,Conductor*%
%TO.N,GND*%
G36*
X52325188Y-16401180D02*
G01*
X52379775Y-16400505D01*
X52380521Y-16400506D01*
X52386483Y-16400650D01*
X52640996Y-16412990D01*
X52655954Y-16414631D01*
X52903323Y-16457100D01*
X52917971Y-16460542D01*
X53158365Y-16532702D01*
X53172499Y-16537900D01*
X53402357Y-16638679D01*
X53415747Y-16645548D01*
X53441749Y-16660950D01*
X53631685Y-16773460D01*
X53644158Y-16781912D01*
X53668553Y-16800703D01*
X53842994Y-16935074D01*
X53854333Y-16944963D01*
X54033123Y-17121108D01*
X54043189Y-17132310D01*
X54199293Y-17328837D01*
X54207931Y-17341183D01*
X54339042Y-17555184D01*
X54346118Y-17568486D01*
X54450307Y-17796810D01*
X54455717Y-17810872D01*
X54531443Y-18050141D01*
X54535109Y-18064755D01*
X54581260Y-18311458D01*
X54583125Y-18326410D01*
X54599251Y-18580648D01*
X54599500Y-18588497D01*
X54599500Y-24972666D01*
X54579815Y-25039705D01*
X54527011Y-25085460D01*
X54457853Y-25095404D01*
X54394297Y-25066379D01*
X54368113Y-25034667D01*
X54355732Y-25013222D01*
X54250249Y-24830521D01*
X54082628Y-24612072D01*
X54082623Y-24612066D01*
X53887933Y-24417376D01*
X53887926Y-24417370D01*
X53669483Y-24249754D01*
X53669482Y-24249753D01*
X53669479Y-24249751D01*
X53530013Y-24169230D01*
X53431028Y-24112080D01*
X53431017Y-24112075D01*
X53176630Y-24006704D01*
X53043649Y-23971072D01*
X52910666Y-23935440D01*
X52910660Y-23935439D01*
X52910655Y-23935438D01*
X52637684Y-23899501D01*
X52637679Y-23899500D01*
X52637674Y-23899500D01*
X52362326Y-23899500D01*
X52362320Y-23899500D01*
X52362315Y-23899501D01*
X52089344Y-23935438D01*
X52089337Y-23935439D01*
X52089334Y-23935440D01*
X52033125Y-23950500D01*
X51823369Y-24006704D01*
X51568982Y-24112075D01*
X51568971Y-24112080D01*
X51330516Y-24249754D01*
X51112073Y-24417370D01*
X51112066Y-24417376D01*
X50917376Y-24612066D01*
X50917370Y-24612073D01*
X50749754Y-24830516D01*
X50612080Y-25068971D01*
X50612075Y-25068982D01*
X50506704Y-25323369D01*
X50435441Y-25589331D01*
X50435438Y-25589344D01*
X50399501Y-25862315D01*
X50399500Y-25862332D01*
X50399500Y-26137667D01*
X50399501Y-26137684D01*
X50435438Y-26410655D01*
X50435439Y-26410660D01*
X50435440Y-26410666D01*
X50435441Y-26410668D01*
X50506704Y-26676630D01*
X50612075Y-26931017D01*
X50612080Y-26931028D01*
X50667683Y-27027333D01*
X50749751Y-27169479D01*
X50749753Y-27169482D01*
X50749754Y-27169483D01*
X50917370Y-27387926D01*
X50917376Y-27387933D01*
X51112066Y-27582623D01*
X51112072Y-27582628D01*
X51330521Y-27750249D01*
X51483778Y-27838732D01*
X51568971Y-27887919D01*
X51568976Y-27887921D01*
X51568979Y-27887923D01*
X51823368Y-27993295D01*
X52089334Y-28064560D01*
X52362326Y-28100500D01*
X52362333Y-28100500D01*
X52637667Y-28100500D01*
X52637674Y-28100500D01*
X52910666Y-28064560D01*
X53176632Y-27993295D01*
X53431021Y-27887923D01*
X53669479Y-27750249D01*
X53887928Y-27582628D01*
X54082628Y-27387928D01*
X54250249Y-27169479D01*
X54368113Y-26965333D01*
X54418680Y-26917117D01*
X54487287Y-26903895D01*
X54552152Y-26929863D01*
X54592680Y-26986777D01*
X54599500Y-27027333D01*
X54599500Y-47472666D01*
X54579815Y-47539705D01*
X54527011Y-47585460D01*
X54457853Y-47595404D01*
X54394297Y-47566379D01*
X54368113Y-47534667D01*
X54355732Y-47513222D01*
X54250249Y-47330521D01*
X54082628Y-47112072D01*
X54082623Y-47112066D01*
X53887933Y-46917376D01*
X53887926Y-46917370D01*
X53669483Y-46749754D01*
X53669482Y-46749753D01*
X53669479Y-46749751D01*
X53574407Y-46694861D01*
X53431028Y-46612080D01*
X53431017Y-46612075D01*
X53176630Y-46506704D01*
X53043649Y-46471072D01*
X52910666Y-46435440D01*
X52910660Y-46435439D01*
X52910655Y-46435438D01*
X52637684Y-46399501D01*
X52637679Y-46399500D01*
X52637674Y-46399500D01*
X52362326Y-46399500D01*
X52362320Y-46399500D01*
X52362315Y-46399501D01*
X52089344Y-46435438D01*
X52089337Y-46435439D01*
X52089334Y-46435440D01*
X52033125Y-46450500D01*
X51823369Y-46506704D01*
X51568982Y-46612075D01*
X51568971Y-46612080D01*
X51330516Y-46749754D01*
X51112073Y-46917370D01*
X51112066Y-46917376D01*
X50917376Y-47112066D01*
X50917370Y-47112073D01*
X50749754Y-47330516D01*
X50612080Y-47568971D01*
X50612075Y-47568982D01*
X50506704Y-47823369D01*
X50435441Y-48089331D01*
X50435438Y-48089344D01*
X50399501Y-48362315D01*
X50399500Y-48362332D01*
X50399500Y-48637667D01*
X50399501Y-48637684D01*
X50435438Y-48910655D01*
X50435439Y-48910660D01*
X50435440Y-48910666D01*
X50435441Y-48910668D01*
X50506704Y-49176630D01*
X50612075Y-49431017D01*
X50612080Y-49431028D01*
X50667683Y-49527333D01*
X50749751Y-49669479D01*
X50749753Y-49669482D01*
X50749754Y-49669483D01*
X50917370Y-49887926D01*
X50917376Y-49887933D01*
X51112066Y-50082623D01*
X51112072Y-50082628D01*
X51330521Y-50250249D01*
X51483778Y-50338732D01*
X51568971Y-50387919D01*
X51568976Y-50387921D01*
X51568979Y-50387923D01*
X51823368Y-50493295D01*
X52089334Y-50564560D01*
X52362326Y-50600500D01*
X52362333Y-50600500D01*
X52637667Y-50600500D01*
X52637674Y-50600500D01*
X52910666Y-50564560D01*
X53176632Y-50493295D01*
X53431021Y-50387923D01*
X53669479Y-50250249D01*
X53887928Y-50082628D01*
X54082628Y-49887928D01*
X54250249Y-49669479D01*
X54368113Y-49465333D01*
X54418680Y-49417117D01*
X54487287Y-49403895D01*
X54552152Y-49429863D01*
X54592680Y-49486777D01*
X54599500Y-49527333D01*
X54599500Y-52275337D01*
X54599498Y-52286150D01*
X54598830Y-52288536D01*
X54599493Y-52343077D01*
X54599493Y-52343858D01*
X54599453Y-52343991D01*
X54599346Y-52349872D01*
X54586748Y-52608757D01*
X54585103Y-52623733D01*
X54541843Y-52875448D01*
X54538394Y-52890114D01*
X54464926Y-53134722D01*
X54459723Y-53148862D01*
X54357127Y-53382764D01*
X54350249Y-53396168D01*
X54220047Y-53615896D01*
X54211593Y-53628367D01*
X54055705Y-53830680D01*
X54045801Y-53842034D01*
X53866526Y-54023949D01*
X53855318Y-54034018D01*
X53655303Y-54192849D01*
X53642957Y-54201484D01*
X53425158Y-54334884D01*
X53411856Y-54341958D01*
X53179487Y-54447958D01*
X53165425Y-54453367D01*
X52921909Y-54530406D01*
X52907295Y-54534069D01*
X52656240Y-54581005D01*
X52641288Y-54582869D01*
X52382571Y-54599252D01*
X52374735Y-54599500D01*
X18688093Y-54599500D01*
X18677246Y-54599498D01*
X18674824Y-54598820D01*
X18620315Y-54599493D01*
X18619486Y-54599493D01*
X18619352Y-54599453D01*
X18613495Y-54599348D01*
X18359036Y-54587013D01*
X18344059Y-54585370D01*
X18096724Y-54542909D01*
X18082059Y-54539463D01*
X18017867Y-54520196D01*
X17841688Y-54467316D01*
X17827548Y-54462116D01*
X17597703Y-54361351D01*
X17584298Y-54354474D01*
X17368375Y-54226580D01*
X17355902Y-54218128D01*
X17244731Y-54132500D01*
X28332985Y-54132500D01*
X43784729Y-54132500D01*
X43784729Y-52585439D01*
X28332985Y-52585439D01*
X28332985Y-54132500D01*
X17244731Y-54132500D01*
X17157082Y-54064989D01*
X17145726Y-54055088D01*
X16966944Y-53878966D01*
X16956873Y-53867760D01*
X16936436Y-53842034D01*
X16800769Y-53671253D01*
X16792136Y-53658915D01*
X16661012Y-53444920D01*
X16653941Y-53431629D01*
X16549738Y-53203309D01*
X16544334Y-53189268D01*
X16468589Y-52949994D01*
X16464927Y-52935396D01*
X16418760Y-52688697D01*
X16416896Y-52673775D01*
X16400748Y-52419510D01*
X16400500Y-52411667D01*
X16400500Y-49527333D01*
X16420185Y-49460294D01*
X16472989Y-49414539D01*
X16542147Y-49404595D01*
X16605703Y-49433620D01*
X16631887Y-49465333D01*
X16749751Y-49669479D01*
X16749753Y-49669482D01*
X16749754Y-49669483D01*
X16917370Y-49887926D01*
X16917376Y-49887933D01*
X17112066Y-50082623D01*
X17112072Y-50082628D01*
X17330521Y-50250249D01*
X17483778Y-50338732D01*
X17568971Y-50387919D01*
X17568976Y-50387921D01*
X17568979Y-50387923D01*
X17823368Y-50493295D01*
X18089334Y-50564560D01*
X18362326Y-50600500D01*
X18362333Y-50600500D01*
X18637667Y-50600500D01*
X18637674Y-50600500D01*
X18910666Y-50564560D01*
X19176632Y-50493295D01*
X19431021Y-50387923D01*
X19669479Y-50250249D01*
X19887928Y-50082628D01*
X20082628Y-49887928D01*
X20250249Y-49669479D01*
X20387923Y-49431021D01*
X20493295Y-49176632D01*
X20564560Y-48910666D01*
X20600500Y-48637674D01*
X20600500Y-48362326D01*
X20564560Y-48089334D01*
X20493295Y-47823368D01*
X20387923Y-47568979D01*
X20387921Y-47568976D01*
X20387919Y-47568971D01*
X20338732Y-47483778D01*
X20250249Y-47330521D01*
X20082628Y-47112072D01*
X20082623Y-47112066D01*
X19887933Y-46917376D01*
X19887926Y-46917370D01*
X19669483Y-46749754D01*
X19669482Y-46749753D01*
X19669479Y-46749751D01*
X19574407Y-46694861D01*
X19431028Y-46612080D01*
X19431017Y-46612075D01*
X19176630Y-46506704D01*
X19043649Y-46471072D01*
X18910666Y-46435440D01*
X18910660Y-46435439D01*
X18910655Y-46435438D01*
X18637684Y-46399501D01*
X18637679Y-46399500D01*
X18637674Y-46399500D01*
X18362326Y-46399500D01*
X18362320Y-46399500D01*
X18362315Y-46399501D01*
X18089344Y-46435438D01*
X18089337Y-46435439D01*
X18089334Y-46435440D01*
X18033125Y-46450500D01*
X17823369Y-46506704D01*
X17568982Y-46612075D01*
X17568971Y-46612080D01*
X17330516Y-46749754D01*
X17112073Y-46917370D01*
X17112066Y-46917376D01*
X16917376Y-47112066D01*
X16917370Y-47112073D01*
X16749756Y-47330513D01*
X16631887Y-47534667D01*
X16581320Y-47582882D01*
X16512712Y-47596104D01*
X16447848Y-47570136D01*
X16407320Y-47513222D01*
X16400500Y-47472666D01*
X16400500Y-44420943D01*
X30474500Y-44420943D01*
X30474500Y-44579056D01*
X30515423Y-44731783D01*
X30515426Y-44731790D01*
X30594475Y-44868709D01*
X30594479Y-44868714D01*
X30594480Y-44868716D01*
X30706284Y-44980520D01*
X30706286Y-44980521D01*
X30706290Y-44980524D01*
X30843209Y-45059573D01*
X30843216Y-45059577D01*
X30995943Y-45100500D01*
X30995945Y-45100500D01*
X31154055Y-45100500D01*
X31154057Y-45100500D01*
X31306784Y-45059577D01*
X31438000Y-44983819D01*
X31505901Y-44967347D01*
X31561999Y-44983819D01*
X31693216Y-45059577D01*
X31845943Y-45100500D01*
X31845945Y-45100500D01*
X32004055Y-45100500D01*
X32004057Y-45100500D01*
X32156784Y-45059577D01*
X32293716Y-44980520D01*
X32353293Y-44920943D01*
X40399500Y-44920943D01*
X40399500Y-45079057D01*
X40405246Y-45100499D01*
X40440423Y-45231783D01*
X40440426Y-45231790D01*
X40519475Y-45368709D01*
X40519479Y-45368714D01*
X40519480Y-45368716D01*
X40631284Y-45480520D01*
X40631286Y-45480521D01*
X40631290Y-45480524D01*
X40768209Y-45559573D01*
X40768216Y-45559577D01*
X40920943Y-45600500D01*
X40920945Y-45600500D01*
X41079055Y-45600500D01*
X41079057Y-45600500D01*
X41231784Y-45559577D01*
X41368716Y-45480520D01*
X41480520Y-45368716D01*
X41559577Y-45231784D01*
X41600500Y-45079057D01*
X41600500Y-44920943D01*
X41559577Y-44768216D01*
X41538543Y-44731783D01*
X41480524Y-44631290D01*
X41480518Y-44631282D01*
X41368717Y-44519481D01*
X41368709Y-44519475D01*
X41231790Y-44440426D01*
X41231786Y-44440424D01*
X41231784Y-44440423D01*
X41079057Y-44399500D01*
X40920943Y-44399500D01*
X40768216Y-44440423D01*
X40768209Y-44440426D01*
X40631290Y-44519475D01*
X40631282Y-44519481D01*
X40519481Y-44631282D01*
X40519475Y-44631290D01*
X40440426Y-44768209D01*
X40440423Y-44768216D01*
X40399500Y-44920943D01*
X32353293Y-44920943D01*
X32405520Y-44868716D01*
X32409352Y-44862078D01*
X32415855Y-44850816D01*
X32463547Y-44768209D01*
X32484577Y-44731784D01*
X32525500Y-44579057D01*
X32525500Y-44420943D01*
X32484577Y-44268216D01*
X32420981Y-44158063D01*
X32405524Y-44131290D01*
X32405518Y-44131282D01*
X32293717Y-44019481D01*
X32293709Y-44019475D01*
X32156790Y-43940426D01*
X32156786Y-43940424D01*
X32156784Y-43940423D01*
X32004057Y-43899500D01*
X31845943Y-43899500D01*
X31693216Y-43940423D01*
X31693215Y-43940423D01*
X31561999Y-44016180D01*
X31494099Y-44032652D01*
X31438001Y-44016180D01*
X31306784Y-43940423D01*
X31245593Y-43924027D01*
X31154057Y-43899500D01*
X30995943Y-43899500D01*
X30843216Y-43940423D01*
X30843209Y-43940426D01*
X30706290Y-44019475D01*
X30706282Y-44019481D01*
X30594481Y-44131282D01*
X30594475Y-44131290D01*
X30515426Y-44268209D01*
X30515423Y-44268216D01*
X30474500Y-44420943D01*
X16400500Y-44420943D01*
X16400500Y-43246179D01*
X36856649Y-43246179D01*
X36856649Y-43404293D01*
X36867760Y-43445758D01*
X36897572Y-43557019D01*
X36897575Y-43557026D01*
X36976624Y-43693945D01*
X36976628Y-43693950D01*
X36976629Y-43693952D01*
X37088433Y-43805756D01*
X37088435Y-43805757D01*
X37088439Y-43805760D01*
X37225358Y-43884809D01*
X37225365Y-43884813D01*
X37371719Y-43924028D01*
X37431378Y-43960392D01*
X37459398Y-44011706D01*
X37465011Y-44032652D01*
X37498614Y-44158063D01*
X37498617Y-44158068D01*
X37577666Y-44294987D01*
X37577670Y-44294992D01*
X37577671Y-44294994D01*
X37689475Y-44406798D01*
X37689477Y-44406799D01*
X37689481Y-44406802D01*
X37826400Y-44485851D01*
X37826407Y-44485855D01*
X37979134Y-44526778D01*
X37979136Y-44526778D01*
X38137246Y-44526778D01*
X38137248Y-44526778D01*
X38289975Y-44485855D01*
X38426907Y-44406798D01*
X38538711Y-44294994D01*
X38617768Y-44158062D01*
X38658691Y-44005335D01*
X38658691Y-43847221D01*
X38617768Y-43694494D01*
X38617451Y-43693945D01*
X38538715Y-43557568D01*
X38538709Y-43557560D01*
X38426908Y-43445759D01*
X38426900Y-43445753D01*
X38289981Y-43366704D01*
X38289976Y-43366701D01*
X38227820Y-43350046D01*
X38143619Y-43327485D01*
X38083961Y-43291121D01*
X38055941Y-43239806D01*
X38016726Y-43093452D01*
X38016722Y-43093445D01*
X37937673Y-42956526D01*
X37937667Y-42956518D01*
X37825866Y-42844717D01*
X37825858Y-42844711D01*
X37688939Y-42765662D01*
X37688935Y-42765660D01*
X37688933Y-42765659D01*
X37536206Y-42724736D01*
X37378092Y-42724736D01*
X37225365Y-42765659D01*
X37225358Y-42765662D01*
X37088439Y-42844711D01*
X37088431Y-42844717D01*
X36976630Y-42956518D01*
X36976624Y-42956526D01*
X36897575Y-43093445D01*
X36897572Y-43093452D01*
X36856649Y-43246179D01*
X16400500Y-43246179D01*
X16400500Y-31255131D01*
X25849500Y-31255131D01*
X25849500Y-33044856D01*
X25849502Y-33044882D01*
X25852413Y-33069987D01*
X25852415Y-33069991D01*
X25897793Y-33172764D01*
X25897794Y-33172765D01*
X25977235Y-33252206D01*
X26080009Y-33297585D01*
X26105135Y-33300500D01*
X26842873Y-33300499D01*
X26909910Y-33320183D01*
X26955665Y-33372987D01*
X26965609Y-33442146D01*
X26936584Y-33505702D01*
X26877806Y-33543476D01*
X26862270Y-33546972D01*
X26730589Y-33567829D01*
X26558363Y-33623787D01*
X26558360Y-33623788D01*
X26397002Y-33706006D01*
X26250505Y-33812441D01*
X26250500Y-33812445D01*
X26122445Y-33940500D01*
X26122441Y-33940505D01*
X26016006Y-34087002D01*
X25933788Y-34248360D01*
X25933787Y-34248363D01*
X25877829Y-34420589D01*
X25849500Y-34599448D01*
X25849500Y-34780551D01*
X25877829Y-34959410D01*
X25933787Y-35131636D01*
X25933788Y-35131639D01*
X25989664Y-35241300D01*
X26003375Y-35268209D01*
X26016006Y-35292997D01*
X26122441Y-35439494D01*
X26122445Y-35439499D01*
X26250500Y-35567554D01*
X26250505Y-35567558D01*
X26378287Y-35660396D01*
X26397006Y-35673996D01*
X26502484Y-35727740D01*
X26558360Y-35756211D01*
X26558363Y-35756212D01*
X26644476Y-35784191D01*
X26730591Y-35812171D01*
X26803639Y-35823740D01*
X26890678Y-35837527D01*
X26953813Y-35867456D01*
X26990744Y-35926768D01*
X26989746Y-35996631D01*
X26951136Y-36054863D01*
X26890678Y-36082473D01*
X26730589Y-36107829D01*
X26558363Y-36163787D01*
X26558360Y-36163788D01*
X26397002Y-36246006D01*
X26250505Y-36352441D01*
X26250500Y-36352445D01*
X26122445Y-36480500D01*
X26122441Y-36480505D01*
X26016006Y-36627002D01*
X25933788Y-36788360D01*
X25933787Y-36788363D01*
X25877829Y-36960589D01*
X25849500Y-37139448D01*
X25849500Y-37320551D01*
X25877829Y-37499410D01*
X25933787Y-37671636D01*
X25933788Y-37671639D01*
X26016006Y-37832997D01*
X26122441Y-37979494D01*
X26122445Y-37979499D01*
X26250500Y-38107554D01*
X26250505Y-38107558D01*
X26378287Y-38200396D01*
X26397006Y-38213996D01*
X26502484Y-38267740D01*
X26558360Y-38296211D01*
X26558363Y-38296212D01*
X26644476Y-38324191D01*
X26730591Y-38352171D01*
X26803639Y-38363740D01*
X26890678Y-38377527D01*
X26953813Y-38407456D01*
X26990744Y-38466768D01*
X26989746Y-38536631D01*
X26951136Y-38594863D01*
X26890678Y-38622473D01*
X26730589Y-38647829D01*
X26558363Y-38703787D01*
X26558360Y-38703788D01*
X26397002Y-38786006D01*
X26250505Y-38892441D01*
X26250500Y-38892445D01*
X26122445Y-39020500D01*
X26122441Y-39020505D01*
X26016006Y-39167002D01*
X25933788Y-39328360D01*
X25933787Y-39328363D01*
X25877829Y-39500589D01*
X25849500Y-39679448D01*
X25849500Y-39860551D01*
X25877829Y-40039410D01*
X25933787Y-40211636D01*
X25933788Y-40211639D01*
X26016006Y-40372997D01*
X26122441Y-40519494D01*
X26122445Y-40519499D01*
X26250500Y-40647554D01*
X26250505Y-40647558D01*
X26378287Y-40740396D01*
X26397006Y-40753996D01*
X26502484Y-40807740D01*
X26558360Y-40836211D01*
X26558363Y-40836212D01*
X26644476Y-40864191D01*
X26730591Y-40892171D01*
X26813429Y-40905291D01*
X26909449Y-40920500D01*
X26909454Y-40920500D01*
X27090551Y-40920500D01*
X27177259Y-40906765D01*
X27269409Y-40892171D01*
X27441639Y-40836211D01*
X27602994Y-40753996D01*
X27749501Y-40647553D01*
X27877553Y-40519501D01*
X27983996Y-40372994D01*
X28066211Y-40211639D01*
X28122171Y-40039409D01*
X28136765Y-39947259D01*
X28150500Y-39860551D01*
X28150500Y-39679448D01*
X28132963Y-39568730D01*
X28122171Y-39500591D01*
X28066211Y-39328361D01*
X28066211Y-39328360D01*
X27984803Y-39168590D01*
X27984802Y-39168588D01*
X27983995Y-39167004D01*
X27950151Y-39120422D01*
X35098979Y-39120422D01*
X35098979Y-39278536D01*
X35112330Y-39328360D01*
X35139902Y-39431262D01*
X35139905Y-39431269D01*
X35218954Y-39568188D01*
X35218958Y-39568193D01*
X35218959Y-39568195D01*
X35330763Y-39679999D01*
X35330765Y-39680000D01*
X35330769Y-39680003D01*
X35467688Y-39759052D01*
X35467695Y-39759056D01*
X35614049Y-39798271D01*
X35673708Y-39834635D01*
X35701729Y-39885951D01*
X35740944Y-40032306D01*
X35740947Y-40032311D01*
X35819996Y-40169230D01*
X35820000Y-40169235D01*
X35820001Y-40169237D01*
X35931805Y-40281041D01*
X35931807Y-40281042D01*
X35931811Y-40281045D01*
X36068730Y-40360094D01*
X36068737Y-40360098D01*
X36221464Y-40401021D01*
X36221466Y-40401021D01*
X36379576Y-40401021D01*
X36379578Y-40401021D01*
X36532305Y-40360098D01*
X36669237Y-40281041D01*
X36781041Y-40169237D01*
X36860098Y-40032305D01*
X36901021Y-39879578D01*
X36901021Y-39721464D01*
X36860098Y-39568737D01*
X36859781Y-39568188D01*
X36781045Y-39431811D01*
X36781039Y-39431803D01*
X36669238Y-39320002D01*
X36669230Y-39319996D01*
X36532311Y-39240947D01*
X36532306Y-39240944D01*
X36470150Y-39224289D01*
X36385949Y-39201728D01*
X36326291Y-39165364D01*
X36298271Y-39114049D01*
X36259056Y-38967695D01*
X36215611Y-38892445D01*
X36180003Y-38830769D01*
X36179997Y-38830761D01*
X36068196Y-38718960D01*
X36068188Y-38718954D01*
X35931269Y-38639905D01*
X35931265Y-38639903D01*
X35931263Y-38639902D01*
X35778536Y-38598979D01*
X35620422Y-38598979D01*
X35467695Y-38639902D01*
X35467688Y-38639905D01*
X35330769Y-38718954D01*
X35330761Y-38718960D01*
X35218960Y-38830761D01*
X35218954Y-38830769D01*
X35139905Y-38967688D01*
X35139902Y-38967695D01*
X35098979Y-39120422D01*
X27950151Y-39120422D01*
X27877558Y-39020505D01*
X27877554Y-39020500D01*
X27749499Y-38892445D01*
X27749494Y-38892441D01*
X27602997Y-38786006D01*
X27602996Y-38786005D01*
X27602994Y-38786004D01*
X27551300Y-38759664D01*
X27441639Y-38703788D01*
X27441636Y-38703787D01*
X27269410Y-38647829D01*
X27109321Y-38622473D01*
X27046186Y-38592544D01*
X27009255Y-38533232D01*
X27010253Y-38463370D01*
X27048863Y-38405137D01*
X27109321Y-38377527D01*
X27179425Y-38366422D01*
X27269409Y-38352171D01*
X27441639Y-38296211D01*
X27602994Y-38213996D01*
X27749501Y-38107553D01*
X27877553Y-37979501D01*
X27983996Y-37832994D01*
X28066211Y-37671639D01*
X28122171Y-37499409D01*
X28136765Y-37407259D01*
X28150500Y-37320551D01*
X28150500Y-37139448D01*
X28134019Y-37035397D01*
X28122171Y-36960591D01*
X28066211Y-36788361D01*
X28066211Y-36788360D01*
X28037740Y-36732484D01*
X27983996Y-36627006D01*
X27970396Y-36608287D01*
X27877558Y-36480505D01*
X27877554Y-36480500D01*
X27749499Y-36352445D01*
X27749494Y-36352441D01*
X27602997Y-36246006D01*
X27602996Y-36246005D01*
X27602994Y-36246004D01*
X27551300Y-36219664D01*
X27441639Y-36163788D01*
X27441636Y-36163787D01*
X27269410Y-36107829D01*
X27109321Y-36082473D01*
X27046186Y-36052544D01*
X27009255Y-35993232D01*
X27010253Y-35923370D01*
X27048863Y-35865137D01*
X27109321Y-35837527D01*
X27179425Y-35826422D01*
X27269409Y-35812171D01*
X27441639Y-35756211D01*
X27602994Y-35673996D01*
X27749501Y-35567553D01*
X27877553Y-35439501D01*
X27891036Y-35420943D01*
X38649500Y-35420943D01*
X38649500Y-35579056D01*
X38690423Y-35731783D01*
X38690426Y-35731790D01*
X38769475Y-35868709D01*
X38769479Y-35868714D01*
X38769480Y-35868716D01*
X38881284Y-35980520D01*
X38881286Y-35980521D01*
X38881290Y-35980524D01*
X38909189Y-35996631D01*
X39018216Y-36059577D01*
X39170943Y-36100500D01*
X39170945Y-36100500D01*
X39329055Y-36100500D01*
X39329057Y-36100500D01*
X39481784Y-36059577D01*
X39618716Y-35980520D01*
X39730520Y-35868716D01*
X39809577Y-35731784D01*
X39850500Y-35579057D01*
X39850500Y-35420943D01*
X41174500Y-35420943D01*
X41174500Y-35579056D01*
X41215423Y-35731783D01*
X41215426Y-35731790D01*
X41294475Y-35868709D01*
X41294479Y-35868714D01*
X41294480Y-35868716D01*
X41406284Y-35980520D01*
X41406286Y-35980521D01*
X41406290Y-35980524D01*
X41434189Y-35996631D01*
X41543216Y-36059577D01*
X41695943Y-36100500D01*
X41695945Y-36100500D01*
X41854055Y-36100500D01*
X41854057Y-36100500D01*
X42006784Y-36059577D01*
X42143716Y-35980520D01*
X42255520Y-35868716D01*
X42334577Y-35731784D01*
X42375500Y-35579057D01*
X42375500Y-35420943D01*
X42334577Y-35268216D01*
X42255725Y-35131639D01*
X42255524Y-35131290D01*
X42255518Y-35131282D01*
X42143717Y-35019481D01*
X42143709Y-35019475D01*
X42006790Y-34940426D01*
X42006786Y-34940424D01*
X42006784Y-34940423D01*
X41854057Y-34899500D01*
X41695943Y-34899500D01*
X41543216Y-34940423D01*
X41543209Y-34940426D01*
X41406290Y-35019475D01*
X41406282Y-35019481D01*
X41294481Y-35131282D01*
X41294475Y-35131290D01*
X41215426Y-35268209D01*
X41215423Y-35268216D01*
X41174500Y-35420943D01*
X39850500Y-35420943D01*
X39809577Y-35268216D01*
X39730725Y-35131639D01*
X39730524Y-35131290D01*
X39730518Y-35131282D01*
X39618717Y-35019481D01*
X39618709Y-35019475D01*
X39481790Y-34940426D01*
X39481786Y-34940424D01*
X39481784Y-34940423D01*
X39329057Y-34899500D01*
X39170943Y-34899500D01*
X39018216Y-34940423D01*
X39018209Y-34940426D01*
X38881290Y-35019475D01*
X38881282Y-35019481D01*
X38769481Y-35131282D01*
X38769475Y-35131290D01*
X38690426Y-35268209D01*
X38690423Y-35268216D01*
X38649500Y-35420943D01*
X27891036Y-35420943D01*
X27983996Y-35292994D01*
X28066211Y-35131639D01*
X28122171Y-34959409D01*
X28136765Y-34867259D01*
X28150500Y-34780551D01*
X28150500Y-34599448D01*
X28124012Y-34432214D01*
X28123766Y-34430662D01*
X28122227Y-34420943D01*
X49399500Y-34420943D01*
X49399500Y-34579057D01*
X49404966Y-34599454D01*
X49440423Y-34731783D01*
X49440426Y-34731790D01*
X49519475Y-34868709D01*
X49519479Y-34868714D01*
X49519480Y-34868716D01*
X49631284Y-34980520D01*
X49631286Y-34980521D01*
X49631290Y-34980524D01*
X49698765Y-35019480D01*
X49768216Y-35059577D01*
X49920943Y-35100500D01*
X49920945Y-35100500D01*
X50079055Y-35100500D01*
X50079057Y-35100500D01*
X50231784Y-35059577D01*
X50368716Y-34980520D01*
X50480520Y-34868716D01*
X50559577Y-34731784D01*
X50600500Y-34579057D01*
X50600500Y-34420943D01*
X50559577Y-34268216D01*
X50548113Y-34248360D01*
X50480524Y-34131290D01*
X50480518Y-34131282D01*
X50368717Y-34019481D01*
X50368709Y-34019475D01*
X50231790Y-33940426D01*
X50231786Y-33940424D01*
X50231784Y-33940423D01*
X50079057Y-33899500D01*
X49920943Y-33899500D01*
X49768216Y-33940423D01*
X49768209Y-33940426D01*
X49631290Y-34019475D01*
X49631282Y-34019481D01*
X49519481Y-34131282D01*
X49519475Y-34131290D01*
X49440426Y-34268209D01*
X49440423Y-34268216D01*
X49399500Y-34420943D01*
X28122227Y-34420943D01*
X28122171Y-34420591D01*
X28066211Y-34248361D01*
X28066211Y-34248360D01*
X28037740Y-34192484D01*
X27983996Y-34087006D01*
X27970396Y-34068287D01*
X27877558Y-33940505D01*
X27877554Y-33940500D01*
X27749499Y-33812445D01*
X27749494Y-33812441D01*
X27602997Y-33706006D01*
X27602996Y-33706005D01*
X27602994Y-33706004D01*
X27551300Y-33679664D01*
X27441639Y-33623788D01*
X27441636Y-33623787D01*
X27269410Y-33567829D01*
X27137728Y-33546972D01*
X27074594Y-33517042D01*
X27037663Y-33457731D01*
X27038661Y-33387868D01*
X27077271Y-33329636D01*
X27141235Y-33301522D01*
X27157120Y-33300499D01*
X27894864Y-33300499D01*
X27894879Y-33300497D01*
X27894882Y-33300497D01*
X27919987Y-33297586D01*
X27919988Y-33297585D01*
X27919991Y-33297585D01*
X28022765Y-33252206D01*
X28102206Y-33172765D01*
X28147585Y-33069991D01*
X28150500Y-33044865D01*
X28150499Y-31270943D01*
X39149500Y-31270943D01*
X39149500Y-31429056D01*
X39190423Y-31581783D01*
X39190426Y-31581790D01*
X39269475Y-31718709D01*
X39269479Y-31718714D01*
X39269480Y-31718716D01*
X39381284Y-31830520D01*
X39381286Y-31830521D01*
X39381290Y-31830524D01*
X39518209Y-31909573D01*
X39518216Y-31909577D01*
X39670943Y-31950500D01*
X39670945Y-31950500D01*
X39829055Y-31950500D01*
X39829057Y-31950500D01*
X39981784Y-31909577D01*
X40118716Y-31830520D01*
X40230520Y-31718716D01*
X40309577Y-31581784D01*
X40350500Y-31429057D01*
X40350500Y-31270943D01*
X40309577Y-31118216D01*
X40309573Y-31118209D01*
X40230524Y-30981290D01*
X40230518Y-30981282D01*
X40118717Y-30869481D01*
X40118709Y-30869475D01*
X39981790Y-30790426D01*
X39981786Y-30790424D01*
X39981784Y-30790423D01*
X39829057Y-30749500D01*
X39670943Y-30749500D01*
X39518216Y-30790423D01*
X39518209Y-30790426D01*
X39381290Y-30869475D01*
X39381282Y-30869481D01*
X39269481Y-30981282D01*
X39269475Y-30981290D01*
X39190426Y-31118209D01*
X39190423Y-31118216D01*
X39149500Y-31270943D01*
X28150499Y-31270943D01*
X28150499Y-31255136D01*
X28150497Y-31255117D01*
X28147586Y-31230012D01*
X28147585Y-31230010D01*
X28147585Y-31230009D01*
X28102206Y-31127235D01*
X28022765Y-31047794D01*
X28022763Y-31047793D01*
X27919992Y-31002415D01*
X27894865Y-30999500D01*
X26105143Y-30999500D01*
X26105117Y-30999502D01*
X26080012Y-31002413D01*
X26080008Y-31002415D01*
X25977235Y-31047793D01*
X25897794Y-31127234D01*
X25852415Y-31230006D01*
X25852415Y-31230008D01*
X25849500Y-31255131D01*
X16400500Y-31255131D01*
X16400500Y-27027333D01*
X16420185Y-26960294D01*
X16472989Y-26914539D01*
X16542147Y-26904595D01*
X16605703Y-26933620D01*
X16631887Y-26965333D01*
X16749751Y-27169479D01*
X16749753Y-27169482D01*
X16749754Y-27169483D01*
X16917370Y-27387926D01*
X16917376Y-27387933D01*
X17112066Y-27582623D01*
X17112072Y-27582628D01*
X17330521Y-27750249D01*
X17483778Y-27838732D01*
X17568971Y-27887919D01*
X17568976Y-27887921D01*
X17568979Y-27887923D01*
X17823368Y-27993295D01*
X18089334Y-28064560D01*
X18362326Y-28100500D01*
X18362333Y-28100500D01*
X18637667Y-28100500D01*
X18637674Y-28100500D01*
X18910666Y-28064560D01*
X19176632Y-27993295D01*
X19351304Y-27920943D01*
X44899500Y-27920943D01*
X44899500Y-28079056D01*
X44940423Y-28231783D01*
X44940426Y-28231790D01*
X45019475Y-28368709D01*
X45019479Y-28368714D01*
X45019480Y-28368716D01*
X45131284Y-28480520D01*
X45131286Y-28480521D01*
X45131290Y-28480524D01*
X45268209Y-28559573D01*
X45268216Y-28559577D01*
X45420943Y-28600500D01*
X45420945Y-28600500D01*
X45579055Y-28600500D01*
X45579057Y-28600500D01*
X45731784Y-28559577D01*
X45868716Y-28480520D01*
X45980520Y-28368716D01*
X46059577Y-28231784D01*
X46100500Y-28079057D01*
X46100500Y-27920943D01*
X46059577Y-27768216D01*
X46049202Y-27750245D01*
X45980524Y-27631290D01*
X45980518Y-27631282D01*
X45868717Y-27519481D01*
X45868709Y-27519475D01*
X45731790Y-27440426D01*
X45731786Y-27440424D01*
X45731784Y-27440423D01*
X45579057Y-27399500D01*
X45420943Y-27399500D01*
X45268216Y-27440423D01*
X45268209Y-27440426D01*
X45131290Y-27519475D01*
X45131282Y-27519481D01*
X45019481Y-27631282D01*
X45019475Y-27631290D01*
X44940426Y-27768209D01*
X44940423Y-27768216D01*
X44899500Y-27920943D01*
X19351304Y-27920943D01*
X19431021Y-27887923D01*
X19669479Y-27750249D01*
X19887928Y-27582628D01*
X20082628Y-27387928D01*
X20250249Y-27169479D01*
X20387923Y-26931021D01*
X20493295Y-26676632D01*
X20564560Y-26410666D01*
X20600500Y-26137674D01*
X20600500Y-25862326D01*
X20564560Y-25589334D01*
X20493295Y-25323368D01*
X20387923Y-25068979D01*
X20387921Y-25068976D01*
X20387919Y-25068971D01*
X20338732Y-24983778D01*
X20250249Y-24830521D01*
X20082628Y-24612072D01*
X20082623Y-24612066D01*
X19887933Y-24417376D01*
X19887926Y-24417370D01*
X19669483Y-24249754D01*
X19669482Y-24249753D01*
X19669479Y-24249751D01*
X19530013Y-24169230D01*
X19431028Y-24112080D01*
X19431017Y-24112075D01*
X19176630Y-24006704D01*
X19043649Y-23971072D01*
X18910666Y-23935440D01*
X18910660Y-23935439D01*
X18910655Y-23935438D01*
X18637684Y-23899501D01*
X18637679Y-23899500D01*
X18637674Y-23899500D01*
X18362326Y-23899500D01*
X18362320Y-23899500D01*
X18362315Y-23899501D01*
X18089344Y-23935438D01*
X18089337Y-23935439D01*
X18089334Y-23935440D01*
X18033125Y-23950500D01*
X17823369Y-24006704D01*
X17568982Y-24112075D01*
X17568971Y-24112080D01*
X17330516Y-24249754D01*
X17112073Y-24417370D01*
X17112066Y-24417376D01*
X16917376Y-24612066D01*
X16917370Y-24612073D01*
X16749756Y-24830513D01*
X16631887Y-25034667D01*
X16581320Y-25082882D01*
X16512712Y-25096104D01*
X16447848Y-25070136D01*
X16407320Y-25013222D01*
X16400500Y-24972666D01*
X16400500Y-23120422D01*
X31598979Y-23120422D01*
X31598979Y-23278536D01*
X31610090Y-23320001D01*
X31639902Y-23431262D01*
X31639905Y-23431269D01*
X31718954Y-23568188D01*
X31718958Y-23568193D01*
X31718959Y-23568195D01*
X31830763Y-23679999D01*
X31830765Y-23680000D01*
X31830769Y-23680003D01*
X31967688Y-23759052D01*
X31967695Y-23759056D01*
X32114049Y-23798271D01*
X32173708Y-23834635D01*
X32201728Y-23885949D01*
X32224289Y-23970150D01*
X32240944Y-24032306D01*
X32240947Y-24032311D01*
X32319996Y-24169230D01*
X32320000Y-24169235D01*
X32320001Y-24169237D01*
X32431805Y-24281041D01*
X32431807Y-24281042D01*
X32431811Y-24281045D01*
X32568730Y-24360094D01*
X32568737Y-24360098D01*
X32721464Y-24401021D01*
X32721466Y-24401021D01*
X32879576Y-24401021D01*
X32879578Y-24401021D01*
X33032305Y-24360098D01*
X33169237Y-24281041D01*
X33281041Y-24169237D01*
X33360098Y-24032305D01*
X33401021Y-23879578D01*
X33401021Y-23721464D01*
X33360098Y-23568737D01*
X33309169Y-23480524D01*
X33281045Y-23431811D01*
X33281039Y-23431803D01*
X33169238Y-23320002D01*
X33169230Y-23319996D01*
X33032311Y-23240947D01*
X33032306Y-23240944D01*
X32970150Y-23224289D01*
X32885949Y-23201728D01*
X32876333Y-23195866D01*
X32865207Y-23194133D01*
X32847035Y-23178008D01*
X32826291Y-23165364D01*
X32820014Y-23154030D01*
X32812946Y-23147759D01*
X32799744Y-23117433D01*
X32798664Y-23115483D01*
X32798481Y-23114832D01*
X32759056Y-22967695D01*
X32755356Y-22961287D01*
X32755356Y-22961285D01*
X32732065Y-22920943D01*
X46899500Y-22920943D01*
X46899500Y-23079057D01*
X46930335Y-23194133D01*
X46940423Y-23231783D01*
X46940426Y-23231790D01*
X47019475Y-23368709D01*
X47019479Y-23368714D01*
X47019480Y-23368716D01*
X47131284Y-23480520D01*
X47131286Y-23480521D01*
X47131290Y-23480524D01*
X47268209Y-23559573D01*
X47268216Y-23559577D01*
X47420943Y-23600500D01*
X47420945Y-23600500D01*
X47579055Y-23600500D01*
X47579057Y-23600500D01*
X47731784Y-23559577D01*
X47868716Y-23480520D01*
X47980520Y-23368716D01*
X48059577Y-23231784D01*
X48100500Y-23079057D01*
X48100500Y-22920943D01*
X48059577Y-22768216D01*
X48059573Y-22768209D01*
X47980524Y-22631290D01*
X47980518Y-22631282D01*
X47868717Y-22519481D01*
X47868709Y-22519475D01*
X47731790Y-22440426D01*
X47731786Y-22440424D01*
X47731784Y-22440423D01*
X47579057Y-22399500D01*
X47420943Y-22399500D01*
X47268216Y-22440423D01*
X47268209Y-22440426D01*
X47131290Y-22519475D01*
X47131282Y-22519481D01*
X47019481Y-22631282D01*
X47019475Y-22631290D01*
X46940426Y-22768209D01*
X46940423Y-22768216D01*
X46899500Y-22920943D01*
X32732065Y-22920943D01*
X32680003Y-22830769D01*
X32679997Y-22830761D01*
X32568196Y-22718960D01*
X32568188Y-22718954D01*
X32431269Y-22639905D01*
X32431265Y-22639903D01*
X32431263Y-22639902D01*
X32278536Y-22598979D01*
X32120422Y-22598979D01*
X31967695Y-22639902D01*
X31967688Y-22639905D01*
X31830769Y-22718954D01*
X31830761Y-22718960D01*
X31718960Y-22830761D01*
X31718954Y-22830769D01*
X31639905Y-22967688D01*
X31639902Y-22967695D01*
X31598979Y-23120422D01*
X16400500Y-23120422D01*
X16400500Y-21170943D01*
X30149500Y-21170943D01*
X30149500Y-21329056D01*
X30190423Y-21481783D01*
X30190426Y-21481790D01*
X30269475Y-21618709D01*
X30269479Y-21618714D01*
X30269480Y-21618716D01*
X30381284Y-21730520D01*
X30381286Y-21730521D01*
X30381290Y-21730524D01*
X30518209Y-21809573D01*
X30518216Y-21809577D01*
X30670943Y-21850500D01*
X30670945Y-21850500D01*
X30829055Y-21850500D01*
X30829057Y-21850500D01*
X30981784Y-21809577D01*
X31118716Y-21730520D01*
X31230520Y-21618716D01*
X31309577Y-21481784D01*
X31350500Y-21329057D01*
X31350500Y-21170943D01*
X31309577Y-21018216D01*
X31287816Y-20980524D01*
X31230524Y-20881290D01*
X31230518Y-20881282D01*
X31118717Y-20769481D01*
X31118709Y-20769475D01*
X30981790Y-20690426D01*
X30981786Y-20690424D01*
X30981784Y-20690423D01*
X30829057Y-20649500D01*
X30670943Y-20649500D01*
X30518216Y-20690423D01*
X30518209Y-20690426D01*
X30381290Y-20769475D01*
X30381282Y-20769481D01*
X30269481Y-20881282D01*
X30269475Y-20881290D01*
X30190426Y-21018209D01*
X30190423Y-21018216D01*
X30149500Y-21170943D01*
X16400500Y-21170943D01*
X16400500Y-20420943D01*
X38049500Y-20420943D01*
X38049500Y-20579057D01*
X38079341Y-20690423D01*
X38090423Y-20731783D01*
X38090426Y-20731790D01*
X38169475Y-20868709D01*
X38169479Y-20868714D01*
X38169480Y-20868716D01*
X38281284Y-20980520D01*
X38281286Y-20980521D01*
X38281290Y-20980524D01*
X38418209Y-21059573D01*
X38418216Y-21059577D01*
X38570943Y-21100500D01*
X38570945Y-21100500D01*
X38729055Y-21100500D01*
X38729057Y-21100500D01*
X38881784Y-21059577D01*
X39018716Y-20980520D01*
X39130520Y-20868716D01*
X39209577Y-20731784D01*
X39250500Y-20579057D01*
X39250500Y-20420943D01*
X39209577Y-20268216D01*
X39209573Y-20268209D01*
X39130524Y-20131290D01*
X39130518Y-20131282D01*
X39018717Y-20019481D01*
X39018709Y-20019475D01*
X38881790Y-19940426D01*
X38881786Y-19940424D01*
X38881784Y-19940423D01*
X38729057Y-19899500D01*
X38570943Y-19899500D01*
X38418216Y-19940423D01*
X38418209Y-19940426D01*
X38281290Y-20019475D01*
X38281282Y-20019481D01*
X38169481Y-20131282D01*
X38169475Y-20131290D01*
X38090426Y-20268209D01*
X38090423Y-20268216D01*
X38049500Y-20420943D01*
X16400500Y-20420943D01*
X16400500Y-18688096D01*
X16400500Y-18677239D01*
X16401180Y-18674820D01*
X16400504Y-18620231D01*
X16400505Y-18619486D01*
X16400544Y-18619352D01*
X16400649Y-18613517D01*
X16412988Y-18359005D01*
X16414628Y-18344055D01*
X16457098Y-18096673D01*
X16460537Y-18082039D01*
X16532696Y-17841639D01*
X16537891Y-17827513D01*
X16638673Y-17597642D01*
X16645542Y-17584252D01*
X16773466Y-17368291D01*
X16781894Y-17355855D01*
X16935071Y-17156997D01*
X16944964Y-17145655D01*
X16958112Y-17132310D01*
X17121103Y-16966871D01*
X17132298Y-16956809D01*
X17328834Y-16800696D01*
X17341163Y-16792070D01*
X17555185Y-16660946D01*
X17568475Y-16653876D01*
X17796816Y-16549678D01*
X17810863Y-16544274D01*
X18050149Y-16468543D01*
X18064740Y-16464883D01*
X18311472Y-16418727D01*
X18326394Y-16416865D01*
X18573686Y-16401180D01*
X18580481Y-16400749D01*
X18588330Y-16400500D01*
X52311917Y-16400500D01*
X52322765Y-16400500D01*
X52325188Y-16401180D01*
G37*
%TD.AperFunction*%
%TD*%
M02*
