%TF.GenerationSoftware,KiCad,Pcbnew,9.0.6*%
%TF.CreationDate,2026-01-19T07:30:14+01:00*%
%TF.ProjectId,Lumiere,4c756d69-6572-4652-9e6b-696361645f70,rev?*%
%TF.SameCoordinates,Original*%
%TF.FileFunction,Copper,L2,Bot*%
%TF.FilePolarity,Positive*%
%FSLAX46Y46*%
G04 Gerber Fmt 4.6, Leading zero omitted, Abs format (unit mm)*
G04 Created by KiCad (PCBNEW 9.0.6) date 2026-01-19 07:30:14*
%MOMM*%
%LPD*%
G01*
G04 APERTURE LIST*
G04 Aperture macros list*
%AMRoundRect*
0 Rectangle with rounded corners*
0 $1 Rounding radius*
0 $2 $3 $4 $5 $6 $7 $8 $9 X,Y pos of 4 corners*
0 Add a 4 corners polygon primitive as box body*
4,1,4,$2,$3,$4,$5,$6,$7,$8,$9,$2,$3,0*
0 Add four circle primitives for the rounded corners*
1,1,$1+$1,$2,$3*
1,1,$1+$1,$4,$5*
1,1,$1+$1,$6,$7*
1,1,$1+$1,$8,$9*
0 Add four rect primitives between the rounded corners*
20,1,$1+$1,$2,$3,$4,$5,0*
20,1,$1+$1,$4,$5,$6,$7,0*
20,1,$1+$1,$6,$7,$8,$9,0*
20,1,$1+$1,$8,$9,$2,$3,0*%
G04 Aperture macros list end*
%ADD10C,0.200000*%
%TA.AperFunction,ComponentPad*%
%ADD11RoundRect,0.250000X-0.550000X-0.550000X0.550000X-0.550000X0.550000X0.550000X-0.550000X0.550000X0*%
%TD*%
%TA.AperFunction,ComponentPad*%
%ADD12C,1.600000*%
%TD*%
%TA.AperFunction,ComponentPad*%
%ADD13R,2.000000X2.000000*%
%TD*%
%TA.AperFunction,ComponentPad*%
%ADD14R,1.700000X1.700000*%
%TD*%
%TA.AperFunction,ComponentPad*%
%ADD15R,1.100000X1.100000*%
%TD*%
%TA.AperFunction,ComponentPad*%
%ADD16C,1.100000*%
%TD*%
%TA.AperFunction,ComponentPad*%
%ADD17RoundRect,0.250000X-0.600000X-0.750000X0.600000X-0.750000X0.600000X0.750000X-0.600000X0.750000X0*%
%TD*%
%TA.AperFunction,ComponentPad*%
%ADD18O,1.700000X2.000000*%
%TD*%
%TA.AperFunction,ComponentPad*%
%ADD19C,1.150000*%
%TD*%
%TA.AperFunction,SMDPad,CuDef*%
%ADD20RoundRect,0.250000X-0.450000X0.350000X-0.450000X-0.350000X0.450000X-0.350000X0.450000X0.350000X0*%
%TD*%
%TA.AperFunction,ViaPad*%
%ADD21C,0.600000*%
%TD*%
%TA.AperFunction,ViaPad*%
%ADD22C,1.200000*%
%TD*%
%TA.AperFunction,Conductor*%
%ADD23C,0.400000*%
%TD*%
%TA.AperFunction,Conductor*%
%ADD24C,0.250000*%
%TD*%
G04 APERTURE END LIST*
D10*
G36*
X52028194Y-28414091D02*
G01*
X52052863Y-28438759D01*
X52082668Y-28498369D01*
X52082668Y-28755714D01*
X51758859Y-28755714D01*
X51758859Y-28498369D01*
X51788664Y-28438759D01*
X51813332Y-28414090D01*
X51872942Y-28384286D01*
X51968585Y-28384286D01*
X52028194Y-28414091D01*
G37*
G36*
X50347343Y-28188160D02*
G01*
X50418250Y-28223614D01*
X50442919Y-28248282D01*
X50472724Y-28307892D01*
X50472724Y-28355916D01*
X50442919Y-28415525D01*
X50418250Y-28440193D01*
X50347343Y-28475647D01*
X50179462Y-28517618D01*
X49965986Y-28517618D01*
X49798105Y-28475647D01*
X49727198Y-28440194D01*
X49702527Y-28415523D01*
X49672724Y-28355916D01*
X49672724Y-28307891D01*
X49702527Y-28248284D01*
X49727198Y-28223613D01*
X49798105Y-28188160D01*
X49965986Y-28146190D01*
X50179462Y-28146190D01*
X50347343Y-28188160D01*
G37*
G36*
X52028194Y-27414091D02*
G01*
X52052863Y-27438759D01*
X52082668Y-27498369D01*
X52082668Y-27755714D01*
X51758859Y-27755714D01*
X51758859Y-27498369D01*
X51788664Y-27438759D01*
X51813332Y-27414090D01*
X51872942Y-27384286D01*
X51968585Y-27384286D01*
X52028194Y-27414091D01*
G37*
G36*
X51988685Y-26374582D02*
G01*
X52052864Y-26438761D01*
X52082668Y-26498369D01*
X52082668Y-26641631D01*
X52052864Y-26701239D01*
X51988685Y-26765418D01*
X51837025Y-26803333D01*
X51528311Y-26803333D01*
X51376652Y-26765418D01*
X51312471Y-26701237D01*
X51282668Y-26641631D01*
X51282668Y-26498368D01*
X51312471Y-26438762D01*
X51376652Y-26374581D01*
X51528311Y-26336667D01*
X51837025Y-26336667D01*
X51988685Y-26374582D01*
G37*
G36*
X48808306Y-24961709D02*
G01*
X48832975Y-24986377D01*
X48862780Y-25045987D01*
X48862780Y-25303332D01*
X48538971Y-25303332D01*
X48538971Y-25045987D01*
X48568776Y-24986377D01*
X48593444Y-24961708D01*
X48653054Y-24931904D01*
X48748697Y-24931904D01*
X48808306Y-24961709D01*
G37*
G36*
X50347343Y-21616731D02*
G01*
X50418250Y-21652185D01*
X50442919Y-21676853D01*
X50472724Y-21736463D01*
X50472724Y-21784487D01*
X50442919Y-21844096D01*
X50418250Y-21868764D01*
X50347343Y-21904218D01*
X50179462Y-21946189D01*
X49965986Y-21946189D01*
X49798105Y-21904218D01*
X49727198Y-21868765D01*
X49702527Y-21844094D01*
X49672724Y-21784487D01*
X49672724Y-21736462D01*
X49702527Y-21676855D01*
X49727198Y-21652184D01*
X49798105Y-21616731D01*
X49965986Y-21574761D01*
X50179462Y-21574761D01*
X50347343Y-21616731D01*
G37*
G36*
X50037298Y-19699804D02*
G01*
X50061967Y-19724472D01*
X50091772Y-19784082D01*
X50091772Y-19927344D01*
X50061967Y-19986953D01*
X50037298Y-20011621D01*
X49977689Y-20041427D01*
X49786808Y-20041427D01*
X49727198Y-20011622D01*
X49702527Y-19986951D01*
X49672724Y-19927344D01*
X49672724Y-19784081D01*
X49702527Y-19724474D01*
X49727198Y-19699803D01*
X49786808Y-19669999D01*
X49977689Y-19669999D01*
X50037298Y-19699804D01*
G37*
G36*
X52393779Y-29826808D02*
G01*
X47751669Y-29826808D01*
X47751669Y-28998571D01*
X49472724Y-28998571D01*
X49472724Y-29617618D01*
X49474645Y-29637127D01*
X49489577Y-29673175D01*
X49517167Y-29700765D01*
X49553215Y-29715697D01*
X49592233Y-29715697D01*
X49628281Y-29700765D01*
X49643435Y-29688329D01*
X50198172Y-29133592D01*
X50303236Y-29098571D01*
X50358641Y-29098571D01*
X50418250Y-29128376D01*
X50442919Y-29153044D01*
X50472724Y-29212654D01*
X50472724Y-29403535D01*
X50442919Y-29463144D01*
X50406775Y-29499288D01*
X50394339Y-29514442D01*
X50379407Y-29550490D01*
X50379407Y-29589508D01*
X50394339Y-29625556D01*
X50421929Y-29653146D01*
X50457977Y-29668078D01*
X50496995Y-29668078D01*
X50533043Y-29653146D01*
X50548197Y-29640710D01*
X50595815Y-29593091D01*
X50602107Y-29585424D01*
X50604105Y-29583692D01*
X50605998Y-29580683D01*
X50608252Y-29577938D01*
X50609262Y-29575497D01*
X50614548Y-29567101D01*
X50662167Y-29471864D01*
X50669173Y-29453555D01*
X50669427Y-29449971D01*
X50670803Y-29446651D01*
X50672724Y-29427142D01*
X50672724Y-29189047D01*
X50670803Y-29169538D01*
X50669427Y-29166217D01*
X50669173Y-29162634D01*
X50662167Y-29144325D01*
X50614548Y-29049088D01*
X50609262Y-29040691D01*
X50608252Y-29038251D01*
X50605998Y-29035505D01*
X50604105Y-29032497D01*
X50602107Y-29030764D01*
X50595815Y-29023098D01*
X50548197Y-28975479D01*
X50540526Y-28969184D01*
X50538797Y-28967190D01*
X50535789Y-28965296D01*
X50533043Y-28963043D01*
X50530603Y-28962032D01*
X50522207Y-28956747D01*
X50426969Y-28909128D01*
X50408661Y-28902122D01*
X50405077Y-28901867D01*
X50401757Y-28900492D01*
X50382248Y-28898571D01*
X50287010Y-28898571D01*
X50277136Y-28899543D01*
X50274502Y-28899356D01*
X50271038Y-28900143D01*
X50267501Y-28900492D01*
X50265059Y-28901503D01*
X50255387Y-28903703D01*
X50112530Y-28951322D01*
X50094630Y-28959313D01*
X50091914Y-28961668D01*
X50088596Y-28963043D01*
X50073442Y-28975479D01*
X49672724Y-29376196D01*
X49672724Y-28998571D01*
X49670803Y-28979062D01*
X49655871Y-28943014D01*
X49628281Y-28915424D01*
X49592233Y-28900492D01*
X49553215Y-28900492D01*
X49517167Y-28915424D01*
X49489577Y-28943014D01*
X49474645Y-28979062D01*
X49472724Y-28998571D01*
X47751669Y-28998571D01*
X47751669Y-28836205D01*
X51084589Y-28836205D01*
X51084589Y-28875223D01*
X51099521Y-28911271D01*
X51127111Y-28938861D01*
X51163159Y-28953793D01*
X51182668Y-28955714D01*
X52182668Y-28955714D01*
X52202177Y-28953793D01*
X52238225Y-28938861D01*
X52265815Y-28911271D01*
X52280747Y-28875223D01*
X52282668Y-28855714D01*
X52282668Y-28474762D01*
X52280747Y-28455253D01*
X52279371Y-28451932D01*
X52279117Y-28448349D01*
X52272111Y-28430040D01*
X52224492Y-28334803D01*
X52219206Y-28326406D01*
X52218196Y-28323966D01*
X52215942Y-28321220D01*
X52214049Y-28318212D01*
X52212051Y-28316479D01*
X52205759Y-28308813D01*
X52158141Y-28261194D01*
X52150470Y-28254899D01*
X52148741Y-28252905D01*
X52145733Y-28251011D01*
X52142987Y-28248758D01*
X52140547Y-28247747D01*
X52132151Y-28242462D01*
X52036913Y-28194843D01*
X52018605Y-28187837D01*
X52015021Y-28187582D01*
X52011701Y-28186207D01*
X51992192Y-28184286D01*
X51849335Y-28184286D01*
X51829826Y-28186207D01*
X51826505Y-28187582D01*
X51822922Y-28187837D01*
X51804613Y-28194843D01*
X51709376Y-28242462D01*
X51700979Y-28247747D01*
X51698539Y-28248758D01*
X51695793Y-28251011D01*
X51692785Y-28252905D01*
X51691052Y-28254902D01*
X51683386Y-28261195D01*
X51635767Y-28308813D01*
X51629472Y-28316483D01*
X51627478Y-28318213D01*
X51625584Y-28321220D01*
X51623331Y-28323967D01*
X51622320Y-28326406D01*
X51617035Y-28334803D01*
X51569416Y-28430041D01*
X51562410Y-28448349D01*
X51562155Y-28451932D01*
X51560780Y-28455253D01*
X51558859Y-28474762D01*
X51558859Y-28755714D01*
X51182668Y-28755714D01*
X51163159Y-28757635D01*
X51127111Y-28772567D01*
X51099521Y-28800157D01*
X51084589Y-28836205D01*
X47751669Y-28836205D01*
X47751669Y-28284285D01*
X49472724Y-28284285D01*
X49472724Y-28379523D01*
X49474645Y-28399032D01*
X49476020Y-28402351D01*
X49476275Y-28405937D01*
X49483282Y-28424245D01*
X49530902Y-28519483D01*
X49536186Y-28527878D01*
X49537197Y-28530318D01*
X49539450Y-28533063D01*
X49541345Y-28536074D01*
X49543341Y-28537805D01*
X49549633Y-28545472D01*
X49597252Y-28593090D01*
X49604918Y-28599382D01*
X49606651Y-28601380D01*
X49609659Y-28603273D01*
X49612405Y-28605527D01*
X49614845Y-28606537D01*
X49623242Y-28611823D01*
X49718479Y-28659442D01*
X49719907Y-28659988D01*
X49720487Y-28660418D01*
X49728663Y-28663339D01*
X49736788Y-28666448D01*
X49737508Y-28666499D01*
X49738947Y-28667013D01*
X49929423Y-28714632D01*
X49932804Y-28715132D01*
X49934168Y-28715697D01*
X49941518Y-28716420D01*
X49948816Y-28717500D01*
X49950274Y-28717282D01*
X49953677Y-28717618D01*
X50191772Y-28717618D01*
X50195174Y-28717282D01*
X50196633Y-28717500D01*
X50203930Y-28716420D01*
X50211281Y-28715697D01*
X50212644Y-28715132D01*
X50216026Y-28714632D01*
X50406501Y-28667013D01*
X50407938Y-28666499D01*
X50408661Y-28666448D01*
X50416785Y-28663339D01*
X50424962Y-28660418D01*
X50425542Y-28659987D01*
X50426969Y-28659442D01*
X50522207Y-28611823D01*
X50530603Y-28606537D01*
X50533043Y-28605527D01*
X50535789Y-28603273D01*
X50538797Y-28601380D01*
X50540526Y-28599385D01*
X50548197Y-28593091D01*
X50595815Y-28545472D01*
X50602107Y-28537805D01*
X50604105Y-28536073D01*
X50605998Y-28533064D01*
X50608252Y-28530319D01*
X50609262Y-28527878D01*
X50614548Y-28519482D01*
X50662167Y-28424245D01*
X50669173Y-28405936D01*
X50669427Y-28402352D01*
X50670803Y-28399032D01*
X50672724Y-28379523D01*
X50672724Y-28284285D01*
X50670803Y-28264776D01*
X50669427Y-28261455D01*
X50669173Y-28257872D01*
X50662167Y-28239563D01*
X50614548Y-28144326D01*
X50609262Y-28135929D01*
X50608252Y-28133489D01*
X50605998Y-28130743D01*
X50604105Y-28127735D01*
X50602107Y-28126002D01*
X50595815Y-28118336D01*
X50548197Y-28070717D01*
X50540526Y-28064422D01*
X50538797Y-28062428D01*
X50535789Y-28060534D01*
X50533043Y-28058281D01*
X50530603Y-28057270D01*
X50522207Y-28051985D01*
X50426969Y-28004366D01*
X50425542Y-28003820D01*
X50424962Y-28003390D01*
X50416785Y-28000468D01*
X50408661Y-27997360D01*
X50407938Y-27997308D01*
X50406501Y-27996795D01*
X50216026Y-27949176D01*
X50212644Y-27948675D01*
X50211281Y-27948111D01*
X50203930Y-27947387D01*
X50196633Y-27946308D01*
X50195174Y-27946525D01*
X50191772Y-27946190D01*
X49953677Y-27946190D01*
X49950274Y-27946525D01*
X49948816Y-27946308D01*
X49941518Y-27947387D01*
X49934168Y-27948111D01*
X49932804Y-27948675D01*
X49929423Y-27949176D01*
X49738947Y-27996795D01*
X49737508Y-27997308D01*
X49736788Y-27997360D01*
X49728663Y-28000468D01*
X49720487Y-28003390D01*
X49719907Y-28003819D01*
X49718479Y-28004366D01*
X49623242Y-28051985D01*
X49614845Y-28057270D01*
X49612405Y-28058281D01*
X49609659Y-28060534D01*
X49606651Y-28062428D01*
X49604918Y-28064425D01*
X49597252Y-28070718D01*
X49549633Y-28118336D01*
X49543341Y-28126002D01*
X49541345Y-28127734D01*
X49539450Y-28130744D01*
X49537197Y-28133490D01*
X49536186Y-28135929D01*
X49530902Y-28144325D01*
X49483282Y-28239563D01*
X49476275Y-28257871D01*
X49476020Y-28261456D01*
X49474645Y-28264776D01*
X49472724Y-28284285D01*
X47751669Y-28284285D01*
X47751669Y-27093809D01*
X49472724Y-27093809D01*
X49472724Y-27712856D01*
X49474645Y-27732365D01*
X49489577Y-27768413D01*
X49517167Y-27796003D01*
X49553215Y-27810935D01*
X49592233Y-27810935D01*
X49628281Y-27796003D01*
X49643435Y-27783567D01*
X50198172Y-27228830D01*
X50303236Y-27193809D01*
X50358641Y-27193809D01*
X50418250Y-27223614D01*
X50442919Y-27248282D01*
X50472724Y-27307892D01*
X50472724Y-27498773D01*
X50442919Y-27558382D01*
X50406775Y-27594526D01*
X50394339Y-27609680D01*
X50379407Y-27645728D01*
X50379407Y-27684746D01*
X50394339Y-27720794D01*
X50421929Y-27748384D01*
X50457977Y-27763316D01*
X50496995Y-27763316D01*
X50533043Y-27748384D01*
X50548197Y-27735948D01*
X50595815Y-27688329D01*
X50602107Y-27680662D01*
X50604105Y-27678930D01*
X50605998Y-27675921D01*
X50608252Y-27673176D01*
X50609262Y-27670735D01*
X50614548Y-27662339D01*
X50662167Y-27567102D01*
X50669173Y-27548793D01*
X50669427Y-27545209D01*
X50670803Y-27541889D01*
X50672724Y-27522380D01*
X50672724Y-27284285D01*
X50672511Y-27282118D01*
X51082691Y-27282118D01*
X51089472Y-27320543D01*
X51110441Y-27353448D01*
X51125322Y-27366209D01*
X51558859Y-27669684D01*
X51558859Y-27755714D01*
X51182668Y-27755714D01*
X51163159Y-27757635D01*
X51127111Y-27772567D01*
X51099521Y-27800157D01*
X51084589Y-27836205D01*
X51084589Y-27875223D01*
X51099521Y-27911271D01*
X51127111Y-27938861D01*
X51163159Y-27953793D01*
X51182668Y-27955714D01*
X52182668Y-27955714D01*
X52202177Y-27953793D01*
X52238225Y-27938861D01*
X52265815Y-27911271D01*
X52280747Y-27875223D01*
X52282668Y-27855714D01*
X52282668Y-27474762D01*
X52280747Y-27455253D01*
X52279371Y-27451932D01*
X52279117Y-27448349D01*
X52272111Y-27430040D01*
X52224492Y-27334803D01*
X52219206Y-27326406D01*
X52218196Y-27323966D01*
X52215942Y-27321220D01*
X52214049Y-27318212D01*
X52212051Y-27316479D01*
X52205759Y-27308813D01*
X52158141Y-27261194D01*
X52150470Y-27254899D01*
X52148741Y-27252905D01*
X52145733Y-27251011D01*
X52142987Y-27248758D01*
X52140547Y-27247747D01*
X52132151Y-27242462D01*
X52036913Y-27194843D01*
X52018605Y-27187837D01*
X52015021Y-27187582D01*
X52011701Y-27186207D01*
X51992192Y-27184286D01*
X51849335Y-27184286D01*
X51829826Y-27186207D01*
X51826505Y-27187582D01*
X51822922Y-27187837D01*
X51804613Y-27194843D01*
X51709376Y-27242462D01*
X51700979Y-27247747D01*
X51698539Y-27248758D01*
X51695793Y-27251011D01*
X51692785Y-27252905D01*
X51691052Y-27254902D01*
X51683386Y-27261195D01*
X51635767Y-27308813D01*
X51629472Y-27316483D01*
X51627478Y-27318213D01*
X51625584Y-27321220D01*
X51623331Y-27323967D01*
X51622320Y-27326406D01*
X51617035Y-27334803D01*
X51569416Y-27430041D01*
X51568539Y-27432330D01*
X51240014Y-27202363D01*
X51222930Y-27192749D01*
X51184836Y-27184309D01*
X51146411Y-27191090D01*
X51113506Y-27212059D01*
X51091131Y-27244024D01*
X51082691Y-27282118D01*
X50672511Y-27282118D01*
X50670803Y-27264776D01*
X50669427Y-27261455D01*
X50669173Y-27257872D01*
X50662167Y-27239563D01*
X50614548Y-27144326D01*
X50609262Y-27135929D01*
X50608252Y-27133489D01*
X50605998Y-27130743D01*
X50604105Y-27127735D01*
X50602107Y-27126002D01*
X50595815Y-27118336D01*
X50548197Y-27070717D01*
X50540526Y-27064422D01*
X50538797Y-27062428D01*
X50535789Y-27060534D01*
X50533043Y-27058281D01*
X50530603Y-27057270D01*
X50522207Y-27051985D01*
X50426969Y-27004366D01*
X50408661Y-26997360D01*
X50405077Y-26997105D01*
X50401757Y-26995730D01*
X50382248Y-26993809D01*
X50287010Y-26993809D01*
X50277136Y-26994781D01*
X50274502Y-26994594D01*
X50271038Y-26995381D01*
X50267501Y-26995730D01*
X50265059Y-26996741D01*
X50255387Y-26998941D01*
X50112530Y-27046560D01*
X50094630Y-27054551D01*
X50091914Y-27056906D01*
X50088596Y-27058281D01*
X50073442Y-27070717D01*
X49672724Y-27471434D01*
X49672724Y-27093809D01*
X49670803Y-27074300D01*
X49655871Y-27038252D01*
X49628281Y-27010662D01*
X49592233Y-26995730D01*
X49553215Y-26995730D01*
X49517167Y-27010662D01*
X49489577Y-27038252D01*
X49474645Y-27074300D01*
X49472724Y-27093809D01*
X47751669Y-27093809D01*
X47751669Y-26022380D01*
X47862780Y-26022380D01*
X47862780Y-26260475D01*
X47864701Y-26279984D01*
X47866076Y-26283303D01*
X47866331Y-26286889D01*
X47873338Y-26305197D01*
X47920958Y-26400435D01*
X47926242Y-26408830D01*
X47927253Y-26411270D01*
X47929506Y-26414015D01*
X47931401Y-26417026D01*
X47933397Y-26418757D01*
X47939689Y-26426424D01*
X47987308Y-26474042D01*
X48002461Y-26486479D01*
X48038510Y-26501410D01*
X48077528Y-26501410D01*
X48113576Y-26486479D01*
X48141166Y-26458889D01*
X48156097Y-26422841D01*
X48156097Y-26383823D01*
X48141166Y-26347774D01*
X48128729Y-26332621D01*
X48092583Y-26296475D01*
X48062780Y-26236868D01*
X48062780Y-26045986D01*
X48092583Y-25986379D01*
X48117254Y-25961708D01*
X48176864Y-25931904D01*
X48367745Y-25931904D01*
X48427354Y-25961709D01*
X48452023Y-25986377D01*
X48481828Y-26045987D01*
X48481828Y-26236868D01*
X48452023Y-26296477D01*
X48415879Y-26332621D01*
X48403443Y-26347775D01*
X48401515Y-26352427D01*
X48398328Y-26356324D01*
X48394107Y-26370313D01*
X48388511Y-26383823D01*
X48388511Y-26388860D01*
X48387057Y-26393679D01*
X48388511Y-26408220D01*
X48388511Y-26422841D01*
X48390438Y-26427493D01*
X48390939Y-26432503D01*
X48397848Y-26445383D01*
X48403443Y-26458889D01*
X48407003Y-26462449D01*
X48409384Y-26466887D01*
X48420696Y-26476142D01*
X48431033Y-26486479D01*
X48435685Y-26488406D01*
X48439582Y-26491594D01*
X48453571Y-26495814D01*
X48467081Y-26501411D01*
X48472118Y-26501411D01*
X48476937Y-26502865D01*
X48496540Y-26502836D01*
X48972730Y-26455217D01*
X48979839Y-26453792D01*
X48982289Y-26453792D01*
X48984586Y-26452840D01*
X48991951Y-26451364D01*
X49004831Y-26444454D01*
X49018337Y-26438860D01*
X49021897Y-26435299D01*
X49026335Y-26432919D01*
X49035590Y-26421606D01*
X49045927Y-26411270D01*
X49047854Y-26406617D01*
X49051042Y-26402721D01*
X49055262Y-26388731D01*
X49060859Y-26375222D01*
X49061595Y-26367744D01*
X49062313Y-26365366D01*
X49062069Y-26362929D01*
X49062780Y-26355713D01*
X49062780Y-26331904D01*
X49472724Y-26331904D01*
X49472724Y-26569999D01*
X49474645Y-26589508D01*
X49476020Y-26592827D01*
X49476275Y-26596413D01*
X49483282Y-26614721D01*
X49530902Y-26709959D01*
X49536186Y-26718354D01*
X49537197Y-26720794D01*
X49539450Y-26723539D01*
X49541345Y-26726550D01*
X49543341Y-26728281D01*
X49549633Y-26735948D01*
X49597252Y-26783566D01*
X49612405Y-26796003D01*
X49648454Y-26810934D01*
X49687472Y-26810934D01*
X49723520Y-26796003D01*
X49751110Y-26768413D01*
X49766041Y-26732365D01*
X49766041Y-26693347D01*
X49751110Y-26657298D01*
X49738673Y-26642145D01*
X49702527Y-26605999D01*
X49672724Y-26546392D01*
X49672724Y-26355510D01*
X49702527Y-26295903D01*
X49727198Y-26271232D01*
X49786808Y-26241428D01*
X49977689Y-26241428D01*
X50037298Y-26271233D01*
X50061967Y-26295901D01*
X50091772Y-26355511D01*
X50091772Y-26546392D01*
X50061967Y-26606001D01*
X50025823Y-26642145D01*
X50013387Y-26657299D01*
X50011459Y-26661951D01*
X50008272Y-26665848D01*
X50004051Y-26679837D01*
X49998455Y-26693347D01*
X49998455Y-26698384D01*
X49997001Y-26703203D01*
X49998455Y-26717744D01*
X49998455Y-26732365D01*
X50000382Y-26737017D01*
X50000883Y-26742027D01*
X50007792Y-26754907D01*
X50013387Y-26768413D01*
X50016947Y-26771973D01*
X50019328Y-26776411D01*
X50030640Y-26785666D01*
X50040977Y-26796003D01*
X50045629Y-26797930D01*
X50049526Y-26801118D01*
X50063515Y-26805338D01*
X50077025Y-26810935D01*
X50082062Y-26810935D01*
X50086881Y-26812389D01*
X50106484Y-26812360D01*
X50582674Y-26764741D01*
X50589783Y-26763316D01*
X50592233Y-26763316D01*
X50594530Y-26762364D01*
X50601895Y-26760888D01*
X50614775Y-26753978D01*
X50628281Y-26748384D01*
X50631841Y-26744823D01*
X50636279Y-26742443D01*
X50645534Y-26731130D01*
X50655871Y-26720794D01*
X50657798Y-26716141D01*
X50660986Y-26712245D01*
X50665206Y-26698255D01*
X50670803Y-26684746D01*
X50671539Y-26677268D01*
X50672257Y-26674890D01*
X50672013Y-26672453D01*
X50672724Y-26665237D01*
X50672724Y-26474762D01*
X51082668Y-26474762D01*
X51082668Y-26665238D01*
X51084589Y-26684747D01*
X51085964Y-26688066D01*
X51086219Y-26691652D01*
X51093226Y-26709960D01*
X51140846Y-26805198D01*
X51146130Y-26813593D01*
X51147141Y-26816033D01*
X51149394Y-26818778D01*
X51151289Y-26821789D01*
X51153285Y-26823520D01*
X51159577Y-26831187D01*
X51254815Y-26926425D01*
X51269969Y-26938861D01*
X51276837Y-26941706D01*
X51282812Y-26946133D01*
X51301272Y-26952728D01*
X51491748Y-27000347D01*
X51495129Y-27000847D01*
X51496493Y-27001412D01*
X51503843Y-27002135D01*
X51511141Y-27003215D01*
X51512599Y-27002997D01*
X51516002Y-27003333D01*
X51849335Y-27003333D01*
X51852737Y-27002997D01*
X51854196Y-27003215D01*
X51861493Y-27002135D01*
X51868844Y-27001412D01*
X51870207Y-27000847D01*
X51873589Y-27000347D01*
X52064064Y-26952728D01*
X52082525Y-26946133D01*
X52088499Y-26941706D01*
X52095368Y-26938861D01*
X52110522Y-26926425D01*
X52205760Y-26831187D01*
X52212051Y-26823520D01*
X52214049Y-26821788D01*
X52215944Y-26818776D01*
X52218196Y-26816033D01*
X52219205Y-26813595D01*
X52224492Y-26805197D01*
X52272111Y-26709960D01*
X52279117Y-26691651D01*
X52279371Y-26688067D01*
X52280747Y-26684747D01*
X52282668Y-26665238D01*
X52282668Y-26474762D01*
X52280747Y-26455253D01*
X52279371Y-26451932D01*
X52279117Y-26448349D01*
X52272111Y-26430040D01*
X52224492Y-26334803D01*
X52219205Y-26326404D01*
X52218196Y-26323967D01*
X52215944Y-26321223D01*
X52214049Y-26318212D01*
X52212051Y-26316479D01*
X52205760Y-26308813D01*
X52110522Y-26213575D01*
X52095368Y-26201139D01*
X52088499Y-26198293D01*
X52082525Y-26193867D01*
X52064064Y-26187272D01*
X51873589Y-26139653D01*
X51870207Y-26139152D01*
X51868844Y-26138588D01*
X51861493Y-26137864D01*
X51854196Y-26136785D01*
X51852737Y-26137002D01*
X51849335Y-26136667D01*
X51516002Y-26136667D01*
X51512599Y-26137002D01*
X51511141Y-26136785D01*
X51503843Y-26137864D01*
X51496493Y-26138588D01*
X51495129Y-26139152D01*
X51491748Y-26139653D01*
X51301272Y-26187272D01*
X51282812Y-26193867D01*
X51276837Y-26198293D01*
X51269969Y-26201139D01*
X51254815Y-26213575D01*
X51159577Y-26308813D01*
X51153285Y-26316479D01*
X51151289Y-26318211D01*
X51149394Y-26321221D01*
X51147141Y-26323967D01*
X51146130Y-26326406D01*
X51140846Y-26334802D01*
X51093226Y-26430040D01*
X51086219Y-26448348D01*
X51085964Y-26451933D01*
X51084589Y-26455253D01*
X51082668Y-26474762D01*
X50672724Y-26474762D01*
X50672724Y-26189047D01*
X50670803Y-26169538D01*
X50655871Y-26133490D01*
X50628281Y-26105900D01*
X50592233Y-26090968D01*
X50553215Y-26090968D01*
X50517167Y-26105900D01*
X50489577Y-26133490D01*
X50474645Y-26169538D01*
X50472724Y-26189047D01*
X50472724Y-26574738D01*
X50288451Y-26593165D01*
X50288475Y-26592828D01*
X50289851Y-26589508D01*
X50291772Y-26569999D01*
X50291772Y-26331904D01*
X50289851Y-26312395D01*
X50288475Y-26309074D01*
X50288221Y-26305491D01*
X50281215Y-26287182D01*
X50233596Y-26191945D01*
X50228310Y-26183548D01*
X50227300Y-26181108D01*
X50225046Y-26178362D01*
X50223153Y-26175354D01*
X50221155Y-26173621D01*
X50214863Y-26165955D01*
X50167245Y-26118336D01*
X50159574Y-26112041D01*
X50157845Y-26110047D01*
X50154837Y-26108153D01*
X50152091Y-26105900D01*
X50149651Y-26104889D01*
X50141255Y-26099604D01*
X50046017Y-26051985D01*
X50027709Y-26044979D01*
X50024125Y-26044724D01*
X50020805Y-26043349D01*
X50001296Y-26041428D01*
X49763201Y-26041428D01*
X49743692Y-26043349D01*
X49740371Y-26044724D01*
X49736788Y-26044979D01*
X49718479Y-26051985D01*
X49623242Y-26099604D01*
X49614845Y-26104889D01*
X49612405Y-26105900D01*
X49609659Y-26108153D01*
X49606651Y-26110047D01*
X49604918Y-26112044D01*
X49597252Y-26118337D01*
X49549633Y-26165955D01*
X49543341Y-26173621D01*
X49541345Y-26175353D01*
X49539450Y-26178363D01*
X49537197Y-26181109D01*
X49536186Y-26183548D01*
X49530902Y-26191944D01*
X49483282Y-26287182D01*
X49476275Y-26305490D01*
X49476020Y-26309075D01*
X49474645Y-26312395D01*
X49472724Y-26331904D01*
X49062780Y-26331904D01*
X49062780Y-25879523D01*
X49060859Y-25860014D01*
X49045927Y-25823966D01*
X49030056Y-25808095D01*
X51082668Y-25808095D01*
X51082668Y-25903333D01*
X51084589Y-25922842D01*
X51099521Y-25958890D01*
X51127111Y-25986480D01*
X51163159Y-26001412D01*
X51202177Y-26001412D01*
X51238225Y-25986480D01*
X51265815Y-25958890D01*
X51280747Y-25922842D01*
X51282668Y-25903333D01*
X51282668Y-25824322D01*
X51317690Y-25719257D01*
X51379545Y-25657402D01*
X51484609Y-25622381D01*
X52182668Y-25622381D01*
X52202177Y-25620460D01*
X52238225Y-25605528D01*
X52265815Y-25577938D01*
X52280747Y-25541890D01*
X52280747Y-25502872D01*
X52265815Y-25466824D01*
X52238225Y-25439234D01*
X52202177Y-25424302D01*
X52182668Y-25422381D01*
X51468383Y-25422381D01*
X51458509Y-25423353D01*
X51455875Y-25423166D01*
X51452411Y-25423953D01*
X51448874Y-25424302D01*
X51446432Y-25425313D01*
X51436760Y-25427513D01*
X51293903Y-25475132D01*
X51276003Y-25483123D01*
X51273287Y-25485478D01*
X51269969Y-25486853D01*
X51254815Y-25499289D01*
X51159577Y-25594527D01*
X51147141Y-25609681D01*
X51145766Y-25612999D01*
X51143412Y-25615714D01*
X51135420Y-25633614D01*
X51087800Y-25776472D01*
X51085600Y-25786144D01*
X51084589Y-25788586D01*
X51084240Y-25792123D01*
X51083453Y-25795587D01*
X51083640Y-25798221D01*
X51082668Y-25808095D01*
X49030056Y-25808095D01*
X49018337Y-25796376D01*
X48982289Y-25781444D01*
X48943271Y-25781444D01*
X48907223Y-25796376D01*
X48879633Y-25823966D01*
X48864701Y-25860014D01*
X48862780Y-25879523D01*
X48862780Y-26265214D01*
X48678507Y-26283641D01*
X48678531Y-26283304D01*
X48679907Y-26279984D01*
X48681828Y-26260475D01*
X48681828Y-26022380D01*
X48679907Y-26002871D01*
X48678531Y-25999550D01*
X48678277Y-25995967D01*
X48671271Y-25977658D01*
X48623652Y-25882421D01*
X48618366Y-25874024D01*
X48617356Y-25871584D01*
X48615102Y-25868838D01*
X48613209Y-25865830D01*
X48611211Y-25864097D01*
X48604919Y-25856431D01*
X48557301Y-25808812D01*
X48549630Y-25802517D01*
X48547901Y-25800523D01*
X48544893Y-25798629D01*
X48542147Y-25796376D01*
X48539707Y-25795365D01*
X48531311Y-25790080D01*
X48436073Y-25742461D01*
X48417765Y-25735455D01*
X48414181Y-25735200D01*
X48410861Y-25733825D01*
X48391352Y-25731904D01*
X48153257Y-25731904D01*
X48133748Y-25733825D01*
X48130427Y-25735200D01*
X48126844Y-25735455D01*
X48108535Y-25742461D01*
X48013298Y-25790080D01*
X48004901Y-25795365D01*
X48002461Y-25796376D01*
X47999715Y-25798629D01*
X47996707Y-25800523D01*
X47994974Y-25802520D01*
X47987308Y-25808813D01*
X47939689Y-25856431D01*
X47933397Y-25864097D01*
X47931401Y-25865829D01*
X47929506Y-25868839D01*
X47927253Y-25871585D01*
X47926242Y-25874024D01*
X47920958Y-25882420D01*
X47873338Y-25977658D01*
X47866331Y-25995966D01*
X47866076Y-25999551D01*
X47864701Y-26002871D01*
X47862780Y-26022380D01*
X47751669Y-26022380D01*
X47751669Y-25383823D01*
X47864701Y-25383823D01*
X47864701Y-25422841D01*
X47879633Y-25458889D01*
X47907223Y-25486479D01*
X47943271Y-25501411D01*
X47962780Y-25503332D01*
X48962780Y-25503332D01*
X48982289Y-25501411D01*
X49018337Y-25486479D01*
X49045927Y-25458889D01*
X49060859Y-25422841D01*
X49062780Y-25403332D01*
X49062780Y-25022380D01*
X49060859Y-25002871D01*
X49059483Y-24999550D01*
X49059229Y-24995967D01*
X49052223Y-24977658D01*
X49004604Y-24882421D01*
X48999318Y-24874024D01*
X48998308Y-24871584D01*
X48996054Y-24868838D01*
X48994161Y-24865830D01*
X48992163Y-24864097D01*
X48985871Y-24856431D01*
X48938253Y-24808812D01*
X48930582Y-24802517D01*
X48928853Y-24800523D01*
X48925845Y-24798629D01*
X48923099Y-24796376D01*
X48920659Y-24795365D01*
X48912263Y-24790080D01*
X48817025Y-24742461D01*
X48798717Y-24735455D01*
X48795133Y-24735200D01*
X48791813Y-24733825D01*
X48772304Y-24731904D01*
X48629447Y-24731904D01*
X48609938Y-24733825D01*
X48606617Y-24735200D01*
X48603034Y-24735455D01*
X48584725Y-24742461D01*
X48489488Y-24790080D01*
X48481091Y-24795365D01*
X48478651Y-24796376D01*
X48475905Y-24798629D01*
X48472897Y-24800523D01*
X48471164Y-24802520D01*
X48463498Y-24808813D01*
X48415879Y-24856431D01*
X48409584Y-24864101D01*
X48407590Y-24865831D01*
X48405696Y-24868838D01*
X48403443Y-24871585D01*
X48402432Y-24874024D01*
X48397147Y-24882421D01*
X48349528Y-24977659D01*
X48342522Y-24995967D01*
X48342267Y-24999550D01*
X48340892Y-25002871D01*
X48338971Y-25022380D01*
X48338971Y-25303332D01*
X47962780Y-25303332D01*
X47943271Y-25305253D01*
X47907223Y-25320185D01*
X47879633Y-25347775D01*
X47864701Y-25383823D01*
X47751669Y-25383823D01*
X47751669Y-24069999D01*
X47862780Y-24069999D01*
X47862780Y-24308094D01*
X47863752Y-24317967D01*
X47863565Y-24320602D01*
X47864352Y-24324065D01*
X47864701Y-24327603D01*
X47865712Y-24330044D01*
X47867912Y-24339717D01*
X47915532Y-24482575D01*
X47923524Y-24500475D01*
X47949089Y-24529951D01*
X47983988Y-24547400D01*
X48022908Y-24550166D01*
X48059924Y-24537827D01*
X48089400Y-24512262D01*
X48106849Y-24477363D01*
X48109615Y-24438443D01*
X48105268Y-24419328D01*
X48062780Y-24291866D01*
X48062780Y-24093605D01*
X48092583Y-24033998D01*
X48117254Y-24009327D01*
X48176864Y-23979523D01*
X48224888Y-23979523D01*
X48284497Y-24009328D01*
X48309166Y-24033996D01*
X48344619Y-24104903D01*
X48389576Y-24284728D01*
X48390089Y-24286165D01*
X48390141Y-24286888D01*
X48393249Y-24295012D01*
X48396171Y-24303189D01*
X48396601Y-24303769D01*
X48397147Y-24305196D01*
X48444766Y-24400434D01*
X48450051Y-24408830D01*
X48451062Y-24411270D01*
X48453315Y-24414016D01*
X48455209Y-24417024D01*
X48457203Y-24418753D01*
X48463498Y-24426424D01*
X48511117Y-24474042D01*
X48518783Y-24480334D01*
X48520516Y-24482332D01*
X48523524Y-24484225D01*
X48526270Y-24486479D01*
X48528710Y-24487489D01*
X48537107Y-24492775D01*
X48632344Y-24540394D01*
X48650653Y-24547400D01*
X48654236Y-24547654D01*
X48657557Y-24549030D01*
X48677066Y-24550951D01*
X48772304Y-24550951D01*
X48791813Y-24549030D01*
X48795133Y-24547654D01*
X48798717Y-24547400D01*
X48817025Y-24540394D01*
X48912263Y-24492775D01*
X48920659Y-24487489D01*
X48923099Y-24486479D01*
X48925845Y-24484225D01*
X48928853Y-24482332D01*
X48930582Y-24480337D01*
X48938253Y-24474043D01*
X48985871Y-24426424D01*
X48992163Y-24418757D01*
X48994161Y-24417025D01*
X48996054Y-24414016D01*
X48998308Y-24411271D01*
X48999318Y-24408830D01*
X49004604Y-24400434D01*
X49052223Y-24305197D01*
X49059229Y-24286888D01*
X49059483Y-24283304D01*
X49060859Y-24279984D01*
X49062780Y-24260475D01*
X49062780Y-24189047D01*
X49853677Y-24189047D01*
X49853677Y-24950951D01*
X49855598Y-24970460D01*
X49870530Y-25006508D01*
X49898120Y-25034098D01*
X49934168Y-25049030D01*
X49973186Y-25049030D01*
X50009234Y-25034098D01*
X50036824Y-25006508D01*
X50051756Y-24970460D01*
X50053677Y-24950951D01*
X50053677Y-24570000D01*
X51082668Y-24570000D01*
X51082668Y-25046190D01*
X51084589Y-25065699D01*
X51099521Y-25101747D01*
X51127111Y-25129337D01*
X51163159Y-25144269D01*
X51182668Y-25146190D01*
X52182668Y-25146190D01*
X52202177Y-25144269D01*
X52238225Y-25129337D01*
X52265815Y-25101747D01*
X52280747Y-25065699D01*
X52282668Y-25046190D01*
X52282668Y-24570000D01*
X52280747Y-24550491D01*
X52265815Y-24514443D01*
X52238225Y-24486853D01*
X52202177Y-24471921D01*
X52163159Y-24471921D01*
X52127111Y-24486853D01*
X52099521Y-24514443D01*
X52084589Y-24550491D01*
X52082668Y-24570000D01*
X52082668Y-24946190D01*
X51806478Y-24946190D01*
X51806478Y-24712857D01*
X51804557Y-24693348D01*
X51789625Y-24657300D01*
X51762035Y-24629710D01*
X51725987Y-24614778D01*
X51686969Y-24614778D01*
X51650921Y-24629710D01*
X51623331Y-24657300D01*
X51608399Y-24693348D01*
X51606478Y-24712857D01*
X51606478Y-24946190D01*
X51282668Y-24946190D01*
X51282668Y-24570000D01*
X51280747Y-24550491D01*
X51265815Y-24514443D01*
X51238225Y-24486853D01*
X51202177Y-24471921D01*
X51163159Y-24471921D01*
X51127111Y-24486853D01*
X51099521Y-24514443D01*
X51084589Y-24550491D01*
X51082668Y-24570000D01*
X50053677Y-24570000D01*
X50053677Y-24189047D01*
X50051756Y-24169538D01*
X50036824Y-24133490D01*
X50009234Y-24105900D01*
X49973186Y-24090968D01*
X49934168Y-24090968D01*
X49898120Y-24105900D01*
X49870530Y-24133490D01*
X49855598Y-24169538D01*
X49853677Y-24189047D01*
X49062780Y-24189047D01*
X49062780Y-24022380D01*
X49061807Y-24012506D01*
X49061995Y-24009872D01*
X49061207Y-24006408D01*
X49060859Y-24002871D01*
X49059847Y-24000429D01*
X49057648Y-23990757D01*
X49053750Y-23979062D01*
X51084589Y-23979062D01*
X51084589Y-24018080D01*
X51099521Y-24054128D01*
X51127111Y-24081718D01*
X51163159Y-24096650D01*
X51182668Y-24098571D01*
X52082668Y-24098571D01*
X52082668Y-24284285D01*
X52084589Y-24303794D01*
X52099521Y-24339842D01*
X52127111Y-24367432D01*
X52163159Y-24382364D01*
X52202177Y-24382364D01*
X52238225Y-24367432D01*
X52265815Y-24339842D01*
X52280747Y-24303794D01*
X52282668Y-24284285D01*
X52282668Y-23712857D01*
X52280747Y-23693348D01*
X52265815Y-23657300D01*
X52238225Y-23629710D01*
X52202177Y-23614778D01*
X52163159Y-23614778D01*
X52127111Y-23629710D01*
X52099521Y-23657300D01*
X52084589Y-23693348D01*
X52082668Y-23712857D01*
X52082668Y-23898571D01*
X51182668Y-23898571D01*
X51163159Y-23900492D01*
X51127111Y-23915424D01*
X51099521Y-23943014D01*
X51084589Y-23979062D01*
X49053750Y-23979062D01*
X49010029Y-23847900D01*
X49002038Y-23830000D01*
X48976473Y-23800524D01*
X48941574Y-23783074D01*
X48902654Y-23780308D01*
X48865638Y-23792646D01*
X48836162Y-23818211D01*
X48818712Y-23853110D01*
X48815946Y-23892030D01*
X48820293Y-23911146D01*
X48862780Y-24038606D01*
X48862780Y-24236868D01*
X48832975Y-24296477D01*
X48808306Y-24321145D01*
X48748697Y-24350951D01*
X48700673Y-24350951D01*
X48641063Y-24321146D01*
X48616395Y-24296477D01*
X48580941Y-24225570D01*
X48535985Y-24045745D01*
X48535471Y-24044306D01*
X48535420Y-24043586D01*
X48532311Y-24035461D01*
X48529390Y-24027285D01*
X48528960Y-24026705D01*
X48528414Y-24025277D01*
X48480795Y-23930040D01*
X48475509Y-23921643D01*
X48474499Y-23919203D01*
X48472245Y-23916457D01*
X48470352Y-23913449D01*
X48468354Y-23911716D01*
X48462062Y-23904050D01*
X48414444Y-23856431D01*
X48406773Y-23850136D01*
X48405044Y-23848142D01*
X48402036Y-23846248D01*
X48399290Y-23843995D01*
X48396850Y-23842984D01*
X48388454Y-23837699D01*
X48293216Y-23790080D01*
X48274908Y-23783074D01*
X48271324Y-23782819D01*
X48268004Y-23781444D01*
X48248495Y-23779523D01*
X48153257Y-23779523D01*
X48133748Y-23781444D01*
X48130427Y-23782819D01*
X48126844Y-23783074D01*
X48108535Y-23790080D01*
X48013298Y-23837699D01*
X48004901Y-23842984D01*
X48002461Y-23843995D01*
X47999715Y-23846248D01*
X47996707Y-23848142D01*
X47994974Y-23850139D01*
X47987308Y-23856432D01*
X47939689Y-23904050D01*
X47933397Y-23911716D01*
X47931401Y-23913448D01*
X47929506Y-23916458D01*
X47927253Y-23919204D01*
X47926242Y-23921643D01*
X47920958Y-23930039D01*
X47873338Y-24025277D01*
X47866331Y-24043585D01*
X47866076Y-24047170D01*
X47864701Y-24050490D01*
X47862780Y-24069999D01*
X47751669Y-24069999D01*
X47751669Y-22764776D01*
X47864701Y-22764776D01*
X47864701Y-22803794D01*
X47879633Y-22839842D01*
X47907223Y-22867432D01*
X47943271Y-22882364D01*
X47962780Y-22884285D01*
X48512024Y-22884285D01*
X48206206Y-23027000D01*
X48199060Y-23031232D01*
X48196643Y-23032112D01*
X48194933Y-23033677D01*
X48189340Y-23036991D01*
X48179076Y-23048199D01*
X48167868Y-23058463D01*
X48165988Y-23062490D01*
X48162989Y-23065766D01*
X48157797Y-23080042D01*
X48151367Y-23093821D01*
X48151171Y-23098261D01*
X48149654Y-23102435D01*
X48150321Y-23117618D01*
X48149654Y-23132801D01*
X48151171Y-23136974D01*
X48151367Y-23141415D01*
X48157797Y-23155193D01*
X48162989Y-23169470D01*
X48165988Y-23172745D01*
X48167868Y-23176773D01*
X48179076Y-23187036D01*
X48189340Y-23198245D01*
X48194933Y-23201558D01*
X48196643Y-23203124D01*
X48199060Y-23204003D01*
X48206206Y-23208236D01*
X48512024Y-23350951D01*
X47962780Y-23350951D01*
X47943271Y-23352872D01*
X47907223Y-23367804D01*
X47879633Y-23395394D01*
X47864701Y-23431442D01*
X47864701Y-23470460D01*
X47879633Y-23506508D01*
X47907223Y-23534098D01*
X47943271Y-23549030D01*
X47962780Y-23550951D01*
X48962780Y-23550951D01*
X48975603Y-23549688D01*
X48977963Y-23549792D01*
X48979230Y-23549331D01*
X48982289Y-23549030D01*
X48998319Y-23542389D01*
X49014632Y-23536458D01*
X49016277Y-23534951D01*
X49018337Y-23534098D01*
X49030598Y-23521836D01*
X49043408Y-23510106D01*
X49044352Y-23508082D01*
X49045927Y-23506508D01*
X49052561Y-23490492D01*
X49059908Y-23474749D01*
X49060005Y-23472519D01*
X49060859Y-23470460D01*
X49060859Y-23453108D01*
X49061621Y-23435768D01*
X49060859Y-23433672D01*
X49060859Y-23431442D01*
X49054218Y-23415411D01*
X49048287Y-23399099D01*
X49046780Y-23397453D01*
X49045927Y-23395394D01*
X49033659Y-23383126D01*
X49021935Y-23370324D01*
X49019290Y-23368757D01*
X49018337Y-23367804D01*
X49016155Y-23366900D01*
X49005069Y-23360333D01*
X48484965Y-23117618D01*
X49005069Y-22874903D01*
X49016155Y-22868335D01*
X49018337Y-22867432D01*
X49019290Y-22866478D01*
X49021935Y-22864912D01*
X49033659Y-22852109D01*
X49045927Y-22839842D01*
X49046780Y-22837782D01*
X49048287Y-22836137D01*
X49054218Y-22819824D01*
X49060859Y-22803794D01*
X49060859Y-22801563D01*
X49061621Y-22799468D01*
X49060859Y-22782127D01*
X49060859Y-22764776D01*
X49060005Y-22762716D01*
X49059908Y-22760487D01*
X49052561Y-22744743D01*
X49045927Y-22728728D01*
X49044352Y-22727153D01*
X49043408Y-22725130D01*
X49030598Y-22713399D01*
X49018337Y-22701138D01*
X49016277Y-22700284D01*
X49014632Y-22698778D01*
X48998319Y-22692846D01*
X48982289Y-22686206D01*
X48979230Y-22685904D01*
X48977963Y-22685444D01*
X48975603Y-22685547D01*
X48962780Y-22684285D01*
X47962780Y-22684285D01*
X47943271Y-22686206D01*
X47907223Y-22701138D01*
X47879633Y-22728728D01*
X47864701Y-22764776D01*
X47751669Y-22764776D01*
X47751669Y-22427142D01*
X49472724Y-22427142D01*
X49472724Y-23046189D01*
X49474645Y-23065698D01*
X49489577Y-23101746D01*
X49517167Y-23129336D01*
X49553215Y-23144268D01*
X49592233Y-23144268D01*
X49628281Y-23129336D01*
X49643435Y-23116900D01*
X50198172Y-22562163D01*
X50303236Y-22527142D01*
X50358641Y-22527142D01*
X50418250Y-22556947D01*
X50442919Y-22581615D01*
X50472724Y-22641225D01*
X50472724Y-22832106D01*
X50442919Y-22891715D01*
X50406775Y-22927859D01*
X50394339Y-22943013D01*
X50379407Y-22979061D01*
X50379407Y-23018079D01*
X50394339Y-23054127D01*
X50421929Y-23081717D01*
X50457977Y-23096649D01*
X50496995Y-23096649D01*
X50533043Y-23081717D01*
X50548197Y-23069281D01*
X50595815Y-23021662D01*
X50602107Y-23013995D01*
X50604105Y-23012263D01*
X50605998Y-23009254D01*
X50608252Y-23006509D01*
X50609262Y-23004068D01*
X50614548Y-22995672D01*
X50662167Y-22900435D01*
X50669173Y-22882126D01*
X50669427Y-22878542D01*
X50670803Y-22875222D01*
X50672724Y-22855713D01*
X50672724Y-22617618D01*
X50670803Y-22598109D01*
X50669427Y-22594788D01*
X50669173Y-22591205D01*
X50662167Y-22572896D01*
X50614548Y-22477659D01*
X50609262Y-22469262D01*
X50608252Y-22466822D01*
X50605998Y-22464076D01*
X50604105Y-22461068D01*
X50602107Y-22459335D01*
X50595815Y-22451669D01*
X50548197Y-22404050D01*
X50540526Y-22397755D01*
X50538797Y-22395761D01*
X50535789Y-22393867D01*
X50533043Y-22391614D01*
X50530603Y-22390603D01*
X50522207Y-22385318D01*
X50426969Y-22337699D01*
X50408661Y-22330693D01*
X50405077Y-22330438D01*
X50401757Y-22329063D01*
X50382248Y-22327142D01*
X50287010Y-22327142D01*
X50277136Y-22328114D01*
X50274502Y-22327927D01*
X50271038Y-22328714D01*
X50267501Y-22329063D01*
X50265059Y-22330074D01*
X50255387Y-22332274D01*
X50112530Y-22379893D01*
X50094630Y-22387884D01*
X50091914Y-22390239D01*
X50088596Y-22391614D01*
X50073442Y-22404050D01*
X49672724Y-22804767D01*
X49672724Y-22427142D01*
X49670803Y-22407633D01*
X49655871Y-22371585D01*
X49628281Y-22343995D01*
X49592233Y-22329063D01*
X49553215Y-22329063D01*
X49517167Y-22343995D01*
X49489577Y-22371585D01*
X49474645Y-22407633D01*
X49472724Y-22427142D01*
X47751669Y-22427142D01*
X47751669Y-21712856D01*
X49472724Y-21712856D01*
X49472724Y-21808094D01*
X49474645Y-21827603D01*
X49476020Y-21830922D01*
X49476275Y-21834508D01*
X49483282Y-21852816D01*
X49530902Y-21948054D01*
X49536186Y-21956449D01*
X49537197Y-21958889D01*
X49539450Y-21961634D01*
X49541345Y-21964645D01*
X49543341Y-21966376D01*
X49549633Y-21974043D01*
X49597252Y-22021661D01*
X49604918Y-22027953D01*
X49606651Y-22029951D01*
X49609659Y-22031844D01*
X49612405Y-22034098D01*
X49614845Y-22035108D01*
X49623242Y-22040394D01*
X49718479Y-22088013D01*
X49719907Y-22088559D01*
X49720487Y-22088989D01*
X49728663Y-22091910D01*
X49736788Y-22095019D01*
X49737508Y-22095070D01*
X49738947Y-22095584D01*
X49929423Y-22143203D01*
X49932804Y-22143703D01*
X49934168Y-22144268D01*
X49941518Y-22144991D01*
X49948816Y-22146071D01*
X49950274Y-22145853D01*
X49953677Y-22146189D01*
X50191772Y-22146189D01*
X50195174Y-22145853D01*
X50196633Y-22146071D01*
X50203930Y-22144991D01*
X50211281Y-22144268D01*
X50212644Y-22143703D01*
X50216026Y-22143203D01*
X50223126Y-22141428D01*
X51082668Y-22141428D01*
X51082668Y-22617618D01*
X51084589Y-22637127D01*
X51099521Y-22673175D01*
X51127111Y-22700765D01*
X51163159Y-22715697D01*
X51182668Y-22717618D01*
X52182668Y-22717618D01*
X52202177Y-22715697D01*
X52238225Y-22700765D01*
X52265815Y-22673175D01*
X52280747Y-22637127D01*
X52280747Y-22598109D01*
X52265815Y-22562061D01*
X52238225Y-22534471D01*
X52202177Y-22519539D01*
X52182668Y-22517618D01*
X51282668Y-22517618D01*
X51282668Y-22141428D01*
X51280747Y-22121919D01*
X51265815Y-22085871D01*
X51238225Y-22058281D01*
X51202177Y-22043349D01*
X51163159Y-22043349D01*
X51127111Y-22058281D01*
X51099521Y-22085871D01*
X51084589Y-22121919D01*
X51082668Y-22141428D01*
X50223126Y-22141428D01*
X50406501Y-22095584D01*
X50407938Y-22095070D01*
X50408661Y-22095019D01*
X50416785Y-22091910D01*
X50424962Y-22088989D01*
X50425542Y-22088558D01*
X50426969Y-22088013D01*
X50522207Y-22040394D01*
X50530603Y-22035108D01*
X50533043Y-22034098D01*
X50535789Y-22031844D01*
X50538797Y-22029951D01*
X50540526Y-22027956D01*
X50548197Y-22021662D01*
X50595815Y-21974043D01*
X50602107Y-21966376D01*
X50604105Y-21964644D01*
X50605998Y-21961635D01*
X50608252Y-21958890D01*
X50609262Y-21956449D01*
X50614548Y-21948053D01*
X50662167Y-21852816D01*
X50669173Y-21834507D01*
X50669427Y-21830923D01*
X50670803Y-21827603D01*
X50672724Y-21808094D01*
X50672724Y-21712856D01*
X50670803Y-21693347D01*
X50669427Y-21690026D01*
X50669173Y-21686443D01*
X50662167Y-21668134D01*
X50614548Y-21572897D01*
X50609262Y-21564500D01*
X50608252Y-21562060D01*
X50605998Y-21559314D01*
X50604105Y-21556306D01*
X50602107Y-21554573D01*
X50595815Y-21546907D01*
X50548197Y-21499288D01*
X50540526Y-21492993D01*
X50538797Y-21490999D01*
X50535789Y-21489105D01*
X50533043Y-21486852D01*
X50530603Y-21485841D01*
X50522207Y-21480556D01*
X50426969Y-21432937D01*
X50425542Y-21432391D01*
X50424962Y-21431961D01*
X50416785Y-21429039D01*
X50411826Y-21427142D01*
X51082668Y-21427142D01*
X51082668Y-21617618D01*
X51084589Y-21637127D01*
X51085964Y-21640446D01*
X51086219Y-21644032D01*
X51093226Y-21662340D01*
X51140846Y-21757578D01*
X51146130Y-21765973D01*
X51147141Y-21768413D01*
X51149394Y-21771158D01*
X51151289Y-21774169D01*
X51153285Y-21775900D01*
X51159577Y-21783567D01*
X51207196Y-21831185D01*
X51214862Y-21837477D01*
X51216595Y-21839475D01*
X51219603Y-21841368D01*
X51222349Y-21843622D01*
X51224789Y-21844632D01*
X51233186Y-21849918D01*
X51328423Y-21897537D01*
X51346732Y-21904543D01*
X51350315Y-21904797D01*
X51353636Y-21906173D01*
X51373145Y-21908094D01*
X52182668Y-21908094D01*
X52202177Y-21906173D01*
X52238225Y-21891241D01*
X52265815Y-21863651D01*
X52280747Y-21827603D01*
X52280747Y-21788585D01*
X52265815Y-21752537D01*
X52238225Y-21724947D01*
X52202177Y-21710015D01*
X52182668Y-21708094D01*
X51396752Y-21708094D01*
X51337142Y-21678289D01*
X51312471Y-21653618D01*
X51282668Y-21594011D01*
X51282668Y-21450748D01*
X51312471Y-21391141D01*
X51337142Y-21366470D01*
X51396752Y-21336666D01*
X52182668Y-21336666D01*
X52202177Y-21334745D01*
X52238225Y-21319813D01*
X52265815Y-21292223D01*
X52280747Y-21256175D01*
X52280747Y-21217157D01*
X52265815Y-21181109D01*
X52238225Y-21153519D01*
X52202177Y-21138587D01*
X52182668Y-21136666D01*
X51373145Y-21136666D01*
X51353636Y-21138587D01*
X51350315Y-21139962D01*
X51346732Y-21140217D01*
X51328423Y-21147223D01*
X51233186Y-21194842D01*
X51224789Y-21200127D01*
X51222349Y-21201138D01*
X51219603Y-21203391D01*
X51216595Y-21205285D01*
X51214862Y-21207282D01*
X51207196Y-21213575D01*
X51159577Y-21261193D01*
X51153285Y-21268859D01*
X51151289Y-21270591D01*
X51149394Y-21273601D01*
X51147141Y-21276347D01*
X51146130Y-21278786D01*
X51140846Y-21287182D01*
X51093226Y-21382420D01*
X51086219Y-21400728D01*
X51085964Y-21404313D01*
X51084589Y-21407633D01*
X51082668Y-21427142D01*
X50411826Y-21427142D01*
X50408661Y-21425931D01*
X50407938Y-21425879D01*
X50406501Y-21425366D01*
X50216026Y-21377747D01*
X50212644Y-21377246D01*
X50211281Y-21376682D01*
X50203930Y-21375958D01*
X50196633Y-21374879D01*
X50195174Y-21375096D01*
X50191772Y-21374761D01*
X49953677Y-21374761D01*
X49950274Y-21375096D01*
X49948816Y-21374879D01*
X49941518Y-21375958D01*
X49934168Y-21376682D01*
X49932804Y-21377246D01*
X49929423Y-21377747D01*
X49738947Y-21425366D01*
X49737508Y-21425879D01*
X49736788Y-21425931D01*
X49728663Y-21429039D01*
X49720487Y-21431961D01*
X49719907Y-21432390D01*
X49718479Y-21432937D01*
X49623242Y-21480556D01*
X49614845Y-21485841D01*
X49612405Y-21486852D01*
X49609659Y-21489105D01*
X49606651Y-21490999D01*
X49604918Y-21492996D01*
X49597252Y-21499289D01*
X49549633Y-21546907D01*
X49543341Y-21554573D01*
X49541345Y-21556305D01*
X49539450Y-21559315D01*
X49537197Y-21562061D01*
X49536186Y-21564500D01*
X49530902Y-21572896D01*
X49483282Y-21668134D01*
X49476275Y-21686442D01*
X49476020Y-21690027D01*
X49474645Y-21693347D01*
X49472724Y-21712856D01*
X47751669Y-21712856D01*
X47751669Y-20522380D01*
X49472724Y-20522380D01*
X49472724Y-21141427D01*
X49474645Y-21160936D01*
X49489577Y-21196984D01*
X49517167Y-21224574D01*
X49553215Y-21239506D01*
X49592233Y-21239506D01*
X49628281Y-21224574D01*
X49643435Y-21212138D01*
X50198172Y-20657401D01*
X50303236Y-20622380D01*
X50358641Y-20622380D01*
X50418250Y-20652185D01*
X50442919Y-20676853D01*
X50472724Y-20736463D01*
X50472724Y-20927344D01*
X50442919Y-20986953D01*
X50406775Y-21023097D01*
X50394339Y-21038251D01*
X50379407Y-21074299D01*
X50379407Y-21113317D01*
X50394339Y-21149365D01*
X50421929Y-21176955D01*
X50457977Y-21191887D01*
X50496995Y-21191887D01*
X50533043Y-21176955D01*
X50548197Y-21164519D01*
X50595815Y-21116900D01*
X50602107Y-21109233D01*
X50604105Y-21107501D01*
X50605998Y-21104492D01*
X50608252Y-21101747D01*
X50609262Y-21099306D01*
X50614548Y-21090910D01*
X50662167Y-20995673D01*
X50669173Y-20977364D01*
X50669427Y-20973780D01*
X50670803Y-20970460D01*
X50672724Y-20950951D01*
X50672724Y-20712856D01*
X50670803Y-20693347D01*
X50669427Y-20690026D01*
X50669173Y-20686443D01*
X50662167Y-20668134D01*
X50614548Y-20572897D01*
X50609262Y-20564500D01*
X50608252Y-20562060D01*
X50605998Y-20559314D01*
X50604105Y-20556306D01*
X50602107Y-20554573D01*
X50595815Y-20546907D01*
X50548197Y-20499288D01*
X50540526Y-20492993D01*
X50538797Y-20490999D01*
X50535789Y-20489105D01*
X50533043Y-20486852D01*
X50530603Y-20485841D01*
X50522207Y-20480556D01*
X50426969Y-20432937D01*
X50408661Y-20425931D01*
X50405077Y-20425676D01*
X50401757Y-20424301D01*
X50382248Y-20422380D01*
X50287010Y-20422380D01*
X50277136Y-20423352D01*
X50274502Y-20423165D01*
X50271038Y-20423952D01*
X50267501Y-20424301D01*
X50265059Y-20425312D01*
X50255387Y-20427512D01*
X50112530Y-20475131D01*
X50094630Y-20483122D01*
X50091914Y-20485477D01*
X50088596Y-20486852D01*
X50073442Y-20499288D01*
X49672724Y-20900005D01*
X49672724Y-20522380D01*
X49670803Y-20502871D01*
X49655871Y-20466823D01*
X49628281Y-20439233D01*
X49592233Y-20424301D01*
X49553215Y-20424301D01*
X49517167Y-20439233D01*
X49489577Y-20466823D01*
X49474645Y-20502871D01*
X49472724Y-20522380D01*
X47751669Y-20522380D01*
X47751669Y-19760475D01*
X49472724Y-19760475D01*
X49472724Y-19950951D01*
X49474645Y-19970460D01*
X49476020Y-19973779D01*
X49476275Y-19977365D01*
X49483282Y-19995673D01*
X49530902Y-20090911D01*
X49536186Y-20099306D01*
X49537197Y-20101746D01*
X49539450Y-20104491D01*
X49541345Y-20107502D01*
X49543341Y-20109233D01*
X49549633Y-20116900D01*
X49597252Y-20164518D01*
X49604918Y-20170810D01*
X49606651Y-20172808D01*
X49609659Y-20174701D01*
X49612405Y-20176955D01*
X49614845Y-20177965D01*
X49623242Y-20183251D01*
X49718479Y-20230870D01*
X49736788Y-20237876D01*
X49740371Y-20238130D01*
X49743692Y-20239506D01*
X49763201Y-20241427D01*
X50144153Y-20241427D01*
X50147555Y-20241091D01*
X50149014Y-20241309D01*
X50156311Y-20240229D01*
X50163662Y-20239506D01*
X50165025Y-20238941D01*
X50168407Y-20238441D01*
X50358882Y-20190822D01*
X50363556Y-20189152D01*
X51082668Y-20189152D01*
X51090320Y-20227412D01*
X51112031Y-20259832D01*
X51127198Y-20272252D01*
X51502390Y-20522380D01*
X51127198Y-20772508D01*
X51112031Y-20784928D01*
X51090320Y-20817348D01*
X51082668Y-20855608D01*
X51090240Y-20893885D01*
X51111883Y-20926350D01*
X51144303Y-20948061D01*
X51182563Y-20955713D01*
X51220840Y-20948141D01*
X51238138Y-20938918D01*
X51682668Y-20642564D01*
X52127198Y-20938918D01*
X52144496Y-20948141D01*
X52182773Y-20955713D01*
X52221033Y-20948061D01*
X52253453Y-20926350D01*
X52275096Y-20893885D01*
X52282668Y-20855608D01*
X52275016Y-20817348D01*
X52253305Y-20784928D01*
X52238138Y-20772508D01*
X51862945Y-20522380D01*
X52238138Y-20272252D01*
X52253305Y-20259832D01*
X52275016Y-20227412D01*
X52282668Y-20189152D01*
X52275096Y-20150875D01*
X52253453Y-20118410D01*
X52221033Y-20096699D01*
X52182773Y-20089047D01*
X52144496Y-20096619D01*
X52127198Y-20105842D01*
X51682668Y-20402195D01*
X51238138Y-20105842D01*
X51220840Y-20096619D01*
X51182563Y-20089047D01*
X51144303Y-20096699D01*
X51111883Y-20118410D01*
X51090240Y-20150875D01*
X51082668Y-20189152D01*
X50363556Y-20189152D01*
X50370377Y-20186715D01*
X50372801Y-20186236D01*
X50374997Y-20185064D01*
X50377343Y-20184227D01*
X50379329Y-20182755D01*
X50390099Y-20177013D01*
X50532956Y-20081775D01*
X50533010Y-20081730D01*
X50533043Y-20081717D01*
X50540574Y-20075536D01*
X50548123Y-20069355D01*
X50548142Y-20069325D01*
X50548197Y-20069281D01*
X50595815Y-20021662D01*
X50602107Y-20013995D01*
X50604105Y-20012263D01*
X50605998Y-20009254D01*
X50608252Y-20006509D01*
X50609262Y-20004068D01*
X50614548Y-19995672D01*
X50662167Y-19900435D01*
X50669173Y-19882126D01*
X50669427Y-19878542D01*
X50670803Y-19875222D01*
X50672724Y-19855713D01*
X50672724Y-19665237D01*
X50670803Y-19645728D01*
X50655871Y-19609680D01*
X50628281Y-19582090D01*
X50592233Y-19567158D01*
X50553215Y-19567158D01*
X50517167Y-19582090D01*
X50489577Y-19609680D01*
X50474645Y-19645728D01*
X50472724Y-19665237D01*
X50472724Y-19832106D01*
X50442919Y-19891715D01*
X50413775Y-19920858D01*
X50293571Y-20000995D01*
X50276408Y-20005285D01*
X50281215Y-19995673D01*
X50288221Y-19977364D01*
X50288475Y-19973780D01*
X50289851Y-19970460D01*
X50291772Y-19950951D01*
X50291772Y-19760475D01*
X50289851Y-19740966D01*
X50288475Y-19737645D01*
X50288221Y-19734062D01*
X50281215Y-19715753D01*
X50233596Y-19620516D01*
X50228310Y-19612119D01*
X50227300Y-19609679D01*
X50225046Y-19606933D01*
X50223153Y-19603925D01*
X50221155Y-19602192D01*
X50214863Y-19594526D01*
X50167245Y-19546907D01*
X50159574Y-19540612D01*
X50157845Y-19538618D01*
X50154837Y-19536724D01*
X50152091Y-19534471D01*
X50149651Y-19533460D01*
X50141255Y-19528175D01*
X50046017Y-19480556D01*
X50027709Y-19473550D01*
X50024125Y-19473295D01*
X50020805Y-19471920D01*
X50001296Y-19469999D01*
X49763201Y-19469999D01*
X49743692Y-19471920D01*
X49740371Y-19473295D01*
X49736788Y-19473550D01*
X49718479Y-19480556D01*
X49623242Y-19528175D01*
X49614845Y-19533460D01*
X49612405Y-19534471D01*
X49609659Y-19536724D01*
X49606651Y-19538618D01*
X49604918Y-19540615D01*
X49597252Y-19546908D01*
X49549633Y-19594526D01*
X49543341Y-19602192D01*
X49541345Y-19603924D01*
X49539450Y-19606934D01*
X49537197Y-19609680D01*
X49536186Y-19612119D01*
X49530902Y-19620515D01*
X49483282Y-19715753D01*
X49476275Y-19734061D01*
X49476020Y-19737646D01*
X49474645Y-19740966D01*
X49472724Y-19760475D01*
X47751669Y-19760475D01*
X47751669Y-19358888D01*
X52393779Y-19358888D01*
X52393779Y-29826808D01*
G37*
G36*
X20095634Y-15136641D02*
G01*
X20297439Y-15257724D01*
X20418521Y-15459528D01*
X20458821Y-15661028D01*
X20418521Y-15862528D01*
X20297439Y-16064331D01*
X20095634Y-16185414D01*
X19894135Y-16225714D01*
X19692635Y-16185414D01*
X19490831Y-16064331D01*
X19369749Y-15862528D01*
X19329449Y-15661028D01*
X19369749Y-15459529D01*
X19427782Y-15362806D01*
X19604444Y-15362806D01*
X19607210Y-15401726D01*
X19624659Y-15436625D01*
X19654136Y-15462190D01*
X19691151Y-15474529D01*
X19730071Y-15471763D01*
X19748380Y-15464757D01*
X19822505Y-15427695D01*
X19965767Y-15427695D01*
X20025375Y-15457499D01*
X20097665Y-15529789D01*
X20127469Y-15589397D01*
X20127469Y-15732659D01*
X20097665Y-15792267D01*
X20025375Y-15864556D01*
X19965767Y-15894361D01*
X19822505Y-15894361D01*
X19748380Y-15857299D01*
X19730071Y-15850293D01*
X19691151Y-15847527D01*
X19654136Y-15859866D01*
X19624659Y-15885431D01*
X19607210Y-15920330D01*
X19604444Y-15959250D01*
X19616783Y-15996265D01*
X19642348Y-16025742D01*
X19658938Y-16036185D01*
X19754177Y-16083804D01*
X19772485Y-16090810D01*
X19776068Y-16091064D01*
X19779389Y-16092440D01*
X19798898Y-16094361D01*
X19989374Y-16094361D01*
X20008883Y-16092440D01*
X20012203Y-16091064D01*
X20015787Y-16090810D01*
X20034095Y-16083804D01*
X20129333Y-16036185D01*
X20137729Y-16030899D01*
X20140169Y-16029889D01*
X20142915Y-16027635D01*
X20145923Y-16025742D01*
X20147652Y-16023747D01*
X20155323Y-16017453D01*
X20250561Y-15922215D01*
X20256852Y-15914548D01*
X20258850Y-15912816D01*
X20260745Y-15909804D01*
X20262997Y-15907061D01*
X20264006Y-15904623D01*
X20269293Y-15896225D01*
X20316912Y-15800988D01*
X20323918Y-15782679D01*
X20324172Y-15779095D01*
X20325548Y-15775775D01*
X20327469Y-15756266D01*
X20327469Y-15565790D01*
X20325548Y-15546281D01*
X20324172Y-15542960D01*
X20323918Y-15539377D01*
X20316912Y-15521068D01*
X20269293Y-15425831D01*
X20264006Y-15417432D01*
X20262997Y-15414995D01*
X20260745Y-15412251D01*
X20258850Y-15409240D01*
X20256852Y-15407507D01*
X20250561Y-15399841D01*
X20155323Y-15304603D01*
X20147652Y-15298308D01*
X20145923Y-15296314D01*
X20142915Y-15294420D01*
X20140169Y-15292167D01*
X20137729Y-15291156D01*
X20129333Y-15285871D01*
X20034095Y-15238252D01*
X20015787Y-15231246D01*
X20012203Y-15230991D01*
X20008883Y-15229616D01*
X19989374Y-15227695D01*
X19798898Y-15227695D01*
X19779389Y-15229616D01*
X19776068Y-15230991D01*
X19772485Y-15231246D01*
X19754177Y-15238252D01*
X19658938Y-15285871D01*
X19642348Y-15296314D01*
X19616783Y-15325791D01*
X19604444Y-15362806D01*
X19427782Y-15362806D01*
X19490831Y-15257724D01*
X19692636Y-15136641D01*
X19894135Y-15096341D01*
X20095634Y-15136641D01*
G37*
G36*
X32311091Y-16007413D02*
G01*
X32251481Y-16037219D01*
X32183175Y-16037219D01*
X32191466Y-16028927D01*
X32251076Y-15999123D01*
X32319382Y-15999123D01*
X32311091Y-16007413D01*
G37*
G36*
X32311089Y-15267023D02*
G01*
X32375268Y-15331202D01*
X32413183Y-15482861D01*
X32413183Y-15791575D01*
X32401319Y-15839031D01*
X32378264Y-15815976D01*
X32342216Y-15801044D01*
X32322707Y-15799123D01*
X32227469Y-15799123D01*
X32207960Y-15801044D01*
X32204639Y-15802419D01*
X32201056Y-15802674D01*
X32182747Y-15809680D01*
X32087510Y-15857299D01*
X32079113Y-15862584D01*
X32076673Y-15863595D01*
X32073927Y-15865848D01*
X32070919Y-15867742D01*
X32069186Y-15869739D01*
X32061520Y-15876032D01*
X31989374Y-15948178D01*
X31984432Y-15943236D01*
X31946517Y-15791575D01*
X31946517Y-15482862D01*
X31984432Y-15331202D01*
X32048611Y-15267023D01*
X32108219Y-15237219D01*
X32251481Y-15237219D01*
X32311089Y-15267023D01*
G37*
G36*
X24365564Y-16037219D02*
G01*
X24243695Y-16037219D01*
X24138630Y-16002197D01*
X24071560Y-15935127D01*
X24036106Y-15864218D01*
X23994136Y-15696337D01*
X23994136Y-15578100D01*
X24036106Y-15410218D01*
X24071559Y-15339312D01*
X24138631Y-15272240D01*
X24243695Y-15237219D01*
X24365564Y-15237219D01*
X24365564Y-16037219D01*
G37*
G36*
X22041108Y-15751504D02*
G01*
X21842403Y-15751504D01*
X21941755Y-15453446D01*
X22041108Y-15751504D01*
G37*
G36*
X23374441Y-15751504D02*
G01*
X23175736Y-15751504D01*
X23275088Y-15453446D01*
X23374441Y-15751504D01*
G37*
G36*
X26041108Y-15751504D02*
G01*
X25842403Y-15751504D01*
X25941755Y-15453446D01*
X26041108Y-15751504D01*
G37*
G36*
X34279203Y-15751504D02*
G01*
X34080498Y-15751504D01*
X34179850Y-15453446D01*
X34279203Y-15751504D01*
G37*
G36*
X35629056Y-16538806D02*
G01*
X19016358Y-16538806D01*
X19016358Y-15660923D01*
X19127469Y-15660923D01*
X19127489Y-15661028D01*
X19127469Y-15661133D01*
X19129411Y-15680640D01*
X19177030Y-15918734D01*
X19180585Y-15930411D01*
X19180949Y-15932855D01*
X19182014Y-15935104D01*
X19182740Y-15937488D01*
X19184115Y-15939542D01*
X19189339Y-15950572D01*
X19332196Y-16188668D01*
X19343880Y-16204409D01*
X19347828Y-16207334D01*
X19350755Y-16211284D01*
X19366495Y-16222968D01*
X19604590Y-16365825D01*
X19615621Y-16371048D01*
X19617675Y-16372424D01*
X19620058Y-16373149D01*
X19622308Y-16374215D01*
X19624751Y-16374578D01*
X19636428Y-16378134D01*
X19874524Y-16425753D01*
X19894031Y-16427695D01*
X19894136Y-16427674D01*
X19894241Y-16427695D01*
X19913748Y-16425753D01*
X20151842Y-16378134D01*
X20163519Y-16374578D01*
X20165963Y-16374215D01*
X20168213Y-16373149D01*
X20170596Y-16372424D01*
X20172649Y-16371048D01*
X20183681Y-16365825D01*
X20421775Y-16222968D01*
X20437516Y-16211284D01*
X20440441Y-16207334D01*
X20444391Y-16204409D01*
X20456075Y-16188668D01*
X20494448Y-16124712D01*
X21509207Y-16124712D01*
X21511973Y-16163632D01*
X21529423Y-16198531D01*
X21558899Y-16224096D01*
X21595915Y-16236434D01*
X21634835Y-16233668D01*
X21669734Y-16216218D01*
X21695299Y-16186742D01*
X21703290Y-16168842D01*
X21775736Y-15951504D01*
X22107774Y-15951504D01*
X22180220Y-16168841D01*
X22188211Y-16186742D01*
X22213776Y-16216218D01*
X22248675Y-16233667D01*
X22287595Y-16236434D01*
X22324611Y-16224095D01*
X22354087Y-16198530D01*
X22371537Y-16163631D01*
X22374303Y-16124711D01*
X22369956Y-16105596D01*
X22358121Y-16070091D01*
X22462723Y-16070091D01*
X22462723Y-16109109D01*
X22468695Y-16123527D01*
X22477655Y-16145158D01*
X22477659Y-16145162D01*
X22490091Y-16160311D01*
X22537710Y-16207929D01*
X22552863Y-16220366D01*
X22561866Y-16224095D01*
X22588912Y-16235298D01*
X22627930Y-16235298D01*
X22663978Y-16220366D01*
X22679132Y-16207930D01*
X22726750Y-16160311D01*
X22739187Y-16145158D01*
X22745939Y-16128856D01*
X22747655Y-16124712D01*
X22842540Y-16124712D01*
X22845306Y-16163632D01*
X22862756Y-16198531D01*
X22892232Y-16224096D01*
X22929248Y-16236434D01*
X22968168Y-16233668D01*
X23003067Y-16216218D01*
X23028632Y-16186742D01*
X23036623Y-16168842D01*
X23109069Y-15951504D01*
X23441107Y-15951504D01*
X23513553Y-16168841D01*
X23521544Y-16186742D01*
X23547109Y-16216218D01*
X23582008Y-16233667D01*
X23620928Y-16236434D01*
X23657944Y-16224095D01*
X23687420Y-16198530D01*
X23704870Y-16163631D01*
X23707636Y-16124711D01*
X23703289Y-16105596D01*
X23523354Y-15565790D01*
X23794136Y-15565790D01*
X23794136Y-15708647D01*
X23794471Y-15712049D01*
X23794254Y-15713508D01*
X23795333Y-15720805D01*
X23796057Y-15728156D01*
X23796621Y-15729519D01*
X23797122Y-15732901D01*
X23844741Y-15923376D01*
X23845254Y-15924813D01*
X23845306Y-15925536D01*
X23848414Y-15933660D01*
X23851336Y-15941837D01*
X23851766Y-15942417D01*
X23852312Y-15943844D01*
X23899931Y-16039082D01*
X23905213Y-16047474D01*
X23906226Y-16049918D01*
X23908482Y-16052667D01*
X23910374Y-16055672D01*
X23912368Y-16057401D01*
X23918663Y-16065071D01*
X24013901Y-16160311D01*
X24029054Y-16172747D01*
X24032373Y-16174122D01*
X24035089Y-16176477D01*
X24052989Y-16184468D01*
X24195846Y-16232087D01*
X24205518Y-16234286D01*
X24207960Y-16235298D01*
X24211497Y-16235646D01*
X24214961Y-16236434D01*
X24217595Y-16236246D01*
X24227469Y-16237219D01*
X24465564Y-16237219D01*
X24485073Y-16235298D01*
X24521121Y-16220366D01*
X24548711Y-16192776D01*
X24563643Y-16156728D01*
X24565564Y-16137219D01*
X24565564Y-16117710D01*
X24700819Y-16117710D01*
X24700819Y-16156728D01*
X24715751Y-16192776D01*
X24743341Y-16220366D01*
X24779389Y-16235298D01*
X24798898Y-16237219D01*
X25275088Y-16237219D01*
X25294597Y-16235298D01*
X25330645Y-16220366D01*
X25358235Y-16192776D01*
X25373167Y-16156728D01*
X25375088Y-16137219D01*
X25375088Y-16124712D01*
X25509207Y-16124712D01*
X25511973Y-16163632D01*
X25529423Y-16198531D01*
X25558899Y-16224096D01*
X25595915Y-16236434D01*
X25634835Y-16233668D01*
X25669734Y-16216218D01*
X25695299Y-16186742D01*
X25703290Y-16168842D01*
X25775736Y-15951504D01*
X26107774Y-15951504D01*
X26180220Y-16168841D01*
X26188211Y-16186742D01*
X26213776Y-16216218D01*
X26248675Y-16233667D01*
X26287595Y-16236434D01*
X26324611Y-16224095D01*
X26354087Y-16198530D01*
X26371537Y-16163631D01*
X26374303Y-16124711D01*
X26369956Y-16105596D01*
X26040661Y-15117710D01*
X26415105Y-15117710D01*
X26415105Y-15156728D01*
X26430037Y-15192776D01*
X26457627Y-15220366D01*
X26493675Y-15235298D01*
X26513184Y-15237219D01*
X26889374Y-15237219D01*
X26889374Y-15513409D01*
X26656041Y-15513409D01*
X26636532Y-15515330D01*
X26600484Y-15530262D01*
X26572894Y-15557852D01*
X26557962Y-15593900D01*
X26557962Y-15632918D01*
X26572894Y-15668966D01*
X26600484Y-15696556D01*
X26636532Y-15711488D01*
X26656041Y-15713409D01*
X26889374Y-15713409D01*
X26889374Y-16137219D01*
X26891295Y-16156728D01*
X26906227Y-16192776D01*
X26933817Y-16220366D01*
X26969865Y-16235298D01*
X27008883Y-16235298D01*
X27044931Y-16220366D01*
X27072521Y-16192776D01*
X27087453Y-16156728D01*
X27089374Y-16137219D01*
X27089374Y-15149726D01*
X27985398Y-15149726D01*
X27989745Y-15168842D01*
X28323078Y-16168841D01*
X28331069Y-16186742D01*
X28335752Y-16192141D01*
X28338947Y-16198531D01*
X28348418Y-16206746D01*
X28356634Y-16216218D01*
X28363022Y-16219412D01*
X28368423Y-16224096D01*
X28380324Y-16228063D01*
X28391533Y-16233667D01*
X28398657Y-16234173D01*
X28405439Y-16236434D01*
X28417948Y-16235544D01*
X28430453Y-16236434D01*
X28437231Y-16234174D01*
X28444359Y-16233668D01*
X28455575Y-16228059D01*
X28467469Y-16224095D01*
X28472866Y-16219414D01*
X28479258Y-16216218D01*
X28487476Y-16206742D01*
X28496945Y-16198530D01*
X28500138Y-16192143D01*
X28504823Y-16186742D01*
X28512814Y-16168842D01*
X28545731Y-16070091D01*
X28938914Y-16070091D01*
X28938914Y-16109109D01*
X28944886Y-16123527D01*
X28953846Y-16145158D01*
X28953850Y-16145162D01*
X28966282Y-16160311D01*
X29013901Y-16207929D01*
X29029054Y-16220366D01*
X29038057Y-16224095D01*
X29065103Y-16235298D01*
X29104121Y-16235298D01*
X29140169Y-16220366D01*
X29155323Y-16207930D01*
X29202941Y-16160311D01*
X29215378Y-16145158D01*
X29222130Y-16128856D01*
X29226747Y-16117710D01*
X29319867Y-16117710D01*
X29319867Y-16156728D01*
X29334799Y-16192776D01*
X29362389Y-16220366D01*
X29398437Y-16235298D01*
X29417946Y-16237219D01*
X29894136Y-16237219D01*
X29913645Y-16235298D01*
X29949693Y-16220366D01*
X29977283Y-16192776D01*
X29992215Y-16156728D01*
X29994136Y-16137219D01*
X29994136Y-15137219D01*
X30270326Y-15137219D01*
X30270326Y-16137219D01*
X30272247Y-16156728D01*
X30287179Y-16192776D01*
X30314769Y-16220366D01*
X30350817Y-16235298D01*
X30389835Y-16235298D01*
X30425883Y-16220366D01*
X30453473Y-16192776D01*
X30468405Y-16156728D01*
X30470326Y-16137219D01*
X30470326Y-15137219D01*
X30746517Y-15137219D01*
X30746517Y-15946742D01*
X30748438Y-15966251D01*
X30749813Y-15969571D01*
X30750068Y-15973155D01*
X30757074Y-15991463D01*
X30804693Y-16086701D01*
X30809976Y-16095093D01*
X30810988Y-16097537D01*
X30813244Y-16100286D01*
X30815136Y-16103291D01*
X30817130Y-16105020D01*
X30823425Y-16112690D01*
X30871043Y-16160310D01*
X30878711Y-16166603D01*
X30880443Y-16168600D01*
X30883451Y-16170493D01*
X30886197Y-16172747D01*
X30888637Y-16173757D01*
X30897034Y-16179043D01*
X30992271Y-16226662D01*
X31010580Y-16233668D01*
X31014163Y-16233922D01*
X31017484Y-16235298D01*
X31036993Y-16237219D01*
X31227469Y-16237219D01*
X31246978Y-16235298D01*
X31250298Y-16233922D01*
X31253882Y-16233668D01*
X31272190Y-16226662D01*
X31285614Y-16219950D01*
X31699683Y-16219950D01*
X31702449Y-16258870D01*
X31719898Y-16293769D01*
X31749375Y-16319333D01*
X31786391Y-16331672D01*
X31825311Y-16328906D01*
X31843619Y-16321900D01*
X31938857Y-16274281D01*
X31947253Y-16268995D01*
X31949693Y-16267985D01*
X31952439Y-16265731D01*
X31955447Y-16263838D01*
X31957176Y-16261843D01*
X31964847Y-16255549D01*
X32009119Y-16211276D01*
X32039890Y-16226662D01*
X32058199Y-16233668D01*
X32061782Y-16233922D01*
X32065103Y-16235298D01*
X32084612Y-16237219D01*
X32275088Y-16237219D01*
X32294597Y-16235298D01*
X32297917Y-16233922D01*
X32301501Y-16233668D01*
X32319809Y-16226662D01*
X32415047Y-16179043D01*
X32423442Y-16173758D01*
X32425884Y-16172747D01*
X32428631Y-16170491D01*
X32431637Y-16168600D01*
X32433367Y-16166605D01*
X32441037Y-16160310D01*
X32536275Y-16065071D01*
X32548712Y-16049918D01*
X32551557Y-16043047D01*
X32555983Y-16037075D01*
X32562578Y-16018615D01*
X32610197Y-15828139D01*
X32610697Y-15824757D01*
X32611262Y-15823394D01*
X32611985Y-15816043D01*
X32613065Y-15808746D01*
X32612847Y-15807287D01*
X32613183Y-15803885D01*
X32613183Y-15470552D01*
X32612847Y-15467149D01*
X32613065Y-15465691D01*
X32611985Y-15458393D01*
X32611262Y-15451043D01*
X32610697Y-15449679D01*
X32610197Y-15446298D01*
X32562578Y-15255822D01*
X32555983Y-15237362D01*
X32551556Y-15231387D01*
X32548711Y-15224519D01*
X32536275Y-15209365D01*
X32464129Y-15137219D01*
X32841755Y-15137219D01*
X32841755Y-15946742D01*
X32843676Y-15966251D01*
X32845051Y-15969571D01*
X32845306Y-15973155D01*
X32852312Y-15991463D01*
X32899931Y-16086701D01*
X32905214Y-16095093D01*
X32906226Y-16097537D01*
X32908482Y-16100286D01*
X32910374Y-16103291D01*
X32912368Y-16105020D01*
X32918663Y-16112690D01*
X32966281Y-16160310D01*
X32973949Y-16166603D01*
X32975681Y-16168600D01*
X32978689Y-16170493D01*
X32981435Y-16172747D01*
X32983875Y-16173757D01*
X32992272Y-16179043D01*
X33087509Y-16226662D01*
X33105818Y-16233668D01*
X33109401Y-16233922D01*
X33112722Y-16235298D01*
X33132231Y-16237219D01*
X33322707Y-16237219D01*
X33342216Y-16235298D01*
X33345536Y-16233922D01*
X33349120Y-16233668D01*
X33367428Y-16226662D01*
X33462666Y-16179043D01*
X33471061Y-16173758D01*
X33473503Y-16172747D01*
X33476250Y-16170491D01*
X33479256Y-16168600D01*
X33480986Y-16166605D01*
X33488656Y-16160310D01*
X33524253Y-16124712D01*
X33747302Y-16124712D01*
X33750068Y-16163632D01*
X33767518Y-16198531D01*
X33796994Y-16224096D01*
X33834010Y-16236434D01*
X33872930Y-16233668D01*
X33907829Y-16216218D01*
X33933394Y-16186742D01*
X33941385Y-16168842D01*
X34013831Y-15951504D01*
X34345869Y-15951504D01*
X34418315Y-16168841D01*
X34426306Y-16186742D01*
X34451871Y-16216218D01*
X34486770Y-16233667D01*
X34525690Y-16236434D01*
X34562706Y-16224095D01*
X34592182Y-16198530D01*
X34609632Y-16163631D01*
X34612398Y-16124711D01*
X34608051Y-16105596D01*
X34310502Y-15212948D01*
X34700819Y-15212948D01*
X34700819Y-15251966D01*
X34715751Y-15288014D01*
X34743341Y-15315604D01*
X34779389Y-15330536D01*
X34818407Y-15330536D01*
X34854455Y-15315604D01*
X34869609Y-15303168D01*
X34900535Y-15272240D01*
X35005600Y-15237219D01*
X35068385Y-15237219D01*
X35173449Y-15272240D01*
X35240522Y-15339313D01*
X35275974Y-15410218D01*
X35317945Y-15578099D01*
X35317945Y-15696337D01*
X35275974Y-15864218D01*
X35240521Y-15935124D01*
X35173450Y-16002197D01*
X35068385Y-16037219D01*
X35005600Y-16037219D01*
X34900535Y-16002197D01*
X34869609Y-15971270D01*
X34854456Y-15958833D01*
X34818408Y-15943902D01*
X34779390Y-15943901D01*
X34743341Y-15958832D01*
X34715751Y-15986422D01*
X34700820Y-16022470D01*
X34700819Y-16061488D01*
X34715750Y-16097537D01*
X34728187Y-16112690D01*
X34775805Y-16160310D01*
X34790959Y-16172747D01*
X34794278Y-16174122D01*
X34796994Y-16176477D01*
X34814894Y-16184468D01*
X34957751Y-16232087D01*
X34967423Y-16234286D01*
X34969865Y-16235298D01*
X34973402Y-16235646D01*
X34976866Y-16236434D01*
X34979500Y-16236246D01*
X34989374Y-16237219D01*
X35084612Y-16237219D01*
X35094485Y-16236246D01*
X35097119Y-16236434D01*
X35100582Y-16235646D01*
X35104121Y-16235298D01*
X35106563Y-16234286D01*
X35116235Y-16232087D01*
X35259091Y-16184468D01*
X35276992Y-16176477D01*
X35279707Y-16174122D01*
X35283027Y-16172747D01*
X35298180Y-16160310D01*
X35393418Y-16065071D01*
X35399710Y-16057404D01*
X35401707Y-16055673D01*
X35403600Y-16052665D01*
X35405855Y-16049918D01*
X35406866Y-16047476D01*
X35412150Y-16039082D01*
X35459769Y-15943845D01*
X35460315Y-15942416D01*
X35460745Y-15941837D01*
X35463666Y-15933660D01*
X35466775Y-15925536D01*
X35466826Y-15924815D01*
X35467340Y-15923377D01*
X35514959Y-15732901D01*
X35515459Y-15729519D01*
X35516024Y-15728156D01*
X35516747Y-15720805D01*
X35517827Y-15713508D01*
X35517609Y-15712049D01*
X35517945Y-15708647D01*
X35517945Y-15565790D01*
X35517609Y-15562387D01*
X35517827Y-15560929D01*
X35516747Y-15553631D01*
X35516024Y-15546281D01*
X35515459Y-15544917D01*
X35514959Y-15541536D01*
X35467340Y-15351060D01*
X35466826Y-15349621D01*
X35466775Y-15348901D01*
X35463666Y-15340776D01*
X35460745Y-15332600D01*
X35460315Y-15332020D01*
X35459769Y-15330592D01*
X35412150Y-15235355D01*
X35406863Y-15226956D01*
X35405854Y-15224519D01*
X35403602Y-15221775D01*
X35401707Y-15218764D01*
X35399709Y-15217031D01*
X35393418Y-15209365D01*
X35298180Y-15114127D01*
X35283026Y-15101691D01*
X35279707Y-15100316D01*
X35276992Y-15097961D01*
X35259091Y-15089970D01*
X35116235Y-15042351D01*
X35106563Y-15040151D01*
X35104121Y-15039140D01*
X35100582Y-15038791D01*
X35097119Y-15038004D01*
X35094485Y-15038191D01*
X35084612Y-15037219D01*
X34989374Y-15037219D01*
X34979500Y-15038191D01*
X34976866Y-15038004D01*
X34973402Y-15038791D01*
X34969865Y-15039140D01*
X34967423Y-15040151D01*
X34957751Y-15042351D01*
X34814894Y-15089970D01*
X34796994Y-15097961D01*
X34794278Y-15100316D01*
X34790959Y-15101691D01*
X34775806Y-15114128D01*
X34728187Y-15161746D01*
X34715751Y-15176900D01*
X34700819Y-15212948D01*
X34310502Y-15212948D01*
X34274718Y-15105596D01*
X34266727Y-15087696D01*
X34262042Y-15082294D01*
X34258849Y-15075908D01*
X34249380Y-15067695D01*
X34241162Y-15058220D01*
X34234770Y-15055023D01*
X34229373Y-15050343D01*
X34217479Y-15046378D01*
X34206263Y-15040770D01*
X34199135Y-15040263D01*
X34192357Y-15038004D01*
X34179852Y-15038893D01*
X34167343Y-15038004D01*
X34160561Y-15040264D01*
X34153437Y-15040771D01*
X34142228Y-15046374D01*
X34130327Y-15050342D01*
X34124926Y-15055025D01*
X34118538Y-15058220D01*
X34110322Y-15067691D01*
X34100851Y-15075907D01*
X34097656Y-15082296D01*
X34092973Y-15087696D01*
X34084982Y-15105597D01*
X33751649Y-16105596D01*
X33747302Y-16124712D01*
X33524253Y-16124712D01*
X33536275Y-16112690D01*
X33542567Y-16105023D01*
X33544564Y-16103292D01*
X33546457Y-16100284D01*
X33548712Y-16097537D01*
X33549723Y-16095095D01*
X33555007Y-16086701D01*
X33602626Y-15991464D01*
X33609632Y-15973155D01*
X33609886Y-15969571D01*
X33611262Y-15966251D01*
X33613183Y-15946742D01*
X33613183Y-15137219D01*
X33611262Y-15117710D01*
X33596330Y-15081662D01*
X33568740Y-15054072D01*
X33532692Y-15039140D01*
X33493674Y-15039140D01*
X33457626Y-15054072D01*
X33430036Y-15081662D01*
X33415104Y-15117710D01*
X33413183Y-15137219D01*
X33413183Y-15923135D01*
X33383378Y-15982743D01*
X33358709Y-16007413D01*
X33299100Y-16037219D01*
X33155838Y-16037219D01*
X33096228Y-16007414D01*
X33071561Y-15982746D01*
X33041755Y-15923134D01*
X33041755Y-15137219D01*
X33039834Y-15117710D01*
X33024902Y-15081662D01*
X32997312Y-15054072D01*
X32961264Y-15039140D01*
X32922246Y-15039140D01*
X32886198Y-15054072D01*
X32858608Y-15081662D01*
X32843676Y-15117710D01*
X32841755Y-15137219D01*
X32464129Y-15137219D01*
X32441037Y-15114127D01*
X32433366Y-15107832D01*
X32431637Y-15105838D01*
X32428629Y-15103944D01*
X32425883Y-15101691D01*
X32423443Y-15100680D01*
X32415047Y-15095395D01*
X32319809Y-15047776D01*
X32301501Y-15040770D01*
X32297917Y-15040515D01*
X32294597Y-15039140D01*
X32275088Y-15037219D01*
X32084612Y-15037219D01*
X32065103Y-15039140D01*
X32061782Y-15040515D01*
X32058199Y-15040770D01*
X32039890Y-15047776D01*
X31944653Y-15095395D01*
X31936254Y-15100681D01*
X31933817Y-15101691D01*
X31931073Y-15103942D01*
X31928062Y-15105838D01*
X31926329Y-15107835D01*
X31918663Y-15114127D01*
X31823425Y-15209365D01*
X31810989Y-15224519D01*
X31808143Y-15231387D01*
X31803717Y-15237362D01*
X31797122Y-15255823D01*
X31749503Y-15446298D01*
X31749002Y-15449679D01*
X31748438Y-15451043D01*
X31747714Y-15458393D01*
X31746635Y-15465691D01*
X31746852Y-15467149D01*
X31746517Y-15470552D01*
X31746517Y-15803885D01*
X31746852Y-15807287D01*
X31746635Y-15808746D01*
X31747714Y-15816043D01*
X31748438Y-15823394D01*
X31749002Y-15824757D01*
X31749503Y-15828139D01*
X31797122Y-16018614D01*
X31803717Y-16037075D01*
X31808142Y-16043047D01*
X31810988Y-16049918D01*
X31823425Y-16065071D01*
X31847952Y-16089599D01*
X31834899Y-16102652D01*
X31754177Y-16143014D01*
X31737586Y-16153457D01*
X31712022Y-16182934D01*
X31699683Y-16219950D01*
X31285614Y-16219950D01*
X31367428Y-16179043D01*
X31375823Y-16173758D01*
X31378265Y-16172747D01*
X31381012Y-16170491D01*
X31384018Y-16168600D01*
X31385748Y-16166605D01*
X31393418Y-16160310D01*
X31441037Y-16112690D01*
X31447329Y-16105023D01*
X31449326Y-16103292D01*
X31451219Y-16100284D01*
X31453474Y-16097537D01*
X31454485Y-16095095D01*
X31459769Y-16086701D01*
X31507388Y-15991464D01*
X31514394Y-15973155D01*
X31514648Y-15969571D01*
X31516024Y-15966251D01*
X31517945Y-15946742D01*
X31517945Y-15137219D01*
X31516024Y-15117710D01*
X31501092Y-15081662D01*
X31473502Y-15054072D01*
X31437454Y-15039140D01*
X31398436Y-15039140D01*
X31362388Y-15054072D01*
X31334798Y-15081662D01*
X31319866Y-15117710D01*
X31317945Y-15137219D01*
X31317945Y-15923135D01*
X31288140Y-15982743D01*
X31263471Y-16007413D01*
X31203862Y-16037219D01*
X31060600Y-16037219D01*
X31000990Y-16007414D01*
X30976323Y-15982746D01*
X30946517Y-15923134D01*
X30946517Y-15137219D01*
X30944596Y-15117710D01*
X30929664Y-15081662D01*
X30902074Y-15054072D01*
X30866026Y-15039140D01*
X30827008Y-15039140D01*
X30790960Y-15054072D01*
X30763370Y-15081662D01*
X30748438Y-15117710D01*
X30746517Y-15137219D01*
X30470326Y-15137219D01*
X30468405Y-15117710D01*
X30453473Y-15081662D01*
X30425883Y-15054072D01*
X30389835Y-15039140D01*
X30350817Y-15039140D01*
X30314769Y-15054072D01*
X30287179Y-15081662D01*
X30272247Y-15117710D01*
X30270326Y-15137219D01*
X29994136Y-15137219D01*
X29992215Y-15117710D01*
X29977283Y-15081662D01*
X29949693Y-15054072D01*
X29913645Y-15039140D01*
X29874627Y-15039140D01*
X29838579Y-15054072D01*
X29810989Y-15081662D01*
X29796057Y-15117710D01*
X29794136Y-15137219D01*
X29794136Y-16037219D01*
X29417946Y-16037219D01*
X29398437Y-16039140D01*
X29362389Y-16054072D01*
X29334799Y-16081662D01*
X29319867Y-16117710D01*
X29226747Y-16117710D01*
X29230309Y-16109110D01*
X29230310Y-16070092D01*
X29215379Y-16034043D01*
X29202942Y-16018890D01*
X29155323Y-15971270D01*
X29140170Y-15958833D01*
X29130144Y-15954680D01*
X29113903Y-15947953D01*
X29104121Y-15943901D01*
X29065103Y-15943901D01*
X29055321Y-15947953D01*
X29029055Y-15958832D01*
X29029054Y-15958833D01*
X29013900Y-15971270D01*
X28966282Y-16018890D01*
X28953845Y-16034043D01*
X28944887Y-16055672D01*
X28938914Y-16070091D01*
X28545731Y-16070091D01*
X28846147Y-15168842D01*
X28850494Y-15149727D01*
X28847728Y-15110807D01*
X28830278Y-15075908D01*
X28800802Y-15050343D01*
X28763786Y-15038004D01*
X28724866Y-15040771D01*
X28689967Y-15058220D01*
X28664402Y-15087696D01*
X28656411Y-15105597D01*
X28417946Y-15820991D01*
X28179481Y-15105596D01*
X28171490Y-15087696D01*
X28145925Y-15058220D01*
X28111026Y-15040770D01*
X28072106Y-15038004D01*
X28035090Y-15050342D01*
X28005614Y-15075907D01*
X27988164Y-15110806D01*
X27985398Y-15149726D01*
X27089374Y-15149726D01*
X27089374Y-15137219D01*
X27087453Y-15117710D01*
X27072521Y-15081662D01*
X27044931Y-15054072D01*
X27008883Y-15039140D01*
X26989374Y-15037219D01*
X26513184Y-15037219D01*
X26493675Y-15039140D01*
X26457627Y-15054072D01*
X26430037Y-15081662D01*
X26415105Y-15117710D01*
X26040661Y-15117710D01*
X26036623Y-15105596D01*
X26028632Y-15087696D01*
X26023947Y-15082294D01*
X26020754Y-15075908D01*
X26011285Y-15067695D01*
X26003067Y-15058220D01*
X25996675Y-15055023D01*
X25991278Y-15050343D01*
X25979384Y-15046378D01*
X25968168Y-15040770D01*
X25961040Y-15040263D01*
X25954262Y-15038004D01*
X25941757Y-15038893D01*
X25929248Y-15038004D01*
X25922466Y-15040264D01*
X25915342Y-15040771D01*
X25904133Y-15046374D01*
X25892232Y-15050342D01*
X25886831Y-15055025D01*
X25880443Y-15058220D01*
X25872227Y-15067691D01*
X25862756Y-15075907D01*
X25859561Y-15082296D01*
X25854878Y-15087696D01*
X25846887Y-15105597D01*
X25513554Y-16105596D01*
X25509207Y-16124712D01*
X25375088Y-16124712D01*
X25375088Y-15137219D01*
X25373167Y-15117710D01*
X25358235Y-15081662D01*
X25330645Y-15054072D01*
X25294597Y-15039140D01*
X25255579Y-15039140D01*
X25219531Y-15054072D01*
X25191941Y-15081662D01*
X25177009Y-15117710D01*
X25175088Y-15137219D01*
X25175088Y-16037219D01*
X24798898Y-16037219D01*
X24779389Y-16039140D01*
X24743341Y-16054072D01*
X24715751Y-16081662D01*
X24700819Y-16117710D01*
X24565564Y-16117710D01*
X24565564Y-15137219D01*
X24563643Y-15117710D01*
X24548711Y-15081662D01*
X24521121Y-15054072D01*
X24485073Y-15039140D01*
X24465564Y-15037219D01*
X24227469Y-15037219D01*
X24217595Y-15038191D01*
X24214961Y-15038004D01*
X24211497Y-15038791D01*
X24207960Y-15039140D01*
X24205518Y-15040151D01*
X24195846Y-15042351D01*
X24052989Y-15089970D01*
X24035089Y-15097961D01*
X24032373Y-15100316D01*
X24029055Y-15101691D01*
X24013901Y-15114127D01*
X23918663Y-15209365D01*
X23912368Y-15217035D01*
X23910374Y-15218765D01*
X23908480Y-15221772D01*
X23906227Y-15224519D01*
X23905216Y-15226958D01*
X23899931Y-15235355D01*
X23852312Y-15330593D01*
X23851766Y-15332019D01*
X23851336Y-15332600D01*
X23848414Y-15340776D01*
X23845306Y-15348901D01*
X23845254Y-15349623D01*
X23844741Y-15351061D01*
X23797122Y-15541536D01*
X23796621Y-15544917D01*
X23796057Y-15546281D01*
X23795333Y-15553631D01*
X23794254Y-15560929D01*
X23794471Y-15562387D01*
X23794136Y-15565790D01*
X23523354Y-15565790D01*
X23369956Y-15105596D01*
X23361965Y-15087696D01*
X23357280Y-15082294D01*
X23354087Y-15075908D01*
X23344618Y-15067695D01*
X23336400Y-15058220D01*
X23330008Y-15055023D01*
X23324611Y-15050343D01*
X23312717Y-15046378D01*
X23301501Y-15040770D01*
X23294373Y-15040263D01*
X23287595Y-15038004D01*
X23275090Y-15038893D01*
X23262581Y-15038004D01*
X23255799Y-15040264D01*
X23248675Y-15040771D01*
X23237466Y-15046374D01*
X23225565Y-15050342D01*
X23220164Y-15055025D01*
X23213776Y-15058220D01*
X23205560Y-15067691D01*
X23196089Y-15075907D01*
X23192894Y-15082296D01*
X23188211Y-15087696D01*
X23180220Y-15105597D01*
X22846887Y-16105596D01*
X22842540Y-16124712D01*
X22747655Y-16124712D01*
X22754118Y-16109110D01*
X22754119Y-16070092D01*
X22739188Y-16034043D01*
X22726751Y-16018890D01*
X22679132Y-15971270D01*
X22663979Y-15958833D01*
X22653953Y-15954680D01*
X22637712Y-15947953D01*
X22627930Y-15943901D01*
X22588912Y-15943901D01*
X22579130Y-15947953D01*
X22552864Y-15958832D01*
X22552863Y-15958833D01*
X22537709Y-15971270D01*
X22490091Y-16018890D01*
X22477654Y-16034043D01*
X22468696Y-16055672D01*
X22462723Y-16070091D01*
X22358121Y-16070091D01*
X22036623Y-15105596D01*
X22028632Y-15087696D01*
X22023947Y-15082294D01*
X22020754Y-15075908D01*
X22011285Y-15067695D01*
X22003067Y-15058220D01*
X21996675Y-15055023D01*
X21991278Y-15050343D01*
X21979384Y-15046378D01*
X21968168Y-15040770D01*
X21961040Y-15040263D01*
X21954262Y-15038004D01*
X21941757Y-15038893D01*
X21929248Y-15038004D01*
X21922466Y-15040264D01*
X21915342Y-15040771D01*
X21904133Y-15046374D01*
X21892232Y-15050342D01*
X21886831Y-15055025D01*
X21880443Y-15058220D01*
X21872227Y-15067691D01*
X21862756Y-15075907D01*
X21859561Y-15082296D01*
X21854878Y-15087696D01*
X21846887Y-15105597D01*
X21513554Y-16105596D01*
X21509207Y-16124712D01*
X20494448Y-16124712D01*
X20598932Y-15950572D01*
X20604154Y-15939542D01*
X20605531Y-15937488D01*
X20606256Y-15935104D01*
X20607322Y-15932855D01*
X20607685Y-15930411D01*
X20611241Y-15918735D01*
X20658860Y-15680640D01*
X20660802Y-15661133D01*
X20660781Y-15661028D01*
X20660802Y-15660923D01*
X20658860Y-15641416D01*
X20611241Y-15403321D01*
X20607685Y-15391644D01*
X20607322Y-15389201D01*
X20606256Y-15386951D01*
X20605531Y-15384568D01*
X20604155Y-15382514D01*
X20598932Y-15371483D01*
X20456075Y-15133388D01*
X20444391Y-15117648D01*
X20440442Y-15114722D01*
X20437517Y-15110774D01*
X20421776Y-15099089D01*
X20183681Y-14956231D01*
X20172648Y-14951006D01*
X20170596Y-14949632D01*
X20168215Y-14948907D01*
X20165964Y-14947841D01*
X20163518Y-14947477D01*
X20151842Y-14943922D01*
X19913748Y-14896303D01*
X19894241Y-14894361D01*
X19894136Y-14894381D01*
X19894031Y-14894361D01*
X19874524Y-14896303D01*
X19636428Y-14943922D01*
X19624751Y-14947477D01*
X19622308Y-14947841D01*
X19620058Y-14948906D01*
X19617675Y-14949632D01*
X19615621Y-14951007D01*
X19604590Y-14956231D01*
X19366495Y-15099089D01*
X19350755Y-15110773D01*
X19347828Y-15114722D01*
X19343880Y-15117648D01*
X19332196Y-15133389D01*
X19189339Y-15371483D01*
X19184115Y-15382514D01*
X19182740Y-15384568D01*
X19182014Y-15386950D01*
X19180949Y-15389201D01*
X19180585Y-15391644D01*
X19177030Y-15403322D01*
X19129411Y-15641416D01*
X19127469Y-15660923D01*
X19016358Y-15660923D01*
X19016358Y-14783250D01*
X35629056Y-14783250D01*
X35629056Y-16538806D01*
G37*
D11*
%TO.P,U2,1,GND*%
%TO.N,GND*%
X30415000Y-24435000D03*
D12*
%TO.P,U2,2,+*%
%TO.N,Vcap*%
X30415000Y-26975000D03*
%TO.P,U2,3,-*%
%TO.N,Vref*%
X30415000Y-29515000D03*
%TO.P,U2,4,V-*%
%TO.N,GND*%
X30415000Y-32055000D03*
%TO.P,U2,5,BAL*%
%TO.N,unconnected-(U2-BAL-Pad5)*%
X38035000Y-32055000D03*
%TO.P,U2,6,STRB*%
%TO.N,unconnected-(U2-STRB-Pad6)*%
X38035000Y-29515000D03*
%TO.P,U2,7*%
%TO.N,Vs*%
X38035000Y-26975000D03*
%TO.P,U2,8,V+*%
%TO.N,+5V*%
X38035000Y-24435000D03*
%TD*%
D13*
%TO.P,TP2,1,1*%
%TO.N,Vs*%
X41430000Y-29390000D03*
%TD*%
D14*
%TO.P,J4,1,Pin_1*%
%TO.N,Vs*%
X45130000Y-29390000D03*
%TD*%
D15*
%TO.P,R1,1*%
%TO.N,+5V*%
X35800000Y-19490000D03*
D16*
%TO.P,R1,2*%
%TO.N,Vcap*%
X33260000Y-19490000D03*
%TD*%
D17*
%TO.P,J8,1,Pin_1*%
%TO.N,+5V*%
X42280000Y-19565000D03*
D18*
%TO.P,J8,2,Pin_2*%
%TO.N,GND*%
X44780000Y-19565000D03*
%TD*%
D13*
%TO.P,TP11,1,1*%
%TO.N,Vcap*%
X27130000Y-26690000D03*
%TD*%
%TO.P,TP1,1,1*%
%TO.N,Vref*%
X27030000Y-31790000D03*
%TD*%
D19*
%TO.P,RVAR1,1,CCW*%
%TO.N,GND*%
X21035000Y-27130000D03*
%TO.P,RVAR1,2,WIPER*%
%TO.N,Vref*%
X21035000Y-24590000D03*
%TO.P,RVAR1,3,CW*%
%TO.N,+5V*%
X21035000Y-22050000D03*
%TD*%
D20*
%TO.P,R3,1*%
%TO.N,+5V*%
X41500000Y-24500000D03*
%TO.P,R3,2*%
%TO.N,Vs*%
X41500000Y-26500000D03*
%TD*%
D21*
%TO.N,GND*%
X24530000Y-35590000D03*
X53530000Y-24590000D03*
X53530000Y-18590000D03*
X45530000Y-13590000D03*
X53530000Y-27590000D03*
X39530000Y-35590000D03*
X30530000Y-35590000D03*
D22*
X53530000Y-26090000D03*
X20030000Y-17590000D03*
D21*
X24530000Y-13590000D03*
D22*
X26030000Y-13590000D03*
X47030000Y-35590000D03*
X20030000Y-31590000D03*
D21*
X21530000Y-13590000D03*
D22*
X13530000Y-29090000D03*
X26030000Y-19590000D03*
X41030000Y-13590000D03*
X23030000Y-13590000D03*
X13530000Y-26090000D03*
X32030000Y-13590000D03*
D21*
X33530000Y-35590000D03*
X39530000Y-13590000D03*
X48530000Y-35590000D03*
D22*
X13530000Y-20090000D03*
X29030000Y-13590000D03*
X53530000Y-23090000D03*
X13530000Y-23090000D03*
D21*
X36530000Y-35590000D03*
X53530000Y-30590000D03*
X13530000Y-30590000D03*
D22*
X47030000Y-13590000D03*
X17030000Y-20090000D03*
X18030000Y-29090000D03*
X20030000Y-35590000D03*
D21*
X18530000Y-13590000D03*
D22*
X32030000Y-35590000D03*
D21*
X21530000Y-35590000D03*
D22*
X38030000Y-13590000D03*
X35030000Y-35590000D03*
X41030000Y-35590000D03*
D21*
X27530000Y-35590000D03*
D22*
X53530000Y-29090000D03*
X20030000Y-13590000D03*
D21*
X33530000Y-13590000D03*
D22*
X23030000Y-35590000D03*
D21*
X27530000Y-13590000D03*
D22*
X35030000Y-13590000D03*
X45030000Y-26090000D03*
D21*
X13530000Y-21590000D03*
X53530000Y-21590000D03*
X45530000Y-35590000D03*
X48530000Y-13590000D03*
X30530000Y-13590000D03*
X42530000Y-35590000D03*
D22*
X53530000Y-20090000D03*
D21*
X13530000Y-27590000D03*
X13530000Y-24590000D03*
D22*
X44030000Y-35590000D03*
D21*
X18530000Y-35590000D03*
X42530000Y-13590000D03*
D22*
X44030000Y-13590000D03*
X29030000Y-35590000D03*
X26030000Y-35590000D03*
D21*
X13530000Y-18590000D03*
X36530000Y-13590000D03*
D22*
X38030000Y-35590000D03*
%TD*%
D23*
%TO.N,Vref*%
X30415000Y-29515000D02*
X25960000Y-29515000D01*
X21035000Y-24590000D02*
X25960000Y-29515000D01*
X27030000Y-29515000D02*
X27030000Y-31790000D01*
X25960000Y-29515000D02*
X27030000Y-29515000D01*
%TO.N,Vs*%
X41500000Y-29320000D02*
X41430000Y-29390000D01*
X41500000Y-26500000D02*
X41500000Y-29320000D01*
%TO.N,+5V*%
X38035000Y-22601700D02*
X38035000Y-24435000D01*
X35800000Y-20366700D02*
X38035000Y-22601700D01*
X38035000Y-24435000D02*
X41435000Y-24435000D01*
X35800000Y-19490000D02*
X35800000Y-20366700D01*
X41435000Y-24435000D02*
X41500000Y-24500000D01*
D24*
%TO.N,Vcap*%
X33260000Y-19490000D02*
X33260000Y-25060000D01*
X33260000Y-25060000D02*
X31345000Y-26975000D01*
X31345000Y-26975000D02*
X30415000Y-26975000D01*
%TD*%
%TA.AperFunction,Conductor*%
%TO.N,GND*%
G36*
X52128790Y-12290502D02*
G01*
X52128811Y-12290500D01*
X52141577Y-12290505D01*
X52142760Y-12290978D01*
X52179673Y-12290521D01*
X52180457Y-12290522D01*
X52186384Y-12290666D01*
X52465155Y-12304175D01*
X52480103Y-12305815D01*
X52751432Y-12352393D01*
X52766061Y-12355829D01*
X53029774Y-12434983D01*
X53043874Y-12440169D01*
X53296012Y-12550709D01*
X53309394Y-12557574D01*
X53546259Y-12697877D01*
X53558727Y-12706327D01*
X53579245Y-12722131D01*
X53776812Y-12874311D01*
X53788165Y-12884211D01*
X53984270Y-13077412D01*
X53994337Y-13088615D01*
X54165561Y-13304171D01*
X54174193Y-13316509D01*
X54318002Y-13551232D01*
X54325079Y-13564534D01*
X54439364Y-13814980D01*
X54444774Y-13829042D01*
X54527834Y-14091480D01*
X54531500Y-14106095D01*
X54582121Y-14376690D01*
X54583986Y-14391642D01*
X54601600Y-14669339D01*
X54601849Y-14677293D01*
X54585152Y-34488429D01*
X54584831Y-34497245D01*
X54564811Y-34774801D01*
X54562860Y-34789507D01*
X54510385Y-35059862D01*
X54506693Y-35074230D01*
X54422302Y-35336403D01*
X54416920Y-35350226D01*
X54301829Y-35600436D01*
X54294834Y-35613519D01*
X54150688Y-35848191D01*
X54142182Y-35860344D01*
X53971040Y-36076126D01*
X53961143Y-36087177D01*
X53765452Y-36280983D01*
X53754306Y-36290772D01*
X53536883Y-36459811D01*
X53524648Y-36468200D01*
X53288583Y-36610073D01*
X53275433Y-36616940D01*
X53024120Y-36729604D01*
X53010245Y-36734852D01*
X52747274Y-36816698D01*
X52732871Y-36820251D01*
X52462014Y-36870107D01*
X52447291Y-36871915D01*
X52169388Y-36889259D01*
X52161664Y-36889500D01*
X14822581Y-36889500D01*
X14813635Y-36889177D01*
X14540612Y-36869428D01*
X14525910Y-36867475D01*
X14259912Y-36815798D01*
X14245547Y-36812104D01*
X13987612Y-36729033D01*
X13973792Y-36723650D01*
X13727624Y-36610379D01*
X13714545Y-36603384D01*
X13483669Y-36461535D01*
X13471519Y-36453029D01*
X13259220Y-36284620D01*
X13248176Y-36274728D01*
X13057503Y-36082175D01*
X13047732Y-36071051D01*
X12881401Y-35857095D01*
X12873022Y-35844871D01*
X12832912Y-35778129D01*
X12733435Y-35612600D01*
X12726572Y-35599458D01*
X12711816Y-35566544D01*
X12615720Y-35352188D01*
X12610474Y-35338318D01*
X12590281Y-35273446D01*
X12529938Y-35079582D01*
X12526386Y-35065186D01*
X12523324Y-35048558D01*
X12477320Y-34798695D01*
X12475511Y-34783974D01*
X12474938Y-34774801D01*
X12458410Y-34510265D01*
X12458170Y-34502376D01*
X12458178Y-34497245D01*
X12460346Y-32935946D01*
X13679500Y-32935946D01*
X13679500Y-33244053D01*
X13679501Y-33244069D01*
X13719717Y-33549542D01*
X13799464Y-33847162D01*
X13917376Y-34131826D01*
X13917381Y-34131837D01*
X14010014Y-34292280D01*
X14071438Y-34398670D01*
X14071440Y-34398673D01*
X14071441Y-34398674D01*
X14259007Y-34643115D01*
X14259013Y-34643122D01*
X14476877Y-34860986D01*
X14476883Y-34860991D01*
X14721330Y-35048562D01*
X14892830Y-35147578D01*
X14988162Y-35202618D01*
X14988167Y-35202620D01*
X14988170Y-35202622D01*
X15272836Y-35320535D01*
X15570456Y-35400282D01*
X15875940Y-35440500D01*
X15875947Y-35440500D01*
X16184053Y-35440500D01*
X16184060Y-35440500D01*
X16489544Y-35400282D01*
X16787164Y-35320535D01*
X17071830Y-35202622D01*
X17338670Y-35048562D01*
X17583117Y-34860991D01*
X17800991Y-34643117D01*
X17988562Y-34398670D01*
X18142622Y-34131830D01*
X18260535Y-33847164D01*
X18340282Y-33549544D01*
X18380500Y-33244060D01*
X18380500Y-32935940D01*
X18340282Y-32630456D01*
X18260535Y-32332836D01*
X18142622Y-32048170D01*
X18142620Y-32048167D01*
X18142618Y-32048162D01*
X18057426Y-31900606D01*
X17988562Y-31781330D01*
X17911188Y-31680494D01*
X17800992Y-31536884D01*
X17800986Y-31536877D01*
X17583122Y-31319013D01*
X17583115Y-31319007D01*
X17338674Y-31131441D01*
X17338673Y-31131440D01*
X17338670Y-31131438D01*
X17232280Y-31070014D01*
X17071837Y-30977381D01*
X17071826Y-30977376D01*
X16787162Y-30859464D01*
X16489542Y-30779717D01*
X16184069Y-30739501D01*
X16184066Y-30739500D01*
X16184060Y-30739500D01*
X15875940Y-30739500D01*
X15875934Y-30739500D01*
X15875930Y-30739501D01*
X15570457Y-30779717D01*
X15272837Y-30859464D01*
X14988173Y-30977376D01*
X14988162Y-30977381D01*
X14721325Y-31131441D01*
X14476884Y-31319007D01*
X14476877Y-31319013D01*
X14259013Y-31536877D01*
X14259007Y-31536884D01*
X14071441Y-31781325D01*
X13917381Y-32048162D01*
X13917376Y-32048173D01*
X13799464Y-32332837D01*
X13719717Y-32630457D01*
X13679501Y-32935930D01*
X13679500Y-32935946D01*
X12460346Y-32935946D01*
X12468525Y-27045390D01*
X19960000Y-27045390D01*
X19960000Y-27214609D01*
X19986469Y-27381726D01*
X20038760Y-27542659D01*
X20115580Y-27693427D01*
X20116606Y-27694838D01*
X20116607Y-27694839D01*
X20680000Y-27131446D01*
X20680000Y-27176737D01*
X20704193Y-27267025D01*
X20750930Y-27347975D01*
X20817025Y-27414070D01*
X20897975Y-27460807D01*
X20988263Y-27485000D01*
X21033553Y-27485000D01*
X20470159Y-28048391D01*
X20471578Y-28049422D01*
X20622340Y-28126239D01*
X20783273Y-28178530D01*
X20950391Y-28205000D01*
X21119609Y-28205000D01*
X21286726Y-28178530D01*
X21447659Y-28126239D01*
X21598424Y-28049420D01*
X21599839Y-28048391D01*
X21036448Y-27485000D01*
X21081737Y-27485000D01*
X21172025Y-27460807D01*
X21252975Y-27414070D01*
X21319070Y-27347975D01*
X21365807Y-27267025D01*
X21390000Y-27176737D01*
X21390000Y-27131448D01*
X21953391Y-27694839D01*
X21954420Y-27693424D01*
X22031239Y-27542659D01*
X22083530Y-27381726D01*
X22110000Y-27214609D01*
X22110000Y-27045390D01*
X22083530Y-26878273D01*
X22031239Y-26717340D01*
X21954422Y-26566578D01*
X21953391Y-26565159D01*
X21390000Y-27128551D01*
X21390000Y-27083263D01*
X21365807Y-26992975D01*
X21319070Y-26912025D01*
X21252975Y-26845930D01*
X21172025Y-26799193D01*
X21081737Y-26775000D01*
X21036447Y-26775000D01*
X21599839Y-26211607D01*
X21599838Y-26211606D01*
X21598427Y-26210580D01*
X21447659Y-26133760D01*
X21286726Y-26081469D01*
X21119609Y-26055000D01*
X20950391Y-26055000D01*
X20783273Y-26081469D01*
X20622340Y-26133760D01*
X20471575Y-26210579D01*
X20471572Y-26210581D01*
X20470160Y-26211606D01*
X20470160Y-26211607D01*
X21033554Y-26775000D01*
X20988263Y-26775000D01*
X20897975Y-26799193D01*
X20817025Y-26845930D01*
X20750930Y-26912025D01*
X20704193Y-26992975D01*
X20680000Y-27083263D01*
X20680000Y-27128553D01*
X20116607Y-26565160D01*
X20116606Y-26565160D01*
X20115581Y-26566572D01*
X20115579Y-26566575D01*
X20038760Y-26717340D01*
X19986469Y-26878273D01*
X19960000Y-27045390D01*
X12468525Y-27045390D01*
X12472040Y-24513615D01*
X20259500Y-24513615D01*
X20259500Y-24666384D01*
X20289300Y-24816197D01*
X20289302Y-24816205D01*
X20347759Y-24957334D01*
X20347764Y-24957343D01*
X20432629Y-25084351D01*
X20432632Y-25084355D01*
X20540644Y-25192367D01*
X20540648Y-25192370D01*
X20667656Y-25277235D01*
X20667662Y-25277238D01*
X20667663Y-25277239D01*
X20808795Y-25335698D01*
X20944217Y-25362635D01*
X20958615Y-25365499D01*
X20958619Y-25365500D01*
X20958620Y-25365500D01*
X21111380Y-25365500D01*
X21157081Y-25356409D01*
X21226668Y-25362635D01*
X21268952Y-25390345D01*
X25714087Y-29835480D01*
X25805412Y-29888207D01*
X25907273Y-29915500D01*
X26505500Y-29915500D01*
X26572539Y-29935185D01*
X26618294Y-29987989D01*
X26629500Y-30039500D01*
X26629500Y-30465500D01*
X26609815Y-30532539D01*
X26557011Y-30578294D01*
X26505500Y-30589500D01*
X26010247Y-30589500D01*
X25951770Y-30601131D01*
X25951769Y-30601132D01*
X25885447Y-30645447D01*
X25841132Y-30711769D01*
X25841131Y-30711770D01*
X25829500Y-30770247D01*
X25829500Y-32809752D01*
X25841131Y-32868229D01*
X25841132Y-32868230D01*
X25885447Y-32934552D01*
X25951769Y-32978867D01*
X25951770Y-32978868D01*
X26010247Y-32990499D01*
X26010250Y-32990500D01*
X26010252Y-32990500D01*
X28049750Y-32990500D01*
X28049751Y-32990499D01*
X28064568Y-32987552D01*
X28108229Y-32978868D01*
X28108229Y-32978867D01*
X28108231Y-32978867D01*
X28174552Y-32934552D01*
X28218867Y-32868231D01*
X28218867Y-32868229D01*
X28218868Y-32868229D01*
X28230499Y-32809752D01*
X28230500Y-32809750D01*
X28230500Y-30770249D01*
X28230499Y-30770247D01*
X28218868Y-30711770D01*
X28218867Y-30711769D01*
X28174552Y-30645447D01*
X28108230Y-30601132D01*
X28108229Y-30601131D01*
X28049752Y-30589500D01*
X28049748Y-30589500D01*
X27554500Y-30589500D01*
X27487461Y-30569815D01*
X27441706Y-30517011D01*
X27430500Y-30465500D01*
X27430500Y-30039500D01*
X27450185Y-29972461D01*
X27502989Y-29926706D01*
X27554500Y-29915500D01*
X29415105Y-29915500D01*
X29482144Y-29935185D01*
X29524506Y-29984073D01*
X29525498Y-29983544D01*
X29527833Y-29987913D01*
X29527899Y-29987989D01*
X29528009Y-29988243D01*
X29528371Y-29988920D01*
X29637860Y-30152781D01*
X29637863Y-30152785D01*
X29777214Y-30292136D01*
X29777218Y-30292139D01*
X29941079Y-30401628D01*
X29941092Y-30401635D01*
X30101869Y-30468230D01*
X30123165Y-30477051D01*
X30255674Y-30503409D01*
X30304061Y-30513034D01*
X30365972Y-30545419D01*
X30400546Y-30606134D01*
X30396807Y-30675904D01*
X30355940Y-30732576D01*
X30299269Y-30757124D01*
X30110581Y-30787010D01*
X29915968Y-30850244D01*
X29733644Y-30943143D01*
X29689077Y-30975523D01*
X29689077Y-30975524D01*
X30368554Y-31655000D01*
X30362339Y-31655000D01*
X30260606Y-31682259D01*
X30169394Y-31734920D01*
X30094920Y-31809394D01*
X30042259Y-31900606D01*
X30015000Y-32002339D01*
X30015000Y-32008553D01*
X29335524Y-31329077D01*
X29335523Y-31329077D01*
X29303143Y-31373644D01*
X29210244Y-31555968D01*
X29147009Y-31750582D01*
X29115000Y-31952682D01*
X29115000Y-32157317D01*
X29147009Y-32359417D01*
X29210244Y-32554031D01*
X29303141Y-32736350D01*
X29303147Y-32736359D01*
X29335523Y-32780921D01*
X29335524Y-32780922D01*
X30015000Y-32101446D01*
X30015000Y-32107661D01*
X30042259Y-32209394D01*
X30094920Y-32300606D01*
X30169394Y-32375080D01*
X30260606Y-32427741D01*
X30362339Y-32455000D01*
X30368553Y-32455000D01*
X29689076Y-33134474D01*
X29733650Y-33166859D01*
X29915968Y-33259755D01*
X30110582Y-33322990D01*
X30312683Y-33355000D01*
X30517317Y-33355000D01*
X30719417Y-33322990D01*
X30914031Y-33259755D01*
X31096349Y-33166859D01*
X31140921Y-33134474D01*
X30461447Y-32455000D01*
X30467661Y-32455000D01*
X30569394Y-32427741D01*
X30660606Y-32375080D01*
X30735080Y-32300606D01*
X30787741Y-32209394D01*
X30815000Y-32107661D01*
X30815000Y-32101447D01*
X31494474Y-32780921D01*
X31526859Y-32736349D01*
X31619755Y-32554031D01*
X31682990Y-32359417D01*
X31715000Y-32157317D01*
X31715000Y-32153543D01*
X37034499Y-32153543D01*
X37072947Y-32346829D01*
X37072950Y-32346839D01*
X37148364Y-32528907D01*
X37148371Y-32528920D01*
X37257860Y-32692781D01*
X37257863Y-32692785D01*
X37397214Y-32832136D01*
X37397218Y-32832139D01*
X37561079Y-32941628D01*
X37561092Y-32941635D01*
X37743160Y-33017049D01*
X37743165Y-33017051D01*
X37743169Y-33017051D01*
X37743170Y-33017052D01*
X37936456Y-33055500D01*
X37936459Y-33055500D01*
X38133543Y-33055500D01*
X38263582Y-33029632D01*
X38326835Y-33017051D01*
X38508914Y-32941632D01*
X38517424Y-32935946D01*
X48679500Y-32935946D01*
X48679500Y-33244053D01*
X48679501Y-33244069D01*
X48719717Y-33549542D01*
X48799464Y-33847162D01*
X48917376Y-34131826D01*
X48917381Y-34131837D01*
X49010014Y-34292280D01*
X49071438Y-34398670D01*
X49071440Y-34398673D01*
X49071441Y-34398674D01*
X49259007Y-34643115D01*
X49259013Y-34643122D01*
X49476877Y-34860986D01*
X49476883Y-34860991D01*
X49721330Y-35048562D01*
X49892830Y-35147578D01*
X49988162Y-35202618D01*
X49988167Y-35202620D01*
X49988170Y-35202622D01*
X50272836Y-35320535D01*
X50570456Y-35400282D01*
X50875940Y-35440500D01*
X50875947Y-35440500D01*
X51184053Y-35440500D01*
X51184060Y-35440500D01*
X51489544Y-35400282D01*
X51787164Y-35320535D01*
X52071830Y-35202622D01*
X52338670Y-35048562D01*
X52583117Y-34860991D01*
X52800991Y-34643117D01*
X52988562Y-34398670D01*
X53142622Y-34131830D01*
X53260535Y-33847164D01*
X53340282Y-33549544D01*
X53380500Y-33244060D01*
X53380500Y-32935940D01*
X53340282Y-32630456D01*
X53260535Y-32332836D01*
X53142622Y-32048170D01*
X53142620Y-32048167D01*
X53142618Y-32048162D01*
X53057426Y-31900606D01*
X52988562Y-31781330D01*
X52911188Y-31680494D01*
X52800992Y-31536884D01*
X52800986Y-31536877D01*
X52583122Y-31319013D01*
X52583115Y-31319007D01*
X52338674Y-31131441D01*
X52338673Y-31131440D01*
X52338670Y-31131438D01*
X52232280Y-31070014D01*
X52071837Y-30977381D01*
X52071826Y-30977376D01*
X51787162Y-30859464D01*
X51489542Y-30779717D01*
X51184069Y-30739501D01*
X51184066Y-30739500D01*
X51184060Y-30739500D01*
X50875940Y-30739500D01*
X50875934Y-30739500D01*
X50875930Y-30739501D01*
X50570457Y-30779717D01*
X50272837Y-30859464D01*
X49988173Y-30977376D01*
X49988162Y-30977381D01*
X49721325Y-31131441D01*
X49476884Y-31319007D01*
X49476877Y-31319013D01*
X49259013Y-31536877D01*
X49259007Y-31536884D01*
X49071441Y-31781325D01*
X48917381Y-32048162D01*
X48917376Y-32048173D01*
X48799464Y-32332837D01*
X48719717Y-32630457D01*
X48679501Y-32935930D01*
X48679500Y-32935946D01*
X38517424Y-32935946D01*
X38672782Y-32832139D01*
X38812139Y-32692782D01*
X38921632Y-32528914D01*
X38997051Y-32346835D01*
X39035500Y-32153541D01*
X39035500Y-31956459D01*
X39035500Y-31956456D01*
X38997052Y-31763170D01*
X38997051Y-31763169D01*
X38997051Y-31763165D01*
X38985352Y-31734920D01*
X38921635Y-31581092D01*
X38921628Y-31581079D01*
X38812139Y-31417218D01*
X38812136Y-31417214D01*
X38672785Y-31277863D01*
X38672781Y-31277860D01*
X38508920Y-31168371D01*
X38508907Y-31168364D01*
X38326839Y-31092950D01*
X38326829Y-31092947D01*
X38133543Y-31054500D01*
X38133541Y-31054500D01*
X37936459Y-31054500D01*
X37936457Y-31054500D01*
X37743170Y-31092947D01*
X37743160Y-31092950D01*
X37561092Y-31168364D01*
X37561079Y-31168371D01*
X37397218Y-31277860D01*
X37397214Y-31277863D01*
X37257863Y-31417214D01*
X37257860Y-31417218D01*
X37148371Y-31581079D01*
X37148364Y-31581092D01*
X37072950Y-31763160D01*
X37072947Y-31763170D01*
X37034500Y-31956456D01*
X37034500Y-31956459D01*
X37034500Y-32153541D01*
X37034500Y-32153543D01*
X37034499Y-32153543D01*
X31715000Y-32153543D01*
X31715000Y-31952682D01*
X31682990Y-31750582D01*
X31619755Y-31555968D01*
X31526859Y-31373650D01*
X31494474Y-31329077D01*
X31494474Y-31329076D01*
X30815000Y-32008551D01*
X30815000Y-32002339D01*
X30787741Y-31900606D01*
X30735080Y-31809394D01*
X30660606Y-31734920D01*
X30569394Y-31682259D01*
X30467661Y-31655000D01*
X30461446Y-31655000D01*
X31140922Y-30975524D01*
X31140921Y-30975523D01*
X31096359Y-30943147D01*
X31096350Y-30943141D01*
X30914031Y-30850244D01*
X30719417Y-30787009D01*
X30530731Y-30757124D01*
X30467596Y-30727194D01*
X30430665Y-30667883D01*
X30431663Y-30598020D01*
X30470273Y-30539788D01*
X30525938Y-30513034D01*
X30706835Y-30477051D01*
X30847655Y-30418721D01*
X30888907Y-30401635D01*
X30888907Y-30401634D01*
X30888914Y-30401632D01*
X31052782Y-30292139D01*
X31192139Y-30152782D01*
X31301632Y-29988914D01*
X31377051Y-29806835D01*
X31415500Y-29613543D01*
X37034499Y-29613543D01*
X37072947Y-29806829D01*
X37072950Y-29806839D01*
X37148364Y-29988907D01*
X37148371Y-29988920D01*
X37257860Y-30152781D01*
X37257863Y-30152785D01*
X37397214Y-30292136D01*
X37397218Y-30292139D01*
X37561079Y-30401628D01*
X37561092Y-30401635D01*
X37721869Y-30468230D01*
X37743165Y-30477051D01*
X37743169Y-30477051D01*
X37743170Y-30477052D01*
X37936456Y-30515500D01*
X37936459Y-30515500D01*
X38133543Y-30515500D01*
X38263582Y-30489632D01*
X38326835Y-30477051D01*
X38467655Y-30418721D01*
X38508907Y-30401635D01*
X38508907Y-30401634D01*
X38508914Y-30401632D01*
X38672782Y-30292139D01*
X38812139Y-30152782D01*
X38921632Y-29988914D01*
X38997051Y-29806835D01*
X39035500Y-29613541D01*
X39035500Y-29416459D01*
X39035500Y-29416456D01*
X38997052Y-29223170D01*
X38997051Y-29223169D01*
X38997051Y-29223165D01*
X38942864Y-29092345D01*
X38921635Y-29041092D01*
X38921628Y-29041079D01*
X38812139Y-28877218D01*
X38812136Y-28877214D01*
X38672785Y-28737863D01*
X38672781Y-28737860D01*
X38508920Y-28628371D01*
X38508907Y-28628364D01*
X38326839Y-28552950D01*
X38326829Y-28552947D01*
X38133543Y-28514500D01*
X38133541Y-28514500D01*
X37936459Y-28514500D01*
X37936457Y-28514500D01*
X37743170Y-28552947D01*
X37743160Y-28552950D01*
X37561092Y-28628364D01*
X37561079Y-28628371D01*
X37397218Y-28737860D01*
X37397214Y-28737863D01*
X37257863Y-28877214D01*
X37257860Y-28877218D01*
X37148371Y-29041079D01*
X37148364Y-29041092D01*
X37072950Y-29223160D01*
X37072947Y-29223170D01*
X37034500Y-29416456D01*
X37034500Y-29416459D01*
X37034500Y-29613541D01*
X37034500Y-29613543D01*
X37034499Y-29613543D01*
X31415500Y-29613543D01*
X31415500Y-29613541D01*
X31415500Y-29416459D01*
X31415500Y-29416456D01*
X31377052Y-29223170D01*
X31377051Y-29223169D01*
X31377051Y-29223165D01*
X31322864Y-29092345D01*
X31301635Y-29041092D01*
X31301628Y-29041079D01*
X31192139Y-28877218D01*
X31192136Y-28877214D01*
X31052785Y-28737863D01*
X31052781Y-28737860D01*
X30888920Y-28628371D01*
X30888907Y-28628364D01*
X30706839Y-28552950D01*
X30706829Y-28552947D01*
X30513543Y-28514500D01*
X30513541Y-28514500D01*
X30316459Y-28514500D01*
X30316457Y-28514500D01*
X30123170Y-28552947D01*
X30123160Y-28552950D01*
X29941092Y-28628364D01*
X29941079Y-28628371D01*
X29777218Y-28737860D01*
X29777214Y-28737863D01*
X29637863Y-28877214D01*
X29637860Y-28877218D01*
X29528371Y-29041079D01*
X29525498Y-29046456D01*
X29523618Y-29045451D01*
X29485841Y-29092345D01*
X29419550Y-29114420D01*
X29415105Y-29114500D01*
X26177255Y-29114500D01*
X26110216Y-29094815D01*
X26089574Y-29078181D01*
X25381640Y-28370247D01*
X40229500Y-28370247D01*
X40229500Y-30409752D01*
X40241131Y-30468229D01*
X40241132Y-30468230D01*
X40285447Y-30534552D01*
X40351769Y-30578867D01*
X40351770Y-30578868D01*
X40410247Y-30590499D01*
X40410250Y-30590500D01*
X40410252Y-30590500D01*
X42449750Y-30590500D01*
X42449751Y-30590499D01*
X42464568Y-30587552D01*
X42508229Y-30578868D01*
X42508229Y-30578867D01*
X42508231Y-30578867D01*
X42574552Y-30534552D01*
X42618867Y-30468231D01*
X42618867Y-30468229D01*
X42618868Y-30468229D01*
X42630499Y-30409752D01*
X42630500Y-30409750D01*
X42630500Y-28520247D01*
X44079500Y-28520247D01*
X44079500Y-30259752D01*
X44091131Y-30318229D01*
X44091132Y-30318230D01*
X44135447Y-30384552D01*
X44201769Y-30428867D01*
X44201770Y-30428868D01*
X44260247Y-30440499D01*
X44260250Y-30440500D01*
X44260252Y-30440500D01*
X45999750Y-30440500D01*
X45999751Y-30440499D01*
X46014568Y-30437552D01*
X46058229Y-30428868D01*
X46058229Y-30428867D01*
X46058231Y-30428867D01*
X46124552Y-30384552D01*
X46168867Y-30318231D01*
X46168867Y-30318229D01*
X46168868Y-30318229D01*
X46180499Y-30259752D01*
X46180500Y-30259750D01*
X46180500Y-29722618D01*
X47856635Y-29722618D01*
X52289532Y-29722618D01*
X52289532Y-19463854D01*
X47856635Y-19463854D01*
X47856635Y-29722618D01*
X46180500Y-29722618D01*
X46180500Y-28520249D01*
X46180499Y-28520247D01*
X46168868Y-28461770D01*
X46168867Y-28461769D01*
X46124552Y-28395447D01*
X46058230Y-28351132D01*
X46058229Y-28351131D01*
X45999752Y-28339500D01*
X45999748Y-28339500D01*
X44260252Y-28339500D01*
X44260247Y-28339500D01*
X44201770Y-28351131D01*
X44201769Y-28351132D01*
X44135447Y-28395447D01*
X44091132Y-28461769D01*
X44091131Y-28461770D01*
X44079500Y-28520247D01*
X42630500Y-28520247D01*
X42630500Y-28370249D01*
X42630499Y-28370247D01*
X42618868Y-28311770D01*
X42618867Y-28311769D01*
X42574552Y-28245447D01*
X42508230Y-28201132D01*
X42508229Y-28201131D01*
X42449752Y-28189500D01*
X42449748Y-28189500D01*
X42024500Y-28189500D01*
X41957461Y-28169815D01*
X41911706Y-28117011D01*
X41900500Y-28065500D01*
X41900500Y-27423146D01*
X41920185Y-27356107D01*
X41972989Y-27310352D01*
X42012919Y-27299688D01*
X42034699Y-27297646D01*
X42034701Y-27297645D01*
X42034704Y-27297645D01*
X42100991Y-27274449D01*
X42162882Y-27252793D01*
X42272150Y-27172150D01*
X42352793Y-27062882D01*
X42377254Y-26992975D01*
X42397646Y-26934701D01*
X42397646Y-26934699D01*
X42400500Y-26904269D01*
X42400500Y-26095730D01*
X42397646Y-26065300D01*
X42397646Y-26065298D01*
X42364006Y-25969163D01*
X42352793Y-25937118D01*
X42272150Y-25827850D01*
X42162882Y-25747207D01*
X42162880Y-25747206D01*
X42034700Y-25702353D01*
X42004270Y-25699500D01*
X42004266Y-25699500D01*
X40995734Y-25699500D01*
X40995730Y-25699500D01*
X40965300Y-25702353D01*
X40965298Y-25702353D01*
X40837119Y-25747206D01*
X40837117Y-25747207D01*
X40727850Y-25827850D01*
X40647207Y-25937117D01*
X40647206Y-25937119D01*
X40602353Y-26065298D01*
X40602353Y-26065300D01*
X40599500Y-26095730D01*
X40599500Y-26904269D01*
X40602353Y-26934699D01*
X40602353Y-26934701D01*
X40639323Y-27040352D01*
X40647207Y-27062882D01*
X40727850Y-27172150D01*
X40837118Y-27252793D01*
X40868063Y-27263621D01*
X40965295Y-27297645D01*
X40965299Y-27297645D01*
X40965301Y-27297646D01*
X40987078Y-27299688D01*
X41051984Y-27325544D01*
X41092610Y-27382388D01*
X41099500Y-27423146D01*
X41099500Y-28065500D01*
X41079815Y-28132539D01*
X41027011Y-28178294D01*
X40975500Y-28189500D01*
X40410247Y-28189500D01*
X40351770Y-28201131D01*
X40351769Y-28201132D01*
X40285447Y-28245447D01*
X40241132Y-28311769D01*
X40241131Y-28311770D01*
X40229500Y-28370247D01*
X25381640Y-28370247D01*
X22681640Y-25670247D01*
X25929500Y-25670247D01*
X25929500Y-27709752D01*
X25941131Y-27768229D01*
X25941132Y-27768230D01*
X25985447Y-27834552D01*
X26051769Y-27878867D01*
X26051770Y-27878868D01*
X26110247Y-27890499D01*
X26110250Y-27890500D01*
X26110252Y-27890500D01*
X28149750Y-27890500D01*
X28149751Y-27890499D01*
X28164568Y-27887552D01*
X28208229Y-27878868D01*
X28208229Y-27878867D01*
X28208231Y-27878867D01*
X28274552Y-27834552D01*
X28318867Y-27768231D01*
X28318867Y-27768229D01*
X28318868Y-27768229D01*
X28330499Y-27709752D01*
X28330500Y-27709750D01*
X28330500Y-25670249D01*
X28330499Y-25670247D01*
X28318868Y-25611770D01*
X28318867Y-25611769D01*
X28274552Y-25545447D01*
X28208230Y-25501132D01*
X28208229Y-25501131D01*
X28149752Y-25489500D01*
X28149748Y-25489500D01*
X26110252Y-25489500D01*
X26110247Y-25489500D01*
X26051770Y-25501131D01*
X26051769Y-25501132D01*
X25985447Y-25545447D01*
X25941132Y-25611769D01*
X25941131Y-25611770D01*
X25929500Y-25670247D01*
X22681640Y-25670247D01*
X21835345Y-24823952D01*
X21834115Y-24821701D01*
X21831914Y-24820382D01*
X21817458Y-24791194D01*
X21801860Y-24762629D01*
X21801691Y-24759361D01*
X21800904Y-24757771D01*
X21801028Y-24746481D01*
X21799794Y-24722494D01*
X21800379Y-24717261D01*
X21810500Y-24666380D01*
X21810500Y-24513620D01*
X21780698Y-24363795D01*
X21722239Y-24222663D01*
X21722238Y-24222662D01*
X21722235Y-24222656D01*
X21637370Y-24095648D01*
X21637367Y-24095644D01*
X21529355Y-23987632D01*
X21529351Y-23987629D01*
X21450536Y-23934966D01*
X21402343Y-23902764D01*
X21402334Y-23902759D01*
X21261205Y-23844302D01*
X21261197Y-23844300D01*
X21214509Y-23835013D01*
X29115000Y-23835013D01*
X29115000Y-24185000D01*
X30099314Y-24185000D01*
X30094920Y-24189394D01*
X30042259Y-24280606D01*
X30015000Y-24382339D01*
X30015000Y-24487661D01*
X30042259Y-24589394D01*
X30094920Y-24680606D01*
X30099314Y-24685000D01*
X29115001Y-24685000D01*
X29115001Y-25034986D01*
X29125494Y-25137697D01*
X29180641Y-25304119D01*
X29180643Y-25304124D01*
X29272684Y-25453345D01*
X29396654Y-25577315D01*
X29545875Y-25669356D01*
X29545880Y-25669358D01*
X29712302Y-25724505D01*
X29712309Y-25724506D01*
X29815019Y-25734999D01*
X30261514Y-25734999D01*
X30328553Y-25754683D01*
X30374308Y-25807487D01*
X30384252Y-25876646D01*
X30355227Y-25940202D01*
X30296449Y-25977976D01*
X30285706Y-25980616D01*
X30123170Y-26012947D01*
X30123160Y-26012950D01*
X29941092Y-26088364D01*
X29941079Y-26088371D01*
X29777218Y-26197860D01*
X29777214Y-26197863D01*
X29637863Y-26337214D01*
X29637860Y-26337218D01*
X29528371Y-26501079D01*
X29528364Y-26501092D01*
X29452950Y-26683160D01*
X29452947Y-26683170D01*
X29414500Y-26876456D01*
X29414500Y-26876459D01*
X29414500Y-27073541D01*
X29414500Y-27073543D01*
X29414499Y-27073543D01*
X29452947Y-27266829D01*
X29452950Y-27266839D01*
X29528364Y-27448907D01*
X29528371Y-27448920D01*
X29637860Y-27612781D01*
X29637863Y-27612785D01*
X29777214Y-27752136D01*
X29777218Y-27752139D01*
X29941079Y-27861628D01*
X29941092Y-27861635D01*
X30123160Y-27937049D01*
X30123165Y-27937051D01*
X30123169Y-27937051D01*
X30123170Y-27937052D01*
X30316456Y-27975500D01*
X30316459Y-27975500D01*
X30513543Y-27975500D01*
X30643582Y-27949632D01*
X30706835Y-27937051D01*
X30888914Y-27861632D01*
X31052782Y-27752139D01*
X31192139Y-27612782D01*
X31301632Y-27448914D01*
X31336617Y-27364450D01*
X31380456Y-27310051D01*
X31419082Y-27292132D01*
X31470639Y-27278318D01*
X31544862Y-27235465D01*
X31706784Y-27073543D01*
X37034499Y-27073543D01*
X37072947Y-27266829D01*
X37072950Y-27266839D01*
X37148364Y-27448907D01*
X37148371Y-27448920D01*
X37257860Y-27612781D01*
X37257863Y-27612785D01*
X37397214Y-27752136D01*
X37397218Y-27752139D01*
X37561079Y-27861628D01*
X37561092Y-27861635D01*
X37743160Y-27937049D01*
X37743165Y-27937051D01*
X37743169Y-27937051D01*
X37743170Y-27937052D01*
X37936456Y-27975500D01*
X37936459Y-27975500D01*
X38133543Y-27975500D01*
X38263582Y-27949632D01*
X38326835Y-27937051D01*
X38508914Y-27861632D01*
X38672782Y-27752139D01*
X38812139Y-27612782D01*
X38921632Y-27448914D01*
X38997051Y-27266835D01*
X39015885Y-27172150D01*
X39035500Y-27073543D01*
X39035500Y-26876456D01*
X38997052Y-26683170D01*
X38997051Y-26683169D01*
X38997051Y-26683165D01*
X38997049Y-26683160D01*
X38921635Y-26501092D01*
X38921628Y-26501079D01*
X38812139Y-26337218D01*
X38812136Y-26337214D01*
X38672785Y-26197863D01*
X38672781Y-26197860D01*
X38508920Y-26088371D01*
X38508907Y-26088364D01*
X38326839Y-26012950D01*
X38326829Y-26012947D01*
X38133543Y-25974500D01*
X38133541Y-25974500D01*
X37936459Y-25974500D01*
X37936457Y-25974500D01*
X37743170Y-26012947D01*
X37743160Y-26012950D01*
X37561092Y-26088364D01*
X37561079Y-26088371D01*
X37397218Y-26197860D01*
X37397214Y-26197863D01*
X37257863Y-26337214D01*
X37257860Y-26337218D01*
X37148371Y-26501079D01*
X37148364Y-26501092D01*
X37072950Y-26683160D01*
X37072947Y-26683170D01*
X37034500Y-26876456D01*
X37034500Y-26876459D01*
X37034500Y-27073541D01*
X37034500Y-27073543D01*
X37034499Y-27073543D01*
X31706784Y-27073543D01*
X33520465Y-25259862D01*
X33563318Y-25185639D01*
X33585500Y-25102853D01*
X33585500Y-25017147D01*
X33585500Y-20241405D01*
X33605185Y-20174366D01*
X33640607Y-20138304D01*
X33738416Y-20072951D01*
X33842951Y-19968416D01*
X33925084Y-19845495D01*
X33981658Y-19708913D01*
X34010500Y-19563918D01*
X34010500Y-19416082D01*
X34010500Y-19416079D01*
X33981659Y-19271092D01*
X33981658Y-19271091D01*
X33981658Y-19271087D01*
X33976234Y-19257993D01*
X33925087Y-19134511D01*
X33925080Y-19134498D01*
X33842951Y-19011584D01*
X33842948Y-19011580D01*
X33751615Y-18920247D01*
X35049500Y-18920247D01*
X35049500Y-20059752D01*
X35061131Y-20118229D01*
X35061132Y-20118230D01*
X35105447Y-20184552D01*
X35171769Y-20228867D01*
X35171770Y-20228868D01*
X35230247Y-20240499D01*
X35230250Y-20240500D01*
X35230252Y-20240500D01*
X35275500Y-20240500D01*
X35342539Y-20260185D01*
X35388294Y-20312989D01*
X35399500Y-20364500D01*
X35399500Y-20419426D01*
X35426793Y-20521289D01*
X35430600Y-20527882D01*
X35479520Y-20612613D01*
X35479522Y-20612615D01*
X37598181Y-22731274D01*
X37631666Y-22792597D01*
X37634500Y-22818955D01*
X37634500Y-23435104D01*
X37614815Y-23502143D01*
X37565925Y-23544505D01*
X37566456Y-23545498D01*
X37562083Y-23547834D01*
X37562011Y-23547898D01*
X37561766Y-23548004D01*
X37561079Y-23548371D01*
X37397218Y-23657860D01*
X37397214Y-23657863D01*
X37257863Y-23797214D01*
X37257860Y-23797218D01*
X37148371Y-23961079D01*
X37148364Y-23961092D01*
X37072950Y-24143160D01*
X37072947Y-24143170D01*
X37034500Y-24336456D01*
X37034500Y-24336459D01*
X37034500Y-24533541D01*
X37034500Y-24533543D01*
X37034499Y-24533543D01*
X37072947Y-24726829D01*
X37072950Y-24726839D01*
X37148364Y-24908907D01*
X37148371Y-24908920D01*
X37257860Y-25072781D01*
X37257863Y-25072785D01*
X37397214Y-25212136D01*
X37397218Y-25212139D01*
X37561079Y-25321628D01*
X37561092Y-25321635D01*
X37726975Y-25390345D01*
X37743165Y-25397051D01*
X37743169Y-25397051D01*
X37743170Y-25397052D01*
X37936456Y-25435500D01*
X37936459Y-25435500D01*
X38133543Y-25435500D01*
X38263582Y-25409632D01*
X38326835Y-25397051D01*
X38508914Y-25321632D01*
X38672782Y-25212139D01*
X38812139Y-25072782D01*
X38921632Y-24908914D01*
X38921634Y-24908907D01*
X38924502Y-24903544D01*
X38926381Y-24904548D01*
X38964159Y-24857655D01*
X39030450Y-24835580D01*
X39034895Y-24835500D01*
X40480847Y-24835500D01*
X40547886Y-24855185D01*
X40593641Y-24907989D01*
X40601990Y-24933037D01*
X40602352Y-24934698D01*
X40647206Y-25062880D01*
X40647207Y-25062882D01*
X40727850Y-25172150D01*
X40837118Y-25252793D01*
X40857326Y-25259864D01*
X40965299Y-25297646D01*
X40995730Y-25300500D01*
X40995734Y-25300500D01*
X42004270Y-25300500D01*
X42034699Y-25297646D01*
X42034701Y-25297646D01*
X42098790Y-25275219D01*
X42162882Y-25252793D01*
X42272150Y-25172150D01*
X42352793Y-25062882D01*
X42375219Y-24998790D01*
X42397646Y-24934701D01*
X42397646Y-24934699D01*
X42400500Y-24904269D01*
X42400500Y-24095730D01*
X42397646Y-24065300D01*
X42397646Y-24065298D01*
X42361177Y-23961079D01*
X42352793Y-23937118D01*
X42272150Y-23827850D01*
X42162882Y-23747207D01*
X42162880Y-23747206D01*
X42034700Y-23702353D01*
X42004270Y-23699500D01*
X42004266Y-23699500D01*
X40995734Y-23699500D01*
X40995730Y-23699500D01*
X40965300Y-23702353D01*
X40965298Y-23702353D01*
X40837119Y-23747206D01*
X40837117Y-23747207D01*
X40727850Y-23827850D01*
X40647206Y-23937118D01*
X40647204Y-23937121D01*
X40642191Y-23951452D01*
X40601471Y-24008229D01*
X40536519Y-24033978D01*
X40525149Y-24034500D01*
X39034895Y-24034500D01*
X38967856Y-24014815D01*
X38925493Y-23965926D01*
X38924502Y-23966456D01*
X38922166Y-23962086D01*
X38922101Y-23962011D01*
X38921990Y-23961756D01*
X38921628Y-23961079D01*
X38812139Y-23797218D01*
X38812136Y-23797214D01*
X38672785Y-23657863D01*
X38672781Y-23657860D01*
X38508920Y-23548371D01*
X38503544Y-23545498D01*
X38504545Y-23543625D01*
X38457631Y-23505805D01*
X38435578Y-23439507D01*
X38435500Y-23435104D01*
X38435500Y-22548975D01*
X38435500Y-22548973D01*
X38408207Y-22447113D01*
X38355480Y-22355787D01*
X38280913Y-22281220D01*
X36415376Y-20415683D01*
X36381891Y-20354360D01*
X36386875Y-20284668D01*
X36428747Y-20228735D01*
X36434125Y-20224928D01*
X36494552Y-20184552D01*
X36538867Y-20118231D01*
X36538867Y-20118229D01*
X36538868Y-20118229D01*
X36550499Y-20059752D01*
X36550500Y-20059750D01*
X36550500Y-18920249D01*
X36550499Y-18920247D01*
X36538868Y-18861770D01*
X36538867Y-18861769D01*
X36515452Y-18826726D01*
X36494552Y-18795447D01*
X36442594Y-18760730D01*
X41229500Y-18760730D01*
X41229500Y-20369269D01*
X41232353Y-20399699D01*
X41232353Y-20399701D01*
X41274900Y-20521289D01*
X41277207Y-20527882D01*
X41357850Y-20637150D01*
X41467118Y-20717793D01*
X41509845Y-20732744D01*
X41595299Y-20762646D01*
X41625730Y-20765500D01*
X41625734Y-20765500D01*
X42934270Y-20765500D01*
X42964699Y-20762646D01*
X42964701Y-20762646D01*
X43028790Y-20740219D01*
X43092882Y-20717793D01*
X43202150Y-20637150D01*
X43282793Y-20527882D01*
X43320743Y-20419427D01*
X43327646Y-20399701D01*
X43327646Y-20399699D01*
X43330500Y-20369269D01*
X43330500Y-20360323D01*
X43350185Y-20293284D01*
X43402989Y-20247529D01*
X43472147Y-20237585D01*
X43535703Y-20266610D01*
X43564985Y-20304028D01*
X43625379Y-20422557D01*
X43750272Y-20594459D01*
X43750276Y-20594464D01*
X43900535Y-20744723D01*
X43900540Y-20744727D01*
X44072442Y-20869620D01*
X44261782Y-20966095D01*
X44463871Y-21031757D01*
X44530000Y-21042231D01*
X44530000Y-19998012D01*
X44587007Y-20030925D01*
X44714174Y-20065000D01*
X44845826Y-20065000D01*
X44972993Y-20030925D01*
X45030000Y-19998012D01*
X45030000Y-21042230D01*
X45096126Y-21031757D01*
X45096129Y-21031757D01*
X45298217Y-20966095D01*
X45487557Y-20869620D01*
X45659459Y-20744727D01*
X45659464Y-20744723D01*
X45809723Y-20594464D01*
X45809727Y-20594459D01*
X45934620Y-20422557D01*
X46031095Y-20233217D01*
X46096757Y-20031130D01*
X46096757Y-20031127D01*
X46130000Y-19821246D01*
X46130000Y-19815000D01*
X45213012Y-19815000D01*
X45245925Y-19757993D01*
X45280000Y-19630826D01*
X45280000Y-19499174D01*
X45245925Y-19372007D01*
X45213012Y-19315000D01*
X46130000Y-19315000D01*
X46130000Y-19308753D01*
X46096757Y-19098872D01*
X46096757Y-19098869D01*
X46031095Y-18896782D01*
X45934620Y-18707442D01*
X45809727Y-18535540D01*
X45809723Y-18535535D01*
X45659464Y-18385276D01*
X45659459Y-18385272D01*
X45487557Y-18260379D01*
X45298215Y-18163903D01*
X45096124Y-18098241D01*
X45030000Y-18087768D01*
X45030000Y-19131988D01*
X44972993Y-19099075D01*
X44845826Y-19065000D01*
X44714174Y-19065000D01*
X44587007Y-19099075D01*
X44530000Y-19131988D01*
X44530000Y-18087768D01*
X44529999Y-18087768D01*
X44463875Y-18098241D01*
X44261784Y-18163903D01*
X44072442Y-18260379D01*
X43900540Y-18385272D01*
X43900535Y-18385276D01*
X43750276Y-18535535D01*
X43750272Y-18535540D01*
X43625379Y-18707442D01*
X43564985Y-18825971D01*
X43517010Y-18876767D01*
X43449189Y-18893562D01*
X43383054Y-18871024D01*
X43339603Y-18816309D01*
X43330500Y-18769676D01*
X43330500Y-18760730D01*
X43327646Y-18730300D01*
X43327646Y-18730298D01*
X43282793Y-18602119D01*
X43282792Y-18602117D01*
X43233656Y-18535540D01*
X43202150Y-18492850D01*
X43092882Y-18412207D01*
X43092880Y-18412206D01*
X42964700Y-18367353D01*
X42934270Y-18364500D01*
X42934266Y-18364500D01*
X41625734Y-18364500D01*
X41625730Y-18364500D01*
X41595300Y-18367353D01*
X41595298Y-18367353D01*
X41467119Y-18412206D01*
X41467117Y-18412207D01*
X41357850Y-18492850D01*
X41277207Y-18602117D01*
X41277206Y-18602119D01*
X41232353Y-18730298D01*
X41232353Y-18730300D01*
X41229500Y-18760730D01*
X36442594Y-18760730D01*
X36428230Y-18751132D01*
X36428229Y-18751131D01*
X36369752Y-18739500D01*
X36369748Y-18739500D01*
X35230252Y-18739500D01*
X35230247Y-18739500D01*
X35171770Y-18751131D01*
X35171769Y-18751132D01*
X35105447Y-18795447D01*
X35061132Y-18861769D01*
X35061131Y-18861770D01*
X35049500Y-18920247D01*
X33751615Y-18920247D01*
X33738419Y-18907051D01*
X33738415Y-18907048D01*
X33615501Y-18824919D01*
X33615488Y-18824912D01*
X33478917Y-18768343D01*
X33478907Y-18768340D01*
X33333920Y-18739500D01*
X33333918Y-18739500D01*
X33186082Y-18739500D01*
X33186080Y-18739500D01*
X33041092Y-18768340D01*
X33041082Y-18768343D01*
X32904511Y-18824912D01*
X32904498Y-18824919D01*
X32781584Y-18907048D01*
X32781580Y-18907051D01*
X32677051Y-19011580D01*
X32677048Y-19011584D01*
X32594919Y-19134498D01*
X32594912Y-19134511D01*
X32538343Y-19271082D01*
X32538340Y-19271092D01*
X32509500Y-19416079D01*
X32509500Y-19416082D01*
X32509500Y-19563918D01*
X32509500Y-19563920D01*
X32509499Y-19563920D01*
X32538340Y-19708907D01*
X32538343Y-19708917D01*
X32594912Y-19845488D01*
X32594919Y-19845501D01*
X32677048Y-19968415D01*
X32677051Y-19968419D01*
X32781581Y-20072949D01*
X32781584Y-20072951D01*
X32879391Y-20138303D01*
X32924196Y-20191914D01*
X32934500Y-20241405D01*
X32934500Y-24873810D01*
X32914815Y-24940849D01*
X32898181Y-24961491D01*
X31431284Y-26428387D01*
X31369961Y-26461872D01*
X31300269Y-26456888D01*
X31244336Y-26415016D01*
X31240501Y-26409596D01*
X31192142Y-26337222D01*
X31192136Y-26337214D01*
X31052785Y-26197863D01*
X31052781Y-26197860D01*
X30888920Y-26088371D01*
X30888907Y-26088364D01*
X30706839Y-26012950D01*
X30706829Y-26012947D01*
X30544292Y-25980616D01*
X30482381Y-25948231D01*
X30447807Y-25887515D01*
X30451547Y-25817745D01*
X30492414Y-25761074D01*
X30557432Y-25735492D01*
X30568484Y-25734999D01*
X31014971Y-25734999D01*
X31014987Y-25734998D01*
X31117697Y-25724505D01*
X31284119Y-25669358D01*
X31284124Y-25669356D01*
X31433345Y-25577315D01*
X31557315Y-25453345D01*
X31649356Y-25304124D01*
X31649358Y-25304119D01*
X31704505Y-25137697D01*
X31704506Y-25137690D01*
X31714999Y-25034986D01*
X31715000Y-25034973D01*
X31715000Y-24685000D01*
X30730686Y-24685000D01*
X30735080Y-24680606D01*
X30787741Y-24589394D01*
X30815000Y-24487661D01*
X30815000Y-24382339D01*
X30787741Y-24280606D01*
X30735080Y-24189394D01*
X30730686Y-24185000D01*
X31714999Y-24185000D01*
X31714999Y-23835028D01*
X31714998Y-23835013D01*
X31704505Y-23732302D01*
X31649358Y-23565880D01*
X31649354Y-23565872D01*
X31557315Y-23416654D01*
X31433345Y-23292684D01*
X31284124Y-23200643D01*
X31284119Y-23200641D01*
X31117697Y-23145494D01*
X31117690Y-23145493D01*
X31014986Y-23135000D01*
X30665000Y-23135000D01*
X30665000Y-24119314D01*
X30660606Y-24114920D01*
X30569394Y-24062259D01*
X30467661Y-24035000D01*
X30362339Y-24035000D01*
X30260606Y-24062259D01*
X30169394Y-24114920D01*
X30165000Y-24119314D01*
X30165000Y-23135000D01*
X29815028Y-23135000D01*
X29815012Y-23135001D01*
X29712302Y-23145494D01*
X29545880Y-23200641D01*
X29545875Y-23200643D01*
X29396654Y-23292684D01*
X29272684Y-23416654D01*
X29180646Y-23565872D01*
X29180641Y-23565880D01*
X29125494Y-23732302D01*
X29125493Y-23732309D01*
X29115000Y-23835013D01*
X21214509Y-23835013D01*
X21111384Y-23814500D01*
X21111380Y-23814500D01*
X20958620Y-23814500D01*
X20958615Y-23814500D01*
X20808802Y-23844300D01*
X20808794Y-23844302D01*
X20667665Y-23902759D01*
X20667656Y-23902764D01*
X20540648Y-23987629D01*
X20540644Y-23987632D01*
X20432632Y-24095644D01*
X20432629Y-24095648D01*
X20347764Y-24222656D01*
X20347759Y-24222665D01*
X20289302Y-24363794D01*
X20289300Y-24363802D01*
X20259500Y-24513615D01*
X12472040Y-24513615D01*
X12475567Y-21973615D01*
X20259500Y-21973615D01*
X20259500Y-22126384D01*
X20289300Y-22276197D01*
X20289302Y-22276205D01*
X20347759Y-22417334D01*
X20347764Y-22417343D01*
X20432629Y-22544351D01*
X20432632Y-22544355D01*
X20540644Y-22652367D01*
X20540648Y-22652370D01*
X20667656Y-22737235D01*
X20667662Y-22737238D01*
X20667663Y-22737239D01*
X20808795Y-22795698D01*
X20925716Y-22818955D01*
X20958615Y-22825499D01*
X20958619Y-22825500D01*
X20958620Y-22825500D01*
X21111381Y-22825500D01*
X21111382Y-22825499D01*
X21261205Y-22795698D01*
X21402337Y-22737239D01*
X21529352Y-22652370D01*
X21637370Y-22544352D01*
X21722239Y-22417337D01*
X21780698Y-22276205D01*
X21810500Y-22126380D01*
X21810500Y-21973620D01*
X21780698Y-21823795D01*
X21722239Y-21682663D01*
X21722238Y-21682662D01*
X21722235Y-21682656D01*
X21637370Y-21555648D01*
X21637367Y-21555644D01*
X21529355Y-21447632D01*
X21529351Y-21447629D01*
X21402343Y-21362764D01*
X21402334Y-21362759D01*
X21261205Y-21304302D01*
X21261197Y-21304300D01*
X21111384Y-21274500D01*
X21111380Y-21274500D01*
X20958620Y-21274500D01*
X20958615Y-21274500D01*
X20808802Y-21304300D01*
X20808794Y-21304302D01*
X20667665Y-21362759D01*
X20667656Y-21362764D01*
X20540648Y-21447629D01*
X20540644Y-21447632D01*
X20432632Y-21555644D01*
X20432629Y-21555648D01*
X20347764Y-21682656D01*
X20347759Y-21682665D01*
X20289302Y-21823794D01*
X20289300Y-21823802D01*
X20259500Y-21973615D01*
X12475567Y-21973615D01*
X12483950Y-15935946D01*
X13679500Y-15935946D01*
X13679500Y-16244053D01*
X13679501Y-16244069D01*
X13719717Y-16549542D01*
X13799464Y-16847162D01*
X13917376Y-17131826D01*
X13917381Y-17131837D01*
X14010014Y-17292280D01*
X14071438Y-17398670D01*
X14071440Y-17398673D01*
X14071441Y-17398674D01*
X14259007Y-17643115D01*
X14259013Y-17643122D01*
X14476877Y-17860986D01*
X14476883Y-17860991D01*
X14721330Y-18048562D01*
X14892830Y-18147578D01*
X14988162Y-18202618D01*
X14988167Y-18202620D01*
X14988170Y-18202622D01*
X15272836Y-18320535D01*
X15570456Y-18400282D01*
X15875940Y-18440500D01*
X15875947Y-18440500D01*
X16184053Y-18440500D01*
X16184060Y-18440500D01*
X16489544Y-18400282D01*
X16787164Y-18320535D01*
X17071830Y-18202622D01*
X17338670Y-18048562D01*
X17583117Y-17860991D01*
X17800991Y-17643117D01*
X17988562Y-17398670D01*
X18142622Y-17131830D01*
X18260535Y-16847164D01*
X18340282Y-16549544D01*
X18355420Y-16434557D01*
X19120604Y-16434557D01*
X35524729Y-16434557D01*
X35524729Y-15935946D01*
X48679500Y-15935946D01*
X48679500Y-16244053D01*
X48679501Y-16244069D01*
X48719717Y-16549542D01*
X48799464Y-16847162D01*
X48917376Y-17131826D01*
X48917381Y-17131837D01*
X49010014Y-17292280D01*
X49071438Y-17398670D01*
X49071440Y-17398673D01*
X49071441Y-17398674D01*
X49259007Y-17643115D01*
X49259013Y-17643122D01*
X49476877Y-17860986D01*
X49476883Y-17860991D01*
X49721330Y-18048562D01*
X49892830Y-18147578D01*
X49988162Y-18202618D01*
X49988167Y-18202620D01*
X49988170Y-18202622D01*
X50272836Y-18320535D01*
X50570456Y-18400282D01*
X50875940Y-18440500D01*
X50875947Y-18440500D01*
X51184053Y-18440500D01*
X51184060Y-18440500D01*
X51489544Y-18400282D01*
X51787164Y-18320535D01*
X52071830Y-18202622D01*
X52338670Y-18048562D01*
X52583117Y-17860991D01*
X52800991Y-17643117D01*
X52988562Y-17398670D01*
X53142622Y-17131830D01*
X53260535Y-16847164D01*
X53340282Y-16549544D01*
X53380500Y-16244060D01*
X53380500Y-15935940D01*
X53340282Y-15630456D01*
X53260535Y-15332836D01*
X53142622Y-15048170D01*
X53142620Y-15048167D01*
X53142618Y-15048162D01*
X53055999Y-14898135D01*
X52988562Y-14781330D01*
X52880173Y-14640075D01*
X52800992Y-14536884D01*
X52800986Y-14536877D01*
X52583122Y-14319013D01*
X52583115Y-14319007D01*
X52338674Y-14131441D01*
X52338673Y-14131440D01*
X52338670Y-14131438D01*
X52232280Y-14070014D01*
X52071837Y-13977381D01*
X52071826Y-13977376D01*
X51787162Y-13859464D01*
X51489542Y-13779717D01*
X51184069Y-13739501D01*
X51184066Y-13739500D01*
X51184060Y-13739500D01*
X50875940Y-13739500D01*
X50875934Y-13739500D01*
X50875930Y-13739501D01*
X50570457Y-13779717D01*
X50272837Y-13859464D01*
X49988173Y-13977376D01*
X49988162Y-13977381D01*
X49721325Y-14131441D01*
X49476884Y-14319007D01*
X49476877Y-14319013D01*
X49259013Y-14536877D01*
X49259007Y-14536884D01*
X49071441Y-14781325D01*
X48917381Y-15048162D01*
X48917376Y-15048173D01*
X48799464Y-15332837D01*
X48719717Y-15630457D01*
X48679501Y-15935930D01*
X48679500Y-15935946D01*
X35524729Y-15935946D01*
X35524729Y-14887496D01*
X19120604Y-14887496D01*
X19120604Y-16434557D01*
X18355420Y-16434557D01*
X18380500Y-16244060D01*
X18380500Y-15935940D01*
X18340282Y-15630456D01*
X18260535Y-15332836D01*
X18142622Y-15048170D01*
X18142620Y-15048167D01*
X18142618Y-15048162D01*
X18056000Y-14898136D01*
X18055999Y-14898135D01*
X17988562Y-14781330D01*
X17975076Y-14763755D01*
X17800992Y-14536884D01*
X17800986Y-14536877D01*
X17583122Y-14319013D01*
X17583115Y-14319007D01*
X17338674Y-14131441D01*
X17338673Y-14131440D01*
X17338670Y-14131438D01*
X17232280Y-14070014D01*
X17071837Y-13977381D01*
X17071826Y-13977376D01*
X16787162Y-13859464D01*
X16489542Y-13779717D01*
X16184069Y-13739501D01*
X16184066Y-13739500D01*
X16184060Y-13739500D01*
X15875940Y-13739500D01*
X15875934Y-13739500D01*
X15875930Y-13739501D01*
X15570457Y-13779717D01*
X15272837Y-13859464D01*
X14988173Y-13977376D01*
X14988162Y-13977381D01*
X14721325Y-14131441D01*
X14476884Y-14319007D01*
X14476877Y-14319013D01*
X14259013Y-14536877D01*
X14259007Y-14536884D01*
X14071441Y-14781325D01*
X13917381Y-15048162D01*
X13917376Y-15048173D01*
X13799464Y-15332837D01*
X13719717Y-15630457D01*
X13679501Y-15935930D01*
X13679500Y-15935946D01*
X12483950Y-15935946D01*
X12485578Y-14763322D01*
X12485600Y-14750903D01*
X12486126Y-14749591D01*
X12485669Y-14712620D01*
X12485671Y-14711736D01*
X12485714Y-14711589D01*
X12485816Y-14705954D01*
X12499329Y-14427203D01*
X12500969Y-14412252D01*
X12547551Y-14140923D01*
X12550991Y-14126282D01*
X12630136Y-13862609D01*
X12635331Y-13848483D01*
X12745871Y-13596353D01*
X12752738Y-13582967D01*
X12893049Y-13346096D01*
X12901483Y-13333651D01*
X13069484Y-13115550D01*
X13079366Y-13104218D01*
X13272571Y-12908111D01*
X13283766Y-12898049D01*
X13499341Y-12726814D01*
X13511652Y-12718200D01*
X13746407Y-12574372D01*
X13759694Y-12567305D01*
X14010141Y-12453020D01*
X14024196Y-12447613D01*
X14286639Y-12364552D01*
X14301244Y-12360889D01*
X14571856Y-12310266D01*
X14586780Y-12308404D01*
X14838184Y-12292457D01*
X14865120Y-12290749D01*
X14872969Y-12290500D01*
X52128758Y-12290500D01*
X52128790Y-12290502D01*
G37*
%TD.AperFunction*%
%TD*%
M02*
