%TF.GenerationSoftware,KiCad,Pcbnew,9.0.6*%
%TF.CreationDate,2026-01-19T07:30:14+01:00*%
%TF.ProjectId,Lumiere,4c756d69-6572-4652-9e6b-696361645f70,rev?*%
%TF.SameCoordinates,Original*%
%TF.FileFunction,Legend,Top*%
%TF.FilePolarity,Positive*%
%FSLAX46Y46*%
G04 Gerber Fmt 4.6, Leading zero omitted, Abs format (unit mm)*
G04 Created by KiCad (PCBNEW 9.0.6) date 2026-01-19 07:30:14*
%MOMM*%
%LPD*%
G01*
G04 APERTURE LIST*
%ADD10C,0.200000*%
%ADD11C,0.150000*%
%ADD12C,0.254000*%
%ADD13C,0.120000*%
%ADD14C,0.000000*%
%ADD15C,0.100000*%
G04 APERTURE END LIST*
D10*
X49077331Y-28995714D02*
X48077331Y-28995714D01*
X48077331Y-28995714D02*
X48077331Y-28614762D01*
X48077331Y-28614762D02*
X48124950Y-28519524D01*
X48124950Y-28519524D02*
X48172569Y-28471905D01*
X48172569Y-28471905D02*
X48267807Y-28424286D01*
X48267807Y-28424286D02*
X48410664Y-28424286D01*
X48410664Y-28424286D02*
X48505902Y-28471905D01*
X48505902Y-28471905D02*
X48553521Y-28519524D01*
X48553521Y-28519524D02*
X48601140Y-28614762D01*
X48601140Y-28614762D02*
X48601140Y-28995714D01*
X49077331Y-27424286D02*
X48601140Y-27757619D01*
X49077331Y-27995714D02*
X48077331Y-27995714D01*
X48077331Y-27995714D02*
X48077331Y-27614762D01*
X48077331Y-27614762D02*
X48124950Y-27519524D01*
X48124950Y-27519524D02*
X48172569Y-27471905D01*
X48172569Y-27471905D02*
X48267807Y-27424286D01*
X48267807Y-27424286D02*
X48410664Y-27424286D01*
X48410664Y-27424286D02*
X48505902Y-27471905D01*
X48505902Y-27471905D02*
X48553521Y-27519524D01*
X48553521Y-27519524D02*
X48601140Y-27614762D01*
X48601140Y-27614762D02*
X48601140Y-27995714D01*
X48077331Y-26805238D02*
X48077331Y-26614762D01*
X48077331Y-26614762D02*
X48124950Y-26519524D01*
X48124950Y-26519524D02*
X48220188Y-26424286D01*
X48220188Y-26424286D02*
X48410664Y-26376667D01*
X48410664Y-26376667D02*
X48743997Y-26376667D01*
X48743997Y-26376667D02*
X48934473Y-26424286D01*
X48934473Y-26424286D02*
X49029712Y-26519524D01*
X49029712Y-26519524D02*
X49077331Y-26614762D01*
X49077331Y-26614762D02*
X49077331Y-26805238D01*
X49077331Y-26805238D02*
X49029712Y-26900476D01*
X49029712Y-26900476D02*
X48934473Y-26995714D01*
X48934473Y-26995714D02*
X48743997Y-27043333D01*
X48743997Y-27043333D02*
X48410664Y-27043333D01*
X48410664Y-27043333D02*
X48220188Y-26995714D01*
X48220188Y-26995714D02*
X48124950Y-26900476D01*
X48124950Y-26900476D02*
X48077331Y-26805238D01*
X48077331Y-25662381D02*
X48791616Y-25662381D01*
X48791616Y-25662381D02*
X48934473Y-25710000D01*
X48934473Y-25710000D02*
X49029712Y-25805238D01*
X49029712Y-25805238D02*
X49077331Y-25948095D01*
X49077331Y-25948095D02*
X49077331Y-26043333D01*
X48553521Y-25186190D02*
X48553521Y-24852857D01*
X49077331Y-24710000D02*
X49077331Y-25186190D01*
X49077331Y-25186190D02*
X48077331Y-25186190D01*
X48077331Y-25186190D02*
X48077331Y-24710000D01*
X48077331Y-24424285D02*
X48077331Y-23852857D01*
X49077331Y-24138571D02*
X48077331Y-24138571D01*
X49077331Y-22281428D02*
X49077331Y-22757618D01*
X49077331Y-22757618D02*
X48077331Y-22757618D01*
X48077331Y-21948094D02*
X48886854Y-21948094D01*
X48886854Y-21948094D02*
X48982092Y-21900475D01*
X48982092Y-21900475D02*
X49029712Y-21852856D01*
X49029712Y-21852856D02*
X49077331Y-21757618D01*
X49077331Y-21757618D02*
X49077331Y-21567142D01*
X49077331Y-21567142D02*
X49029712Y-21471904D01*
X49029712Y-21471904D02*
X48982092Y-21424285D01*
X48982092Y-21424285D02*
X48886854Y-21376666D01*
X48886854Y-21376666D02*
X48077331Y-21376666D01*
X48077331Y-20995713D02*
X49077331Y-20329047D01*
X48077331Y-20329047D02*
X49077331Y-20995713D01*
X49782513Y-29709999D02*
X49734894Y-29662380D01*
X49734894Y-29662380D02*
X49687275Y-29567142D01*
X49687275Y-29567142D02*
X49687275Y-29329047D01*
X49687275Y-29329047D02*
X49734894Y-29233809D01*
X49734894Y-29233809D02*
X49782513Y-29186190D01*
X49782513Y-29186190D02*
X49877751Y-29138571D01*
X49877751Y-29138571D02*
X49972989Y-29138571D01*
X49972989Y-29138571D02*
X50115846Y-29186190D01*
X50115846Y-29186190D02*
X50687275Y-29757618D01*
X50687275Y-29757618D02*
X50687275Y-29138571D01*
X49687275Y-28519523D02*
X49687275Y-28424285D01*
X49687275Y-28424285D02*
X49734894Y-28329047D01*
X49734894Y-28329047D02*
X49782513Y-28281428D01*
X49782513Y-28281428D02*
X49877751Y-28233809D01*
X49877751Y-28233809D02*
X50068227Y-28186190D01*
X50068227Y-28186190D02*
X50306322Y-28186190D01*
X50306322Y-28186190D02*
X50496798Y-28233809D01*
X50496798Y-28233809D02*
X50592036Y-28281428D01*
X50592036Y-28281428D02*
X50639656Y-28329047D01*
X50639656Y-28329047D02*
X50687275Y-28424285D01*
X50687275Y-28424285D02*
X50687275Y-28519523D01*
X50687275Y-28519523D02*
X50639656Y-28614761D01*
X50639656Y-28614761D02*
X50592036Y-28662380D01*
X50592036Y-28662380D02*
X50496798Y-28709999D01*
X50496798Y-28709999D02*
X50306322Y-28757618D01*
X50306322Y-28757618D02*
X50068227Y-28757618D01*
X50068227Y-28757618D02*
X49877751Y-28709999D01*
X49877751Y-28709999D02*
X49782513Y-28662380D01*
X49782513Y-28662380D02*
X49734894Y-28614761D01*
X49734894Y-28614761D02*
X49687275Y-28519523D01*
X49782513Y-27805237D02*
X49734894Y-27757618D01*
X49734894Y-27757618D02*
X49687275Y-27662380D01*
X49687275Y-27662380D02*
X49687275Y-27424285D01*
X49687275Y-27424285D02*
X49734894Y-27329047D01*
X49734894Y-27329047D02*
X49782513Y-27281428D01*
X49782513Y-27281428D02*
X49877751Y-27233809D01*
X49877751Y-27233809D02*
X49972989Y-27233809D01*
X49972989Y-27233809D02*
X50115846Y-27281428D01*
X50115846Y-27281428D02*
X50687275Y-27852856D01*
X50687275Y-27852856D02*
X50687275Y-27233809D01*
X49687275Y-26329047D02*
X49687275Y-26805237D01*
X49687275Y-26805237D02*
X50163465Y-26852856D01*
X50163465Y-26852856D02*
X50115846Y-26805237D01*
X50115846Y-26805237D02*
X50068227Y-26709999D01*
X50068227Y-26709999D02*
X50068227Y-26471904D01*
X50068227Y-26471904D02*
X50115846Y-26376666D01*
X50115846Y-26376666D02*
X50163465Y-26329047D01*
X50163465Y-26329047D02*
X50258703Y-26281428D01*
X50258703Y-26281428D02*
X50496798Y-26281428D01*
X50496798Y-26281428D02*
X50592036Y-26329047D01*
X50592036Y-26329047D02*
X50639656Y-26376666D01*
X50639656Y-26376666D02*
X50687275Y-26471904D01*
X50687275Y-26471904D02*
X50687275Y-26709999D01*
X50687275Y-26709999D02*
X50639656Y-26805237D01*
X50639656Y-26805237D02*
X50592036Y-26852856D01*
X50306322Y-25090951D02*
X50306322Y-24329047D01*
X49782513Y-23138570D02*
X49734894Y-23090951D01*
X49734894Y-23090951D02*
X49687275Y-22995713D01*
X49687275Y-22995713D02*
X49687275Y-22757618D01*
X49687275Y-22757618D02*
X49734894Y-22662380D01*
X49734894Y-22662380D02*
X49782513Y-22614761D01*
X49782513Y-22614761D02*
X49877751Y-22567142D01*
X49877751Y-22567142D02*
X49972989Y-22567142D01*
X49972989Y-22567142D02*
X50115846Y-22614761D01*
X50115846Y-22614761D02*
X50687275Y-23186189D01*
X50687275Y-23186189D02*
X50687275Y-22567142D01*
X49687275Y-21948094D02*
X49687275Y-21852856D01*
X49687275Y-21852856D02*
X49734894Y-21757618D01*
X49734894Y-21757618D02*
X49782513Y-21709999D01*
X49782513Y-21709999D02*
X49877751Y-21662380D01*
X49877751Y-21662380D02*
X50068227Y-21614761D01*
X50068227Y-21614761D02*
X50306322Y-21614761D01*
X50306322Y-21614761D02*
X50496798Y-21662380D01*
X50496798Y-21662380D02*
X50592036Y-21709999D01*
X50592036Y-21709999D02*
X50639656Y-21757618D01*
X50639656Y-21757618D02*
X50687275Y-21852856D01*
X50687275Y-21852856D02*
X50687275Y-21948094D01*
X50687275Y-21948094D02*
X50639656Y-22043332D01*
X50639656Y-22043332D02*
X50592036Y-22090951D01*
X50592036Y-22090951D02*
X50496798Y-22138570D01*
X50496798Y-22138570D02*
X50306322Y-22186189D01*
X50306322Y-22186189D02*
X50068227Y-22186189D01*
X50068227Y-22186189D02*
X49877751Y-22138570D01*
X49877751Y-22138570D02*
X49782513Y-22090951D01*
X49782513Y-22090951D02*
X49734894Y-22043332D01*
X49734894Y-22043332D02*
X49687275Y-21948094D01*
X49782513Y-21233808D02*
X49734894Y-21186189D01*
X49734894Y-21186189D02*
X49687275Y-21090951D01*
X49687275Y-21090951D02*
X49687275Y-20852856D01*
X49687275Y-20852856D02*
X49734894Y-20757618D01*
X49734894Y-20757618D02*
X49782513Y-20709999D01*
X49782513Y-20709999D02*
X49877751Y-20662380D01*
X49877751Y-20662380D02*
X49972989Y-20662380D01*
X49972989Y-20662380D02*
X50115846Y-20709999D01*
X50115846Y-20709999D02*
X50687275Y-21281427D01*
X50687275Y-21281427D02*
X50687275Y-20662380D01*
X49687275Y-19805237D02*
X49687275Y-19995713D01*
X49687275Y-19995713D02*
X49734894Y-20090951D01*
X49734894Y-20090951D02*
X49782513Y-20138570D01*
X49782513Y-20138570D02*
X49925370Y-20233808D01*
X49925370Y-20233808D02*
X50115846Y-20281427D01*
X50115846Y-20281427D02*
X50496798Y-20281427D01*
X50496798Y-20281427D02*
X50592036Y-20233808D01*
X50592036Y-20233808D02*
X50639656Y-20186189D01*
X50639656Y-20186189D02*
X50687275Y-20090951D01*
X50687275Y-20090951D02*
X50687275Y-19900475D01*
X50687275Y-19900475D02*
X50639656Y-19805237D01*
X50639656Y-19805237D02*
X50592036Y-19757618D01*
X50592036Y-19757618D02*
X50496798Y-19709999D01*
X50496798Y-19709999D02*
X50258703Y-19709999D01*
X50258703Y-19709999D02*
X50163465Y-19757618D01*
X50163465Y-19757618D02*
X50115846Y-19805237D01*
X50115846Y-19805237D02*
X50068227Y-19900475D01*
X50068227Y-19900475D02*
X50068227Y-20090951D01*
X50068227Y-20090951D02*
X50115846Y-20186189D01*
X50115846Y-20186189D02*
X50163465Y-20233808D01*
X50163465Y-20233808D02*
X50258703Y-20281427D01*
X51297219Y-26019523D02*
X51297219Y-26495713D01*
X51297219Y-26495713D02*
X51773409Y-26543332D01*
X51773409Y-26543332D02*
X51725790Y-26495713D01*
X51725790Y-26495713D02*
X51678171Y-26400475D01*
X51678171Y-26400475D02*
X51678171Y-26162380D01*
X51678171Y-26162380D02*
X51725790Y-26067142D01*
X51725790Y-26067142D02*
X51773409Y-26019523D01*
X51773409Y-26019523D02*
X51868647Y-25971904D01*
X51868647Y-25971904D02*
X52106742Y-25971904D01*
X52106742Y-25971904D02*
X52201980Y-26019523D01*
X52201980Y-26019523D02*
X52249600Y-26067142D01*
X52249600Y-26067142D02*
X52297219Y-26162380D01*
X52297219Y-26162380D02*
X52297219Y-26400475D01*
X52297219Y-26400475D02*
X52249600Y-26495713D01*
X52249600Y-26495713D02*
X52201980Y-26543332D01*
X52297219Y-25543332D02*
X51297219Y-25543332D01*
X51297219Y-25543332D02*
X51297219Y-25162380D01*
X51297219Y-25162380D02*
X51344838Y-25067142D01*
X51344838Y-25067142D02*
X51392457Y-25019523D01*
X51392457Y-25019523D02*
X51487695Y-24971904D01*
X51487695Y-24971904D02*
X51630552Y-24971904D01*
X51630552Y-24971904D02*
X51725790Y-25019523D01*
X51725790Y-25019523D02*
X51773409Y-25067142D01*
X51773409Y-25067142D02*
X51821028Y-25162380D01*
X51821028Y-25162380D02*
X51821028Y-25543332D01*
X52249600Y-24590951D02*
X52297219Y-24448094D01*
X52297219Y-24448094D02*
X52297219Y-24209999D01*
X52297219Y-24209999D02*
X52249600Y-24114761D01*
X52249600Y-24114761D02*
X52201980Y-24067142D01*
X52201980Y-24067142D02*
X52106742Y-24019523D01*
X52106742Y-24019523D02*
X52011504Y-24019523D01*
X52011504Y-24019523D02*
X51916266Y-24067142D01*
X51916266Y-24067142D02*
X51868647Y-24114761D01*
X51868647Y-24114761D02*
X51821028Y-24209999D01*
X51821028Y-24209999D02*
X51773409Y-24400475D01*
X51773409Y-24400475D02*
X51725790Y-24495713D01*
X51725790Y-24495713D02*
X51678171Y-24543332D01*
X51678171Y-24543332D02*
X51582933Y-24590951D01*
X51582933Y-24590951D02*
X51487695Y-24590951D01*
X51487695Y-24590951D02*
X51392457Y-24543332D01*
X51392457Y-24543332D02*
X51344838Y-24495713D01*
X51344838Y-24495713D02*
X51297219Y-24400475D01*
X51297219Y-24400475D02*
X51297219Y-24162380D01*
X51297219Y-24162380D02*
X51344838Y-24019523D01*
X52297219Y-23590951D02*
X51297219Y-23590951D01*
X51297219Y-23590951D02*
X52011504Y-23257618D01*
X52011504Y-23257618D02*
X51297219Y-22924285D01*
X51297219Y-22924285D02*
X52297219Y-22924285D01*
D11*
X19268095Y-33544819D02*
X19268095Y-32544819D01*
X19268095Y-33021009D02*
X19839523Y-33021009D01*
X19839523Y-33544819D02*
X19839523Y-32544819D01*
X20791904Y-32544819D02*
X20315714Y-32544819D01*
X20315714Y-32544819D02*
X20268095Y-33021009D01*
X20268095Y-33021009D02*
X20315714Y-32973390D01*
X20315714Y-32973390D02*
X20410952Y-32925771D01*
X20410952Y-32925771D02*
X20649047Y-32925771D01*
X20649047Y-32925771D02*
X20744285Y-32973390D01*
X20744285Y-32973390D02*
X20791904Y-33021009D01*
X20791904Y-33021009D02*
X20839523Y-33116247D01*
X20839523Y-33116247D02*
X20839523Y-33354342D01*
X20839523Y-33354342D02*
X20791904Y-33449580D01*
X20791904Y-33449580D02*
X20744285Y-33497200D01*
X20744285Y-33497200D02*
X20649047Y-33544819D01*
X20649047Y-33544819D02*
X20410952Y-33544819D01*
X20410952Y-33544819D02*
X20315714Y-33497200D01*
X20315714Y-33497200D02*
X20268095Y-33449580D01*
X41863333Y-25649580D02*
X41815714Y-25697200D01*
X41815714Y-25697200D02*
X41672857Y-25744819D01*
X41672857Y-25744819D02*
X41577619Y-25744819D01*
X41577619Y-25744819D02*
X41434762Y-25697200D01*
X41434762Y-25697200D02*
X41339524Y-25601961D01*
X41339524Y-25601961D02*
X41291905Y-25506723D01*
X41291905Y-25506723D02*
X41244286Y-25316247D01*
X41244286Y-25316247D02*
X41244286Y-25173390D01*
X41244286Y-25173390D02*
X41291905Y-24982914D01*
X41291905Y-24982914D02*
X41339524Y-24887676D01*
X41339524Y-24887676D02*
X41434762Y-24792438D01*
X41434762Y-24792438D02*
X41577619Y-24744819D01*
X41577619Y-24744819D02*
X41672857Y-24744819D01*
X41672857Y-24744819D02*
X41815714Y-24792438D01*
X41815714Y-24792438D02*
X41863333Y-24840057D01*
X42720476Y-25078152D02*
X42720476Y-25744819D01*
X42482381Y-24697200D02*
X42244286Y-25411485D01*
X42244286Y-25411485D02*
X42863333Y-25411485D01*
X28863333Y-18044819D02*
X28530000Y-17568628D01*
X28291905Y-18044819D02*
X28291905Y-17044819D01*
X28291905Y-17044819D02*
X28672857Y-17044819D01*
X28672857Y-17044819D02*
X28768095Y-17092438D01*
X28768095Y-17092438D02*
X28815714Y-17140057D01*
X28815714Y-17140057D02*
X28863333Y-17235295D01*
X28863333Y-17235295D02*
X28863333Y-17378152D01*
X28863333Y-17378152D02*
X28815714Y-17473390D01*
X28815714Y-17473390D02*
X28768095Y-17521009D01*
X28768095Y-17521009D02*
X28672857Y-17568628D01*
X28672857Y-17568628D02*
X28291905Y-17568628D01*
X29244286Y-17140057D02*
X29291905Y-17092438D01*
X29291905Y-17092438D02*
X29387143Y-17044819D01*
X29387143Y-17044819D02*
X29625238Y-17044819D01*
X29625238Y-17044819D02*
X29720476Y-17092438D01*
X29720476Y-17092438D02*
X29768095Y-17140057D01*
X29768095Y-17140057D02*
X29815714Y-17235295D01*
X29815714Y-17235295D02*
X29815714Y-17330533D01*
X29815714Y-17330533D02*
X29768095Y-17473390D01*
X29768095Y-17473390D02*
X29196667Y-18044819D01*
X29196667Y-18044819D02*
X29815714Y-18044819D01*
X29768095Y-34044819D02*
X29768095Y-34854342D01*
X29768095Y-34854342D02*
X29815714Y-34949580D01*
X29815714Y-34949580D02*
X29863333Y-34997200D01*
X29863333Y-34997200D02*
X29958571Y-35044819D01*
X29958571Y-35044819D02*
X30149047Y-35044819D01*
X30149047Y-35044819D02*
X30244285Y-34997200D01*
X30244285Y-34997200D02*
X30291904Y-34949580D01*
X30291904Y-34949580D02*
X30339523Y-34854342D01*
X30339523Y-34854342D02*
X30339523Y-34044819D01*
X30768095Y-34140057D02*
X30815714Y-34092438D01*
X30815714Y-34092438D02*
X30910952Y-34044819D01*
X30910952Y-34044819D02*
X31149047Y-34044819D01*
X31149047Y-34044819D02*
X31244285Y-34092438D01*
X31244285Y-34092438D02*
X31291904Y-34140057D01*
X31291904Y-34140057D02*
X31339523Y-34235295D01*
X31339523Y-34235295D02*
X31339523Y-34330533D01*
X31339523Y-34330533D02*
X31291904Y-34473390D01*
X31291904Y-34473390D02*
X30720476Y-35044819D01*
X30720476Y-35044819D02*
X31339523Y-35044819D01*
X40168095Y-31544819D02*
X40739523Y-31544819D01*
X40453809Y-32544819D02*
X40453809Y-31544819D01*
X41072857Y-32544819D02*
X41072857Y-31544819D01*
X41072857Y-31544819D02*
X41453809Y-31544819D01*
X41453809Y-31544819D02*
X41549047Y-31592438D01*
X41549047Y-31592438D02*
X41596666Y-31640057D01*
X41596666Y-31640057D02*
X41644285Y-31735295D01*
X41644285Y-31735295D02*
X41644285Y-31878152D01*
X41644285Y-31878152D02*
X41596666Y-31973390D01*
X41596666Y-31973390D02*
X41549047Y-32021009D01*
X41549047Y-32021009D02*
X41453809Y-32068628D01*
X41453809Y-32068628D02*
X41072857Y-32068628D01*
X42025238Y-31640057D02*
X42072857Y-31592438D01*
X42072857Y-31592438D02*
X42168095Y-31544819D01*
X42168095Y-31544819D02*
X42406190Y-31544819D01*
X42406190Y-31544819D02*
X42501428Y-31592438D01*
X42501428Y-31592438D02*
X42549047Y-31640057D01*
X42549047Y-31640057D02*
X42596666Y-31735295D01*
X42596666Y-31735295D02*
X42596666Y-31830533D01*
X42596666Y-31830533D02*
X42549047Y-31973390D01*
X42549047Y-31973390D02*
X41977619Y-32544819D01*
X41977619Y-32544819D02*
X42596666Y-32544819D01*
X44796666Y-31544819D02*
X44796666Y-32259104D01*
X44796666Y-32259104D02*
X44749047Y-32401961D01*
X44749047Y-32401961D02*
X44653809Y-32497200D01*
X44653809Y-32497200D02*
X44510952Y-32544819D01*
X44510952Y-32544819D02*
X44415714Y-32544819D01*
X45701428Y-31878152D02*
X45701428Y-32544819D01*
X45463333Y-31497200D02*
X45225238Y-32211485D01*
X45225238Y-32211485D02*
X45844285Y-32211485D01*
D12*
X34318333Y-16664318D02*
X33894999Y-16059556D01*
X33592618Y-16664318D02*
X33592618Y-15394318D01*
X33592618Y-15394318D02*
X34076428Y-15394318D01*
X34076428Y-15394318D02*
X34197380Y-15454794D01*
X34197380Y-15454794D02*
X34257857Y-15515270D01*
X34257857Y-15515270D02*
X34318333Y-15636222D01*
X34318333Y-15636222D02*
X34318333Y-15817651D01*
X34318333Y-15817651D02*
X34257857Y-15938603D01*
X34257857Y-15938603D02*
X34197380Y-15999080D01*
X34197380Y-15999080D02*
X34076428Y-16059556D01*
X34076428Y-16059556D02*
X33592618Y-16059556D01*
X35527857Y-16664318D02*
X34802142Y-16664318D01*
X35164999Y-16664318D02*
X35164999Y-15394318D01*
X35164999Y-15394318D02*
X35044047Y-15575746D01*
X35044047Y-15575746D02*
X34923095Y-15696699D01*
X34923095Y-15696699D02*
X34802142Y-15757175D01*
D11*
X43196666Y-15469819D02*
X43196666Y-16184104D01*
X43196666Y-16184104D02*
X43149047Y-16326961D01*
X43149047Y-16326961D02*
X43053809Y-16422200D01*
X43053809Y-16422200D02*
X42910952Y-16469819D01*
X42910952Y-16469819D02*
X42815714Y-16469819D01*
X43815714Y-15898390D02*
X43720476Y-15850771D01*
X43720476Y-15850771D02*
X43672857Y-15803152D01*
X43672857Y-15803152D02*
X43625238Y-15707914D01*
X43625238Y-15707914D02*
X43625238Y-15660295D01*
X43625238Y-15660295D02*
X43672857Y-15565057D01*
X43672857Y-15565057D02*
X43720476Y-15517438D01*
X43720476Y-15517438D02*
X43815714Y-15469819D01*
X43815714Y-15469819D02*
X44006190Y-15469819D01*
X44006190Y-15469819D02*
X44101428Y-15517438D01*
X44101428Y-15517438D02*
X44149047Y-15565057D01*
X44149047Y-15565057D02*
X44196666Y-15660295D01*
X44196666Y-15660295D02*
X44196666Y-15707914D01*
X44196666Y-15707914D02*
X44149047Y-15803152D01*
X44149047Y-15803152D02*
X44101428Y-15850771D01*
X44101428Y-15850771D02*
X44006190Y-15898390D01*
X44006190Y-15898390D02*
X43815714Y-15898390D01*
X43815714Y-15898390D02*
X43720476Y-15946009D01*
X43720476Y-15946009D02*
X43672857Y-15993628D01*
X43672857Y-15993628D02*
X43625238Y-16088866D01*
X43625238Y-16088866D02*
X43625238Y-16279342D01*
X43625238Y-16279342D02*
X43672857Y-16374580D01*
X43672857Y-16374580D02*
X43720476Y-16422200D01*
X43720476Y-16422200D02*
X43815714Y-16469819D01*
X43815714Y-16469819D02*
X44006190Y-16469819D01*
X44006190Y-16469819D02*
X44101428Y-16422200D01*
X44101428Y-16422200D02*
X44149047Y-16374580D01*
X44149047Y-16374580D02*
X44196666Y-16279342D01*
X44196666Y-16279342D02*
X44196666Y-16088866D01*
X44196666Y-16088866D02*
X44149047Y-15993628D01*
X44149047Y-15993628D02*
X44101428Y-15946009D01*
X44101428Y-15946009D02*
X44006190Y-15898390D01*
X19268095Y-16544819D02*
X19268095Y-15544819D01*
X19268095Y-16021009D02*
X19839523Y-16021009D01*
X19839523Y-16544819D02*
X19839523Y-15544819D01*
X20744285Y-15544819D02*
X20553809Y-15544819D01*
X20553809Y-15544819D02*
X20458571Y-15592438D01*
X20458571Y-15592438D02*
X20410952Y-15640057D01*
X20410952Y-15640057D02*
X20315714Y-15782914D01*
X20315714Y-15782914D02*
X20268095Y-15973390D01*
X20268095Y-15973390D02*
X20268095Y-16354342D01*
X20268095Y-16354342D02*
X20315714Y-16449580D01*
X20315714Y-16449580D02*
X20363333Y-16497200D01*
X20363333Y-16497200D02*
X20458571Y-16544819D01*
X20458571Y-16544819D02*
X20649047Y-16544819D01*
X20649047Y-16544819D02*
X20744285Y-16497200D01*
X20744285Y-16497200D02*
X20791904Y-16449580D01*
X20791904Y-16449580D02*
X20839523Y-16354342D01*
X20839523Y-16354342D02*
X20839523Y-16116247D01*
X20839523Y-16116247D02*
X20791904Y-16021009D01*
X20791904Y-16021009D02*
X20744285Y-15973390D01*
X20744285Y-15973390D02*
X20649047Y-15925771D01*
X20649047Y-15925771D02*
X20458571Y-15925771D01*
X20458571Y-15925771D02*
X20363333Y-15973390D01*
X20363333Y-15973390D02*
X20315714Y-16021009D01*
X20315714Y-16021009D02*
X20268095Y-16116247D01*
X46268095Y-33544819D02*
X46268095Y-32544819D01*
X46268095Y-33021009D02*
X46839523Y-33021009D01*
X46839523Y-33544819D02*
X46839523Y-32544819D01*
X47268095Y-32640057D02*
X47315714Y-32592438D01*
X47315714Y-32592438D02*
X47410952Y-32544819D01*
X47410952Y-32544819D02*
X47649047Y-32544819D01*
X47649047Y-32544819D02*
X47744285Y-32592438D01*
X47744285Y-32592438D02*
X47791904Y-32640057D01*
X47791904Y-32640057D02*
X47839523Y-32735295D01*
X47839523Y-32735295D02*
X47839523Y-32830533D01*
X47839523Y-32830533D02*
X47791904Y-32973390D01*
X47791904Y-32973390D02*
X47220476Y-33544819D01*
X47220476Y-33544819D02*
X47839523Y-33544819D01*
X46268095Y-16544819D02*
X46268095Y-15544819D01*
X46268095Y-16021009D02*
X46839523Y-16021009D01*
X46839523Y-16544819D02*
X46839523Y-15544819D01*
X47839523Y-16544819D02*
X47268095Y-16544819D01*
X47553809Y-16544819D02*
X47553809Y-15544819D01*
X47553809Y-15544819D02*
X47458571Y-15687676D01*
X47458571Y-15687676D02*
X47363333Y-15782914D01*
X47363333Y-15782914D02*
X47268095Y-15830533D01*
X25391905Y-28744819D02*
X25963333Y-28744819D01*
X25677619Y-29744819D02*
X25677619Y-28744819D01*
X26296667Y-29744819D02*
X26296667Y-28744819D01*
X26296667Y-28744819D02*
X26677619Y-28744819D01*
X26677619Y-28744819D02*
X26772857Y-28792438D01*
X26772857Y-28792438D02*
X26820476Y-28840057D01*
X26820476Y-28840057D02*
X26868095Y-28935295D01*
X26868095Y-28935295D02*
X26868095Y-29078152D01*
X26868095Y-29078152D02*
X26820476Y-29173390D01*
X26820476Y-29173390D02*
X26772857Y-29221009D01*
X26772857Y-29221009D02*
X26677619Y-29268628D01*
X26677619Y-29268628D02*
X26296667Y-29268628D01*
X27820476Y-29744819D02*
X27249048Y-29744819D01*
X27534762Y-29744819D02*
X27534762Y-28744819D01*
X27534762Y-28744819D02*
X27439524Y-28887676D01*
X27439524Y-28887676D02*
X27344286Y-28982914D01*
X27344286Y-28982914D02*
X27249048Y-29030533D01*
X28772857Y-29744819D02*
X28201429Y-29744819D01*
X28487143Y-29744819D02*
X28487143Y-28744819D01*
X28487143Y-28744819D02*
X28391905Y-28887676D01*
X28391905Y-28887676D02*
X28296667Y-28982914D01*
X28296667Y-28982914D02*
X28201429Y-29030533D01*
X22768095Y-31544819D02*
X23339523Y-31544819D01*
X23053809Y-32544819D02*
X23053809Y-31544819D01*
X23672857Y-32544819D02*
X23672857Y-31544819D01*
X23672857Y-31544819D02*
X24053809Y-31544819D01*
X24053809Y-31544819D02*
X24149047Y-31592438D01*
X24149047Y-31592438D02*
X24196666Y-31640057D01*
X24196666Y-31640057D02*
X24244285Y-31735295D01*
X24244285Y-31735295D02*
X24244285Y-31878152D01*
X24244285Y-31878152D02*
X24196666Y-31973390D01*
X24196666Y-31973390D02*
X24149047Y-32021009D01*
X24149047Y-32021009D02*
X24053809Y-32068628D01*
X24053809Y-32068628D02*
X23672857Y-32068628D01*
X25196666Y-32544819D02*
X24625238Y-32544819D01*
X24910952Y-32544819D02*
X24910952Y-31544819D01*
X24910952Y-31544819D02*
X24815714Y-31687676D01*
X24815714Y-31687676D02*
X24720476Y-31782914D01*
X24720476Y-31782914D02*
X24625238Y-31830533D01*
D12*
X17104318Y-26525237D02*
X16499556Y-26948571D01*
X17104318Y-27250952D02*
X15834318Y-27250952D01*
X15834318Y-27250952D02*
X15834318Y-26767142D01*
X15834318Y-26767142D02*
X15894794Y-26646190D01*
X15894794Y-26646190D02*
X15955270Y-26585713D01*
X15955270Y-26585713D02*
X16076222Y-26525237D01*
X16076222Y-26525237D02*
X16257651Y-26525237D01*
X16257651Y-26525237D02*
X16378603Y-26585713D01*
X16378603Y-26585713D02*
X16439080Y-26646190D01*
X16439080Y-26646190D02*
X16499556Y-26767142D01*
X16499556Y-26767142D02*
X16499556Y-27250952D01*
X15834318Y-26162380D02*
X17104318Y-25739047D01*
X17104318Y-25739047D02*
X15834318Y-25315713D01*
X16741461Y-24952857D02*
X16741461Y-24348095D01*
X17104318Y-25073809D02*
X15834318Y-24650476D01*
X15834318Y-24650476D02*
X17104318Y-24227142D01*
X17104318Y-23078095D02*
X16499556Y-23501429D01*
X17104318Y-23803810D02*
X15834318Y-23803810D01*
X15834318Y-23803810D02*
X15834318Y-23320000D01*
X15834318Y-23320000D02*
X15894794Y-23199048D01*
X15894794Y-23199048D02*
X15955270Y-23138571D01*
X15955270Y-23138571D02*
X16076222Y-23078095D01*
X16076222Y-23078095D02*
X16257651Y-23078095D01*
X16257651Y-23078095D02*
X16378603Y-23138571D01*
X16378603Y-23138571D02*
X16439080Y-23199048D01*
X16439080Y-23199048D02*
X16499556Y-23320000D01*
X16499556Y-23320000D02*
X16499556Y-23803810D01*
X17104318Y-21868571D02*
X17104318Y-22594286D01*
X17104318Y-22231429D02*
X15834318Y-22231429D01*
X15834318Y-22231429D02*
X16015746Y-22352381D01*
X16015746Y-22352381D02*
X16136699Y-22473333D01*
X16136699Y-22473333D02*
X16197175Y-22594286D01*
D13*
%TO.C,C4*%
X39420000Y-25436267D02*
X39420000Y-25143733D01*
X40440000Y-25436267D02*
X40440000Y-25143733D01*
%TO.C,R2*%
X29357064Y-18755000D02*
X28902936Y-18755000D01*
X29357064Y-20225000D02*
X28902936Y-20225000D01*
D14*
%TO.C,G\u002A\u002A\u002A*%
G36*
X24754034Y-17008857D02*
G01*
X24763901Y-17037820D01*
X24770303Y-17093896D01*
X24774448Y-17183470D01*
X24774520Y-17185767D01*
X24780275Y-17370913D01*
X24890362Y-17380921D01*
X24958959Y-17390689D01*
X24993453Y-17405477D01*
X25000449Y-17420953D01*
X24991368Y-17437555D01*
X24959508Y-17448238D01*
X24897939Y-17454718D01*
X24855334Y-17456857D01*
X24710220Y-17462738D01*
X24710220Y-17231680D01*
X24711063Y-17129959D01*
X24714109Y-17062141D01*
X24720129Y-17022123D01*
X24729897Y-17003804D01*
X24739493Y-17000622D01*
X24754034Y-17008857D01*
G37*
G36*
X26718040Y-15761969D02*
G01*
X26804329Y-15770395D01*
X26861466Y-15787096D01*
X26894796Y-15814250D01*
X26909661Y-15854031D01*
X26911954Y-15887780D01*
X26907512Y-15938126D01*
X26890472Y-15974010D01*
X26855265Y-15997779D01*
X26796320Y-16011776D01*
X26708066Y-16018347D01*
X26598232Y-16019849D01*
X26493685Y-16019093D01*
X26421644Y-16016153D01*
X26374598Y-16010025D01*
X26345038Y-15999705D01*
X26325455Y-15984189D01*
X26324591Y-15983246D01*
X26295588Y-15924312D01*
X26298153Y-15857686D01*
X26331497Y-15799676D01*
X26353518Y-15781996D01*
X26382780Y-15770384D01*
X26427449Y-15763607D01*
X26495692Y-15760438D01*
X26595676Y-15759645D01*
X26597256Y-15759644D01*
X26718040Y-15761969D01*
G37*
G36*
X25683706Y-17006875D02*
G01*
X25687574Y-17028982D01*
X25671062Y-17071966D01*
X25632844Y-17140849D01*
X25616661Y-17167788D01*
X25576877Y-17242046D01*
X25546027Y-17315727D01*
X25531594Y-17368935D01*
X25516378Y-17428904D01*
X25493307Y-17456995D01*
X25465760Y-17449219D01*
X25464564Y-17448057D01*
X25455378Y-17420513D01*
X25450850Y-17370961D01*
X25450752Y-17362573D01*
X25435503Y-17287180D01*
X25391433Y-17193070D01*
X25380697Y-17174757D01*
X25345038Y-17111547D01*
X25319823Y-17059071D01*
X25310693Y-17029643D01*
X25320145Y-17001682D01*
X25344818Y-17004515D01*
X25379191Y-17034698D01*
X25417739Y-17088788D01*
X25424629Y-17100680D01*
X25457158Y-17154812D01*
X25483068Y-17191155D01*
X25494122Y-17200759D01*
X25510884Y-17185100D01*
X25540693Y-17144503D01*
X25568996Y-17100700D01*
X25607011Y-17046724D01*
X25641797Y-17010388D01*
X25660784Y-17000622D01*
X25683706Y-17006875D01*
G37*
G36*
X26312655Y-17006237D02*
G01*
X26387914Y-17041124D01*
X26445406Y-17099832D01*
X26478677Y-17177105D01*
X26481275Y-17267690D01*
X26472916Y-17304382D01*
X26431584Y-17378612D01*
X26364656Y-17431446D01*
X26282618Y-17458836D01*
X26195951Y-17456731D01*
X26136171Y-17434459D01*
X26072227Y-17378879D01*
X26034694Y-17304559D01*
X26026513Y-17243334D01*
X26107986Y-17243334D01*
X26128688Y-17313539D01*
X26166090Y-17355901D01*
X26224174Y-17378559D01*
X26291962Y-17376408D01*
X26350329Y-17351008D01*
X26362421Y-17339894D01*
X26396047Y-17278030D01*
X26399274Y-17210421D01*
X26376401Y-17147433D01*
X26331727Y-17099431D01*
X26269553Y-17076782D01*
X26253064Y-17076254D01*
X26190944Y-17084148D01*
X26152395Y-17110293D01*
X26122343Y-17165113D01*
X26121424Y-17167290D01*
X26107986Y-17243334D01*
X26026513Y-17243334D01*
X26023610Y-17221607D01*
X26039014Y-17140133D01*
X26080943Y-17070247D01*
X26134641Y-17028938D01*
X26226080Y-17000423D01*
X26312655Y-17006237D01*
G37*
G36*
X26910221Y-17007152D02*
G01*
X26949803Y-17037785D01*
X27004407Y-17099907D01*
X27046584Y-17154398D01*
X27162151Y-17308175D01*
X27172159Y-17159402D01*
X27179503Y-17079247D01*
X27189390Y-17032513D01*
X27203598Y-17012601D01*
X27212190Y-17010630D01*
X27225636Y-17016923D01*
X27234487Y-17040034D01*
X27239609Y-17086311D01*
X27241869Y-17162102D01*
X27242214Y-17230529D01*
X27240334Y-17342810D01*
X27232826Y-17416333D01*
X27216890Y-17452269D01*
X27189723Y-17451791D01*
X27148524Y-17416072D01*
X27090491Y-17346285D01*
X27060151Y-17306736D01*
X26941978Y-17150740D01*
X26936132Y-17305862D01*
X26930506Y-17392001D01*
X26921025Y-17442269D01*
X26906862Y-17460712D01*
X26904440Y-17460984D01*
X26870726Y-17451814D01*
X26865250Y-17447640D01*
X26859162Y-17422425D01*
X26854952Y-17368000D01*
X26852651Y-17295143D01*
X26852290Y-17214634D01*
X26853901Y-17137251D01*
X26857514Y-17073774D01*
X26863160Y-17034980D01*
X26864056Y-17032282D01*
X26882644Y-17005991D01*
X26910221Y-17007152D01*
G37*
G36*
X27059818Y-15041299D02*
G01*
X27124319Y-15044238D01*
X27169275Y-15049257D01*
X27199801Y-15056604D01*
X27221016Y-15066527D01*
X27223271Y-15067963D01*
X27262093Y-15114632D01*
X27273220Y-15176157D01*
X27256161Y-15238027D01*
X27230160Y-15271160D01*
X27213635Y-15283384D01*
X27190910Y-15292929D01*
X27156826Y-15300278D01*
X27106224Y-15305913D01*
X27033947Y-15310315D01*
X26934837Y-15313967D01*
X26803734Y-15317349D01*
X26714754Y-15319298D01*
X26563329Y-15322734D01*
X26446312Y-15326193D01*
X26358082Y-15330216D01*
X26293021Y-15335346D01*
X26245508Y-15342125D01*
X26209922Y-15351093D01*
X26180645Y-15362793D01*
X26161363Y-15372645D01*
X26039271Y-15458571D01*
X25947518Y-15563895D01*
X25885590Y-15683124D01*
X25852970Y-15810763D01*
X25849141Y-15941319D01*
X25873589Y-16069299D01*
X25925797Y-16189208D01*
X26005250Y-16295553D01*
X26111431Y-16382839D01*
X26243824Y-16445573D01*
X26262676Y-16451561D01*
X26312886Y-16462471D01*
X26384097Y-16470533D01*
X26480981Y-16476004D01*
X26608215Y-16479144D01*
X26770471Y-16480208D01*
X26781930Y-16480212D01*
X26923894Y-16480478D01*
X27031218Y-16481564D01*
X27109290Y-16483902D01*
X27163500Y-16487923D01*
X27199237Y-16494059D01*
X27221890Y-16502740D01*
X27236849Y-16514399D01*
X27239112Y-16516815D01*
X27266410Y-16571750D01*
X27269174Y-16636746D01*
X27247735Y-16693614D01*
X27235634Y-16707291D01*
X27219602Y-16717963D01*
X27194800Y-16726066D01*
X27156181Y-16731918D01*
X27098700Y-16735836D01*
X27017309Y-16738138D01*
X26906964Y-16739140D01*
X26762616Y-16739161D01*
X26730236Y-16739078D01*
X26543876Y-16737419D01*
X26396130Y-16733577D01*
X26285634Y-16727485D01*
X26211026Y-16719078D01*
X26181379Y-16712418D01*
X26009789Y-16638238D01*
X25861561Y-16533111D01*
X25739981Y-16400318D01*
X25648338Y-16243136D01*
X25610429Y-16142840D01*
X25574918Y-15965131D01*
X25577340Y-15790052D01*
X25615644Y-15622160D01*
X25687779Y-15466014D01*
X25791692Y-15326172D01*
X25925333Y-15207192D01*
X26070193Y-15121303D01*
X26221410Y-15049085D01*
X26697857Y-15042482D01*
X26851704Y-15040669D01*
X26970652Y-15040192D01*
X27059818Y-15041299D01*
G37*
G36*
X23247617Y-15091816D02*
G01*
X23283041Y-15153998D01*
X23281818Y-15210199D01*
X23250879Y-15262037D01*
X23237831Y-15276923D01*
X23222408Y-15288420D01*
X23199491Y-15297097D01*
X23163962Y-15303522D01*
X23110706Y-15308264D01*
X23034604Y-15311891D01*
X22930539Y-15314973D01*
X22793394Y-15318077D01*
X22735473Y-15319298D01*
X22579287Y-15322965D01*
X22457803Y-15326908D01*
X22365692Y-15331566D01*
X22297624Y-15337381D01*
X22248270Y-15344792D01*
X22212301Y-15354242D01*
X22187458Y-15364608D01*
X22058499Y-15449405D01*
X21958470Y-15558039D01*
X21889781Y-15685119D01*
X21854845Y-15825250D01*
X21856072Y-15973042D01*
X21875145Y-16063064D01*
X21928219Y-16181119D01*
X22012535Y-16290828D01*
X22119353Y-16381931D01*
X22175758Y-16415885D01*
X22210324Y-16433473D01*
X22242223Y-16446823D01*
X22277557Y-16456607D01*
X22322430Y-16463493D01*
X22382945Y-16468151D01*
X22465206Y-16471251D01*
X22575317Y-16473463D01*
X22718652Y-16475446D01*
X22849706Y-16477515D01*
X22969082Y-16480112D01*
X23070324Y-16483038D01*
X23146979Y-16486096D01*
X23192592Y-16489088D01*
X23200603Y-16490200D01*
X23239709Y-16515907D01*
X23272462Y-16565283D01*
X23288711Y-16622148D01*
X23289101Y-16631272D01*
X23275882Y-16666039D01*
X23249070Y-16700385D01*
X23234385Y-16713041D01*
X23215471Y-16722693D01*
X23187173Y-16729731D01*
X23144339Y-16734545D01*
X23081815Y-16737524D01*
X22994446Y-16739059D01*
X22877079Y-16739539D01*
X22733664Y-16739374D01*
X22581530Y-16738811D01*
X22463339Y-16737561D01*
X22373003Y-16735149D01*
X22304435Y-16731104D01*
X22251545Y-16724953D01*
X22208247Y-16716225D01*
X22168453Y-16704448D01*
X22136497Y-16693051D01*
X22038138Y-16651862D01*
X21958212Y-16605372D01*
X21882852Y-16544056D01*
X21804168Y-16464798D01*
X21713875Y-16353816D01*
X21650426Y-16238137D01*
X21606300Y-16102979D01*
X21595232Y-16054155D01*
X21577942Y-15876577D01*
X21599174Y-15702415D01*
X21657444Y-15536508D01*
X21751269Y-15383694D01*
X21827513Y-15296776D01*
X21904504Y-15224506D01*
X21979501Y-15166821D01*
X22058246Y-15122152D01*
X22146477Y-15088934D01*
X22249933Y-15065599D01*
X22374353Y-15050581D01*
X22525477Y-15042312D01*
X22709045Y-15039226D01*
X22771444Y-15039077D01*
X23206133Y-15039077D01*
X23247617Y-15091816D01*
G37*
G36*
X24137428Y-15043281D02*
G01*
X24291064Y-15045836D01*
X24410620Y-15048646D01*
X24502049Y-15052240D01*
X24571302Y-15057145D01*
X24624329Y-15063890D01*
X24667083Y-15073002D01*
X24705516Y-15085009D01*
X24735282Y-15096311D01*
X24894149Y-15179622D01*
X25029518Y-15291247D01*
X25138546Y-15426001D01*
X25218388Y-15578698D01*
X25266202Y-15744154D01*
X25279144Y-15917180D01*
X25262448Y-16057718D01*
X25217069Y-16212944D01*
X25147341Y-16347111D01*
X25046872Y-16471383D01*
X24997854Y-16519690D01*
X24919072Y-16588720D01*
X24844739Y-16641088D01*
X24767081Y-16679313D01*
X24678326Y-16705916D01*
X24570701Y-16723417D01*
X24436433Y-16734336D01*
X24319913Y-16739502D01*
X24170930Y-16746027D01*
X24057223Y-16756356D01*
X23974039Y-16774346D01*
X23916623Y-16803859D01*
X23880220Y-16848752D01*
X23860076Y-16912887D01*
X23851436Y-17000122D01*
X23849545Y-17114318D01*
X23849543Y-17121328D01*
X23846923Y-17243706D01*
X23838227Y-17332334D01*
X23822198Y-17393203D01*
X23797578Y-17432302D01*
X23781495Y-17445666D01*
X23728694Y-17460513D01*
X23665647Y-17452336D01*
X23612603Y-17424043D01*
X23609353Y-17420953D01*
X23592050Y-17399533D01*
X23580543Y-17371162D01*
X23573686Y-17327923D01*
X23570333Y-17261898D01*
X23569339Y-17165169D01*
X23569322Y-17144298D01*
X23572889Y-17000630D01*
X23585004Y-16887987D01*
X23607789Y-16797877D01*
X23643363Y-16721814D01*
X23691911Y-16653648D01*
X23741040Y-16599295D01*
X23791236Y-16558228D01*
X23849296Y-16528326D01*
X23922016Y-16507469D01*
X24016192Y-16493536D01*
X24138622Y-16484406D01*
X24249858Y-16479551D01*
X24374448Y-16474601D01*
X24466707Y-16469402D01*
X24534321Y-16462803D01*
X24584982Y-16453653D01*
X24626376Y-16440802D01*
X24666194Y-16423099D01*
X24682665Y-16414780D01*
X24807688Y-16330551D01*
X24902341Y-16225906D01*
X24966685Y-16106439D01*
X25000784Y-15977741D01*
X25004699Y-15845405D01*
X24978493Y-15715023D01*
X24922227Y-15592187D01*
X24835965Y-15482490D01*
X24719769Y-15391523D01*
X24670965Y-15364608D01*
X24642374Y-15352998D01*
X24605095Y-15343814D01*
X24553797Y-15336615D01*
X24483152Y-15330961D01*
X24387830Y-15326411D01*
X24262502Y-15322524D01*
X24122950Y-15319298D01*
X23972762Y-15316048D01*
X23857480Y-15313024D01*
X23771986Y-15309657D01*
X23711165Y-15305378D01*
X23669898Y-15299618D01*
X23643068Y-15291810D01*
X23625557Y-15281385D01*
X23612249Y-15267773D01*
X23607545Y-15262037D01*
X23574581Y-15203678D01*
X23577577Y-15147740D01*
X23612015Y-15090279D01*
X23654707Y-15036004D01*
X24137428Y-15043281D01*
G37*
D13*
%TO.C,U2*%
X31575000Y-23105000D02*
X31575000Y-33385000D01*
X31575000Y-33385000D02*
X36875000Y-33385000D01*
X33225000Y-23105000D02*
X31575000Y-23105000D01*
X36875000Y-23105000D02*
X35225000Y-23105000D01*
X36875000Y-33385000D02*
X36875000Y-23105000D01*
X35225000Y-23105000D02*
G75*
G02*
X33225000Y-23105000I-1000000J0D01*
G01*
%TO.C,TP2*%
X40230000Y-28190000D02*
X42630000Y-28190000D01*
X40230000Y-30590000D02*
X40230000Y-28190000D01*
X42630000Y-28190000D02*
X42630000Y-30590000D01*
X42630000Y-30590000D02*
X40230000Y-30590000D01*
%TO.C,J4*%
X43750000Y-28010000D02*
X45130000Y-28010000D01*
X43750000Y-29390000D02*
X43750000Y-28010000D01*
X43750000Y-30660000D02*
X43750000Y-30770000D01*
X43750000Y-30660000D02*
X46510000Y-30660000D01*
X43750000Y-30770000D02*
X46510000Y-30770000D01*
X46510000Y-30660000D02*
X46510000Y-30770000D01*
D10*
%TO.C,R1*%
X34930000Y-17740000D02*
X33930000Y-17740000D01*
X34930000Y-21240000D02*
X33930000Y-21240000D01*
D15*
X37100000Y-19490000D02*
X37100000Y-19490000D01*
X37200000Y-19490000D02*
X37200000Y-19490000D01*
X37100000Y-19490000D02*
G75*
G02*
X37200000Y-19490000I50000J0D01*
G01*
X37200000Y-19490000D02*
G75*
G02*
X37100000Y-19490000I-50000J0D01*
G01*
D13*
%TO.C,J8*%
X39430000Y-16815000D02*
X39430000Y-18065000D01*
X39720000Y-17105000D02*
X39720000Y-23075000D01*
X39720000Y-23075000D02*
X47340000Y-23075000D01*
X39730000Y-17115000D02*
X39730000Y-17865000D01*
X39730000Y-17865000D02*
X41530000Y-17865000D01*
X39730000Y-19365000D02*
X40480000Y-19365000D01*
X40480000Y-19365000D02*
X40480000Y-22315000D01*
X40480000Y-22315000D02*
X43530000Y-22315000D01*
X40680000Y-16815000D02*
X39430000Y-16815000D01*
X41530000Y-17115000D02*
X39730000Y-17115000D01*
X41530000Y-17865000D02*
X41530000Y-17115000D01*
X43030000Y-17115000D02*
X43030000Y-17865000D01*
X43030000Y-17865000D02*
X44030000Y-17865000D01*
X44030000Y-17115000D02*
X43030000Y-17115000D01*
X44030000Y-17865000D02*
X44030000Y-17115000D01*
X45530000Y-17115000D02*
X45530000Y-17865000D01*
X45530000Y-17865000D02*
X47330000Y-17865000D01*
X46580000Y-19365000D02*
X46580000Y-22315000D01*
X46580000Y-22315000D02*
X43530000Y-22315000D01*
X47330000Y-17115000D02*
X45530000Y-17115000D01*
X47330000Y-17865000D02*
X47330000Y-17115000D01*
X47330000Y-19365000D02*
X46580000Y-19365000D01*
X47340000Y-17105000D02*
X39720000Y-17105000D01*
X47340000Y-23075000D02*
X47340000Y-17105000D01*
%TO.C,TP11*%
X25930000Y-25490000D02*
X28330000Y-25490000D01*
X25930000Y-27890000D02*
X25930000Y-25490000D01*
X28330000Y-25490000D02*
X28330000Y-27890000D01*
X28330000Y-27890000D02*
X25930000Y-27890000D01*
%TO.C,TP1*%
X25830000Y-30590000D02*
X28230000Y-30590000D01*
X25830000Y-32990000D02*
X25830000Y-30590000D01*
X28230000Y-30590000D02*
X28230000Y-32990000D01*
X28230000Y-32990000D02*
X25830000Y-32990000D01*
D10*
%TO.C,RVAR1*%
X18615000Y-19825000D02*
X18615000Y-29355000D01*
X18615000Y-29355000D02*
X23445000Y-29355000D01*
X21035000Y-29876000D02*
X21035000Y-29876000D01*
X21035000Y-30076000D02*
X21035000Y-30076000D01*
X23445000Y-19825000D02*
X18615000Y-19825000D01*
X23445000Y-29355000D02*
X23445000Y-19825000D01*
X21035000Y-29876000D02*
G75*
G02*
X21035000Y-30076000I0J-100000D01*
G01*
X21035000Y-30076000D02*
G75*
G02*
X21035000Y-29876000I0J100000D01*
G01*
%TD*%
M02*
