%TF.GenerationSoftware,KiCad,Pcbnew,9.0.6*%
%TF.CreationDate,2026-01-19T07:30:14+01:00*%
%TF.ProjectId,Lumiere,4c756d69-6572-4652-9e6b-696361645f70,rev?*%
%TF.SameCoordinates,Original*%
%TF.FileFunction,Legend,Bot*%
%TF.FilePolarity,Positive*%
%FSLAX46Y46*%
G04 Gerber Fmt 4.6, Leading zero omitted, Abs format (unit mm)*
G04 Created by KiCad (PCBNEW 9.0.6) date 2026-01-19 07:30:14*
%MOMM*%
%LPD*%
G01*
G04 APERTURE LIST*
%ADD10C,0.150000*%
%ADD11C,0.120000*%
G04 APERTURE END LIST*
D10*
X40304819Y-25333333D02*
X39828628Y-25000000D01*
X40304819Y-24761905D02*
X39304819Y-24761905D01*
X39304819Y-24761905D02*
X39304819Y-25142857D01*
X39304819Y-25142857D02*
X39352438Y-25238095D01*
X39352438Y-25238095D02*
X39400057Y-25285714D01*
X39400057Y-25285714D02*
X39495295Y-25333333D01*
X39495295Y-25333333D02*
X39638152Y-25333333D01*
X39638152Y-25333333D02*
X39733390Y-25285714D01*
X39733390Y-25285714D02*
X39781009Y-25238095D01*
X39781009Y-25238095D02*
X39828628Y-25142857D01*
X39828628Y-25142857D02*
X39828628Y-24761905D01*
X39304819Y-25666667D02*
X39304819Y-26285714D01*
X39304819Y-26285714D02*
X39685771Y-25952381D01*
X39685771Y-25952381D02*
X39685771Y-26095238D01*
X39685771Y-26095238D02*
X39733390Y-26190476D01*
X39733390Y-26190476D02*
X39781009Y-26238095D01*
X39781009Y-26238095D02*
X39876247Y-26285714D01*
X39876247Y-26285714D02*
X40114342Y-26285714D01*
X40114342Y-26285714D02*
X40209580Y-26238095D01*
X40209580Y-26238095D02*
X40257200Y-26190476D01*
X40257200Y-26190476D02*
X40304819Y-26095238D01*
X40304819Y-26095238D02*
X40304819Y-25809524D01*
X40304819Y-25809524D02*
X40257200Y-25714286D01*
X40257200Y-25714286D02*
X40209580Y-25666667D01*
D11*
%TO.C,R3*%
X40765000Y-25272936D02*
X40765000Y-25727064D01*
X42235000Y-25272936D02*
X42235000Y-25727064D01*
%TD*%
M02*
