%TF.GenerationSoftware,KiCad,Pcbnew,9.0.6*%
%TF.CreationDate,2026-02-01T22:29:02+01:00*%
%TF.ProjectId,BMS,424d532e-6b69-4636-9164-5f7063625858,rev?*%
%TF.SameCoordinates,Original*%
%TF.FileFunction,Paste,Top*%
%TF.FilePolarity,Positive*%
%FSLAX46Y46*%
G04 Gerber Fmt 4.6, Leading zero omitted, Abs format (unit mm)*
G04 Created by KiCad (PCBNEW 9.0.6) date 2026-02-01 22:29:02*
%MOMM*%
%LPD*%
G01*
G04 APERTURE LIST*
G04 Aperture macros list*
%AMRoundRect*
0 Rectangle with rounded corners*
0 $1 Rounding radius*
0 $2 $3 $4 $5 $6 $7 $8 $9 X,Y pos of 4 corners*
0 Add a 4 corners polygon primitive as box body*
4,1,4,$2,$3,$4,$5,$6,$7,$8,$9,$2,$3,0*
0 Add four circle primitives for the rounded corners*
1,1,$1+$1,$2,$3*
1,1,$1+$1,$4,$5*
1,1,$1+$1,$6,$7*
1,1,$1+$1,$8,$9*
0 Add four rect primitives between the rounded corners*
20,1,$1+$1,$2,$3,$4,$5,0*
20,1,$1+$1,$4,$5,$6,$7,0*
20,1,$1+$1,$6,$7,$8,$9,0*
20,1,$1+$1,$8,$9,$2,$3,0*%
G04 Aperture macros list end*
%ADD10C,0.010000*%
%ADD11RoundRect,0.250000X-0.350000X-0.450000X0.350000X-0.450000X0.350000X0.450000X-0.350000X0.450000X0*%
%ADD12RoundRect,0.237500X0.237500X-0.300000X0.237500X0.300000X-0.237500X0.300000X-0.237500X-0.300000X0*%
%ADD13RoundRect,0.250000X0.475000X-0.337500X0.475000X0.337500X-0.475000X0.337500X-0.475000X-0.337500X0*%
%ADD14RoundRect,0.250001X-1.044999X0.872499X-1.044999X-0.872499X1.044999X-0.872499X1.044999X0.872499X0*%
%ADD15RoundRect,0.155000X0.212500X0.155000X-0.212500X0.155000X-0.212500X-0.155000X0.212500X-0.155000X0*%
%ADD16R,0.300000X0.600000*%
%ADD17R,0.300000X0.635000*%
%ADD18R,2.450000X1.775000*%
%ADD19RoundRect,0.250001X0.624999X-0.462499X0.624999X0.462499X-0.624999X0.462499X-0.624999X-0.462499X0*%
%ADD20RoundRect,0.237500X0.250000X0.237500X-0.250000X0.237500X-0.250000X-0.237500X0.250000X-0.237500X0*%
%ADD21RoundRect,0.237500X0.300000X0.237500X-0.300000X0.237500X-0.300000X-0.237500X0.300000X-0.237500X0*%
%ADD22RoundRect,0.250000X1.500000X0.550000X-1.500000X0.550000X-1.500000X-0.550000X1.500000X-0.550000X0*%
%ADD23RoundRect,0.150000X-0.150000X0.512500X-0.150000X-0.512500X0.150000X-0.512500X0.150000X0.512500X0*%
%ADD24RoundRect,0.250000X0.337500X0.475000X-0.337500X0.475000X-0.337500X-0.475000X0.337500X-0.475000X0*%
%ADD25RoundRect,0.250000X-0.412500X-0.650000X0.412500X-0.650000X0.412500X0.650000X-0.412500X0.650000X0*%
%ADD26RoundRect,0.093750X-0.093750X0.156250X-0.093750X-0.156250X0.093750X-0.156250X0.093750X0.156250X0*%
%ADD27RoundRect,0.075000X-0.075000X0.250000X-0.075000X-0.250000X0.075000X-0.250000X0.075000X0.250000X0*%
%ADD28R,1.050000X2.800000*%
%ADD29R,8.950000X6.850000*%
%ADD30R,0.420000X0.700000*%
%ADD31R,0.420000X0.540000*%
%ADD32R,2.370000X1.710000*%
%ADD33R,0.298000X0.700000*%
%ADD34R,0.998000X0.700000*%
%ADD35RoundRect,0.150000X-0.512500X-0.150000X0.512500X-0.150000X0.512500X0.150000X-0.512500X0.150000X0*%
%ADD36RoundRect,0.225000X0.375000X-0.225000X0.375000X0.225000X-0.375000X0.225000X-0.375000X-0.225000X0*%
%ADD37R,1.400000X0.600000*%
%ADD38RoundRect,0.237500X-0.300000X-0.237500X0.300000X-0.237500X0.300000X0.237500X-0.300000X0.237500X0*%
%ADD39RoundRect,0.237500X-0.250000X-0.237500X0.250000X-0.237500X0.250000X0.237500X-0.250000X0.237500X0*%
%ADD40RoundRect,0.135000X-0.185000X0.135000X-0.185000X-0.135000X0.185000X-0.135000X0.185000X0.135000X0*%
%ADD41RoundRect,0.237500X0.237500X-0.250000X0.237500X0.250000X-0.237500X0.250000X-0.237500X-0.250000X0*%
%ADD42RoundRect,0.250000X0.625000X-0.400000X0.625000X0.400000X-0.625000X0.400000X-0.625000X-0.400000X0*%
%ADD43RoundRect,0.155000X0.155000X-0.212500X0.155000X0.212500X-0.155000X0.212500X-0.155000X-0.212500X0*%
%ADD44RoundRect,0.237500X-0.237500X0.250000X-0.237500X-0.250000X0.237500X-0.250000X0.237500X0.250000X0*%
%ADD45RoundRect,0.250000X0.550000X-1.500000X0.550000X1.500000X-0.550000X1.500000X-0.550000X-1.500000X0*%
%ADD46R,1.100000X0.650000*%
%ADD47RoundRect,0.250000X-0.625000X0.400000X-0.625000X-0.400000X0.625000X-0.400000X0.625000X0.400000X0*%
%ADD48RoundRect,0.237500X-0.237500X0.300000X-0.237500X-0.300000X0.237500X-0.300000X0.237500X0.300000X0*%
%ADD49R,1.300000X1.050000*%
%ADD50RoundRect,0.140000X0.140000X0.170000X-0.140000X0.170000X-0.140000X-0.170000X0.140000X-0.170000X0*%
%ADD51RoundRect,0.155000X-0.212500X-0.155000X0.212500X-0.155000X0.212500X0.155000X-0.212500X0.155000X0*%
%ADD52RoundRect,0.250001X-0.624999X0.462499X-0.624999X-0.462499X0.624999X-0.462499X0.624999X0.462499X0*%
%ADD53R,0.600000X1.150000*%
%ADD54RoundRect,0.250000X0.412500X0.650000X-0.412500X0.650000X-0.412500X-0.650000X0.412500X-0.650000X0*%
%ADD55RoundRect,0.250000X-0.400000X-0.625000X0.400000X-0.625000X0.400000X0.625000X-0.400000X0.625000X0*%
%ADD56R,0.550000X0.800000*%
%ADD57RoundRect,0.093750X0.093750X-0.156250X0.093750X0.156250X-0.093750X0.156250X-0.093750X-0.156250X0*%
%ADD58RoundRect,0.075000X0.075000X-0.250000X0.075000X0.250000X-0.075000X0.250000X-0.075000X-0.250000X0*%
%ADD59R,2.850000X5.400000*%
%ADD60RoundRect,0.150000X0.150000X-0.512500X0.150000X0.512500X-0.150000X0.512500X-0.150000X-0.512500X0*%
%ADD61RoundRect,0.250000X-0.475000X0.337500X-0.475000X-0.337500X0.475000X-0.337500X0.475000X0.337500X0*%
%ADD62R,1.910000X0.610000*%
%ADD63R,0.723000X0.930000*%
%ADD64RoundRect,0.250000X-0.750000X-0.500000X0.750000X-0.500000X0.750000X0.500000X-0.750000X0.500000X0*%
%ADD65R,0.990000X0.405000*%
%ADD66R,0.760000X0.405000*%
%ADD67R,1.475000X2.235000*%
%ADD68R,0.750000X0.200000*%
%ADD69R,0.200000X0.750000*%
%ADD70R,1.500000X1.500000*%
%ADD71RoundRect,0.237500X0.044194X0.380070X-0.380070X-0.044194X-0.044194X-0.380070X0.380070X0.044194X0*%
%ADD72RoundRect,0.135000X-0.135000X-0.185000X0.135000X-0.185000X0.135000X0.185000X-0.135000X0.185000X0*%
%ADD73RoundRect,0.135000X0.185000X-0.135000X0.185000X0.135000X-0.185000X0.135000X-0.185000X-0.135000X0*%
%ADD74RoundRect,0.155000X-0.155000X0.212500X-0.155000X-0.212500X0.155000X-0.212500X0.155000X0.212500X0*%
%ADD75R,0.950000X0.450000*%
%ADD76R,3.450000X4.350000*%
%ADD77RoundRect,0.160000X-0.197500X-0.160000X0.197500X-0.160000X0.197500X0.160000X-0.197500X0.160000X0*%
%ADD78R,0.850000X0.200000*%
%ADD79R,0.200000X0.850000*%
%ADD80R,3.450000X3.450000*%
%ADD81RoundRect,0.237500X-0.380070X0.044194X0.044194X-0.380070X0.380070X-0.044194X-0.044194X0.380070X0*%
%ADD82RoundRect,0.250000X0.295000X-0.295000X0.295000X0.295000X-0.295000X0.295000X-0.295000X-0.295000X0*%
%ADD83RoundRect,0.062500X0.062500X-0.350000X0.062500X0.350000X-0.062500X0.350000X-0.062500X-0.350000X0*%
%ADD84RoundRect,0.062500X0.350000X-0.062500X0.350000X0.062500X-0.350000X0.062500X-0.350000X-0.062500X0*%
%ADD85R,2.050000X3.000000*%
%ADD86R,0.800000X0.300000*%
%ADD87R,0.300000X0.800000*%
%ADD88R,2.800000X2.800000*%
%ADD89R,0.800000X0.550000*%
%ADD90R,0.300000X0.700000*%
%ADD91R,1.700000X1.000000*%
%ADD92R,1.000000X1.600000*%
%ADD93RoundRect,0.249999X-1.425001X0.450001X-1.425001X-0.450001X1.425001X-0.450001X1.425001X0.450001X0*%
%ADD94RoundRect,0.237500X0.008839X0.344715X-0.344715X-0.008839X-0.008839X-0.344715X0.344715X0.008839X0*%
%ADD95RoundRect,0.250000X0.750000X0.500000X-0.750000X0.500000X-0.750000X-0.500000X0.750000X-0.500000X0*%
%ADD96R,0.600000X0.300000*%
%ADD97R,0.635000X0.300000*%
%ADD98R,1.775000X2.450000*%
%ADD99R,3.000000X1.600000*%
%ADD100R,6.700000X6.700000*%
%ADD101RoundRect,0.250000X0.650000X-0.412500X0.650000X0.412500X-0.650000X0.412500X-0.650000X-0.412500X0*%
%ADD102RoundRect,0.027500X-0.082500X0.337500X-0.082500X-0.337500X0.082500X-0.337500X0.082500X0.337500X0*%
%ADD103RoundRect,0.027500X-0.337500X0.082500X-0.337500X-0.082500X0.337500X-0.082500X0.337500X0.082500X0*%
%ADD104RoundRect,0.140000X-0.170000X0.140000X-0.170000X-0.140000X0.170000X-0.140000X0.170000X0.140000X0*%
%ADD105RoundRect,0.250000X1.275000X1.125000X-1.275000X1.125000X-1.275000X-1.125000X1.275000X-1.125000X0*%
%ADD106RoundRect,0.250000X0.850000X0.350000X-0.850000X0.350000X-0.850000X-0.350000X0.850000X-0.350000X0*%
G04 APERTURE END LIST*
D10*
%TO.C,BQ25713_1*%
X82700000Y-97390000D02*
X80920000Y-97390000D01*
X80920000Y-95610000D01*
X82700000Y-95610000D01*
X82700000Y-97390000D01*
G36*
X82700000Y-97390000D02*
G01*
X80920000Y-97390000D01*
X80920000Y-95610000D01*
X82700000Y-95610000D01*
X82700000Y-97390000D01*
G37*
%TD*%
D11*
%TO.C,R113*%
X43200000Y-136100000D03*
X45200000Y-136100000D03*
%TD*%
D12*
%TO.C,C79*%
X117810800Y-101864200D03*
X117810800Y-100139200D03*
%TD*%
D13*
%TO.C,C25*%
X99125000Y-96812500D03*
X99125000Y-94737500D03*
%TD*%
D14*
%TO.C,C58*%
X75750000Y-112049500D03*
X75750000Y-118464500D03*
%TD*%
D15*
%TO.C,C46*%
X73192500Y-101925000D03*
X72057500Y-101925000D03*
%TD*%
D16*
%TO.C,Q4*%
X99450000Y-103850000D03*
X98800000Y-103850000D03*
X98150000Y-103850000D03*
X97500000Y-103850000D03*
D17*
X97500000Y-106932000D03*
X98150000Y-106932000D03*
X98800000Y-106932000D03*
X99450000Y-106932000D03*
D18*
X98475000Y-105728000D03*
%TD*%
D19*
%TO.C,D11*%
X103525000Y-112312500D03*
X103525000Y-109337500D03*
%TD*%
D20*
%TO.C,R25*%
X72387500Y-97025000D03*
X70562500Y-97025000D03*
%TD*%
D21*
%TO.C,C39*%
X77462500Y-94075000D03*
X75737500Y-94075000D03*
%TD*%
D22*
%TO.C,C105*%
X63150000Y-138650000D03*
X57750000Y-138650000D03*
%TD*%
D21*
%TO.C,C19*%
X46480900Y-94538800D03*
X44755900Y-94538800D03*
%TD*%
D23*
%TO.C,IC4*%
X65575000Y-112862500D03*
X63675000Y-112862500D03*
X64625000Y-115137500D03*
%TD*%
D24*
%TO.C,C98*%
X110412500Y-137775000D03*
X108337500Y-137775000D03*
%TD*%
D25*
%TO.C,C35*%
X94087500Y-90025000D03*
X97212500Y-90025000D03*
%TD*%
D26*
%TO.C,U4*%
X121987500Y-72875000D03*
D27*
X121450000Y-72800000D03*
D26*
X120912500Y-72875000D03*
X120912500Y-74575000D03*
D27*
X121450000Y-74650000D03*
D26*
X121987500Y-74575000D03*
%TD*%
D28*
%TO.C,IC16*%
X45480000Y-138825000D03*
X42940000Y-138825000D03*
X40400000Y-138825000D03*
D29*
X42940000Y-149175000D03*
%TD*%
D30*
%TO.C,Q15*%
X94100000Y-84520000D03*
X93450000Y-84520000D03*
X92800000Y-84520000D03*
X92150000Y-84520000D03*
D31*
X92150000Y-87600000D03*
X92800000Y-87600000D03*
X93450000Y-87600000D03*
X94100000Y-87600000D03*
D32*
X93125000Y-86475000D03*
%TD*%
D12*
%TO.C,C74*%
X116286800Y-101864200D03*
X116286800Y-100139200D03*
%TD*%
D21*
%TO.C,C76*%
X116337500Y-88700000D03*
X114612500Y-88700000D03*
%TD*%
%TO.C,C34*%
X71112500Y-92775000D03*
X69387500Y-92775000D03*
%TD*%
D33*
%TO.C,USBC-J3*%
X106400000Y-148525000D03*
X106900000Y-148525000D03*
X107400000Y-148525000D03*
X107900000Y-148525000D03*
X108400000Y-148525000D03*
X108900000Y-148525000D03*
X109900000Y-148525000D03*
X110400000Y-148525000D03*
X110900000Y-148525000D03*
X111400000Y-148525000D03*
X111900000Y-148525000D03*
X112400000Y-148525000D03*
D34*
X112500000Y-149825000D03*
D33*
X111650000Y-149825000D03*
X111150000Y-149825000D03*
X110650000Y-149825000D03*
X110150000Y-149825000D03*
X109650000Y-149825000D03*
X109150000Y-149825000D03*
X108650000Y-149825000D03*
X108150000Y-149825000D03*
X107650000Y-149825000D03*
X107150000Y-149825000D03*
D34*
X106300000Y-149825000D03*
%TD*%
D12*
%TO.C,C73*%
X116337600Y-110398600D03*
X116337600Y-108673600D03*
%TD*%
%TO.C,C77*%
X117810800Y-109179400D03*
X117810800Y-107454400D03*
%TD*%
D20*
%TO.C,R11*%
X59789500Y-107900000D03*
X57964500Y-107900000D03*
%TD*%
D21*
%TO.C,C114*%
X28912500Y-136475000D03*
X27187500Y-136475000D03*
%TD*%
D35*
%TO.C,IC9*%
X118112500Y-125500000D03*
X118112500Y-127400000D03*
X120387500Y-126450000D03*
%TD*%
D36*
%TO.C,D9*%
X101200000Y-86350000D03*
X101200000Y-83050000D03*
%TD*%
D20*
%TO.C,R27*%
X107312500Y-86350000D03*
X105487500Y-86350000D03*
%TD*%
%TO.C,R54*%
X121112800Y-96023300D03*
X119287800Y-96023300D03*
%TD*%
D37*
%TO.C,Q13*%
X108300000Y-79250000D03*
X108300000Y-77350000D03*
X106000000Y-78300000D03*
%TD*%
D38*
%TO.C,C70*%
X68587500Y-78225000D03*
X70312500Y-78225000D03*
%TD*%
D21*
%TO.C,C33*%
X96887500Y-99925000D03*
X95162500Y-99925000D03*
%TD*%
D20*
%TO.C,R88*%
X112262500Y-72950000D03*
X110437500Y-72950000D03*
%TD*%
D21*
%TO.C,C30*%
X89787500Y-102975000D03*
X88062500Y-102975000D03*
%TD*%
D39*
%TO.C,R30*%
X75037500Y-98300000D03*
X76862500Y-98300000D03*
%TD*%
D40*
%TO.C,R5*%
X61927000Y-88430000D03*
X61927000Y-89450000D03*
%TD*%
D41*
%TO.C,R70*%
X116762400Y-122793000D03*
X116762400Y-120968000D03*
%TD*%
D42*
%TO.C,RS3*%
X79475000Y-105575000D03*
X79475000Y-102475000D03*
%TD*%
D19*
%TO.C,D10*%
X103525000Y-107412500D03*
X103525000Y-104437500D03*
%TD*%
D39*
%TO.C,R28*%
X71387500Y-100725000D03*
X73212500Y-100725000D03*
%TD*%
D43*
%TO.C,C64*%
X82077000Y-76867500D03*
X82077000Y-75732500D03*
%TD*%
D44*
%TO.C,R86*%
X110700000Y-77387500D03*
X110700000Y-79212500D03*
%TD*%
D45*
%TO.C,C102*%
X83250000Y-134600000D03*
X83250000Y-129200000D03*
%TD*%
D46*
%TO.C,Q11*%
X118355600Y-120930500D03*
X118355600Y-122830500D03*
X120655600Y-121880500D03*
%TD*%
D47*
%TO.C,R114*%
X26350000Y-150074999D03*
X26350000Y-153174999D03*
%TD*%
D48*
%TO.C,C94*%
X96370000Y-73612500D03*
X96370000Y-75337500D03*
%TD*%
D25*
%TO.C,C61*%
X102062500Y-114600000D03*
X105187500Y-114600000D03*
%TD*%
D49*
%TO.C,Y1*%
X64527000Y-106075000D03*
X62227000Y-106075000D03*
X62227000Y-107825000D03*
X64527000Y-107825000D03*
%TD*%
D41*
%TO.C,R41*%
X53777000Y-68612500D03*
X53777000Y-66787500D03*
%TD*%
D50*
%TO.C,C2*%
X59407000Y-91340000D03*
X58447000Y-91340000D03*
%TD*%
D51*
%TO.C,C37*%
X90432500Y-100225000D03*
X91567500Y-100225000D03*
%TD*%
D36*
%TO.C,D12*%
X103525000Y-86350000D03*
X103525000Y-83050000D03*
%TD*%
D52*
%TO.C,D8*%
X105825000Y-109337500D03*
X105825000Y-112312500D03*
%TD*%
D53*
%TO.C,Q1*%
X85950000Y-87775000D03*
X86900000Y-87775000D03*
X87850000Y-87775000D03*
X87850000Y-85175000D03*
X86900000Y-85175000D03*
X85950000Y-85175000D03*
%TD*%
D21*
%TO.C,C23*%
X89487500Y-78175000D03*
X87762500Y-78175000D03*
%TD*%
D54*
%TO.C,C50*%
X72425000Y-113532000D03*
X69300000Y-113532000D03*
%TD*%
D55*
%TO.C,R12*%
X90025000Y-76300000D03*
X93125000Y-76300000D03*
%TD*%
D21*
%TO.C,C1*%
X84530100Y-71577200D03*
X82805100Y-71577200D03*
%TD*%
D22*
%TO.C,C106*%
X63150000Y-145749999D03*
X57750000Y-145749999D03*
%TD*%
D39*
%TO.C,R49*%
X57714500Y-80550000D03*
X59539500Y-80550000D03*
%TD*%
D38*
%TO.C,C66*%
X70914500Y-76750000D03*
X72639500Y-76750000D03*
%TD*%
D28*
%TO.C,IC10*%
X123680000Y-138775000D03*
X121140000Y-138775000D03*
X118600000Y-138775000D03*
D29*
X121140000Y-149125000D03*
%TD*%
D12*
%TO.C,C80*%
X117810800Y-94498200D03*
X117810800Y-92773200D03*
%TD*%
D56*
%TO.C,D17*%
X113625000Y-145975000D03*
X114875000Y-145975000D03*
%TD*%
D57*
%TO.C,U7*%
X83687500Y-144250000D03*
D58*
X84225000Y-144325000D03*
D57*
X84762500Y-144250000D03*
X84762500Y-142550000D03*
D58*
X84225000Y-142475000D03*
D57*
X83687500Y-142550000D03*
%TD*%
D11*
%TO.C,R100*%
X95250000Y-133975000D03*
X97250000Y-133975000D03*
%TD*%
D59*
%TO.C,L2*%
X94125000Y-110900000D03*
X85725000Y-110900000D03*
%TD*%
D47*
%TO.C,RS2*%
X93225000Y-96675000D03*
X93225000Y-99775000D03*
%TD*%
D60*
%TO.C,IC8*%
X108550000Y-105525000D03*
X110450000Y-105525000D03*
X109500000Y-103250000D03*
%TD*%
D51*
%TO.C,C20*%
X62809500Y-109850000D03*
X63944500Y-109850000D03*
%TD*%
D47*
%TO.C,R15*%
X96900000Y-83425000D03*
X96900000Y-86525000D03*
%TD*%
D41*
%TO.C,R36*%
X63350000Y-117612500D03*
X63350000Y-115787500D03*
%TD*%
D38*
%TO.C,C6*%
X64914500Y-93700000D03*
X66639500Y-93700000D03*
%TD*%
D21*
%TO.C,C93*%
X97962500Y-71600000D03*
X96237500Y-71600000D03*
%TD*%
D44*
%TO.C,R43*%
X55327000Y-73687500D03*
X55327000Y-75512500D03*
%TD*%
D41*
%TO.C,R51*%
X120706400Y-118627400D03*
X120706400Y-116802400D03*
%TD*%
D12*
%TO.C,C101*%
X77000000Y-154200000D03*
X77000000Y-152475000D03*
%TD*%
D48*
%TO.C,C26*%
X84000000Y-90425000D03*
X84000000Y-92150000D03*
%TD*%
D41*
%TO.C,R17*%
X89500000Y-86937500D03*
X89500000Y-85112500D03*
%TD*%
D61*
%TO.C,C113*%
X28500000Y-153250000D03*
X28500000Y-155325000D03*
%TD*%
D38*
%TO.C,C45*%
X86512500Y-116125000D03*
X88237500Y-116125000D03*
%TD*%
D24*
%TO.C,C103*%
X85162500Y-137800000D03*
X83087500Y-137800000D03*
%TD*%
D20*
%TO.C,R34*%
X65212500Y-119100000D03*
X63387500Y-119100000D03*
%TD*%
D11*
%TO.C,RS1*%
X95200000Y-96725000D03*
X97200000Y-96725000D03*
%TD*%
D20*
%TO.C,R58*%
X121112800Y-101916100D03*
X119287800Y-101916100D03*
%TD*%
D62*
%TO.C,U2*%
X74694500Y-73120000D03*
X74694500Y-74390000D03*
X74694500Y-75660000D03*
X74694500Y-76930000D03*
X80254500Y-76930000D03*
X80254500Y-75660000D03*
X80254500Y-74390000D03*
X80254500Y-73120000D03*
D63*
X76872000Y-74250000D03*
X76872000Y-75800000D03*
X78077000Y-74250000D03*
X78077000Y-75800000D03*
%TD*%
D15*
%TO.C,C40*%
X72442500Y-98575000D03*
X71307500Y-98575000D03*
%TD*%
D64*
%TO.C,SW2*%
X25900000Y-68500000D03*
X40200000Y-68500000D03*
X25900000Y-73500000D03*
X40200000Y-73500000D03*
%TD*%
D20*
%TO.C,R24*%
X77512500Y-92600000D03*
X75687500Y-92600000D03*
%TD*%
D39*
%TO.C,R19*%
X89537500Y-99025000D03*
X91362500Y-99025000D03*
%TD*%
D38*
%TO.C,C86*%
X125137500Y-111800000D03*
X126862500Y-111800000D03*
%TD*%
D65*
%TO.C,Q12*%
X109085400Y-114818100D03*
X109085400Y-115478100D03*
X109085400Y-116138100D03*
X109085400Y-116798100D03*
D66*
X112070400Y-116798100D03*
X112070400Y-116138100D03*
X112070400Y-115478100D03*
D67*
X110953400Y-115808100D03*
D66*
X112070400Y-114818100D03*
%TD*%
D21*
%TO.C,C16*%
X64939500Y-92200000D03*
X63214500Y-92200000D03*
%TD*%
D38*
%TO.C,C65*%
X70964500Y-72900000D03*
X72689500Y-72900000D03*
%TD*%
D21*
%TO.C,C109*%
X55912500Y-136450000D03*
X54187500Y-136450000D03*
%TD*%
%TO.C,C60*%
X77537500Y-103550000D03*
X75812500Y-103550000D03*
%TD*%
D20*
%TO.C,R57*%
X121112800Y-94499300D03*
X119287800Y-94499300D03*
%TD*%
D44*
%TO.C,R68*%
X103250000Y-97975000D03*
X103250000Y-99800000D03*
%TD*%
D38*
%TO.C,C84*%
X103262500Y-101275000D03*
X104987500Y-101275000D03*
%TD*%
D68*
%TO.C,IC7*%
X108616000Y-94792400D03*
X108616000Y-94392400D03*
X108616000Y-93992400D03*
X108616000Y-93592400D03*
X108616000Y-93192400D03*
X108616000Y-92792400D03*
X108616000Y-92392400D03*
X108616000Y-91992400D03*
D69*
X108016000Y-91392400D03*
X107616000Y-91392400D03*
X107216000Y-91392400D03*
X106816000Y-91392400D03*
X106416000Y-91392400D03*
X106016000Y-91392400D03*
X105616000Y-91392400D03*
X105216000Y-91392400D03*
D68*
X104616000Y-91992400D03*
X104616000Y-92392400D03*
X104616000Y-92792400D03*
X104616000Y-93192400D03*
X104616000Y-93592400D03*
X104616000Y-93992400D03*
X104616000Y-94392400D03*
X104616000Y-94792400D03*
D69*
X105216000Y-95392400D03*
X105616000Y-95392400D03*
X106016000Y-95392400D03*
X106416000Y-95392400D03*
X106816000Y-95392400D03*
X107216000Y-95392400D03*
X107616000Y-95392400D03*
X108016000Y-95392400D03*
D70*
X106616000Y-93392400D03*
%TD*%
D71*
%TO.C,C14*%
X46380680Y-100126520D03*
X45160920Y-101346280D03*
%TD*%
D28*
%TO.C,IC14*%
X72480000Y-138800000D03*
X69940000Y-138800000D03*
X67400000Y-138800000D03*
D29*
X69940000Y-149150000D03*
%TD*%
D72*
%TO.C,R7*%
X41832000Y-84600000D03*
X42852000Y-84600000D03*
%TD*%
D54*
%TO.C,C51*%
X72425000Y-111232000D03*
X69300000Y-111232000D03*
%TD*%
D38*
%TO.C,C92*%
X96187500Y-69600000D03*
X97912500Y-69600000D03*
%TD*%
%TO.C,C43*%
X88062500Y-101500000D03*
X89787500Y-101500000D03*
%TD*%
D39*
%TO.C,R3*%
X108587500Y-140850000D03*
X110412500Y-140850000D03*
%TD*%
D48*
%TO.C,C13*%
X55527000Y-106937500D03*
X55527000Y-108662500D03*
%TD*%
D44*
%TO.C,R20*%
X74025000Y-92787500D03*
X74025000Y-94612500D03*
%TD*%
D20*
%TO.C,R56*%
X121102500Y-87082500D03*
X119277500Y-87082500D03*
%TD*%
D39*
%TO.C,R69*%
X116542700Y-119340500D03*
X118367700Y-119340500D03*
%TD*%
D11*
%TO.C,R93*%
X123600000Y-135875000D03*
X125600000Y-135875000D03*
%TD*%
D39*
%TO.C,R37*%
X52975000Y-112975000D03*
X54800000Y-112975000D03*
%TD*%
D73*
%TO.C,R6*%
X41840000Y-115600000D03*
X41840000Y-114580000D03*
%TD*%
D60*
%TO.C,IC3*%
X82400000Y-88300000D03*
X84300000Y-88300000D03*
X83350000Y-86025000D03*
%TD*%
D37*
%TO.C,Q14*%
X102600000Y-79250000D03*
X102600000Y-77350000D03*
X100300000Y-78300000D03*
%TD*%
D38*
%TO.C,C48*%
X88062500Y-104450000D03*
X89787500Y-104450000D03*
%TD*%
D74*
%TO.C,C42*%
X70290000Y-98307500D03*
X70290000Y-99442500D03*
%TD*%
D39*
%TO.C,R4*%
X83225000Y-141100000D03*
X85050000Y-141100000D03*
%TD*%
D42*
%TO.C,RS4*%
X120706400Y-83755700D03*
X120706400Y-80655700D03*
%TD*%
D75*
%TO.C,IC1*%
X44577000Y-84590000D03*
X44577000Y-85860000D03*
X44577000Y-87130000D03*
X44577000Y-88400000D03*
X52377000Y-88400000D03*
X52377000Y-87130000D03*
X52377000Y-85860000D03*
X52377000Y-84590000D03*
D76*
X48477000Y-86495000D03*
%TD*%
D28*
%TO.C,IC12*%
X98430000Y-138800000D03*
X95890000Y-138800000D03*
X93350000Y-138800000D03*
D29*
X95890000Y-149150000D03*
%TD*%
D15*
%TO.C,C21*%
X63944500Y-104050000D03*
X62809500Y-104050000D03*
%TD*%
D33*
%TO.C,USBC-J2*%
X124405000Y-70991400D03*
X123905000Y-70991400D03*
X123405000Y-70991400D03*
X122905000Y-70991400D03*
X122405000Y-70991400D03*
X121905000Y-70991400D03*
X120905000Y-70991400D03*
X120405000Y-70991400D03*
X119905000Y-70991400D03*
X119405000Y-70991400D03*
X118905000Y-70991400D03*
X118405000Y-70991400D03*
D34*
X118305000Y-69691400D03*
D33*
X119155000Y-69691400D03*
X119655000Y-69691400D03*
X120155000Y-69691400D03*
X120655000Y-69691400D03*
X121155000Y-69691400D03*
X121655000Y-69691400D03*
X122155000Y-69691400D03*
X122655000Y-69691400D03*
X123155000Y-69691400D03*
X123655000Y-69691400D03*
D34*
X124505000Y-69691400D03*
%TD*%
D44*
%TO.C,R73*%
X106200000Y-97962500D03*
X106200000Y-99787500D03*
%TD*%
D20*
%TO.C,R35*%
X61862500Y-112975000D03*
X60037500Y-112975000D03*
%TD*%
D57*
%TO.C,U6*%
X108937500Y-144225000D03*
D58*
X109475000Y-144300000D03*
D57*
X110012500Y-144225000D03*
X110012500Y-142525000D03*
D58*
X109475000Y-142450000D03*
D57*
X108937500Y-142525000D03*
%TD*%
D38*
%TO.C,C17*%
X62364500Y-102350000D03*
X64089500Y-102350000D03*
%TD*%
D45*
%TO.C,C95*%
X115900000Y-134575000D03*
X115900000Y-129175000D03*
%TD*%
D41*
%TO.C,R115*%
X25600000Y-139837500D03*
X25600000Y-138012500D03*
%TD*%
D77*
%TO.C,R23*%
X71272500Y-99500000D03*
X72467500Y-99500000D03*
%TD*%
D39*
%TO.C,R60*%
X117814600Y-112380900D03*
X119639600Y-112380900D03*
%TD*%
D78*
%TO.C,IC2*%
X50977000Y-93650000D03*
X50977000Y-94050000D03*
X50977000Y-94450000D03*
X50977000Y-94850000D03*
X50977000Y-95250000D03*
X50977000Y-95650000D03*
X50977000Y-96050000D03*
X50977000Y-96450000D03*
X50977000Y-96850000D03*
X50977000Y-97250000D03*
X50977000Y-97650000D03*
X50977000Y-98050000D03*
X50977000Y-98450000D03*
X50977000Y-98850000D03*
X50977000Y-99250000D03*
X50977000Y-99650000D03*
X50977000Y-100050000D03*
X50977000Y-100450000D03*
X50977000Y-100850000D03*
X50977000Y-101250000D03*
D79*
X52127000Y-102400000D03*
X52527000Y-102400000D03*
X52927000Y-102400000D03*
X53327000Y-102400000D03*
X53727000Y-102400000D03*
X54127000Y-102400000D03*
X54527000Y-102400000D03*
X54927000Y-102400000D03*
X55327000Y-102400000D03*
X55727000Y-102400000D03*
X56127000Y-102400000D03*
X56527000Y-102400000D03*
X56927000Y-102400000D03*
X57327000Y-102400000D03*
X57727000Y-102400000D03*
X58127000Y-102400000D03*
X58527000Y-102400000D03*
X58927000Y-102400000D03*
X59327000Y-102400000D03*
X59727000Y-102400000D03*
D78*
X60877000Y-101250000D03*
X60877000Y-100850000D03*
X60877000Y-100450000D03*
X60877000Y-100050000D03*
X60877000Y-99650000D03*
X60877000Y-99250000D03*
X60877000Y-98850000D03*
X60877000Y-98450000D03*
X60877000Y-98050000D03*
X60877000Y-97650000D03*
X60877000Y-97250000D03*
X60877000Y-96850000D03*
X60877000Y-96450000D03*
X60877000Y-96050000D03*
X60877000Y-95650000D03*
X60877000Y-95250000D03*
X60877000Y-94850000D03*
X60877000Y-94450000D03*
X60877000Y-94050000D03*
X60877000Y-93650000D03*
D79*
X59727000Y-92500000D03*
X59327000Y-92500000D03*
X58927000Y-92500000D03*
X58527000Y-92500000D03*
X58127000Y-92500000D03*
X57727000Y-92500000D03*
X57327000Y-92500000D03*
X56927000Y-92500000D03*
X56527000Y-92500000D03*
X56127000Y-92500000D03*
X55727000Y-92500000D03*
X55327000Y-92500000D03*
X54927000Y-92500000D03*
X54527000Y-92500000D03*
X54127000Y-92500000D03*
X53727000Y-92500000D03*
X53327000Y-92500000D03*
X52927000Y-92500000D03*
X52527000Y-92500000D03*
X52127000Y-92500000D03*
D80*
X55927000Y-97450000D03*
%TD*%
D81*
%TO.C,C12*%
X65067120Y-98190120D03*
X66286880Y-99409880D03*
%TD*%
D12*
%TO.C,C29*%
X88075000Y-99962500D03*
X88075000Y-98237500D03*
%TD*%
D82*
%TO.C,U5*%
X104125000Y-73375000D03*
X105475000Y-73375000D03*
X104125000Y-72025000D03*
X105475000Y-72025000D03*
D83*
X103550000Y-74662500D03*
X104050000Y-74662500D03*
X104550000Y-74662500D03*
X105050000Y-74662500D03*
X105550000Y-74662500D03*
X106050000Y-74662500D03*
D84*
X106762500Y-73950000D03*
X106762500Y-73450000D03*
X106762500Y-72950000D03*
X106762500Y-72450000D03*
X106762500Y-71950000D03*
X106762500Y-71450000D03*
D83*
X106050000Y-70737500D03*
X105550000Y-70737500D03*
X105050000Y-70737500D03*
X104550000Y-70737500D03*
X104050000Y-70737500D03*
X103550000Y-70737500D03*
D84*
X102837500Y-71450000D03*
X102837500Y-71950000D03*
X102837500Y-72450000D03*
X102837500Y-72950000D03*
X102837500Y-73450000D03*
X102837500Y-73950000D03*
%TD*%
D45*
%TO.C,C100*%
X90650000Y-134600000D03*
X90650000Y-129200000D03*
%TD*%
D12*
%TO.C,C75*%
X116337600Y-94498200D03*
X116337600Y-92773200D03*
%TD*%
D20*
%TO.C,R83*%
X112275000Y-74700000D03*
X110450000Y-74700000D03*
%TD*%
D50*
%TO.C,C3*%
X59407000Y-90400000D03*
X58447000Y-90400000D03*
%TD*%
D43*
%TO.C,C47*%
X70175000Y-101867500D03*
X70175000Y-100732500D03*
%TD*%
D41*
%TO.C,R44*%
X56827000Y-75512500D03*
X56827000Y-73687500D03*
%TD*%
D21*
%TO.C,C24*%
X89675000Y-83475000D03*
X87950000Y-83475000D03*
%TD*%
D20*
%TO.C,R62*%
X118824900Y-83780500D03*
X116999900Y-83780500D03*
%TD*%
D85*
%TO.C,L3*%
X79150000Y-82050000D03*
X72200000Y-82050000D03*
%TD*%
D47*
%TO.C,R103*%
X87150000Y-140025000D03*
X87150000Y-143125000D03*
%TD*%
D86*
%TO.C,IC5*%
X69477000Y-76050000D03*
X69477000Y-75550000D03*
X69477000Y-75050000D03*
X69477000Y-74550000D03*
X69477000Y-74050000D03*
X69477000Y-73550000D03*
D87*
X68727000Y-72800000D03*
X68227000Y-72800000D03*
X67727000Y-72800000D03*
X67227000Y-72800000D03*
X66727000Y-72800000D03*
X66227000Y-72800000D03*
D86*
X65477000Y-73550000D03*
X65477000Y-74050000D03*
X65477000Y-74550000D03*
X65477000Y-75050000D03*
X65477000Y-75550000D03*
X65477000Y-76050000D03*
D87*
X66227000Y-76800000D03*
X66727000Y-76800000D03*
X67227000Y-76800000D03*
X67727000Y-76800000D03*
X68227000Y-76800000D03*
X68727000Y-76800000D03*
D88*
X67477000Y-74800000D03*
%TD*%
D44*
%TO.C,R76*%
X103150000Y-89362500D03*
X103150000Y-91187500D03*
%TD*%
D22*
%TO.C,C110*%
X36150000Y-138675000D03*
X30750000Y-138675000D03*
%TD*%
D89*
%TO.C,D16*%
X97300000Y-77500000D03*
X97300000Y-78750000D03*
%TD*%
D35*
%TO.C,IC11*%
X92862500Y-125525000D03*
X92862500Y-127425000D03*
X95137500Y-126475000D03*
%TD*%
D44*
%TO.C,R116*%
X27150000Y-138012500D03*
X27150000Y-139837500D03*
%TD*%
D20*
%TO.C,R55*%
X121112800Y-88555700D03*
X119287800Y-88555700D03*
%TD*%
D90*
%TO.C,IC6*%
X113450000Y-94702500D03*
X113950000Y-94702500D03*
X114450000Y-94702500D03*
X114950000Y-94702500D03*
X114950000Y-92602500D03*
X114450000Y-92602500D03*
X113950000Y-92602500D03*
X113450000Y-92602500D03*
D91*
X114200000Y-93652500D03*
%TD*%
D25*
%TO.C,C31*%
X94075000Y-92325000D03*
X97200000Y-92325000D03*
%TD*%
D20*
%TO.C,R64*%
X118824900Y-80681700D03*
X116999900Y-80681700D03*
%TD*%
D30*
%TO.C,Q16*%
X94100000Y-78795000D03*
X93450000Y-78795000D03*
X92800000Y-78795000D03*
X92150000Y-78795000D03*
D31*
X92150000Y-81875000D03*
X92800000Y-81875000D03*
X93450000Y-81875000D03*
X94100000Y-81875000D03*
D32*
X93125000Y-80750000D03*
%TD*%
D41*
%TO.C,R22*%
X81025000Y-90802500D03*
X81025000Y-88977500D03*
%TD*%
D20*
%TO.C,R38*%
X83187500Y-105300000D03*
X81362500Y-105300000D03*
%TD*%
D92*
%TO.C,L1*%
X59927000Y-88375000D03*
X57927000Y-88375000D03*
%TD*%
D45*
%TO.C,C97*%
X108500000Y-134575000D03*
X108500000Y-129175000D03*
%TD*%
D33*
%TO.C,USBC-J4*%
X81150000Y-148550000D03*
X81650000Y-148550000D03*
X82150000Y-148550000D03*
X82650000Y-148550000D03*
X83150000Y-148550000D03*
X83650000Y-148550000D03*
X84650000Y-148550000D03*
X85150000Y-148550000D03*
X85650000Y-148550000D03*
X86150000Y-148550000D03*
X86650000Y-148550000D03*
X87150000Y-148550000D03*
D34*
X87250000Y-149850000D03*
D33*
X86400000Y-149850000D03*
X85900000Y-149850000D03*
X85400000Y-149850000D03*
X84900000Y-149850000D03*
X84400000Y-149850000D03*
X83900000Y-149850000D03*
X83400000Y-149850000D03*
X82900000Y-149850000D03*
X82400000Y-149850000D03*
X81900000Y-149850000D03*
D34*
X81050000Y-149850000D03*
%TD*%
D73*
%TO.C,R8*%
X55947000Y-89020000D03*
X55947000Y-88000000D03*
%TD*%
D20*
%TO.C,R39*%
X83187500Y-103825000D03*
X81362500Y-103825000D03*
%TD*%
D39*
%TO.C,R21*%
X79207500Y-92290000D03*
X81032500Y-92290000D03*
%TD*%
D38*
%TO.C,C9*%
X57964500Y-106050000D03*
X59689500Y-106050000D03*
%TD*%
D54*
%TO.C,C53*%
X72425000Y-115832000D03*
X69300000Y-115832000D03*
%TD*%
D38*
%TO.C,C49*%
X70637500Y-109350000D03*
X72362500Y-109350000D03*
%TD*%
D56*
%TO.C,D5*%
X55527000Y-77800000D03*
X54277000Y-77800000D03*
%TD*%
D41*
%TO.C,R45*%
X58327000Y-75512500D03*
X58327000Y-73687500D03*
%TD*%
D11*
%TO.C,R101*%
X98350000Y-135900000D03*
X100350000Y-135900000D03*
%TD*%
D39*
%TO.C,R53*%
X119287800Y-103389300D03*
X121112800Y-103389300D03*
%TD*%
D41*
%TO.C,R87*%
X97910000Y-75387500D03*
X97910000Y-73562500D03*
%TD*%
D39*
%TO.C,R66*%
X103212500Y-102750000D03*
X105037500Y-102750000D03*
%TD*%
D21*
%TO.C,C71*%
X66925000Y-78675000D03*
X65200000Y-78675000D03*
%TD*%
D20*
%TO.C,R74*%
X109525000Y-101550000D03*
X107700000Y-101550000D03*
%TD*%
D44*
%TO.C,R77*%
X110325000Y-107187500D03*
X110325000Y-109012500D03*
%TD*%
D12*
%TO.C,C15*%
X53827000Y-84912500D03*
X53827000Y-83187500D03*
%TD*%
D93*
%TO.C,R65*%
X123398800Y-117003700D03*
X123398800Y-123103700D03*
%TD*%
D44*
%TO.C,R29*%
X99325000Y-81087500D03*
X99325000Y-82912500D03*
%TD*%
D21*
%TO.C,C4*%
X52289500Y-82400000D03*
X50564500Y-82400000D03*
%TD*%
D55*
%TO.C,R13*%
X90025000Y-74000000D03*
X93125000Y-74000000D03*
%TD*%
D22*
%TO.C,C111*%
X36150000Y-145774999D03*
X30750000Y-145774999D03*
%TD*%
D52*
%TO.C,D7*%
X105825000Y-104437500D03*
X105825000Y-107412500D03*
%TD*%
D13*
%TO.C,C112*%
X28500000Y-150074999D03*
X28500000Y-147999999D03*
%TD*%
D39*
%TO.C,R84*%
X101575000Y-68300000D03*
X103400000Y-68300000D03*
%TD*%
D61*
%TO.C,C108*%
X55500000Y-153225000D03*
X55500000Y-155300000D03*
%TD*%
D12*
%TO.C,C81*%
X117810800Y-87030600D03*
X117810800Y-85305600D03*
%TD*%
D94*
%TO.C,R14*%
X82695235Y-83904765D03*
X81404765Y-85195235D03*
%TD*%
D20*
%TO.C,R50*%
X59539500Y-78800000D03*
X57714500Y-78800000D03*
%TD*%
D16*
%TO.C,Q2*%
X76725000Y-105625000D03*
X76075000Y-105625000D03*
X75425000Y-105625000D03*
X74775000Y-105625000D03*
D17*
X74775000Y-108707000D03*
X75425000Y-108707000D03*
X76075000Y-108707000D03*
X76725000Y-108707000D03*
D18*
X75750000Y-107502000D03*
%TD*%
D56*
%TO.C,D18*%
X88375000Y-146000000D03*
X89625000Y-146000000D03*
%TD*%
D11*
%TO.C,R92*%
X120500000Y-133950000D03*
X122500000Y-133950000D03*
%TD*%
D95*
%TO.C,SW1*%
X40050000Y-120600000D03*
X25750000Y-120600000D03*
X40050000Y-115600000D03*
X25750000Y-115600000D03*
%TD*%
D96*
%TO.C,Q5*%
X82725000Y-111225000D03*
X82725000Y-110575000D03*
X82725000Y-109925000D03*
X82725000Y-109275000D03*
D97*
X79643000Y-109275000D03*
X79643000Y-109925000D03*
X79643000Y-110575000D03*
X79643000Y-111225000D03*
D98*
X80847000Y-110250000D03*
%TD*%
D99*
%TO.C,D4*%
X79427000Y-70086000D03*
D100*
X71577000Y-67800000D03*
D99*
X79427000Y-65514000D03*
%TD*%
D41*
%TO.C,R63*%
X104725000Y-99800000D03*
X104725000Y-97975000D03*
%TD*%
D39*
%TO.C,R33*%
X56287500Y-112975000D03*
X58112500Y-112975000D03*
%TD*%
D44*
%TO.C,R110*%
X54150000Y-137987500D03*
X54150000Y-139812500D03*
%TD*%
D54*
%TO.C,C28*%
X92237500Y-92325000D03*
X89112500Y-92325000D03*
%TD*%
D11*
%TO.C,R107*%
X70200000Y-136075000D03*
X72200000Y-136075000D03*
%TD*%
D13*
%TO.C,C104*%
X89375000Y-143112500D03*
X89375000Y-141037500D03*
%TD*%
D65*
%TO.C,Q10*%
X117849400Y-116799300D03*
X117849400Y-116139300D03*
X117849400Y-115479300D03*
X117849400Y-114819300D03*
D66*
X114864400Y-114819300D03*
X114864400Y-115479300D03*
X114864400Y-116139300D03*
D67*
X115981400Y-115809300D03*
D66*
X114864400Y-116799300D03*
%TD*%
D33*
%TO.C,USBC-J1*%
X64377000Y-70991400D03*
X63877000Y-70991400D03*
X63377000Y-70991400D03*
X62877000Y-70991400D03*
X62377000Y-70991400D03*
X61877000Y-70991400D03*
X60877000Y-70991400D03*
X60377000Y-70991400D03*
X59877000Y-70991400D03*
X59377000Y-70991400D03*
X58877000Y-70991400D03*
X58377000Y-70991400D03*
D34*
X58277000Y-69691400D03*
D33*
X59127000Y-69691400D03*
X59627000Y-69691400D03*
X60127000Y-69691400D03*
X60627000Y-69691400D03*
X61127000Y-69691400D03*
X61627000Y-69691400D03*
X62127000Y-69691400D03*
X62627000Y-69691400D03*
X63127000Y-69691400D03*
X63627000Y-69691400D03*
D34*
X64477000Y-69691400D03*
%TD*%
D71*
%TO.C,C18*%
X50292280Y-104901720D03*
X49072520Y-106121480D03*
%TD*%
D39*
%TO.C,R72*%
X107712500Y-100075000D03*
X109537500Y-100075000D03*
%TD*%
D12*
%TO.C,C96*%
X102250000Y-154175000D03*
X102250000Y-152450000D03*
%TD*%
D54*
%TO.C,C36*%
X92237500Y-90025000D03*
X89112500Y-90025000D03*
%TD*%
D25*
%TO.C,C32*%
X94075000Y-94625000D03*
X97200000Y-94625000D03*
%TD*%
D41*
%TO.C,R109*%
X52600000Y-139812500D03*
X52600000Y-137987500D03*
%TD*%
D12*
%TO.C,C83*%
X115524800Y-83087500D03*
X115524800Y-81362500D03*
%TD*%
D13*
%TO.C,C99*%
X114625000Y-143087500D03*
X114625000Y-141012500D03*
%TD*%
D73*
%TO.C,R9*%
X55012000Y-89020000D03*
X55012000Y-88000000D03*
%TD*%
D44*
%TO.C,R75*%
X101650000Y-89362500D03*
X101650000Y-91187500D03*
%TD*%
D101*
%TO.C,C22*%
X86550000Y-74862500D03*
X86550000Y-71737500D03*
%TD*%
D39*
%TO.C,R78*%
X99812500Y-87875000D03*
X101637500Y-87875000D03*
%TD*%
D54*
%TO.C,C27*%
X92237500Y-94625000D03*
X89112500Y-94625000D03*
%TD*%
D20*
%TO.C,R81*%
X122313900Y-75950000D03*
X120488900Y-75950000D03*
%TD*%
D13*
%TO.C,C107*%
X55500000Y-150049999D03*
X55500000Y-147974999D03*
%TD*%
D21*
%TO.C,C41*%
X72337500Y-95550000D03*
X70612500Y-95550000D03*
%TD*%
D47*
%TO.C,R108*%
X53350000Y-150049999D03*
X53350000Y-153149999D03*
%TD*%
D102*
%TO.C,BQ25713_1*%
X83210000Y-94510000D03*
X82810000Y-94510000D03*
X82410000Y-94510000D03*
X82010000Y-94510000D03*
X81610000Y-94510000D03*
X81210000Y-94510000D03*
X80810000Y-94510000D03*
X80410000Y-94510000D03*
D103*
X79820000Y-95100000D03*
X79820000Y-95500000D03*
X79820000Y-95900000D03*
X79820000Y-96300000D03*
X79820000Y-96700000D03*
X79820000Y-97100000D03*
X79820000Y-97500000D03*
X79820000Y-97900000D03*
D102*
X80410000Y-98490000D03*
X80810000Y-98490000D03*
X81210000Y-98490000D03*
X81610000Y-98490000D03*
X82010000Y-98490000D03*
X82410000Y-98490000D03*
X82810000Y-98490000D03*
X83210000Y-98490000D03*
D103*
X83800000Y-97900000D03*
X83800000Y-97500000D03*
X83800000Y-97100000D03*
X83800000Y-96700000D03*
X83800000Y-96300000D03*
X83800000Y-95900000D03*
X83800000Y-95500000D03*
X83800000Y-95100000D03*
%TD*%
D39*
%TO.C,R16*%
X87900000Y-82000000D03*
X89725000Y-82000000D03*
%TD*%
D104*
%TO.C,C5*%
X61877000Y-90420000D03*
X61877000Y-91380000D03*
%TD*%
D26*
%TO.C,U3*%
X61912000Y-73150000D03*
D27*
X61374500Y-73075000D03*
D26*
X60837000Y-73150000D03*
X60837000Y-74850000D03*
D27*
X61374500Y-74925000D03*
D26*
X61912000Y-74850000D03*
%TD*%
D21*
%TO.C,C11*%
X48919300Y-91287600D03*
X47194300Y-91287600D03*
%TD*%
D12*
%TO.C,C78*%
X112984800Y-98816200D03*
X112984800Y-97091200D03*
%TD*%
D22*
%TO.C,C68*%
X67577000Y-83000000D03*
X62177000Y-83000000D03*
%TD*%
D41*
%TO.C,R42*%
X53827000Y-75512500D03*
X53827000Y-73687500D03*
%TD*%
D15*
%TO.C,C7*%
X44767500Y-97400000D03*
X43632500Y-97400000D03*
%TD*%
D96*
%TO.C,Q6*%
X79625000Y-114425000D03*
X79625000Y-115075000D03*
X79625000Y-115725000D03*
X79625000Y-116375000D03*
D97*
X82707000Y-116375000D03*
X82707000Y-115725000D03*
X82707000Y-115075000D03*
X82707000Y-114425000D03*
D98*
X81503000Y-115400000D03*
%TD*%
D16*
%TO.C,Q3*%
X92250000Y-105082000D03*
X92900000Y-105082000D03*
X93550000Y-105082000D03*
X94200000Y-105082000D03*
D17*
X94200000Y-102000000D03*
X93550000Y-102000000D03*
X92900000Y-102000000D03*
X92250000Y-102000000D03*
D18*
X93225000Y-103204000D03*
%TD*%
D47*
%TO.C,R95*%
X112400000Y-140000000D03*
X112400000Y-143100000D03*
%TD*%
D105*
%TO.C,U1*%
X88136600Y-68835000D03*
X88136600Y-65785000D03*
X84786600Y-68835000D03*
X84786600Y-65785000D03*
D106*
X92761600Y-69590000D03*
X92761600Y-65030000D03*
%TD*%
D19*
%TO.C,D13*%
X108175000Y-111825000D03*
X108175000Y-108850000D03*
%TD*%
D48*
%TO.C,C44*%
X96650000Y-109037500D03*
X96650000Y-110762500D03*
%TD*%
D20*
%TO.C,R59*%
X121112800Y-109231300D03*
X119287800Y-109231300D03*
%TD*%
D39*
%TO.C,R18*%
X89537500Y-97550000D03*
X91362500Y-97550000D03*
%TD*%
%TO.C,R52*%
X117812700Y-110704500D03*
X119637700Y-110704500D03*
%TD*%
D20*
%TO.C,R79*%
X104962500Y-87875000D03*
X103137500Y-87875000D03*
%TD*%
D41*
%TO.C,R117*%
X107220000Y-146652500D03*
X107220000Y-144827500D03*
%TD*%
%TO.C,R118*%
X81970000Y-146677500D03*
X81970000Y-144852500D03*
%TD*%
M02*
