%TF.GenerationSoftware,KiCad,Pcbnew,9.0.6*%
%TF.CreationDate,2026-02-01T22:29:02+01:00*%
%TF.ProjectId,BMS,424d532e-6b69-4636-9164-5f7063625858,rev?*%
%TF.SameCoordinates,Original*%
%TF.FileFunction,Soldermask,Bot*%
%TF.FilePolarity,Negative*%
%FSLAX46Y46*%
G04 Gerber Fmt 4.6, Leading zero omitted, Abs format (unit mm)*
G04 Created by KiCad (PCBNEW 9.0.6) date 2026-02-01 22:29:02*
%MOMM*%
%LPD*%
G01*
G04 APERTURE LIST*
G04 Aperture macros list*
%AMRoundRect*
0 Rectangle with rounded corners*
0 $1 Rounding radius*
0 $2 $3 $4 $5 $6 $7 $8 $9 X,Y pos of 4 corners*
0 Add a 4 corners polygon primitive as box body*
4,1,4,$2,$3,$4,$5,$6,$7,$8,$9,$2,$3,0*
0 Add four circle primitives for the rounded corners*
1,1,$1+$1,$2,$3*
1,1,$1+$1,$4,$5*
1,1,$1+$1,$6,$7*
1,1,$1+$1,$8,$9*
0 Add four rect primitives between the rounded corners*
20,1,$1+$1,$2,$3,$4,$5,0*
20,1,$1+$1,$4,$5,$6,$7,0*
20,1,$1+$1,$6,$7,$8,$9,0*
20,1,$1+$1,$8,$9,$2,$3,0*%
G04 Aperture macros list end*
%ADD10RoundRect,0.250000X-0.475000X0.337500X-0.475000X-0.337500X0.475000X-0.337500X0.475000X0.337500X0*%
%ADD11RoundRect,0.237500X-0.237500X0.250000X-0.237500X-0.250000X0.237500X-0.250000X0.237500X0.250000X0*%
%ADD12RoundRect,0.237500X-0.250000X-0.237500X0.250000X-0.237500X0.250000X0.237500X-0.250000X0.237500X0*%
%ADD13RoundRect,0.150000X0.150000X-0.512500X0.150000X0.512500X-0.150000X0.512500X-0.150000X-0.512500X0*%
%ADD14RoundRect,0.237500X0.237500X-0.300000X0.237500X0.300000X-0.237500X0.300000X-0.237500X-0.300000X0*%
%ADD15RoundRect,0.250001X1.044999X-0.872499X1.044999X0.872499X-1.044999X0.872499X-1.044999X-0.872499X0*%
%ADD16R,0.550000X0.800000*%
%ADD17R,5.300000X2.000000*%
%ADD18RoundRect,0.237500X0.380070X-0.044194X-0.044194X0.380070X-0.380070X0.044194X0.044194X-0.380070X0*%
%ADD19RoundRect,0.250000X-0.412500X-0.650000X0.412500X-0.650000X0.412500X0.650000X-0.412500X0.650000X0*%
%ADD20R,0.420000X0.700000*%
%ADD21R,0.420000X0.540000*%
%ADD22R,2.370000X1.710000*%
%ADD23RoundRect,0.250000X-0.625000X0.400000X-0.625000X-0.400000X0.625000X-0.400000X0.625000X0.400000X0*%
%ADD24R,1.400000X0.600000*%
%ADD25RoundRect,0.250000X0.625000X-0.400000X0.625000X0.400000X-0.625000X0.400000X-0.625000X-0.400000X0*%
%ADD26R,0.700000X0.420000*%
%ADD27R,0.540000X0.420000*%
%ADD28R,1.710000X2.370000*%
%ADD29RoundRect,0.225000X-0.375000X0.225000X-0.375000X-0.225000X0.375000X-0.225000X0.375000X0.225000X0*%
%ADD30R,0.600000X1.400000*%
%ADD31RoundRect,0.250000X0.412500X0.650000X-0.412500X0.650000X-0.412500X-0.650000X0.412500X-0.650000X0*%
%ADD32RoundRect,0.237500X0.237500X-0.250000X0.237500X0.250000X-0.237500X0.250000X-0.237500X-0.250000X0*%
%ADD33RoundRect,0.250001X-0.462499X-0.624999X0.462499X-0.624999X0.462499X0.624999X-0.462499X0.624999X0*%
%ADD34RoundRect,0.237500X-0.237500X0.300000X-0.237500X-0.300000X0.237500X-0.300000X0.237500X0.300000X0*%
%ADD35RoundRect,0.250000X0.337500X0.475000X-0.337500X0.475000X-0.337500X-0.475000X0.337500X-0.475000X0*%
%ADD36RoundRect,0.237500X0.044194X0.380070X-0.380070X-0.044194X-0.044194X-0.380070X0.380070X0.044194X0*%
%ADD37RoundRect,0.250000X-0.097227X0.574524X-0.574524X0.097227X0.097227X-0.574524X0.574524X-0.097227X0*%
%ADD38RoundRect,0.237500X-0.300000X-0.237500X0.300000X-0.237500X0.300000X0.237500X-0.300000X0.237500X0*%
%ADD39RoundRect,0.250000X-0.159099X0.724784X-0.724784X0.159099X0.159099X-0.724784X0.724784X-0.159099X0*%
%ADD40RoundRect,0.160000X-0.197500X-0.160000X0.197500X-0.160000X0.197500X0.160000X-0.197500X0.160000X0*%
%ADD41RoundRect,0.250000X0.650000X-0.412500X0.650000X0.412500X-0.650000X0.412500X-0.650000X-0.412500X0*%
%ADD42RoundRect,0.237500X0.250000X0.237500X-0.250000X0.237500X-0.250000X-0.237500X0.250000X-0.237500X0*%
%ADD43R,1.000000X0.500000*%
%ADD44RoundRect,0.250000X-0.750000X0.600000X-0.750000X-0.600000X0.750000X-0.600000X0.750000X0.600000X0*%
%ADD45O,2.000000X1.700000*%
%ADD46O,1.188400X2.252400*%
%ADD47O,1.252400X2.752400*%
%ADD48C,1.150000*%
%ADD49R,2.000000X2.000000*%
%ADD50R,1.700000X1.700000*%
%ADD51C,1.700000*%
%ADD52RoundRect,0.250000X0.600000X0.750000X-0.600000X0.750000X-0.600000X-0.750000X0.600000X-0.750000X0*%
%ADD53O,1.700000X2.000000*%
%ADD54C,2.700000*%
G04 APERTURE END LIST*
D10*
%TO.C,C89*%
X117375000Y-72612500D03*
X117375000Y-74687500D03*
%TD*%
D11*
%TO.C,R91*%
X102250000Y-152400000D03*
X102250000Y-154225000D03*
%TD*%
D12*
%TO.C,R85*%
X108087500Y-70600000D03*
X109912500Y-70600000D03*
%TD*%
D13*
%TO.C,IC13*%
X62300000Y-141087500D03*
X60400000Y-141087500D03*
X61350000Y-138812500D03*
%TD*%
D14*
%TO.C,C91*%
X97490000Y-72662500D03*
X97490000Y-70937500D03*
%TD*%
D11*
%TO.C,R99*%
X77000000Y-152425000D03*
X77000000Y-154250000D03*
%TD*%
D15*
%TO.C,C38*%
X93200000Y-100490000D03*
X93200000Y-94075000D03*
%TD*%
D16*
%TO.C,D14*%
X121475000Y-75700000D03*
X122725000Y-75700000D03*
%TD*%
D17*
%TO.C,F5*%
X83275000Y-86625000D03*
X83275000Y-80025000D03*
%TD*%
D18*
%TO.C,C87*%
X110909880Y-118484880D03*
X109690120Y-117265120D03*
%TD*%
D19*
%TO.C,C55*%
X74312500Y-113532000D03*
X77437500Y-113532000D03*
%TD*%
D20*
%TO.C,Q21*%
X105250000Y-136675000D03*
X104600000Y-136675000D03*
X103950000Y-136675000D03*
X103300000Y-136675000D03*
D21*
X103300000Y-133595000D03*
X103950000Y-133595000D03*
X104600000Y-133595000D03*
X105250000Y-133595000D03*
D22*
X104275000Y-134720000D03*
%TD*%
D19*
%TO.C,C10*%
X87846300Y-66389600D03*
X90971300Y-66389600D03*
%TD*%
D23*
%TO.C,R10*%
X93015600Y-66388400D03*
X93015600Y-69488400D03*
%TD*%
D24*
%TO.C,Q7*%
X68277000Y-78250000D03*
X68277000Y-80150000D03*
X65977000Y-79200000D03*
%TD*%
D25*
%TO.C,TH_NTC5*%
X113391200Y-117231700D03*
X113391200Y-114131700D03*
%TD*%
D12*
%TO.C,R31*%
X76862500Y-98300000D03*
X78687500Y-98300000D03*
%TD*%
D26*
%TO.C,Q20*%
X32255000Y-134100000D03*
X32255000Y-134750000D03*
X32255000Y-135400000D03*
X32255000Y-136050000D03*
D27*
X29175000Y-136050000D03*
X29175000Y-135400000D03*
X29175000Y-134750000D03*
X29175000Y-134100000D03*
D28*
X30300000Y-135075000D03*
%TD*%
D20*
%TO.C,Q22*%
X80000000Y-136700000D03*
X79350000Y-136700000D03*
X78700000Y-136700000D03*
X78050000Y-136700000D03*
D21*
X78050000Y-133620000D03*
X78700000Y-133620000D03*
X79350000Y-133620000D03*
X80000000Y-133620000D03*
D22*
X79025000Y-134745000D03*
%TD*%
D29*
%TO.C,D2*%
X93015600Y-71140400D03*
X93015600Y-74440400D03*
%TD*%
D30*
%TO.C,Q9*%
X62327000Y-81900000D03*
X60427000Y-81900000D03*
X61377000Y-79600000D03*
%TD*%
D31*
%TO.C,C54*%
X72500000Y-111182000D03*
X69375000Y-111182000D03*
%TD*%
D17*
%TO.C,F3*%
X105250000Y-123150000D03*
X105250000Y-129750000D03*
%TD*%
D18*
%TO.C,C8*%
X65934880Y-97259880D03*
X64715120Y-96040120D03*
%TD*%
D29*
%TO.C,D1*%
X90678800Y-69514800D03*
X90678800Y-72814800D03*
%TD*%
D11*
%TO.C,R111*%
X27100000Y-135825000D03*
X27100000Y-137650000D03*
%TD*%
D31*
%TO.C,C115*%
X75612500Y-83125000D03*
X72487500Y-83125000D03*
%TD*%
%TO.C,C63*%
X82262500Y-74200000D03*
X79137500Y-74200000D03*
%TD*%
D11*
%TO.C,R105*%
X54100000Y-135800000D03*
X54100000Y-137625000D03*
%TD*%
D19*
%TO.C,C67*%
X72487500Y-80750000D03*
X75612500Y-80750000D03*
%TD*%
D13*
%TO.C,IC15*%
X35300000Y-141112500D03*
X33400000Y-141112500D03*
X34350000Y-138837500D03*
%TD*%
D32*
%TO.C,R46*%
X64050000Y-81737500D03*
X64050000Y-79912500D03*
%TD*%
D33*
%TO.C,D15*%
X105100000Y-68700000D03*
X108075000Y-68700000D03*
%TD*%
D26*
%TO.C,Q19*%
X59255000Y-134075000D03*
X59255000Y-134725000D03*
X59255000Y-135375000D03*
X59255000Y-136025000D03*
D27*
X56175000Y-136025000D03*
X56175000Y-135375000D03*
X56175000Y-134725000D03*
X56175000Y-134075000D03*
D28*
X57300000Y-135050000D03*
%TD*%
D31*
%TO.C,C62*%
X82262500Y-76750000D03*
X79137500Y-76750000D03*
%TD*%
D34*
%TO.C,C85*%
X108666800Y-92723500D03*
X108666800Y-94448500D03*
%TD*%
D32*
%TO.C,R2*%
X110100000Y-69112500D03*
X110100000Y-67287500D03*
%TD*%
D35*
%TO.C,C82*%
X112762500Y-88925000D03*
X110687500Y-88925000D03*
%TD*%
D36*
%TO.C,C88*%
X108250000Y-110300000D03*
X107030240Y-111519760D03*
%TD*%
D11*
%TO.C,R26*%
X75025000Y-98287500D03*
X75025000Y-100112500D03*
%TD*%
D24*
%TO.C,Q8*%
X66000000Y-83950000D03*
X66000000Y-82050000D03*
X68300000Y-83000000D03*
%TD*%
D37*
%TO.C,C90*%
X97463623Y-75096377D03*
X95996377Y-76563623D03*
%TD*%
D31*
%TO.C,C72*%
X61189500Y-77500000D03*
X58064500Y-77500000D03*
%TD*%
D12*
%TO.C,R47*%
X66514500Y-76700000D03*
X68339500Y-76700000D03*
%TD*%
D31*
%TO.C,C57*%
X72462500Y-113507000D03*
X69337500Y-113507000D03*
%TD*%
D38*
%TO.C,C69*%
X72364500Y-85100000D03*
X74089500Y-85100000D03*
%TD*%
D39*
%TO.C,R80*%
X113506016Y-73153984D03*
X111313984Y-75346016D03*
%TD*%
D12*
%TO.C,R89*%
X117737500Y-130250000D03*
X119562500Y-130250000D03*
%TD*%
D11*
%TO.C,R98*%
X77000000Y-148362500D03*
X77000000Y-150187500D03*
%TD*%
%TO.C,R67*%
X108825000Y-98512500D03*
X108825000Y-100337500D03*
%TD*%
D19*
%TO.C,C52*%
X74337500Y-111207000D03*
X77462500Y-111207000D03*
%TD*%
D29*
%TO.C,D3*%
X95352400Y-69464000D03*
X95352400Y-72764000D03*
%TD*%
D31*
%TO.C,C56*%
X72512500Y-108807000D03*
X69387500Y-108807000D03*
%TD*%
D12*
%TO.C,R82*%
X98987500Y-72990000D03*
X100812500Y-72990000D03*
%TD*%
%TO.C,R32*%
X76862500Y-100125000D03*
X78687500Y-100125000D03*
%TD*%
D40*
%TO.C,R61*%
X112752500Y-90850000D03*
X113947500Y-90850000D03*
%TD*%
D11*
%TO.C,R90*%
X102250000Y-148337500D03*
X102250000Y-150162500D03*
%TD*%
D12*
%TO.C,R97*%
X92487500Y-130275000D03*
X94312500Y-130275000D03*
%TD*%
D11*
%TO.C,R71*%
X105275000Y-98437500D03*
X105275000Y-100262500D03*
%TD*%
D17*
%TO.C,F1*%
X55600000Y-129750000D03*
X55600000Y-123150000D03*
%TD*%
D41*
%TO.C,C59*%
X79500000Y-108687500D03*
X79500000Y-105562500D03*
%TD*%
D17*
%TO.C,F2*%
X28650000Y-129800000D03*
X28650000Y-123200000D03*
%TD*%
D42*
%TO.C,R40*%
X72689500Y-78350000D03*
X70864500Y-78350000D03*
%TD*%
D11*
%TO.C,R1*%
X111600000Y-67287500D03*
X111600000Y-69112500D03*
%TD*%
D17*
%TO.C,F4*%
X80050000Y-123150000D03*
X80050000Y-129750000D03*
%TD*%
D42*
%TO.C,R48*%
X68489500Y-72700000D03*
X66664500Y-72700000D03*
%TD*%
D43*
%TO.C,D6*%
X119425000Y-109825000D03*
X121825000Y-109825000D03*
%TD*%
D44*
%TO.C,J7*%
X132125000Y-84000000D03*
D45*
X132125000Y-86500000D03*
%TD*%
D46*
%TO.C,USBC-J3*%
X105080000Y-148935000D03*
X113720000Y-148935000D03*
D47*
X105080000Y-154295000D03*
X113720000Y-154295000D03*
%TD*%
D44*
%TO.C,J6*%
X132125000Y-92400000D03*
D45*
X132125000Y-94900000D03*
%TD*%
D48*
%TO.C,R112*%
X39810001Y-131675000D03*
X42350001Y-131675000D03*
X44890001Y-131675000D03*
%TD*%
D49*
%TO.C,TP5*%
X115575000Y-86025000D03*
%TD*%
D50*
%TO.C,J13*%
X78397000Y-89662000D03*
D51*
X75857000Y-89662000D03*
X73317000Y-89662000D03*
X70777000Y-89662000D03*
X68237000Y-89662000D03*
X65697000Y-89662000D03*
%TD*%
D50*
%TO.C,JP13*%
X26450000Y-142700000D03*
D51*
X26450000Y-145240000D03*
%TD*%
D50*
%TO.C,JP7*%
X103850000Y-143175000D03*
D51*
X103850000Y-145715000D03*
%TD*%
D49*
%TO.C,TP3*%
X105300000Y-117300000D03*
%TD*%
D50*
%TO.C,J4*%
X44500000Y-76780000D03*
D51*
X44500000Y-74240000D03*
X44500000Y-71700000D03*
X44500000Y-69160000D03*
%TD*%
D49*
%TO.C,TP15*%
X44850000Y-126675000D03*
%TD*%
D50*
%TO.C,JP4*%
X60850000Y-118040000D03*
D51*
X60850000Y-115500000D03*
%TD*%
D49*
%TO.C,TP16*%
X35050001Y-130275000D03*
%TD*%
D50*
%TO.C,JP2*%
X110600000Y-65400000D03*
D51*
X108060000Y-65400000D03*
%TD*%
D50*
%TO.C,JP11*%
X53450000Y-142675000D03*
D51*
X53450000Y-145215000D03*
%TD*%
D49*
%TO.C,TP6*%
X116450000Y-78450000D03*
%TD*%
%TO.C,GND2*%
X22650000Y-124130000D03*
%TD*%
D50*
%TO.C,JP9*%
X78600000Y-143200000D03*
D51*
X78600000Y-145740000D03*
%TD*%
D50*
%TO.C,JP8*%
X99475000Y-130075000D03*
D51*
X96935000Y-130075000D03*
%TD*%
D49*
%TO.C,GND1*%
X110810000Y-122630000D03*
%TD*%
D50*
%TO.C,J14*%
X107450000Y-83850000D03*
%TD*%
D49*
%TO.C,TP1*%
X113400000Y-78450000D03*
%TD*%
%TO.C,TP9*%
X103650000Y-139850000D03*
%TD*%
D50*
%TO.C,J9*%
X29000000Y-107820000D03*
D51*
X26460000Y-107820000D03*
X29000000Y-105280000D03*
X26460000Y-105280000D03*
X29000000Y-102740000D03*
X26460000Y-102740000D03*
X29000000Y-100200000D03*
X26460000Y-100200000D03*
X29000000Y-97660000D03*
X26460000Y-97660000D03*
X29000000Y-95120000D03*
X26460000Y-95120000D03*
X29000000Y-92580000D03*
X26460000Y-92580000D03*
X29000000Y-90040000D03*
X26460000Y-90040000D03*
X29000000Y-87500000D03*
X26460000Y-87500000D03*
X29000000Y-84960000D03*
X26460000Y-84960000D03*
X29000000Y-82420000D03*
X26460000Y-82420000D03*
X29000000Y-79880000D03*
X26460000Y-79880000D03*
%TD*%
D49*
%TO.C,TP7*%
X126400000Y-74000000D03*
%TD*%
D52*
%TO.C,J2*%
X62200000Y-153200000D03*
D53*
X59700000Y-153200000D03*
%TD*%
D49*
%TO.C,TP13*%
X62050001Y-130250000D03*
%TD*%
D48*
%TO.C,R106*%
X66810001Y-131650000D03*
X69350001Y-131650000D03*
X71890001Y-131650000D03*
%TD*%
D49*
%TO.C,TP10*%
X78400000Y-139875000D03*
%TD*%
D54*
%TO.C,H4*%
X132080000Y-67310000D03*
%TD*%
D50*
%TO.C,JP3*%
X57312500Y-118040000D03*
D51*
X57312500Y-115500000D03*
%TD*%
D50*
%TO.C,J15*%
X104500000Y-65400000D03*
%TD*%
D46*
%TO.C,USBC-J2*%
X125725000Y-70581400D03*
X117085000Y-70581400D03*
D47*
X125725000Y-65221400D03*
X117085000Y-65221400D03*
%TD*%
D50*
%TO.C,JP12*%
X23100000Y-135500000D03*
D51*
X23100000Y-132960000D03*
%TD*%
D54*
%TO.C,H5*%
X132080000Y-109800000D03*
%TD*%
%TO.C,H3*%
X132080000Y-152400000D03*
%TD*%
D11*
%TO.C,R94*%
X111600000Y-148887500D03*
X111600000Y-150712500D03*
%TD*%
D44*
%TO.C,J3*%
X132125000Y-100800000D03*
D45*
X132125000Y-103300000D03*
%TD*%
D50*
%TO.C,J16*%
X100950000Y-65400000D03*
%TD*%
D49*
%TO.C,TP2*%
X73250000Y-123050000D03*
%TD*%
%TO.C,GND3*%
X53220000Y-109000000D03*
%TD*%
D50*
%TO.C,JP6*%
X124725000Y-130050000D03*
D51*
X122185000Y-130050000D03*
%TD*%
D46*
%TO.C,USBC-J4*%
X79830000Y-148960000D03*
X88470000Y-148960000D03*
D47*
X79830000Y-154320000D03*
X88470000Y-154320000D03*
%TD*%
D44*
%TO.C,NTC4*%
X132125000Y-141850000D03*
D45*
X132125000Y-144350000D03*
%TD*%
D44*
%TO.C,NTC3*%
X132125000Y-133400000D03*
D45*
X132125000Y-135900000D03*
%TD*%
D54*
%TO.C,H2*%
X21590000Y-152400000D03*
%TD*%
D52*
%TO.C,J1*%
X35250000Y-153250000D03*
D53*
X32750000Y-153250000D03*
%TD*%
D50*
%TO.C,JP5*%
X53775000Y-115485000D03*
D51*
X53775000Y-118025000D03*
%TD*%
D50*
%TO.C,JP1*%
X114200000Y-65460000D03*
D51*
X114200000Y-68000000D03*
%TD*%
D50*
%TO.C,J11*%
X50200000Y-76780000D03*
D51*
X50200000Y-74240000D03*
X50200000Y-71700000D03*
X50200000Y-69160000D03*
%TD*%
D50*
%TO.C,J10*%
X35096000Y-79753000D03*
D51*
X35096000Y-82293000D03*
X35096000Y-84833000D03*
X35096000Y-87373000D03*
X35096000Y-89913000D03*
X35096000Y-92453000D03*
X35096000Y-94993000D03*
X35096000Y-97533000D03*
X35096000Y-100073000D03*
X35096000Y-102613000D03*
X35096000Y-105153000D03*
X35096000Y-107693000D03*
%TD*%
D50*
%TO.C,J12*%
X44200000Y-121280000D03*
D51*
X44200000Y-118740000D03*
X44200000Y-116200000D03*
%TD*%
D50*
%TO.C,J17*%
X98925000Y-117200000D03*
%TD*%
D44*
%TO.C,NTC2*%
X132125000Y-125000000D03*
D45*
X132125000Y-127500000D03*
%TD*%
D54*
%TO.C,H1*%
X21590000Y-67200000D03*
%TD*%
D44*
%TO.C,J8*%
X132125000Y-75550000D03*
D45*
X132125000Y-78050000D03*
%TD*%
D50*
%TO.C,JP10*%
X50100000Y-132725000D03*
D51*
X50100000Y-130185000D03*
%TD*%
D46*
%TO.C,USBC-J1*%
X65697000Y-70581400D03*
X57057000Y-70581400D03*
D47*
X65697000Y-65221400D03*
X57057000Y-65221400D03*
%TD*%
D49*
%TO.C,TP11*%
X62000001Y-133300000D03*
%TD*%
%TO.C,TP4*%
X110750000Y-86125000D03*
%TD*%
%TO.C,TP8*%
X110750000Y-83100000D03*
%TD*%
D44*
%TO.C,NTC1*%
X132125000Y-116600000D03*
D45*
X132125000Y-119100000D03*
%TD*%
D54*
%TO.C,H6*%
X21590000Y-109800000D03*
%TD*%
D50*
%TO.C,J5*%
X97400000Y-65400000D03*
%TD*%
D49*
%TO.C,TP12*%
X71850000Y-126650000D03*
%TD*%
%TO.C,TP14*%
X35000001Y-133325000D03*
%TD*%
D11*
%TO.C,R96*%
X86350000Y-148912500D03*
X86350000Y-150737500D03*
%TD*%
M02*
