%TF.GenerationSoftware,KiCad,Pcbnew,9.0.6*%
%TF.CreationDate,2026-01-08T09:33:55+01:00*%
%TF.ProjectId,Adapat_24pin_22pin,41646170-6174-45f3-9234-70696e5f3232,rev?*%
%TF.SameCoordinates,Original*%
%TF.FileFunction,Soldermask,Top*%
%TF.FilePolarity,Negative*%
%FSLAX46Y46*%
G04 Gerber Fmt 4.6, Leading zero omitted, Abs format (unit mm)*
G04 Created by KiCad (PCBNEW 9.0.6) date 2026-01-08 09:33:55*
%MOMM*%
%LPD*%
G01*
G04 APERTURE LIST*
G04 Aperture macros list*
%AMRoundRect*
0 Rectangle with rounded corners*
0 $1 Rounding radius*
0 $2 $3 $4 $5 $6 $7 $8 $9 X,Y pos of 4 corners*
0 Add a 4 corners polygon primitive as box body*
4,1,4,$2,$3,$4,$5,$6,$7,$8,$9,$2,$3,0*
0 Add four circle primitives for the rounded corners*
1,1,$1+$1,$2,$3*
1,1,$1+$1,$4,$5*
1,1,$1+$1,$6,$7*
1,1,$1+$1,$8,$9*
0 Add four rect primitives between the rounded corners*
20,1,$1+$1,$2,$3,$4,$5,0*
20,1,$1+$1,$4,$5,$6,$7,0*
20,1,$1+$1,$6,$7,$8,$9,0*
20,1,$1+$1,$8,$9,$2,$3,0*%
G04 Aperture macros list end*
%ADD10C,2.200000*%
%ADD11R,0.300000X1.300000*%
%ADD12R,1.800000X2.200000*%
%ADD13RoundRect,0.237500X-0.237500X0.300000X-0.237500X-0.300000X0.237500X-0.300000X0.237500X0.300000X0*%
%ADD14R,0.900000X1.000000*%
%ADD15RoundRect,0.150000X0.850000X0.350000X-0.850000X0.350000X-0.850000X-0.350000X0.850000X-0.350000X0*%
%ADD16RoundRect,0.237500X0.344715X-0.008839X-0.008839X0.344715X-0.344715X0.008839X0.008839X-0.344715X0*%
%ADD17R,1.700000X1.700000*%
%ADD18C,1.700000*%
G04 APERTURE END LIST*
D10*
%TO.C,H4*%
X52500000Y-48500000D03*
%TD*%
D11*
%TO.C,J1*%
X30250000Y-19200000D03*
X30750000Y-19200000D03*
X31250000Y-19200000D03*
X31750000Y-19200000D03*
X32250000Y-19200000D03*
X32750000Y-19200000D03*
X33250000Y-19200000D03*
X33750000Y-19200000D03*
X34250000Y-19200000D03*
X34750000Y-19200000D03*
X35250000Y-19200000D03*
X35750000Y-19200000D03*
X36250000Y-19200000D03*
X36750000Y-19200000D03*
X37250000Y-19200000D03*
X37750000Y-19200000D03*
X38250000Y-19200000D03*
X38750000Y-19200000D03*
X39250000Y-19200000D03*
X39750000Y-19200000D03*
X40250000Y-19200000D03*
X40750000Y-19200000D03*
X41250000Y-19200000D03*
X41750000Y-19200000D03*
D12*
X28350000Y-22450000D03*
X43650000Y-22450000D03*
%TD*%
D10*
%TO.C,H3*%
X18500000Y-48500000D03*
%TD*%
D13*
%TO.C,C1*%
X41775000Y-31637500D03*
X41775000Y-33362500D03*
%TD*%
D14*
%TO.C,Y1*%
X44775000Y-33575000D03*
X44775000Y-31425000D03*
X43225000Y-31425000D03*
X43225000Y-33575000D03*
%TD*%
D15*
%TO.C,SW1*%
X51500000Y-34500000D03*
X51500000Y-31500000D03*
X51500000Y-30000000D03*
%TD*%
D16*
%TO.C,R1*%
X42645235Y-29145235D03*
X41354765Y-27854765D03*
%TD*%
D10*
%TO.C,H2*%
X52500000Y-26000000D03*
%TD*%
D17*
%TO.C,J3*%
X27000000Y-32150000D03*
D18*
X27000000Y-34690000D03*
X27000000Y-37230000D03*
X27000000Y-39770000D03*
%TD*%
D11*
%TO.C,J2*%
X30750000Y-47150000D03*
X31250000Y-47150000D03*
X31750000Y-47150000D03*
X32250000Y-47150000D03*
X32750000Y-47150000D03*
X33250000Y-47150000D03*
X33750000Y-47150000D03*
X34250000Y-47150000D03*
X34750000Y-47150000D03*
X35250000Y-47150000D03*
X35750000Y-47150000D03*
X36250000Y-47150000D03*
X36750000Y-47150000D03*
X37250000Y-47150000D03*
X37750000Y-47150000D03*
X38250000Y-47150000D03*
X38750000Y-47150000D03*
X39250000Y-47150000D03*
X39750000Y-47150000D03*
X40250000Y-47150000D03*
X40750000Y-47150000D03*
X41250000Y-47150000D03*
D12*
X28850000Y-50400000D03*
X43150000Y-50400000D03*
%TD*%
D10*
%TO.C,H1*%
X18500000Y-26000000D03*
%TD*%
M02*
