%TF.GenerationSoftware,KiCad,Pcbnew,9.0.6*%
%TF.CreationDate,2026-01-08T09:33:55+01:00*%
%TF.ProjectId,Adapat_24pin_22pin,41646170-6174-45f3-9234-70696e5f3232,rev?*%
%TF.SameCoordinates,Original*%
%TF.FileFunction,Copper,L4,Bot*%
%TF.FilePolarity,Positive*%
%FSLAX46Y46*%
G04 Gerber Fmt 4.6, Leading zero omitted, Abs format (unit mm)*
G04 Created by KiCad (PCBNEW 9.0.6) date 2026-01-08 09:33:55*
%MOMM*%
%LPD*%
G01*
G04 APERTURE LIST*
%TA.AperFunction,Conductor*%
%ADD10C,0.200000*%
%TD*%
%ADD11C,0.200000*%
%TA.AperFunction,ComponentPad*%
%ADD12R,1.700000X1.700000*%
%TD*%
%TA.AperFunction,ComponentPad*%
%ADD13C,1.700000*%
%TD*%
%TA.AperFunction,ViaPad*%
%ADD14C,0.600000*%
%TD*%
%TA.AperFunction,ViaPad*%
%ADD15C,1.200000*%
%TD*%
G04 APERTURE END LIST*
D10*
%TO.N,/SEN_RST*%
X39250000Y-35500000D02*
X39751679Y-31338989D01*
D11*
G36*
X18558015Y-52866641D02*
G01*
X18759820Y-52987724D01*
X18880902Y-53189528D01*
X18921202Y-53391028D01*
X18880902Y-53592528D01*
X18759820Y-53794331D01*
X18558015Y-53915414D01*
X18356516Y-53955714D01*
X18155016Y-53915414D01*
X17953212Y-53794331D01*
X17832130Y-53592528D01*
X17791830Y-53391028D01*
X17832130Y-53189529D01*
X17890163Y-53092806D01*
X18066825Y-53092806D01*
X18069591Y-53131726D01*
X18087040Y-53166625D01*
X18116517Y-53192190D01*
X18153532Y-53204529D01*
X18192452Y-53201763D01*
X18210761Y-53194757D01*
X18284886Y-53157695D01*
X18428148Y-53157695D01*
X18487756Y-53187499D01*
X18560046Y-53259789D01*
X18589850Y-53319397D01*
X18589850Y-53462659D01*
X18560046Y-53522267D01*
X18487756Y-53594556D01*
X18428148Y-53624361D01*
X18284886Y-53624361D01*
X18210761Y-53587299D01*
X18192452Y-53580293D01*
X18153532Y-53577527D01*
X18116517Y-53589866D01*
X18087040Y-53615431D01*
X18069591Y-53650330D01*
X18066825Y-53689250D01*
X18079164Y-53726265D01*
X18104729Y-53755742D01*
X18121319Y-53766185D01*
X18216558Y-53813804D01*
X18234866Y-53820810D01*
X18238449Y-53821064D01*
X18241770Y-53822440D01*
X18261279Y-53824361D01*
X18451755Y-53824361D01*
X18471264Y-53822440D01*
X18474584Y-53821064D01*
X18478168Y-53820810D01*
X18496476Y-53813804D01*
X18591714Y-53766185D01*
X18600110Y-53760899D01*
X18602550Y-53759889D01*
X18605296Y-53757635D01*
X18608304Y-53755742D01*
X18610033Y-53753747D01*
X18617704Y-53747453D01*
X18712942Y-53652215D01*
X18719233Y-53644548D01*
X18721231Y-53642816D01*
X18723126Y-53639804D01*
X18725378Y-53637061D01*
X18726387Y-53634623D01*
X18731674Y-53626225D01*
X18779293Y-53530988D01*
X18786299Y-53512679D01*
X18786553Y-53509095D01*
X18787929Y-53505775D01*
X18789850Y-53486266D01*
X18789850Y-53295790D01*
X18787929Y-53276281D01*
X18786553Y-53272960D01*
X18786299Y-53269377D01*
X18779293Y-53251068D01*
X18731674Y-53155831D01*
X18726387Y-53147432D01*
X18725378Y-53144995D01*
X18723126Y-53142251D01*
X18721231Y-53139240D01*
X18719233Y-53137507D01*
X18712942Y-53129841D01*
X18617704Y-53034603D01*
X18610033Y-53028308D01*
X18608304Y-53026314D01*
X18605296Y-53024420D01*
X18602550Y-53022167D01*
X18600110Y-53021156D01*
X18591714Y-53015871D01*
X18496476Y-52968252D01*
X18478168Y-52961246D01*
X18474584Y-52960991D01*
X18471264Y-52959616D01*
X18451755Y-52957695D01*
X18261279Y-52957695D01*
X18241770Y-52959616D01*
X18238449Y-52960991D01*
X18234866Y-52961246D01*
X18216558Y-52968252D01*
X18121319Y-53015871D01*
X18104729Y-53026314D01*
X18079164Y-53055791D01*
X18066825Y-53092806D01*
X17890163Y-53092806D01*
X17953212Y-52987724D01*
X18155017Y-52866641D01*
X18356516Y-52826341D01*
X18558015Y-52866641D01*
G37*
G36*
X29821091Y-53737413D02*
G01*
X29761481Y-53767219D01*
X29693175Y-53767219D01*
X29701466Y-53758927D01*
X29761076Y-53729123D01*
X29829382Y-53729123D01*
X29821091Y-53737413D01*
G37*
G36*
X29821089Y-52997023D02*
G01*
X29885268Y-53061202D01*
X29923183Y-53212861D01*
X29923183Y-53521575D01*
X29911319Y-53569031D01*
X29888264Y-53545976D01*
X29852216Y-53531044D01*
X29832707Y-53529123D01*
X29737469Y-53529123D01*
X29717960Y-53531044D01*
X29714639Y-53532419D01*
X29711056Y-53532674D01*
X29692747Y-53539680D01*
X29597510Y-53587299D01*
X29589113Y-53592584D01*
X29586673Y-53593595D01*
X29583927Y-53595848D01*
X29580919Y-53597742D01*
X29579186Y-53599739D01*
X29571520Y-53606032D01*
X29499374Y-53678178D01*
X29494432Y-53673236D01*
X29456517Y-53521575D01*
X29456517Y-53212862D01*
X29494432Y-53061202D01*
X29558611Y-52997023D01*
X29618219Y-52967219D01*
X29761481Y-52967219D01*
X29821089Y-52997023D01*
G37*
G36*
X31789203Y-53481504D02*
G01*
X31590498Y-53481504D01*
X31689850Y-53183446D01*
X31789203Y-53481504D01*
G37*
G36*
X33139056Y-54268806D02*
G01*
X17478739Y-54268806D01*
X17478739Y-53390923D01*
X17589850Y-53390923D01*
X17589870Y-53391028D01*
X17589850Y-53391133D01*
X17591792Y-53410640D01*
X17639411Y-53648734D01*
X17642966Y-53660411D01*
X17643330Y-53662855D01*
X17644395Y-53665104D01*
X17645121Y-53667488D01*
X17646496Y-53669542D01*
X17651720Y-53680572D01*
X17794577Y-53918668D01*
X17806261Y-53934409D01*
X17810209Y-53937334D01*
X17813136Y-53941284D01*
X17828876Y-53952968D01*
X18066971Y-54095825D01*
X18078002Y-54101048D01*
X18080056Y-54102424D01*
X18082439Y-54103149D01*
X18084689Y-54104215D01*
X18087132Y-54104578D01*
X18098809Y-54108134D01*
X18336905Y-54155753D01*
X18356412Y-54157695D01*
X18356517Y-54157674D01*
X18356622Y-54157695D01*
X18376129Y-54155753D01*
X18614223Y-54108134D01*
X18625900Y-54104578D01*
X18628344Y-54104215D01*
X18630594Y-54103149D01*
X18632977Y-54102424D01*
X18635030Y-54101048D01*
X18646062Y-54095825D01*
X18884156Y-53952968D01*
X18899897Y-53941284D01*
X18902822Y-53937334D01*
X18906772Y-53934409D01*
X18918456Y-53918668D01*
X19061313Y-53680572D01*
X19066535Y-53669542D01*
X19067912Y-53667488D01*
X19068637Y-53665104D01*
X19069703Y-53662855D01*
X19070066Y-53660411D01*
X19073622Y-53648735D01*
X19121241Y-53410640D01*
X19123183Y-53391133D01*
X19123162Y-53391028D01*
X19123183Y-53390923D01*
X19121241Y-53371416D01*
X19073622Y-53133321D01*
X19070066Y-53121644D01*
X19069703Y-53119201D01*
X19068637Y-53116951D01*
X19067912Y-53114568D01*
X19066536Y-53112514D01*
X19061313Y-53101483D01*
X18918456Y-52863388D01*
X18906818Y-52847710D01*
X19972724Y-52847710D01*
X19972724Y-52886728D01*
X19987656Y-52922776D01*
X20015246Y-52950366D01*
X20051294Y-52965298D01*
X20070803Y-52967219D01*
X20256517Y-52967219D01*
X20256517Y-53867219D01*
X20258438Y-53886728D01*
X20273370Y-53922776D01*
X20300960Y-53950366D01*
X20337008Y-53965298D01*
X20376026Y-53965298D01*
X20412074Y-53950366D01*
X20439664Y-53922776D01*
X20454596Y-53886728D01*
X20456517Y-53867219D01*
X20456517Y-52967219D01*
X20642231Y-52967219D01*
X20661740Y-52965298D01*
X20697788Y-52950366D01*
X20725378Y-52922776D01*
X20740310Y-52886728D01*
X20740310Y-52867219D01*
X20875565Y-52867219D01*
X20875565Y-53867219D01*
X20876059Y-53872236D01*
X20875809Y-53874204D01*
X20876503Y-53876750D01*
X20877486Y-53886728D01*
X20882577Y-53899018D01*
X20886076Y-53911847D01*
X20889978Y-53916885D01*
X20892418Y-53922776D01*
X20901823Y-53932181D01*
X20909966Y-53942696D01*
X20915500Y-53945858D01*
X20920008Y-53950366D01*
X20932293Y-53955454D01*
X20943843Y-53962055D01*
X20950167Y-53962858D01*
X20956056Y-53965298D01*
X20969357Y-53965298D01*
X20982550Y-53966975D01*
X20988699Y-53965298D01*
X20995074Y-53965298D01*
X21007364Y-53960206D01*
X21020193Y-53956708D01*
X21025231Y-53952805D01*
X21031122Y-53950366D01*
X21040527Y-53940960D01*
X21051042Y-53932818D01*
X21056845Y-53924642D01*
X21058712Y-53922776D01*
X21059470Y-53920943D01*
X21062389Y-53916833D01*
X21446993Y-53243775D01*
X21446993Y-53867219D01*
X21448914Y-53886728D01*
X21463846Y-53922776D01*
X21491436Y-53950366D01*
X21527484Y-53965298D01*
X21566502Y-53965298D01*
X21602550Y-53950366D01*
X21630140Y-53922776D01*
X21645072Y-53886728D01*
X21646993Y-53867219D01*
X21646993Y-52867219D01*
X21646498Y-52862201D01*
X21646749Y-52860234D01*
X21646054Y-52857687D01*
X21645072Y-52847710D01*
X21877486Y-52847710D01*
X21877486Y-52886728D01*
X21892418Y-52922776D01*
X21920008Y-52950366D01*
X21956056Y-52965298D01*
X21975565Y-52967219D01*
X22351755Y-52967219D01*
X22351755Y-53243409D01*
X22118422Y-53243409D01*
X22098913Y-53245330D01*
X22062865Y-53260262D01*
X22035275Y-53287852D01*
X22020343Y-53323900D01*
X22020343Y-53362918D01*
X22035275Y-53398966D01*
X22062865Y-53426556D01*
X22098913Y-53441488D01*
X22118422Y-53443409D01*
X22351755Y-53443409D01*
X22351755Y-53767219D01*
X21975565Y-53767219D01*
X21956056Y-53769140D01*
X21920008Y-53784072D01*
X21892418Y-53811662D01*
X21877486Y-53847710D01*
X21877486Y-53886728D01*
X21892418Y-53922776D01*
X21920008Y-53950366D01*
X21956056Y-53965298D01*
X21975565Y-53967219D01*
X22451755Y-53967219D01*
X22471264Y-53965298D01*
X22507312Y-53950366D01*
X22534902Y-53922776D01*
X22549834Y-53886728D01*
X22551755Y-53867219D01*
X22551755Y-52942948D01*
X22782248Y-52942948D01*
X22782248Y-52981966D01*
X22797180Y-53018014D01*
X22824770Y-53045604D01*
X22860818Y-53060536D01*
X22899836Y-53060536D01*
X22935884Y-53045604D01*
X22951038Y-53033168D01*
X22981964Y-53002240D01*
X23087029Y-52967219D01*
X23149814Y-52967219D01*
X23254878Y-53002240D01*
X23321951Y-53069313D01*
X23357403Y-53140218D01*
X23399374Y-53308099D01*
X23399374Y-53426337D01*
X23357403Y-53594218D01*
X23321950Y-53665124D01*
X23254879Y-53732197D01*
X23149814Y-53767219D01*
X23087029Y-53767219D01*
X22981964Y-53732197D01*
X22951038Y-53701270D01*
X22935885Y-53688833D01*
X22899837Y-53673902D01*
X22860819Y-53673901D01*
X22824770Y-53688832D01*
X22797180Y-53716422D01*
X22782249Y-53752470D01*
X22782248Y-53791488D01*
X22797179Y-53827537D01*
X22809616Y-53842690D01*
X22857234Y-53890310D01*
X22872388Y-53902747D01*
X22875707Y-53904122D01*
X22878423Y-53906477D01*
X22896323Y-53914468D01*
X23039180Y-53962087D01*
X23048852Y-53964286D01*
X23051294Y-53965298D01*
X23054831Y-53965646D01*
X23058295Y-53966434D01*
X23060929Y-53966246D01*
X23070803Y-53967219D01*
X23166041Y-53967219D01*
X23175914Y-53966246D01*
X23178548Y-53966434D01*
X23182011Y-53965646D01*
X23185550Y-53965298D01*
X23187992Y-53964286D01*
X23197664Y-53962087D01*
X23340520Y-53914468D01*
X23358421Y-53906477D01*
X23361136Y-53904122D01*
X23364456Y-53902747D01*
X23379609Y-53890310D01*
X23474847Y-53795071D01*
X23481139Y-53787404D01*
X23483136Y-53785673D01*
X23485029Y-53782665D01*
X23487284Y-53779918D01*
X23488295Y-53777476D01*
X23493579Y-53769082D01*
X23541198Y-53673845D01*
X23541744Y-53672416D01*
X23542174Y-53671837D01*
X23545095Y-53663660D01*
X23548204Y-53655536D01*
X23548255Y-53654815D01*
X23548769Y-53653377D01*
X23596388Y-53462901D01*
X23596888Y-53459519D01*
X23597453Y-53458156D01*
X23598176Y-53450805D01*
X23599256Y-53443508D01*
X23599038Y-53442049D01*
X23599374Y-53438647D01*
X23599374Y-53295790D01*
X23599038Y-53292387D01*
X23599256Y-53290929D01*
X23598176Y-53283631D01*
X23597453Y-53276281D01*
X23596888Y-53274917D01*
X23596388Y-53271536D01*
X23548769Y-53081060D01*
X23548255Y-53079621D01*
X23548204Y-53078901D01*
X23545095Y-53070776D01*
X23542174Y-53062600D01*
X23541744Y-53062020D01*
X23541198Y-53060592D01*
X23493579Y-52965355D01*
X23488292Y-52956956D01*
X23487283Y-52954519D01*
X23485031Y-52951775D01*
X23483136Y-52948764D01*
X23481138Y-52947031D01*
X23474847Y-52939365D01*
X23402701Y-52867219D01*
X23827946Y-52867219D01*
X23827946Y-53867219D01*
X23828440Y-53872236D01*
X23828190Y-53874204D01*
X23828884Y-53876750D01*
X23829867Y-53886728D01*
X23834958Y-53899018D01*
X23838457Y-53911847D01*
X23842359Y-53916885D01*
X23844799Y-53922776D01*
X23854204Y-53932181D01*
X23862347Y-53942696D01*
X23867881Y-53945858D01*
X23872389Y-53950366D01*
X23884674Y-53955454D01*
X23896224Y-53962055D01*
X23902548Y-53962858D01*
X23908437Y-53965298D01*
X23921738Y-53965298D01*
X23934931Y-53966975D01*
X23941080Y-53965298D01*
X23947455Y-53965298D01*
X23959745Y-53960206D01*
X23972574Y-53956708D01*
X23977612Y-53952805D01*
X23983503Y-53950366D01*
X23992908Y-53940960D01*
X24003423Y-53932818D01*
X24009226Y-53924642D01*
X24011093Y-53922776D01*
X24011851Y-53920943D01*
X24014770Y-53916833D01*
X24399374Y-53243775D01*
X24399374Y-53867219D01*
X24401295Y-53886728D01*
X24416227Y-53922776D01*
X24443817Y-53950366D01*
X24479865Y-53965298D01*
X24518883Y-53965298D01*
X24554931Y-53950366D01*
X24582521Y-53922776D01*
X24597453Y-53886728D01*
X24599374Y-53867219D01*
X24599374Y-52867219D01*
X24875564Y-52867219D01*
X24875564Y-53867219D01*
X24877485Y-53886728D01*
X24892417Y-53922776D01*
X24920007Y-53950366D01*
X24956055Y-53965298D01*
X24995073Y-53965298D01*
X25031121Y-53950366D01*
X25058711Y-53922776D01*
X25073643Y-53886728D01*
X25075564Y-53867219D01*
X25075564Y-52879726D01*
X25209683Y-52879726D01*
X25214030Y-52898842D01*
X25547363Y-53898841D01*
X25555354Y-53916742D01*
X25560037Y-53922141D01*
X25563232Y-53928531D01*
X25572703Y-53936746D01*
X25580919Y-53946218D01*
X25587307Y-53949412D01*
X25592708Y-53954096D01*
X25604609Y-53958063D01*
X25615818Y-53963667D01*
X25622942Y-53964173D01*
X25629724Y-53966434D01*
X25642233Y-53965544D01*
X25654738Y-53966434D01*
X25661516Y-53964174D01*
X25668644Y-53963668D01*
X25679860Y-53958059D01*
X25691754Y-53954095D01*
X25697151Y-53949414D01*
X25703543Y-53946218D01*
X25711761Y-53936742D01*
X25721230Y-53928530D01*
X25724423Y-53922143D01*
X25729108Y-53916742D01*
X25737099Y-53898842D01*
X25754143Y-53847710D01*
X26829867Y-53847710D01*
X26829867Y-53886728D01*
X26844799Y-53922776D01*
X26872389Y-53950366D01*
X26908437Y-53965298D01*
X26927946Y-53967219D01*
X27404136Y-53967219D01*
X27423645Y-53965298D01*
X27459693Y-53950366D01*
X27487283Y-53922776D01*
X27502215Y-53886728D01*
X27504136Y-53867219D01*
X27504136Y-52867219D01*
X27780326Y-52867219D01*
X27780326Y-53867219D01*
X27782247Y-53886728D01*
X27797179Y-53922776D01*
X27824769Y-53950366D01*
X27860817Y-53965298D01*
X27899835Y-53965298D01*
X27935883Y-53950366D01*
X27963473Y-53922776D01*
X27978405Y-53886728D01*
X27980326Y-53867219D01*
X27980326Y-52867219D01*
X28256517Y-52867219D01*
X28256517Y-53676742D01*
X28258438Y-53696251D01*
X28259813Y-53699571D01*
X28260068Y-53703155D01*
X28267074Y-53721463D01*
X28314693Y-53816701D01*
X28319976Y-53825093D01*
X28320988Y-53827537D01*
X28323244Y-53830286D01*
X28325136Y-53833291D01*
X28327130Y-53835020D01*
X28333425Y-53842690D01*
X28381043Y-53890310D01*
X28388711Y-53896603D01*
X28390443Y-53898600D01*
X28393451Y-53900493D01*
X28396197Y-53902747D01*
X28398637Y-53903757D01*
X28407034Y-53909043D01*
X28502271Y-53956662D01*
X28520580Y-53963668D01*
X28524163Y-53963922D01*
X28527484Y-53965298D01*
X28546993Y-53967219D01*
X28737469Y-53967219D01*
X28756978Y-53965298D01*
X28760298Y-53963922D01*
X28763882Y-53963668D01*
X28782190Y-53956662D01*
X28795614Y-53949950D01*
X29209683Y-53949950D01*
X29212449Y-53988870D01*
X29229898Y-54023769D01*
X29259375Y-54049333D01*
X29296391Y-54061672D01*
X29335311Y-54058906D01*
X29353619Y-54051900D01*
X29448857Y-54004281D01*
X29457253Y-53998995D01*
X29459693Y-53997985D01*
X29462439Y-53995731D01*
X29465447Y-53993838D01*
X29467176Y-53991843D01*
X29474847Y-53985549D01*
X29519119Y-53941276D01*
X29549890Y-53956662D01*
X29568199Y-53963668D01*
X29571782Y-53963922D01*
X29575103Y-53965298D01*
X29594612Y-53967219D01*
X29785088Y-53967219D01*
X29804597Y-53965298D01*
X29807917Y-53963922D01*
X29811501Y-53963668D01*
X29829809Y-53956662D01*
X29925047Y-53909043D01*
X29933442Y-53903758D01*
X29935884Y-53902747D01*
X29938631Y-53900491D01*
X29941637Y-53898600D01*
X29943367Y-53896605D01*
X29951037Y-53890310D01*
X30046275Y-53795071D01*
X30058712Y-53779918D01*
X30061557Y-53773047D01*
X30065983Y-53767075D01*
X30072578Y-53748615D01*
X30120197Y-53558139D01*
X30120697Y-53554757D01*
X30121262Y-53553394D01*
X30121985Y-53546043D01*
X30123065Y-53538746D01*
X30122847Y-53537287D01*
X30123183Y-53533885D01*
X30123183Y-53200552D01*
X30122847Y-53197149D01*
X30123065Y-53195691D01*
X30121985Y-53188393D01*
X30121262Y-53181043D01*
X30120697Y-53179679D01*
X30120197Y-53176298D01*
X30072578Y-52985822D01*
X30065983Y-52967362D01*
X30061556Y-52961387D01*
X30058711Y-52954519D01*
X30046275Y-52939365D01*
X29974129Y-52867219D01*
X30351755Y-52867219D01*
X30351755Y-53676742D01*
X30353676Y-53696251D01*
X30355051Y-53699571D01*
X30355306Y-53703155D01*
X30362312Y-53721463D01*
X30409931Y-53816701D01*
X30415214Y-53825093D01*
X30416226Y-53827537D01*
X30418482Y-53830286D01*
X30420374Y-53833291D01*
X30422368Y-53835020D01*
X30428663Y-53842690D01*
X30476281Y-53890310D01*
X30483949Y-53896603D01*
X30485681Y-53898600D01*
X30488689Y-53900493D01*
X30491435Y-53902747D01*
X30493875Y-53903757D01*
X30502272Y-53909043D01*
X30597509Y-53956662D01*
X30615818Y-53963668D01*
X30619401Y-53963922D01*
X30622722Y-53965298D01*
X30642231Y-53967219D01*
X30832707Y-53967219D01*
X30852216Y-53965298D01*
X30855536Y-53963922D01*
X30859120Y-53963668D01*
X30877428Y-53956662D01*
X30972666Y-53909043D01*
X30981061Y-53903758D01*
X30983503Y-53902747D01*
X30986250Y-53900491D01*
X30989256Y-53898600D01*
X30990986Y-53896605D01*
X30998656Y-53890310D01*
X31034253Y-53854712D01*
X31257302Y-53854712D01*
X31260068Y-53893632D01*
X31277518Y-53928531D01*
X31306994Y-53954096D01*
X31344010Y-53966434D01*
X31382930Y-53963668D01*
X31417829Y-53946218D01*
X31443394Y-53916742D01*
X31451385Y-53898842D01*
X31523831Y-53681504D01*
X31855869Y-53681504D01*
X31928315Y-53898841D01*
X31936306Y-53916742D01*
X31961871Y-53946218D01*
X31996770Y-53963667D01*
X32035690Y-53966434D01*
X32072706Y-53954095D01*
X32102182Y-53928530D01*
X32119632Y-53893631D01*
X32122398Y-53854711D01*
X32118051Y-53835596D01*
X31820502Y-52942948D01*
X32210819Y-52942948D01*
X32210819Y-52981966D01*
X32225751Y-53018014D01*
X32253341Y-53045604D01*
X32289389Y-53060536D01*
X32328407Y-53060536D01*
X32364455Y-53045604D01*
X32379609Y-53033168D01*
X32410535Y-53002240D01*
X32515600Y-52967219D01*
X32578385Y-52967219D01*
X32683449Y-53002240D01*
X32750522Y-53069313D01*
X32785974Y-53140218D01*
X32827945Y-53308099D01*
X32827945Y-53426337D01*
X32785974Y-53594218D01*
X32750521Y-53665124D01*
X32683450Y-53732197D01*
X32578385Y-53767219D01*
X32515600Y-53767219D01*
X32410535Y-53732197D01*
X32379609Y-53701270D01*
X32364456Y-53688833D01*
X32328408Y-53673902D01*
X32289390Y-53673901D01*
X32253341Y-53688832D01*
X32225751Y-53716422D01*
X32210820Y-53752470D01*
X32210819Y-53791488D01*
X32225750Y-53827537D01*
X32238187Y-53842690D01*
X32285805Y-53890310D01*
X32300959Y-53902747D01*
X32304278Y-53904122D01*
X32306994Y-53906477D01*
X32324894Y-53914468D01*
X32467751Y-53962087D01*
X32477423Y-53964286D01*
X32479865Y-53965298D01*
X32483402Y-53965646D01*
X32486866Y-53966434D01*
X32489500Y-53966246D01*
X32499374Y-53967219D01*
X32594612Y-53967219D01*
X32604485Y-53966246D01*
X32607119Y-53966434D01*
X32610582Y-53965646D01*
X32614121Y-53965298D01*
X32616563Y-53964286D01*
X32626235Y-53962087D01*
X32769091Y-53914468D01*
X32786992Y-53906477D01*
X32789707Y-53904122D01*
X32793027Y-53902747D01*
X32808180Y-53890310D01*
X32903418Y-53795071D01*
X32909710Y-53787404D01*
X32911707Y-53785673D01*
X32913600Y-53782665D01*
X32915855Y-53779918D01*
X32916866Y-53777476D01*
X32922150Y-53769082D01*
X32969769Y-53673845D01*
X32970315Y-53672416D01*
X32970745Y-53671837D01*
X32973666Y-53663660D01*
X32976775Y-53655536D01*
X32976826Y-53654815D01*
X32977340Y-53653377D01*
X33024959Y-53462901D01*
X33025459Y-53459519D01*
X33026024Y-53458156D01*
X33026747Y-53450805D01*
X33027827Y-53443508D01*
X33027609Y-53442049D01*
X33027945Y-53438647D01*
X33027945Y-53295790D01*
X33027609Y-53292387D01*
X33027827Y-53290929D01*
X33026747Y-53283631D01*
X33026024Y-53276281D01*
X33025459Y-53274917D01*
X33024959Y-53271536D01*
X32977340Y-53081060D01*
X32976826Y-53079621D01*
X32976775Y-53078901D01*
X32973666Y-53070776D01*
X32970745Y-53062600D01*
X32970315Y-53062020D01*
X32969769Y-53060592D01*
X32922150Y-52965355D01*
X32916863Y-52956956D01*
X32915854Y-52954519D01*
X32913602Y-52951775D01*
X32911707Y-52948764D01*
X32909709Y-52947031D01*
X32903418Y-52939365D01*
X32808180Y-52844127D01*
X32793026Y-52831691D01*
X32789707Y-52830316D01*
X32786992Y-52827961D01*
X32769091Y-52819970D01*
X32626235Y-52772351D01*
X32616563Y-52770151D01*
X32614121Y-52769140D01*
X32610582Y-52768791D01*
X32607119Y-52768004D01*
X32604485Y-52768191D01*
X32594612Y-52767219D01*
X32499374Y-52767219D01*
X32489500Y-52768191D01*
X32486866Y-52768004D01*
X32483402Y-52768791D01*
X32479865Y-52769140D01*
X32477423Y-52770151D01*
X32467751Y-52772351D01*
X32324894Y-52819970D01*
X32306994Y-52827961D01*
X32304278Y-52830316D01*
X32300959Y-52831691D01*
X32285806Y-52844128D01*
X32238187Y-52891746D01*
X32225751Y-52906900D01*
X32210819Y-52942948D01*
X31820502Y-52942948D01*
X31784718Y-52835596D01*
X31776727Y-52817696D01*
X31772042Y-52812294D01*
X31768849Y-52805908D01*
X31759380Y-52797695D01*
X31751162Y-52788220D01*
X31744770Y-52785023D01*
X31739373Y-52780343D01*
X31727479Y-52776378D01*
X31716263Y-52770770D01*
X31709135Y-52770263D01*
X31702357Y-52768004D01*
X31689852Y-52768893D01*
X31677343Y-52768004D01*
X31670561Y-52770264D01*
X31663437Y-52770771D01*
X31652228Y-52776374D01*
X31640327Y-52780342D01*
X31634926Y-52785025D01*
X31628538Y-52788220D01*
X31620322Y-52797691D01*
X31610851Y-52805907D01*
X31607656Y-52812296D01*
X31602973Y-52817696D01*
X31594982Y-52835597D01*
X31261649Y-53835596D01*
X31257302Y-53854712D01*
X31034253Y-53854712D01*
X31046275Y-53842690D01*
X31052567Y-53835023D01*
X31054564Y-53833292D01*
X31056457Y-53830284D01*
X31058712Y-53827537D01*
X31059723Y-53825095D01*
X31065007Y-53816701D01*
X31112626Y-53721464D01*
X31119632Y-53703155D01*
X31119886Y-53699571D01*
X31121262Y-53696251D01*
X31123183Y-53676742D01*
X31123183Y-52867219D01*
X31121262Y-52847710D01*
X31106330Y-52811662D01*
X31078740Y-52784072D01*
X31042692Y-52769140D01*
X31003674Y-52769140D01*
X30967626Y-52784072D01*
X30940036Y-52811662D01*
X30925104Y-52847710D01*
X30923183Y-52867219D01*
X30923183Y-53653135D01*
X30893378Y-53712743D01*
X30868709Y-53737413D01*
X30809100Y-53767219D01*
X30665838Y-53767219D01*
X30606228Y-53737414D01*
X30581561Y-53712746D01*
X30551755Y-53653134D01*
X30551755Y-52867219D01*
X30549834Y-52847710D01*
X30534902Y-52811662D01*
X30507312Y-52784072D01*
X30471264Y-52769140D01*
X30432246Y-52769140D01*
X30396198Y-52784072D01*
X30368608Y-52811662D01*
X30353676Y-52847710D01*
X30351755Y-52867219D01*
X29974129Y-52867219D01*
X29951037Y-52844127D01*
X29943366Y-52837832D01*
X29941637Y-52835838D01*
X29938629Y-52833944D01*
X29935883Y-52831691D01*
X29933443Y-52830680D01*
X29925047Y-52825395D01*
X29829809Y-52777776D01*
X29811501Y-52770770D01*
X29807917Y-52770515D01*
X29804597Y-52769140D01*
X29785088Y-52767219D01*
X29594612Y-52767219D01*
X29575103Y-52769140D01*
X29571782Y-52770515D01*
X29568199Y-52770770D01*
X29549890Y-52777776D01*
X29454653Y-52825395D01*
X29446254Y-52830681D01*
X29443817Y-52831691D01*
X29441073Y-52833942D01*
X29438062Y-52835838D01*
X29436329Y-52837835D01*
X29428663Y-52844127D01*
X29333425Y-52939365D01*
X29320989Y-52954519D01*
X29318143Y-52961387D01*
X29313717Y-52967362D01*
X29307122Y-52985823D01*
X29259503Y-53176298D01*
X29259002Y-53179679D01*
X29258438Y-53181043D01*
X29257714Y-53188393D01*
X29256635Y-53195691D01*
X29256852Y-53197149D01*
X29256517Y-53200552D01*
X29256517Y-53533885D01*
X29256852Y-53537287D01*
X29256635Y-53538746D01*
X29257714Y-53546043D01*
X29258438Y-53553394D01*
X29259002Y-53554757D01*
X29259503Y-53558139D01*
X29307122Y-53748614D01*
X29313717Y-53767075D01*
X29318142Y-53773047D01*
X29320988Y-53779918D01*
X29333425Y-53795071D01*
X29357952Y-53819599D01*
X29344899Y-53832652D01*
X29264177Y-53873014D01*
X29247586Y-53883457D01*
X29222022Y-53912934D01*
X29209683Y-53949950D01*
X28795614Y-53949950D01*
X28877428Y-53909043D01*
X28885823Y-53903758D01*
X28888265Y-53902747D01*
X28891012Y-53900491D01*
X28894018Y-53898600D01*
X28895748Y-53896605D01*
X28903418Y-53890310D01*
X28951037Y-53842690D01*
X28957329Y-53835023D01*
X28959326Y-53833292D01*
X28961219Y-53830284D01*
X28963474Y-53827537D01*
X28964485Y-53825095D01*
X28969769Y-53816701D01*
X29017388Y-53721464D01*
X29024394Y-53703155D01*
X29024648Y-53699571D01*
X29026024Y-53696251D01*
X29027945Y-53676742D01*
X29027945Y-52867219D01*
X29026024Y-52847710D01*
X29011092Y-52811662D01*
X28983502Y-52784072D01*
X28947454Y-52769140D01*
X28908436Y-52769140D01*
X28872388Y-52784072D01*
X28844798Y-52811662D01*
X28829866Y-52847710D01*
X28827945Y-52867219D01*
X28827945Y-53653135D01*
X28798140Y-53712743D01*
X28773471Y-53737413D01*
X28713862Y-53767219D01*
X28570600Y-53767219D01*
X28510990Y-53737414D01*
X28486323Y-53712746D01*
X28456517Y-53653134D01*
X28456517Y-52867219D01*
X28454596Y-52847710D01*
X28439664Y-52811662D01*
X28412074Y-52784072D01*
X28376026Y-52769140D01*
X28337008Y-52769140D01*
X28300960Y-52784072D01*
X28273370Y-52811662D01*
X28258438Y-52847710D01*
X28256517Y-52867219D01*
X27980326Y-52867219D01*
X27978405Y-52847710D01*
X27963473Y-52811662D01*
X27935883Y-52784072D01*
X27899835Y-52769140D01*
X27860817Y-52769140D01*
X27824769Y-52784072D01*
X27797179Y-52811662D01*
X27782247Y-52847710D01*
X27780326Y-52867219D01*
X27504136Y-52867219D01*
X27502215Y-52847710D01*
X27487283Y-52811662D01*
X27459693Y-52784072D01*
X27423645Y-52769140D01*
X27384627Y-52769140D01*
X27348579Y-52784072D01*
X27320989Y-52811662D01*
X27306057Y-52847710D01*
X27304136Y-52867219D01*
X27304136Y-53767219D01*
X26927946Y-53767219D01*
X26908437Y-53769140D01*
X26872389Y-53784072D01*
X26844799Y-53811662D01*
X26829867Y-53847710D01*
X25754143Y-53847710D01*
X26070432Y-52898842D01*
X26074779Y-52879727D01*
X26072013Y-52840807D01*
X26054563Y-52805908D01*
X26025087Y-52780343D01*
X25988071Y-52768004D01*
X25949151Y-52770771D01*
X25914252Y-52788220D01*
X25888687Y-52817696D01*
X25880696Y-52835597D01*
X25642231Y-53550991D01*
X25403766Y-52835596D01*
X25395775Y-52817696D01*
X25370210Y-52788220D01*
X25335311Y-52770770D01*
X25296391Y-52768004D01*
X25259375Y-52780342D01*
X25229899Y-52805907D01*
X25212449Y-52840806D01*
X25209683Y-52879726D01*
X25075564Y-52879726D01*
X25075564Y-52867219D01*
X25073643Y-52847710D01*
X25058711Y-52811662D01*
X25031121Y-52784072D01*
X24995073Y-52769140D01*
X24956055Y-52769140D01*
X24920007Y-52784072D01*
X24892417Y-52811662D01*
X24877485Y-52847710D01*
X24875564Y-52867219D01*
X24599374Y-52867219D01*
X24598879Y-52862201D01*
X24599130Y-52860234D01*
X24598435Y-52857687D01*
X24597453Y-52847710D01*
X24592363Y-52835423D01*
X24588864Y-52822591D01*
X24584959Y-52817549D01*
X24582521Y-52811662D01*
X24573117Y-52802258D01*
X24564973Y-52791742D01*
X24559438Y-52788579D01*
X24554931Y-52784072D01*
X24542645Y-52778983D01*
X24531096Y-52772383D01*
X24524771Y-52771579D01*
X24518883Y-52769140D01*
X24505583Y-52769140D01*
X24492390Y-52767463D01*
X24486241Y-52769140D01*
X24479865Y-52769140D01*
X24467578Y-52774229D01*
X24454746Y-52777729D01*
X24449704Y-52781633D01*
X24443817Y-52784072D01*
X24434413Y-52793475D01*
X24423897Y-52801620D01*
X24418093Y-52809795D01*
X24416227Y-52811662D01*
X24415468Y-52813494D01*
X24412550Y-52817605D01*
X24027946Y-53490662D01*
X24027946Y-52867219D01*
X24026025Y-52847710D01*
X24011093Y-52811662D01*
X23983503Y-52784072D01*
X23947455Y-52769140D01*
X23908437Y-52769140D01*
X23872389Y-52784072D01*
X23844799Y-52811662D01*
X23829867Y-52847710D01*
X23827946Y-52867219D01*
X23402701Y-52867219D01*
X23379609Y-52844127D01*
X23364455Y-52831691D01*
X23361136Y-52830316D01*
X23358421Y-52827961D01*
X23340520Y-52819970D01*
X23197664Y-52772351D01*
X23187992Y-52770151D01*
X23185550Y-52769140D01*
X23182011Y-52768791D01*
X23178548Y-52768004D01*
X23175914Y-52768191D01*
X23166041Y-52767219D01*
X23070803Y-52767219D01*
X23060929Y-52768191D01*
X23058295Y-52768004D01*
X23054831Y-52768791D01*
X23051294Y-52769140D01*
X23048852Y-52770151D01*
X23039180Y-52772351D01*
X22896323Y-52819970D01*
X22878423Y-52827961D01*
X22875707Y-52830316D01*
X22872388Y-52831691D01*
X22857235Y-52844128D01*
X22809616Y-52891746D01*
X22797180Y-52906900D01*
X22782248Y-52942948D01*
X22551755Y-52942948D01*
X22551755Y-52867219D01*
X22549834Y-52847710D01*
X22534902Y-52811662D01*
X22507312Y-52784072D01*
X22471264Y-52769140D01*
X22451755Y-52767219D01*
X21975565Y-52767219D01*
X21956056Y-52769140D01*
X21920008Y-52784072D01*
X21892418Y-52811662D01*
X21877486Y-52847710D01*
X21645072Y-52847710D01*
X21639982Y-52835423D01*
X21636483Y-52822591D01*
X21632578Y-52817549D01*
X21630140Y-52811662D01*
X21620736Y-52802258D01*
X21612592Y-52791742D01*
X21607057Y-52788579D01*
X21602550Y-52784072D01*
X21590264Y-52778983D01*
X21578715Y-52772383D01*
X21572390Y-52771579D01*
X21566502Y-52769140D01*
X21553202Y-52769140D01*
X21540009Y-52767463D01*
X21533860Y-52769140D01*
X21527484Y-52769140D01*
X21515197Y-52774229D01*
X21502365Y-52777729D01*
X21497323Y-52781633D01*
X21491436Y-52784072D01*
X21482032Y-52793475D01*
X21471516Y-52801620D01*
X21465712Y-52809795D01*
X21463846Y-52811662D01*
X21463087Y-52813494D01*
X21460169Y-52817605D01*
X21075565Y-53490662D01*
X21075565Y-52867219D01*
X21073644Y-52847710D01*
X21058712Y-52811662D01*
X21031122Y-52784072D01*
X20995074Y-52769140D01*
X20956056Y-52769140D01*
X20920008Y-52784072D01*
X20892418Y-52811662D01*
X20877486Y-52847710D01*
X20875565Y-52867219D01*
X20740310Y-52867219D01*
X20740310Y-52847710D01*
X20725378Y-52811662D01*
X20697788Y-52784072D01*
X20661740Y-52769140D01*
X20642231Y-52767219D01*
X20070803Y-52767219D01*
X20051294Y-52769140D01*
X20015246Y-52784072D01*
X19987656Y-52811662D01*
X19972724Y-52847710D01*
X18906818Y-52847710D01*
X18906772Y-52847648D01*
X18902823Y-52844722D01*
X18899898Y-52840774D01*
X18884157Y-52829089D01*
X18646062Y-52686231D01*
X18635029Y-52681006D01*
X18632977Y-52679632D01*
X18630596Y-52678907D01*
X18628345Y-52677841D01*
X18625899Y-52677477D01*
X18614223Y-52673922D01*
X18376129Y-52626303D01*
X18356622Y-52624361D01*
X18356517Y-52624381D01*
X18356412Y-52624361D01*
X18336905Y-52626303D01*
X18098809Y-52673922D01*
X18087132Y-52677477D01*
X18084689Y-52677841D01*
X18082439Y-52678906D01*
X18080056Y-52679632D01*
X18078002Y-52681007D01*
X18066971Y-52686231D01*
X17828876Y-52829089D01*
X17813136Y-52840773D01*
X17810209Y-52844722D01*
X17806261Y-52847648D01*
X17794577Y-52863389D01*
X17651720Y-53101483D01*
X17646496Y-53112514D01*
X17645121Y-53114568D01*
X17644395Y-53116950D01*
X17643330Y-53119201D01*
X17642966Y-53121644D01*
X17639411Y-53133322D01*
X17591792Y-53371416D01*
X17589850Y-53390923D01*
X17478739Y-53390923D01*
X17478739Y-52513250D01*
X33139056Y-52513250D01*
X33139056Y-54268806D01*
G37*
%TD*%
D12*
%TO.P,J3,1,Pin_1*%
%TO.N,/SEN_PEN*%
X27000000Y-32150000D03*
D13*
%TO.P,J3,2,Pin_2*%
%TO.N,/DMIC_DAT*%
X27000000Y-34690000D03*
%TO.P,J3,3,Pin_3*%
%TO.N,/DMIC_CLK*%
X27000000Y-37230000D03*
%TO.P,J3,4,Pin_4*%
%TO.N,/ILED*%
X27000000Y-39770000D03*
%TD*%
D14*
%TO.N,GND*%
X31000000Y-40750000D03*
D15*
X43000000Y-40000000D03*
D14*
X21250000Y-34500000D03*
X20250000Y-42000000D03*
X53000000Y-37500000D03*
D15*
X21500000Y-45000000D03*
X35250000Y-49750000D03*
X48000000Y-21000000D03*
D14*
X51750000Y-18000000D03*
X46750000Y-18000000D03*
D15*
X53000000Y-21000000D03*
D14*
X27000000Y-19000000D03*
X17500000Y-33000000D03*
D15*
X50500000Y-42000000D03*
X49250000Y-40500000D03*
D14*
X48000000Y-40500000D03*
X24500000Y-26250000D03*
X51750000Y-21000000D03*
D15*
X17500000Y-19500000D03*
D14*
X25000000Y-34500000D03*
X37750000Y-17000000D03*
D15*
X26750000Y-50250000D03*
X51750000Y-19500000D03*
D14*
X35250000Y-17000000D03*
X30000000Y-35500000D03*
D15*
X21250000Y-30000000D03*
D14*
X49250000Y-24000000D03*
D15*
X49000000Y-29500000D03*
D14*
X50500000Y-37500000D03*
X33000000Y-48500000D03*
X29000000Y-36250000D03*
X18750000Y-22500000D03*
X44000000Y-17000000D03*
D15*
X53000000Y-18000000D03*
D14*
X17500000Y-42000000D03*
X35500000Y-38000000D03*
D15*
X18750000Y-30000000D03*
D14*
X50500000Y-40500000D03*
D15*
X51750000Y-43500000D03*
D14*
X44500000Y-30500000D03*
D15*
X17500000Y-40500000D03*
D14*
X24500000Y-21500000D03*
X23250000Y-42000000D03*
D15*
X46000000Y-26000000D03*
D14*
X34000000Y-27000000D03*
D15*
X25500000Y-25500000D03*
D14*
X24500000Y-23250000D03*
X23250000Y-45000000D03*
X26500000Y-23250000D03*
D15*
X17500000Y-31500000D03*
X18750000Y-21000000D03*
D14*
X46750000Y-45000000D03*
D15*
X27000000Y-20500000D03*
X50500000Y-45000000D03*
X28500000Y-19500000D03*
D14*
X32750000Y-17000000D03*
X17500000Y-18000000D03*
D15*
X23250000Y-43500000D03*
X51750000Y-37500000D03*
X50500000Y-39000000D03*
X53000000Y-45000000D03*
X23250000Y-40500000D03*
D14*
X48000000Y-43500000D03*
X20000000Y-33000000D03*
D15*
X30000000Y-43000000D03*
X44750000Y-24500000D03*
X21750000Y-39000000D03*
D14*
X18750000Y-31500000D03*
X18750000Y-43500000D03*
D15*
X45500000Y-50250000D03*
D14*
X50500000Y-17000000D03*
D15*
X48000000Y-39000000D03*
D14*
X23750000Y-36500000D03*
X29000000Y-31750000D03*
X21750000Y-40500000D03*
X29000000Y-34750000D03*
X53000000Y-40500000D03*
X18750000Y-34500000D03*
X17500000Y-36000000D03*
X34500000Y-26500000D03*
X39000000Y-48500000D03*
X36000000Y-48500000D03*
X29000000Y-42250000D03*
X24500000Y-24750000D03*
X40250000Y-17000000D03*
D15*
X17500000Y-34500000D03*
X38250000Y-49750000D03*
D14*
X22500000Y-18000000D03*
D15*
X46750000Y-37500000D03*
D14*
X35500000Y-32000000D03*
X53000000Y-22500000D03*
D15*
X48000000Y-18000000D03*
X20000000Y-34500000D03*
X21250000Y-33000000D03*
D14*
X21500000Y-43500000D03*
X23250000Y-39000000D03*
X31000000Y-42250000D03*
X24250000Y-33750000D03*
X29000000Y-28750000D03*
D15*
X23250000Y-46500000D03*
X21250000Y-24000000D03*
D14*
X24500000Y-46500000D03*
X42750000Y-17000000D03*
D15*
X49250000Y-22500000D03*
D14*
X36500000Y-17000000D03*
D15*
X43000000Y-46000000D03*
D14*
X35482999Y-30000000D03*
X51750000Y-39000000D03*
X48000000Y-17000000D03*
D15*
X53000000Y-42000000D03*
D14*
X21250000Y-25500000D03*
D15*
X36750000Y-49750000D03*
X27000000Y-24500000D03*
D14*
X53000000Y-43500000D03*
X20000000Y-30000000D03*
D15*
X18750000Y-33000000D03*
D14*
X49250000Y-42000000D03*
X37150000Y-42150000D03*
X25000000Y-37750000D03*
X25500000Y-24000000D03*
X35500000Y-33500000D03*
X48000000Y-46500000D03*
D15*
X49250000Y-37500000D03*
D14*
X18750000Y-40500000D03*
X17500000Y-45000000D03*
X24500000Y-30500000D03*
D15*
X49000000Y-33000000D03*
D14*
X49250000Y-36000000D03*
X21500000Y-46500000D03*
D15*
X17500000Y-43500000D03*
D14*
X29000000Y-37750000D03*
X50500000Y-22500000D03*
D15*
X30000000Y-40000000D03*
D14*
X45750000Y-35250000D03*
X46000000Y-24500000D03*
D15*
X49250000Y-19500000D03*
D14*
X50500000Y-43500000D03*
D15*
X24500000Y-45000000D03*
X18750000Y-42000000D03*
X17500000Y-28750000D03*
D14*
X29000000Y-30250000D03*
X39000000Y-17000000D03*
D15*
X30000000Y-37000000D03*
X49250000Y-46500000D03*
D14*
X34500000Y-48500000D03*
D15*
X48000000Y-36000000D03*
D14*
X48000000Y-37500000D03*
D15*
X48000000Y-42000000D03*
X46750000Y-46500000D03*
D14*
X24500000Y-27500000D03*
D15*
X20000000Y-28750000D03*
D14*
X21250000Y-19500000D03*
X21250000Y-31500000D03*
D15*
X21250000Y-21000000D03*
X51750000Y-22500000D03*
X32250000Y-49750000D03*
D14*
X21250000Y-28500000D03*
D15*
X21250000Y-18000000D03*
D14*
X35500000Y-31000000D03*
D15*
X17500000Y-22500000D03*
D14*
X46750000Y-42000000D03*
D15*
X50500000Y-18000000D03*
X39809597Y-49754438D03*
D14*
X35500000Y-37000000D03*
X30000000Y-41500000D03*
D15*
X20250000Y-40500000D03*
D14*
X35482999Y-29000000D03*
D15*
X30000000Y-28000000D03*
X50500000Y-21000000D03*
X30000000Y-31000000D03*
D14*
X20000000Y-18000000D03*
X51750000Y-45000000D03*
X50500000Y-46500000D03*
X50500000Y-19500000D03*
X18750000Y-19500000D03*
D15*
X43000000Y-37000000D03*
D14*
X42000000Y-30500000D03*
D15*
X20250000Y-37500000D03*
X25500000Y-28500000D03*
X46750000Y-19500000D03*
X20000000Y-22500000D03*
D14*
X53000000Y-19500000D03*
X17500000Y-21000000D03*
D15*
X20000000Y-31500000D03*
D14*
X49250000Y-39000000D03*
D15*
X20000000Y-19500000D03*
D14*
X51750000Y-42000000D03*
D15*
X49250000Y-43500000D03*
D14*
X20000000Y-21000000D03*
D15*
X20250000Y-43500000D03*
D14*
X25500000Y-30000000D03*
X26500000Y-26250000D03*
D15*
X46750000Y-43500000D03*
X43000000Y-43000000D03*
D14*
X48000000Y-19500000D03*
D15*
X18750000Y-45000000D03*
D14*
X41500000Y-17000000D03*
X39500000Y-45500000D03*
X29000000Y-40750000D03*
D15*
X18750000Y-36000000D03*
D14*
X29000000Y-33250000D03*
X43000000Y-44500000D03*
D15*
X45500000Y-18000000D03*
D14*
X30000000Y-38500000D03*
X49250000Y-18000000D03*
X24500000Y-20250000D03*
X21740000Y-37500000D03*
D15*
X18750000Y-18000000D03*
X17500000Y-37500000D03*
D14*
X17500000Y-39000000D03*
X25500000Y-27000000D03*
X24500000Y-29250000D03*
X31000000Y-26750000D03*
X30000000Y-32500000D03*
X43000000Y-41500000D03*
D15*
X21500000Y-42000000D03*
X53000000Y-39000000D03*
D14*
X18750000Y-28750000D03*
X17500000Y-30000000D03*
X43000000Y-38500000D03*
X20000000Y-36000000D03*
X34000000Y-17000000D03*
X46750000Y-39000000D03*
D15*
X25500000Y-22500000D03*
D14*
X26500000Y-21500000D03*
D15*
X46750000Y-40500000D03*
D14*
X20250000Y-45000000D03*
X29000000Y-39250000D03*
X45500000Y-17000000D03*
X37500000Y-48500000D03*
X46750000Y-34750000D03*
X21250000Y-22500000D03*
X49250000Y-21000000D03*
D15*
X30000000Y-34000000D03*
X21250000Y-27000000D03*
D14*
X37850000Y-41340000D03*
X30000000Y-29500000D03*
X20250000Y-39000000D03*
D15*
X25500000Y-19500000D03*
X18750000Y-39000000D03*
D14*
X44750000Y-26000000D03*
D15*
X48000000Y-45000000D03*
D14*
X31500000Y-48500000D03*
X18750000Y-37500000D03*
D15*
X33750000Y-49750000D03*
D14*
X24500000Y-43500000D03*
X25500000Y-21000000D03*
X49250000Y-45000000D03*
X46750000Y-36000000D03*
D15*
X51750000Y-40500000D03*
X24500000Y-42000000D03*
D14*
X40500000Y-48500000D03*
%TO.N,/SVDD*%
X45500000Y-28000000D03*
X50000000Y-34500000D03*
X41775000Y-35500000D03*
%TO.N,/MP_DP4*%
X38058191Y-43926278D03*
X32800521Y-23800521D03*
%TO.N,/MP_DN1*%
X31075000Y-44500000D03*
X35699479Y-39199479D03*
%TO.N,/MP_DN4*%
X37457149Y-43325236D03*
X32199479Y-23199479D03*
%TO.N,/MP_DP1*%
X31925000Y-44500000D03*
X36300521Y-39800521D03*
%TO.N,/SEN_RST*%
X39750000Y-31350000D03*
X39250000Y-35500000D03*
%TO.N,/SEN_SDA*%
X38650000Y-20500000D03*
X41000000Y-45000000D03*
%TO.N,/SEN_PEN*%
X30750000Y-21250000D03*
X47500000Y-23000000D03*
%TD*%
D10*
%TO.N,GND*%
X44500000Y-30500000D02*
X42000000Y-30500000D01*
%TO.N,/SVDD*%
X48000000Y-34500000D02*
X50000000Y-34500000D01*
X46500000Y-29000000D02*
X45500000Y-28000000D01*
X47500000Y-34000000D02*
X47000000Y-33500000D01*
X47000000Y-33500000D02*
X46500000Y-33000000D01*
X47500000Y-34000000D02*
X48000000Y-34500000D01*
X46500000Y-33000000D02*
X46500000Y-29000000D01*
X41775000Y-35500000D02*
X44000000Y-35500000D01*
X46500000Y-33000000D02*
X46500000Y-32000000D01*
X46500000Y-32000000D02*
X46500000Y-32500000D01*
X44000000Y-35500000D02*
X46500000Y-33000000D01*
%TO.N,/MP_DP4*%
X33004850Y-27908683D02*
X33004850Y-28153313D01*
X39170001Y-42531625D02*
X38058191Y-43643435D01*
X32649480Y-28753313D02*
X32649480Y-31722658D01*
X38058191Y-43643435D02*
X38058191Y-43926278D01*
X32649480Y-32149480D02*
X39170001Y-38670001D01*
X32649480Y-23951562D02*
X32649480Y-27553313D01*
X32649480Y-28508683D02*
X32649480Y-28753313D01*
X32800521Y-23800521D02*
X32649480Y-23951562D01*
X32649480Y-31722658D02*
X32649480Y-32149480D01*
X39170001Y-38670001D02*
X39170001Y-42531625D01*
X32827165Y-28330998D02*
G75*
G03*
X32649498Y-28508683I35J-177702D01*
G01*
X32649480Y-27553313D02*
G75*
G03*
X32827165Y-27731020I177720J13D01*
G01*
X32827165Y-27730998D02*
G75*
G02*
X33004902Y-27908683I35J-177702D01*
G01*
X33004850Y-28153313D02*
G75*
G02*
X32827165Y-28330950I-177650J13D01*
G01*
%TO.N,/MP_DN1*%
X31274999Y-44300001D02*
X31075000Y-44500000D01*
X33341698Y-40150118D02*
X33055319Y-40436496D01*
X33055319Y-42126480D02*
X32768942Y-42412860D01*
X35699479Y-39199479D02*
X35699479Y-39482322D01*
X35699479Y-39482322D02*
X35031683Y-40150118D01*
X31274999Y-43906802D02*
X31274999Y-44300001D01*
X32340900Y-42840901D02*
X31274999Y-43906802D01*
X32768942Y-42412860D02*
X32340900Y-42840901D01*
X35031683Y-40150118D02*
G75*
G02*
X34504889Y-40150118I-263397J263396D01*
G01*
X33055319Y-40436496D02*
G75*
G03*
X33055310Y-41599695I581581J-581604D01*
G01*
X33055319Y-41599686D02*
G75*
G02*
X33055336Y-42126497I-263419J-263414D01*
G01*
X34504889Y-40150118D02*
G75*
G03*
X33341699Y-40150118I-581595J-581595D01*
G01*
%TO.N,/MP_DN4*%
X37457149Y-43325236D02*
X37739992Y-43325236D01*
X38720000Y-38856394D02*
X32199479Y-32335873D01*
X38720000Y-42345228D02*
X38720000Y-38856394D01*
X37739992Y-43325236D02*
X38720000Y-42345228D01*
X32199479Y-32335873D02*
X32199479Y-23199479D01*
%TO.N,/MP_DP1*%
X33659896Y-40468317D02*
X33373517Y-40754695D01*
X32659099Y-43159100D02*
X31725001Y-44093198D01*
X33373517Y-42444679D02*
X33087140Y-42731058D01*
X31725001Y-44093198D02*
X31725001Y-44300001D01*
X36017678Y-39800521D02*
X35349882Y-40468317D01*
X31725001Y-44300001D02*
X31925000Y-44500000D01*
X33087140Y-42731058D02*
X32659099Y-43159100D01*
X36300521Y-39800521D02*
X36017678Y-39800521D01*
X35349882Y-40468317D02*
G75*
G02*
X34186692Y-40468317I-581595J581595D01*
G01*
X33373517Y-40754695D02*
G75*
G03*
X33373509Y-41281497I263383J-263405D01*
G01*
X33373517Y-41281489D02*
G75*
G02*
X33373533Y-42444695I-581617J-581611D01*
G01*
X34186691Y-40468317D02*
G75*
G03*
X33659897Y-40468317I-263397J-263397D01*
G01*
%TO.N,/SEN_SDA*%
X41000000Y-31000000D02*
X41000000Y-45000000D01*
X38701521Y-28701521D02*
X41000000Y-31000000D01*
X38650000Y-20500000D02*
X38701521Y-20551521D01*
X38701521Y-20551521D02*
X38701521Y-28701521D01*
%TO.N,/SEN_PEN*%
X47500000Y-23000000D02*
X42500000Y-18000000D01*
X34000000Y-18000000D02*
X30750000Y-21250000D01*
X42500000Y-18000000D02*
X34000000Y-18000000D01*
%TD*%
%TA.AperFunction,Conductor*%
%TO.N,GND*%
G36*
X52325188Y-16401180D02*
G01*
X52379775Y-16400505D01*
X52380521Y-16400506D01*
X52386483Y-16400650D01*
X52640996Y-16412990D01*
X52655954Y-16414631D01*
X52903323Y-16457100D01*
X52917971Y-16460542D01*
X53158365Y-16532702D01*
X53172499Y-16537900D01*
X53402357Y-16638679D01*
X53415747Y-16645548D01*
X53441749Y-16660950D01*
X53631685Y-16773460D01*
X53644158Y-16781912D01*
X53668553Y-16800703D01*
X53842994Y-16935074D01*
X53854333Y-16944963D01*
X54033123Y-17121108D01*
X54043189Y-17132310D01*
X54199293Y-17328837D01*
X54207931Y-17341183D01*
X54339042Y-17555184D01*
X54346118Y-17568486D01*
X54450307Y-17796810D01*
X54455717Y-17810872D01*
X54531443Y-18050141D01*
X54535109Y-18064755D01*
X54581260Y-18311458D01*
X54583125Y-18326410D01*
X54599251Y-18580648D01*
X54599500Y-18588497D01*
X54599500Y-24972666D01*
X54579815Y-25039705D01*
X54527011Y-25085460D01*
X54457853Y-25095404D01*
X54394297Y-25066379D01*
X54368113Y-25034667D01*
X54355732Y-25013222D01*
X54250249Y-24830521D01*
X54082628Y-24612072D01*
X54082623Y-24612066D01*
X53887933Y-24417376D01*
X53887926Y-24417370D01*
X53669483Y-24249754D01*
X53669482Y-24249753D01*
X53669479Y-24249751D01*
X53530013Y-24169230D01*
X53431028Y-24112080D01*
X53431017Y-24112075D01*
X53176630Y-24006704D01*
X53043649Y-23971072D01*
X52910666Y-23935440D01*
X52910660Y-23935439D01*
X52910655Y-23935438D01*
X52637684Y-23899501D01*
X52637679Y-23899500D01*
X52637674Y-23899500D01*
X52362326Y-23899500D01*
X52362320Y-23899500D01*
X52362315Y-23899501D01*
X52089344Y-23935438D01*
X52089337Y-23935439D01*
X52089334Y-23935440D01*
X52033125Y-23950500D01*
X51823369Y-24006704D01*
X51568982Y-24112075D01*
X51568971Y-24112080D01*
X51330516Y-24249754D01*
X51112073Y-24417370D01*
X51112066Y-24417376D01*
X50917376Y-24612066D01*
X50917370Y-24612073D01*
X50749754Y-24830516D01*
X50612080Y-25068971D01*
X50612075Y-25068982D01*
X50506704Y-25323369D01*
X50435441Y-25589331D01*
X50435438Y-25589344D01*
X50399501Y-25862315D01*
X50399500Y-25862332D01*
X50399500Y-26137667D01*
X50399501Y-26137684D01*
X50435438Y-26410655D01*
X50435439Y-26410660D01*
X50435440Y-26410666D01*
X50435441Y-26410668D01*
X50506704Y-26676630D01*
X50612075Y-26931017D01*
X50612080Y-26931028D01*
X50667683Y-27027333D01*
X50749751Y-27169479D01*
X50749753Y-27169482D01*
X50749754Y-27169483D01*
X50917370Y-27387926D01*
X50917376Y-27387933D01*
X51112066Y-27582623D01*
X51112073Y-27582629D01*
X51175479Y-27631282D01*
X51330521Y-27750249D01*
X51483778Y-27838732D01*
X51568971Y-27887919D01*
X51568976Y-27887921D01*
X51568979Y-27887923D01*
X51823368Y-27993295D01*
X52089334Y-28064560D01*
X52362326Y-28100500D01*
X52362333Y-28100500D01*
X52637667Y-28100500D01*
X52637674Y-28100500D01*
X52910666Y-28064560D01*
X53176632Y-27993295D01*
X53431021Y-27887923D01*
X53669479Y-27750249D01*
X53887928Y-27582628D01*
X54082628Y-27387928D01*
X54250249Y-27169479D01*
X54368113Y-26965333D01*
X54418680Y-26917117D01*
X54487287Y-26903895D01*
X54552152Y-26929863D01*
X54592680Y-26986777D01*
X54599500Y-27027333D01*
X54599500Y-47472666D01*
X54579815Y-47539705D01*
X54527011Y-47585460D01*
X54457853Y-47595404D01*
X54394297Y-47566379D01*
X54368113Y-47534667D01*
X54355732Y-47513222D01*
X54250249Y-47330521D01*
X54082628Y-47112072D01*
X54082623Y-47112066D01*
X53887933Y-46917376D01*
X53887926Y-46917370D01*
X53669483Y-46749754D01*
X53669482Y-46749753D01*
X53669479Y-46749751D01*
X53574407Y-46694861D01*
X53431028Y-46612080D01*
X53431017Y-46612075D01*
X53176630Y-46506704D01*
X53043649Y-46471072D01*
X52910666Y-46435440D01*
X52910660Y-46435439D01*
X52910655Y-46435438D01*
X52637684Y-46399501D01*
X52637679Y-46399500D01*
X52637674Y-46399500D01*
X52362326Y-46399500D01*
X52362320Y-46399500D01*
X52362315Y-46399501D01*
X52089344Y-46435438D01*
X52089337Y-46435439D01*
X52089334Y-46435440D01*
X52033125Y-46450500D01*
X51823369Y-46506704D01*
X51568982Y-46612075D01*
X51568971Y-46612080D01*
X51330516Y-46749754D01*
X51112073Y-46917370D01*
X51112066Y-46917376D01*
X50917376Y-47112066D01*
X50917370Y-47112073D01*
X50749754Y-47330516D01*
X50612080Y-47568971D01*
X50612075Y-47568982D01*
X50506704Y-47823369D01*
X50435441Y-48089331D01*
X50435438Y-48089344D01*
X50399501Y-48362315D01*
X50399500Y-48362332D01*
X50399500Y-48637667D01*
X50399501Y-48637684D01*
X50435438Y-48910655D01*
X50435439Y-48910660D01*
X50435440Y-48910666D01*
X50435441Y-48910668D01*
X50506704Y-49176630D01*
X50612075Y-49431017D01*
X50612080Y-49431028D01*
X50667683Y-49527333D01*
X50749751Y-49669479D01*
X50749753Y-49669482D01*
X50749754Y-49669483D01*
X50917370Y-49887926D01*
X50917376Y-49887933D01*
X51112066Y-50082623D01*
X51112072Y-50082628D01*
X51330521Y-50250249D01*
X51483778Y-50338732D01*
X51568971Y-50387919D01*
X51568976Y-50387921D01*
X51568979Y-50387923D01*
X51823368Y-50493295D01*
X52089334Y-50564560D01*
X52362326Y-50600500D01*
X52362333Y-50600500D01*
X52637667Y-50600500D01*
X52637674Y-50600500D01*
X52910666Y-50564560D01*
X53176632Y-50493295D01*
X53431021Y-50387923D01*
X53669479Y-50250249D01*
X53887928Y-50082628D01*
X54082628Y-49887928D01*
X54250249Y-49669479D01*
X54368113Y-49465333D01*
X54418680Y-49417117D01*
X54487287Y-49403895D01*
X54552152Y-49429863D01*
X54592680Y-49486777D01*
X54599500Y-49527333D01*
X54599500Y-52275337D01*
X54599498Y-52286150D01*
X54598830Y-52288536D01*
X54599493Y-52343077D01*
X54599493Y-52343858D01*
X54599453Y-52343991D01*
X54599346Y-52349872D01*
X54586748Y-52608757D01*
X54585103Y-52623733D01*
X54541843Y-52875448D01*
X54538394Y-52890114D01*
X54464926Y-53134722D01*
X54459723Y-53148862D01*
X54357127Y-53382764D01*
X54350249Y-53396168D01*
X54220047Y-53615896D01*
X54211593Y-53628367D01*
X54055705Y-53830680D01*
X54045801Y-53842034D01*
X53866526Y-54023949D01*
X53855318Y-54034018D01*
X53655303Y-54192849D01*
X53642957Y-54201484D01*
X53425158Y-54334884D01*
X53411856Y-54341958D01*
X53179487Y-54447958D01*
X53165425Y-54453367D01*
X52921909Y-54530406D01*
X52907295Y-54534069D01*
X52656240Y-54581005D01*
X52641288Y-54582869D01*
X52382571Y-54599252D01*
X52374735Y-54599500D01*
X18688093Y-54599500D01*
X18677246Y-54599498D01*
X18674824Y-54598820D01*
X18620315Y-54599493D01*
X18619486Y-54599493D01*
X18619352Y-54599453D01*
X18613495Y-54599348D01*
X18359036Y-54587013D01*
X18344059Y-54585370D01*
X18096724Y-54542909D01*
X18082059Y-54539463D01*
X18017867Y-54520196D01*
X17841688Y-54467316D01*
X17827549Y-54462116D01*
X17690704Y-54402123D01*
X17637209Y-54357178D01*
X17616505Y-54290446D01*
X17635167Y-54223114D01*
X17687267Y-54176560D01*
X17740491Y-54164557D01*
X33034729Y-54164557D01*
X33034729Y-52617496D01*
X17582985Y-52617496D01*
X17582985Y-54136130D01*
X17581077Y-54142626D01*
X17582285Y-54149291D01*
X17571357Y-54175729D01*
X17563300Y-54203169D01*
X17558183Y-54207602D01*
X17555596Y-54213862D01*
X17532108Y-54230196D01*
X17510496Y-54248924D01*
X17503795Y-54249887D01*
X17498234Y-54253755D01*
X17469644Y-54254797D01*
X17441338Y-54258868D01*
X17433526Y-54256115D01*
X17428411Y-54256302D01*
X17395793Y-54242820D01*
X17368376Y-54226581D01*
X17355902Y-54218128D01*
X17157082Y-54064989D01*
X17145726Y-54055088D01*
X16966944Y-53878966D01*
X16956873Y-53867760D01*
X16936436Y-53842034D01*
X16800769Y-53671253D01*
X16792136Y-53658915D01*
X16661012Y-53444920D01*
X16653941Y-53431629D01*
X16549738Y-53203309D01*
X16544334Y-53189268D01*
X16468589Y-52949994D01*
X16464927Y-52935396D01*
X16418760Y-52688697D01*
X16416896Y-52673775D01*
X16400748Y-52419510D01*
X16400500Y-52411667D01*
X16400500Y-49527333D01*
X16420185Y-49460294D01*
X16472989Y-49414539D01*
X16542147Y-49404595D01*
X16605703Y-49433620D01*
X16631887Y-49465333D01*
X16749751Y-49669479D01*
X16749753Y-49669482D01*
X16749754Y-49669483D01*
X16917370Y-49887926D01*
X16917376Y-49887933D01*
X17112066Y-50082623D01*
X17112072Y-50082628D01*
X17330521Y-50250249D01*
X17483778Y-50338732D01*
X17568971Y-50387919D01*
X17568976Y-50387921D01*
X17568979Y-50387923D01*
X17823368Y-50493295D01*
X18089334Y-50564560D01*
X18362326Y-50600500D01*
X18362333Y-50600500D01*
X18637667Y-50600500D01*
X18637674Y-50600500D01*
X18910666Y-50564560D01*
X19176632Y-50493295D01*
X19431021Y-50387923D01*
X19669479Y-50250249D01*
X19887928Y-50082628D01*
X20082628Y-49887928D01*
X20250249Y-49669479D01*
X20387923Y-49431021D01*
X20493295Y-49176632D01*
X20564560Y-48910666D01*
X20600500Y-48637674D01*
X20600500Y-48362326D01*
X20564560Y-48089334D01*
X20493295Y-47823368D01*
X20387923Y-47568979D01*
X20387921Y-47568976D01*
X20387919Y-47568971D01*
X20338732Y-47483778D01*
X20250249Y-47330521D01*
X20082628Y-47112072D01*
X20082623Y-47112066D01*
X19887933Y-46917376D01*
X19887926Y-46917370D01*
X19669483Y-46749754D01*
X19669482Y-46749753D01*
X19669479Y-46749751D01*
X19574407Y-46694861D01*
X19431028Y-46612080D01*
X19431017Y-46612075D01*
X19176630Y-46506704D01*
X19043649Y-46471072D01*
X18910666Y-46435440D01*
X18910660Y-46435439D01*
X18910655Y-46435438D01*
X18637684Y-46399501D01*
X18637679Y-46399500D01*
X18637674Y-46399500D01*
X18362326Y-46399500D01*
X18362320Y-46399500D01*
X18362315Y-46399501D01*
X18089344Y-46435438D01*
X18089337Y-46435439D01*
X18089334Y-46435440D01*
X18033125Y-46450500D01*
X17823369Y-46506704D01*
X17568982Y-46612075D01*
X17568971Y-46612080D01*
X17330516Y-46749754D01*
X17112073Y-46917370D01*
X17112066Y-46917376D01*
X16917376Y-47112066D01*
X16917370Y-47112073D01*
X16749756Y-47330513D01*
X16631887Y-47534667D01*
X16581320Y-47582882D01*
X16512712Y-47596104D01*
X16447848Y-47570136D01*
X16407320Y-47513222D01*
X16400500Y-47472666D01*
X16400500Y-44420943D01*
X30474500Y-44420943D01*
X30474500Y-44579056D01*
X30515423Y-44731783D01*
X30515426Y-44731790D01*
X30594475Y-44868709D01*
X30594479Y-44868714D01*
X30594480Y-44868716D01*
X30706284Y-44980520D01*
X30706286Y-44980521D01*
X30706290Y-44980524D01*
X30843209Y-45059573D01*
X30843216Y-45059577D01*
X30995943Y-45100500D01*
X30995945Y-45100500D01*
X31154055Y-45100500D01*
X31154057Y-45100500D01*
X31306784Y-45059577D01*
X31438000Y-44983819D01*
X31505901Y-44967347D01*
X31561999Y-44983819D01*
X31693216Y-45059577D01*
X31845943Y-45100500D01*
X31845945Y-45100500D01*
X32004055Y-45100500D01*
X32004057Y-45100500D01*
X32156784Y-45059577D01*
X32293716Y-44980520D01*
X32405520Y-44868716D01*
X32484577Y-44731784D01*
X32525500Y-44579057D01*
X32525500Y-44420943D01*
X32484577Y-44268216D01*
X32420981Y-44158063D01*
X32401457Y-44124245D01*
X32402601Y-44123584D01*
X32380439Y-44066275D01*
X32394470Y-43997829D01*
X32416324Y-43968267D01*
X32979579Y-43405013D01*
X32979579Y-43405012D01*
X33315609Y-43068979D01*
X33315614Y-43068976D01*
X33333053Y-43051537D01*
X33333054Y-43051537D01*
X33605792Y-42778796D01*
X33605793Y-42778796D01*
X33615819Y-42768770D01*
X33616004Y-42768584D01*
X33616006Y-42768584D01*
X33619561Y-42765028D01*
X33619631Y-42764990D01*
X33659884Y-42724736D01*
X33698405Y-42686213D01*
X33724794Y-42659823D01*
X33724799Y-42659816D01*
X33771896Y-42594988D01*
X33837943Y-42504077D01*
X33925334Y-42332553D01*
X33984817Y-42149469D01*
X34014928Y-41959335D01*
X34014925Y-41766831D01*
X34001907Y-41684644D01*
X33984810Y-41576703D01*
X33984809Y-41576701D01*
X33984809Y-41576698D01*
X33925321Y-41393616D01*
X33837925Y-41222094D01*
X33756282Y-41109721D01*
X33746406Y-41096127D01*
X33734947Y-41064014D01*
X33723040Y-41032088D01*
X33723235Y-41031188D01*
X33722926Y-41030321D01*
X33730646Y-40997121D01*
X33737892Y-40963815D01*
X33738617Y-40962846D01*
X33738752Y-40962267D01*
X33759043Y-40935561D01*
X33840763Y-40853841D01*
X33902086Y-40820356D01*
X33971778Y-40825340D01*
X34001324Y-40841200D01*
X34127295Y-40932724D01*
X34188314Y-40963815D01*
X34298813Y-41020118D01*
X34298815Y-41020118D01*
X34298818Y-41020120D01*
X34396954Y-41052006D01*
X34481899Y-41079607D01*
X34672029Y-41109721D01*
X34672034Y-41109721D01*
X34864544Y-41109721D01*
X34956716Y-41095121D01*
X35054673Y-41079607D01*
X35237756Y-41020120D01*
X35409278Y-40932725D01*
X35565017Y-40819574D01*
X35585582Y-40799007D01*
X35585586Y-40799005D01*
X35595793Y-40788797D01*
X35595795Y-40788797D01*
X35983222Y-40401368D01*
X36044543Y-40367885D01*
X36102989Y-40369275D01*
X36221464Y-40401021D01*
X36221467Y-40401021D01*
X36379576Y-40401021D01*
X36379578Y-40401021D01*
X36532305Y-40360098D01*
X36669237Y-40281041D01*
X36781041Y-40169237D01*
X36860098Y-40032305D01*
X36901021Y-39879578D01*
X36901021Y-39721464D01*
X36860098Y-39568737D01*
X36830100Y-39516778D01*
X36781045Y-39431811D01*
X36781039Y-39431803D01*
X36669238Y-39320002D01*
X36669230Y-39319996D01*
X36532311Y-39240947D01*
X36532306Y-39240944D01*
X36470150Y-39224289D01*
X36385949Y-39201728D01*
X36326291Y-39165364D01*
X36298271Y-39114049D01*
X36259056Y-38967695D01*
X36215611Y-38892445D01*
X36180003Y-38830769D01*
X36179997Y-38830761D01*
X36068196Y-38718960D01*
X36068188Y-38718954D01*
X35931269Y-38639905D01*
X35931265Y-38639903D01*
X35931263Y-38639902D01*
X35778536Y-38598979D01*
X35620422Y-38598979D01*
X35467695Y-38639902D01*
X35467688Y-38639905D01*
X35330769Y-38718954D01*
X35330761Y-38718960D01*
X35218960Y-38830761D01*
X35218954Y-38830769D01*
X35139905Y-38967688D01*
X35139902Y-38967695D01*
X35098979Y-39120422D01*
X35098979Y-39278536D01*
X35110090Y-39320002D01*
X35130722Y-39397004D01*
X35129059Y-39466854D01*
X35098628Y-39516778D01*
X34850816Y-39764590D01*
X34789493Y-39798075D01*
X34719801Y-39793091D01*
X34690249Y-39777227D01*
X34564286Y-39685709D01*
X34392763Y-39598314D01*
X34392760Y-39598312D01*
X34209681Y-39538827D01*
X34019551Y-39508713D01*
X34019546Y-39508713D01*
X33827041Y-39508713D01*
X33827036Y-39508713D01*
X33636910Y-39538826D01*
X33453821Y-39598316D01*
X33282300Y-39685710D01*
X33126556Y-39798865D01*
X33075943Y-39849480D01*
X33025691Y-39899732D01*
X32787688Y-40137734D01*
X32787685Y-40137737D01*
X32772124Y-40153297D01*
X32729612Y-40195809D01*
X32729489Y-40195948D01*
X32704081Y-40221355D01*
X32704076Y-40221361D01*
X32590927Y-40377090D01*
X32590922Y-40377097D01*
X32503522Y-40548622D01*
X32444033Y-40731707D01*
X32413917Y-40921839D01*
X32413916Y-41114348D01*
X32444028Y-41304476D01*
X32444029Y-41304481D01*
X32503514Y-41487558D01*
X32503516Y-41487561D01*
X32590911Y-41659084D01*
X32669195Y-41766832D01*
X32682429Y-41785046D01*
X32705909Y-41850852D01*
X32690084Y-41918906D01*
X32669793Y-41945612D01*
X32491213Y-42124197D01*
X32491212Y-42124198D01*
X32020420Y-42594988D01*
X30954521Y-43660886D01*
X30954519Y-43660889D01*
X30901792Y-43752214D01*
X30876318Y-43847285D01*
X30876317Y-43847289D01*
X30876316Y-43847288D01*
X30874498Y-43854073D01*
X30873438Y-43862133D01*
X30871246Y-43861844D01*
X30854814Y-43917808D01*
X30812499Y-43958156D01*
X30706287Y-44019477D01*
X30706282Y-44019481D01*
X30594481Y-44131282D01*
X30594475Y-44131290D01*
X30515426Y-44268209D01*
X30515423Y-44268216D01*
X30474500Y-44420943D01*
X16400500Y-44420943D01*
X16400500Y-31255131D01*
X25849500Y-31255131D01*
X25849500Y-33044856D01*
X25849502Y-33044882D01*
X25852413Y-33069987D01*
X25852415Y-33069991D01*
X25897793Y-33172764D01*
X25897794Y-33172765D01*
X25977235Y-33252206D01*
X26080009Y-33297585D01*
X26105135Y-33300500D01*
X26842873Y-33300499D01*
X26909910Y-33320183D01*
X26955665Y-33372987D01*
X26965609Y-33442146D01*
X26936584Y-33505702D01*
X26877806Y-33543476D01*
X26862270Y-33546972D01*
X26730589Y-33567829D01*
X26558363Y-33623787D01*
X26558360Y-33623788D01*
X26397002Y-33706006D01*
X26250505Y-33812441D01*
X26250500Y-33812445D01*
X26122445Y-33940500D01*
X26122441Y-33940505D01*
X26016006Y-34087002D01*
X25933788Y-34248360D01*
X25933787Y-34248363D01*
X25877829Y-34420589D01*
X25849500Y-34599448D01*
X25849500Y-34780551D01*
X25877829Y-34959410D01*
X25933787Y-35131636D01*
X25933788Y-35131639D01*
X25989664Y-35241300D01*
X26003375Y-35268209D01*
X26016006Y-35292997D01*
X26122441Y-35439494D01*
X26122445Y-35439499D01*
X26250500Y-35567554D01*
X26250505Y-35567558D01*
X26378287Y-35660396D01*
X26397006Y-35673996D01*
X26502484Y-35727740D01*
X26558360Y-35756211D01*
X26558363Y-35756212D01*
X26644476Y-35784191D01*
X26730591Y-35812171D01*
X26803639Y-35823740D01*
X26890678Y-35837527D01*
X26953813Y-35867456D01*
X26990744Y-35926768D01*
X26989746Y-35996631D01*
X26951136Y-36054863D01*
X26890678Y-36082473D01*
X26730589Y-36107829D01*
X26558363Y-36163787D01*
X26558360Y-36163788D01*
X26397002Y-36246006D01*
X26250505Y-36352441D01*
X26250500Y-36352445D01*
X26122445Y-36480500D01*
X26122441Y-36480505D01*
X26016006Y-36627002D01*
X25933788Y-36788360D01*
X25933787Y-36788363D01*
X25877829Y-36960589D01*
X25849500Y-37139448D01*
X25849500Y-37320551D01*
X25877829Y-37499410D01*
X25933787Y-37671636D01*
X25933788Y-37671639D01*
X26016006Y-37832997D01*
X26122441Y-37979494D01*
X26122445Y-37979499D01*
X26250500Y-38107554D01*
X26250505Y-38107558D01*
X26378287Y-38200396D01*
X26397006Y-38213996D01*
X26502484Y-38267740D01*
X26558360Y-38296211D01*
X26558363Y-38296212D01*
X26644476Y-38324191D01*
X26730591Y-38352171D01*
X26803639Y-38363740D01*
X26890678Y-38377527D01*
X26953813Y-38407456D01*
X26990744Y-38466768D01*
X26989746Y-38536631D01*
X26951136Y-38594863D01*
X26890678Y-38622473D01*
X26730589Y-38647829D01*
X26558363Y-38703787D01*
X26558360Y-38703788D01*
X26397002Y-38786006D01*
X26250505Y-38892441D01*
X26250500Y-38892445D01*
X26122445Y-39020500D01*
X26122441Y-39020505D01*
X26016006Y-39167002D01*
X25933788Y-39328360D01*
X25933787Y-39328363D01*
X25877829Y-39500589D01*
X25849500Y-39679448D01*
X25849500Y-39860551D01*
X25877829Y-40039410D01*
X25933787Y-40211636D01*
X25933788Y-40211639D01*
X26016006Y-40372997D01*
X26122441Y-40519494D01*
X26122445Y-40519499D01*
X26250500Y-40647554D01*
X26250505Y-40647558D01*
X26366328Y-40731707D01*
X26397006Y-40753996D01*
X26502484Y-40807740D01*
X26558360Y-40836211D01*
X26558363Y-40836212D01*
X26612621Y-40853841D01*
X26730591Y-40892171D01*
X26813429Y-40905291D01*
X26909449Y-40920500D01*
X26909454Y-40920500D01*
X27090551Y-40920500D01*
X27177259Y-40906765D01*
X27269409Y-40892171D01*
X27441639Y-40836211D01*
X27602994Y-40753996D01*
X27749501Y-40647553D01*
X27877553Y-40519501D01*
X27983996Y-40372994D01*
X28066211Y-40211639D01*
X28122171Y-40039409D01*
X28147486Y-39879577D01*
X28150500Y-39860551D01*
X28150500Y-39679448D01*
X28128227Y-39538827D01*
X28122171Y-39500591D01*
X28066211Y-39328361D01*
X28066211Y-39328360D01*
X28021671Y-39240947D01*
X27983996Y-39167006D01*
X27916169Y-39073649D01*
X27877558Y-39020505D01*
X27877554Y-39020500D01*
X27749499Y-38892445D01*
X27749494Y-38892441D01*
X27602997Y-38786006D01*
X27602996Y-38786005D01*
X27602994Y-38786004D01*
X27551300Y-38759664D01*
X27441639Y-38703788D01*
X27441636Y-38703787D01*
X27269410Y-38647829D01*
X27109321Y-38622473D01*
X27046186Y-38592544D01*
X27009255Y-38533232D01*
X27010253Y-38463370D01*
X27048863Y-38405137D01*
X27109321Y-38377527D01*
X27179425Y-38366422D01*
X27269409Y-38352171D01*
X27441639Y-38296211D01*
X27602994Y-38213996D01*
X27749501Y-38107553D01*
X27877553Y-37979501D01*
X27983996Y-37832994D01*
X28066211Y-37671639D01*
X28122171Y-37499409D01*
X28136765Y-37407259D01*
X28150500Y-37320551D01*
X28150500Y-37139448D01*
X28134019Y-37035397D01*
X28122171Y-36960591D01*
X28066211Y-36788361D01*
X28066211Y-36788360D01*
X28037740Y-36732484D01*
X27983996Y-36627006D01*
X27970396Y-36608287D01*
X27877558Y-36480505D01*
X27877554Y-36480500D01*
X27749499Y-36352445D01*
X27749494Y-36352441D01*
X27602997Y-36246006D01*
X27602996Y-36246005D01*
X27602994Y-36246004D01*
X27551300Y-36219664D01*
X27441639Y-36163788D01*
X27441636Y-36163787D01*
X27269410Y-36107829D01*
X27109321Y-36082473D01*
X27046186Y-36052544D01*
X27009255Y-35993232D01*
X27010253Y-35923370D01*
X27048863Y-35865137D01*
X27109321Y-35837527D01*
X27179425Y-35826422D01*
X27269409Y-35812171D01*
X27441639Y-35756211D01*
X27602994Y-35673996D01*
X27749501Y-35567553D01*
X27877553Y-35439501D01*
X27983996Y-35292994D01*
X28066211Y-35131639D01*
X28122171Y-34959409D01*
X28142385Y-34831783D01*
X28150500Y-34780551D01*
X28150500Y-34599448D01*
X28134019Y-34495397D01*
X28122171Y-34420591D01*
X28066211Y-34248361D01*
X28066211Y-34248360D01*
X28037740Y-34192484D01*
X27983996Y-34087006D01*
X27966686Y-34063181D01*
X27877558Y-33940505D01*
X27877554Y-33940500D01*
X27749499Y-33812445D01*
X27749494Y-33812441D01*
X27602997Y-33706006D01*
X27602996Y-33706005D01*
X27602994Y-33706004D01*
X27542497Y-33675179D01*
X27441639Y-33623788D01*
X27441636Y-33623787D01*
X27269410Y-33567829D01*
X27137728Y-33546972D01*
X27074594Y-33517042D01*
X27037663Y-33457731D01*
X27038661Y-33387868D01*
X27077271Y-33329636D01*
X27141235Y-33301522D01*
X27157120Y-33300499D01*
X27894864Y-33300499D01*
X27894879Y-33300497D01*
X27894882Y-33300497D01*
X27919987Y-33297586D01*
X27919988Y-33297585D01*
X27919991Y-33297585D01*
X28022765Y-33252206D01*
X28102206Y-33172765D01*
X28147585Y-33069991D01*
X28150500Y-33044865D01*
X28150499Y-31255136D01*
X28150497Y-31255117D01*
X28147586Y-31230012D01*
X28147585Y-31230010D01*
X28147585Y-31230009D01*
X28102206Y-31127235D01*
X28022765Y-31047794D01*
X28022763Y-31047793D01*
X27919992Y-31002415D01*
X27894865Y-30999500D01*
X26105143Y-30999500D01*
X26105117Y-30999502D01*
X26080012Y-31002413D01*
X26080008Y-31002415D01*
X25977235Y-31047793D01*
X25897794Y-31127234D01*
X25852415Y-31230006D01*
X25852415Y-31230008D01*
X25849500Y-31255131D01*
X16400500Y-31255131D01*
X16400500Y-27027333D01*
X16420185Y-26960294D01*
X16472989Y-26914539D01*
X16542147Y-26904595D01*
X16605703Y-26933620D01*
X16631887Y-26965333D01*
X16749751Y-27169479D01*
X16749753Y-27169482D01*
X16749754Y-27169483D01*
X16917370Y-27387926D01*
X16917376Y-27387933D01*
X17112066Y-27582623D01*
X17112073Y-27582629D01*
X17175479Y-27631282D01*
X17330521Y-27750249D01*
X17483778Y-27838732D01*
X17568971Y-27887919D01*
X17568976Y-27887921D01*
X17568979Y-27887923D01*
X17823368Y-27993295D01*
X18089334Y-28064560D01*
X18362326Y-28100500D01*
X18362333Y-28100500D01*
X18637667Y-28100500D01*
X18637674Y-28100500D01*
X18910666Y-28064560D01*
X19176632Y-27993295D01*
X19431021Y-27887923D01*
X19669479Y-27750249D01*
X19887928Y-27582628D01*
X20082628Y-27387928D01*
X20250249Y-27169479D01*
X20387923Y-26931021D01*
X20493295Y-26676632D01*
X20564560Y-26410666D01*
X20600500Y-26137674D01*
X20600500Y-25862326D01*
X20564560Y-25589334D01*
X20493295Y-25323368D01*
X20387923Y-25068979D01*
X20387921Y-25068976D01*
X20387919Y-25068971D01*
X20338732Y-24983778D01*
X20250249Y-24830521D01*
X20082628Y-24612072D01*
X20082623Y-24612066D01*
X19887933Y-24417376D01*
X19887926Y-24417370D01*
X19669483Y-24249754D01*
X19669482Y-24249753D01*
X19669479Y-24249751D01*
X19530013Y-24169230D01*
X19431028Y-24112080D01*
X19431017Y-24112075D01*
X19176630Y-24006704D01*
X19043649Y-23971072D01*
X18910666Y-23935440D01*
X18910660Y-23935439D01*
X18910655Y-23935438D01*
X18637684Y-23899501D01*
X18637679Y-23899500D01*
X18637674Y-23899500D01*
X18362326Y-23899500D01*
X18362320Y-23899500D01*
X18362315Y-23899501D01*
X18089344Y-23935438D01*
X18089337Y-23935439D01*
X18089334Y-23935440D01*
X18033125Y-23950500D01*
X17823369Y-24006704D01*
X17568982Y-24112075D01*
X17568971Y-24112080D01*
X17330516Y-24249754D01*
X17112073Y-24417370D01*
X17112066Y-24417376D01*
X16917376Y-24612066D01*
X16917370Y-24612073D01*
X16749756Y-24830513D01*
X16631887Y-25034667D01*
X16581320Y-25082882D01*
X16512712Y-25096104D01*
X16447848Y-25070136D01*
X16407320Y-25013222D01*
X16400500Y-24972666D01*
X16400500Y-23120422D01*
X31598979Y-23120422D01*
X31598979Y-23278536D01*
X31610090Y-23320001D01*
X31639902Y-23431262D01*
X31639905Y-23431269D01*
X31718954Y-23568188D01*
X31718960Y-23568196D01*
X31762660Y-23611896D01*
X31796145Y-23673219D01*
X31798979Y-23699577D01*
X31798979Y-32388599D01*
X31826272Y-32490462D01*
X31852635Y-32536123D01*
X31878999Y-32581786D01*
X31879001Y-32581788D01*
X38283181Y-38985968D01*
X38316666Y-39047291D01*
X38319500Y-39073649D01*
X38319500Y-42127973D01*
X38299815Y-42195012D01*
X38283181Y-42215654D01*
X37774449Y-42724385D01*
X37713126Y-42757870D01*
X37654675Y-42756479D01*
X37572210Y-42734383D01*
X37536206Y-42724736D01*
X37378092Y-42724736D01*
X37225365Y-42765659D01*
X37225358Y-42765662D01*
X37088439Y-42844711D01*
X37088431Y-42844717D01*
X36976630Y-42956518D01*
X36976624Y-42956526D01*
X36897575Y-43093445D01*
X36897572Y-43093452D01*
X36856649Y-43246179D01*
X36856649Y-43404292D01*
X36897572Y-43557019D01*
X36897575Y-43557026D01*
X36976624Y-43693945D01*
X36976628Y-43693950D01*
X36976629Y-43693952D01*
X37088433Y-43805756D01*
X37088435Y-43805757D01*
X37088439Y-43805760D01*
X37225358Y-43884809D01*
X37225365Y-43884813D01*
X37371719Y-43924028D01*
X37431378Y-43960392D01*
X37459398Y-44011706D01*
X37474020Y-44066275D01*
X37498614Y-44158063D01*
X37498617Y-44158068D01*
X37577666Y-44294987D01*
X37577670Y-44294992D01*
X37577671Y-44294994D01*
X37689475Y-44406798D01*
X37689477Y-44406799D01*
X37689481Y-44406802D01*
X37826400Y-44485851D01*
X37826407Y-44485855D01*
X37979134Y-44526778D01*
X37979136Y-44526778D01*
X38137246Y-44526778D01*
X38137248Y-44526778D01*
X38289975Y-44485855D01*
X38426907Y-44406798D01*
X38538711Y-44294994D01*
X38617768Y-44158062D01*
X38658691Y-44005335D01*
X38658691Y-43847221D01*
X38626946Y-43728747D01*
X38628609Y-43658901D01*
X38659038Y-43608978D01*
X39415911Y-42852106D01*
X39415914Y-42852105D01*
X39490481Y-42777538D01*
X39524604Y-42718435D01*
X39543208Y-42686213D01*
X39570501Y-42584352D01*
X39570501Y-42478898D01*
X39570501Y-38617274D01*
X39543208Y-38515414D01*
X39543208Y-38515413D01*
X39490481Y-38424088D01*
X33086299Y-32019906D01*
X33052814Y-31958583D01*
X33049980Y-31932225D01*
X33049980Y-28765634D01*
X33069665Y-28698595D01*
X33120194Y-28653906D01*
X33136665Y-28645978D01*
X33238545Y-28564756D01*
X33319795Y-28462898D01*
X33376340Y-28345514D01*
X33405344Y-28218489D01*
X33405345Y-28206058D01*
X33405350Y-28206040D01*
X33405350Y-28153284D01*
X33405354Y-28095759D01*
X33405353Y-28095757D01*
X33405354Y-28087160D01*
X33405350Y-28087088D01*
X33405350Y-27975111D01*
X33405352Y-27966237D01*
X33405355Y-27966228D01*
X33405354Y-27960016D01*
X33405406Y-27959837D01*
X33405401Y-27908645D01*
X33405402Y-27908645D01*
X33405396Y-27843493D01*
X33388204Y-27768209D01*
X33376387Y-27716462D01*
X33376386Y-27716459D01*
X33319835Y-27599066D01*
X33238578Y-27497202D01*
X33238572Y-27497196D01*
X33136688Y-27415973D01*
X33120194Y-27408033D01*
X33068328Y-27361218D01*
X33049980Y-27296305D01*
X33049980Y-24421485D01*
X33069665Y-24354446D01*
X33111981Y-24314097D01*
X33169237Y-24281041D01*
X33281041Y-24169237D01*
X33360098Y-24032305D01*
X33401021Y-23879578D01*
X33401021Y-23721464D01*
X33360098Y-23568737D01*
X33309169Y-23480524D01*
X33281045Y-23431811D01*
X33281039Y-23431803D01*
X33169238Y-23320002D01*
X33169230Y-23319996D01*
X33032311Y-23240947D01*
X33032306Y-23240944D01*
X32970150Y-23224289D01*
X32885949Y-23201728D01*
X32826291Y-23165364D01*
X32798271Y-23114049D01*
X32759056Y-22967695D01*
X32732064Y-22920943D01*
X32680003Y-22830769D01*
X32679997Y-22830761D01*
X32568196Y-22718960D01*
X32568188Y-22718954D01*
X32431269Y-22639905D01*
X32431265Y-22639903D01*
X32431263Y-22639902D01*
X32278536Y-22598979D01*
X32120422Y-22598979D01*
X31967695Y-22639902D01*
X31967688Y-22639905D01*
X31830769Y-22718954D01*
X31830761Y-22718960D01*
X31718960Y-22830761D01*
X31718954Y-22830769D01*
X31639905Y-22967688D01*
X31639902Y-22967695D01*
X31598979Y-23120422D01*
X16400500Y-23120422D01*
X16400500Y-21170943D01*
X30149500Y-21170943D01*
X30149500Y-21329056D01*
X30190423Y-21481783D01*
X30190426Y-21481790D01*
X30269475Y-21618709D01*
X30269479Y-21618714D01*
X30269480Y-21618716D01*
X30381284Y-21730520D01*
X30381286Y-21730521D01*
X30381290Y-21730524D01*
X30518209Y-21809573D01*
X30518216Y-21809577D01*
X30670943Y-21850500D01*
X30670945Y-21850500D01*
X30829055Y-21850500D01*
X30829057Y-21850500D01*
X30981784Y-21809577D01*
X31118716Y-21730520D01*
X31230520Y-21618716D01*
X31309577Y-21481784D01*
X31350500Y-21329057D01*
X31350500Y-21267255D01*
X31370185Y-21200216D01*
X31386819Y-21179574D01*
X32145450Y-20420943D01*
X38049500Y-20420943D01*
X38049500Y-20579057D01*
X38079341Y-20690423D01*
X38090423Y-20731783D01*
X38090426Y-20731790D01*
X38169475Y-20868709D01*
X38169481Y-20868717D01*
X38264702Y-20963938D01*
X38298187Y-21025261D01*
X38301021Y-21051619D01*
X38301021Y-28754247D01*
X38328314Y-28856110D01*
X38354677Y-28901771D01*
X38381041Y-28947434D01*
X38381043Y-28947436D01*
X39985468Y-30551861D01*
X40018953Y-30613184D01*
X40013969Y-30682876D01*
X39972097Y-30738809D01*
X39906633Y-30763226D01*
X39865694Y-30759317D01*
X39829057Y-30749500D01*
X39670943Y-30749500D01*
X39518216Y-30790423D01*
X39518209Y-30790426D01*
X39381290Y-30869475D01*
X39381282Y-30869481D01*
X39269481Y-30981282D01*
X39269475Y-30981290D01*
X39190426Y-31118209D01*
X39190423Y-31118216D01*
X39149500Y-31270943D01*
X39149500Y-31429056D01*
X39190423Y-31581783D01*
X39190426Y-31581790D01*
X39273543Y-31725755D01*
X39271531Y-31726916D01*
X39292420Y-31780950D01*
X39291958Y-31806108D01*
X38912849Y-34950502D01*
X38885282Y-35014703D01*
X38877423Y-35023339D01*
X38769481Y-35131282D01*
X38769475Y-35131290D01*
X38690426Y-35268209D01*
X38690423Y-35268216D01*
X38649500Y-35420943D01*
X38649500Y-35579056D01*
X38690423Y-35731783D01*
X38690426Y-35731790D01*
X38769475Y-35868709D01*
X38769479Y-35868714D01*
X38769480Y-35868716D01*
X38881284Y-35980520D01*
X38881286Y-35980521D01*
X38881290Y-35980524D01*
X38909189Y-35996631D01*
X39018216Y-36059577D01*
X39170943Y-36100500D01*
X39170945Y-36100500D01*
X39329055Y-36100500D01*
X39329057Y-36100500D01*
X39481784Y-36059577D01*
X39618716Y-35980520D01*
X39730520Y-35868716D01*
X39809577Y-35731784D01*
X39850500Y-35579057D01*
X39850500Y-35420943D01*
X39809577Y-35268216D01*
X39809573Y-35268209D01*
X39726457Y-35124245D01*
X39728591Y-35123012D01*
X39707882Y-35069457D01*
X39708342Y-35044290D01*
X40087549Y-31899096D01*
X40115115Y-31834898D01*
X40122975Y-31826261D01*
X40168286Y-31780950D01*
X40230520Y-31718716D01*
X40309577Y-31581784D01*
X40350500Y-31429057D01*
X40350500Y-31270943D01*
X40340683Y-31234305D01*
X40342345Y-31164457D01*
X40381506Y-31106594D01*
X40445735Y-31079089D01*
X40514637Y-31090675D01*
X40548138Y-31114531D01*
X40563181Y-31129574D01*
X40596666Y-31190897D01*
X40599500Y-31217255D01*
X40599500Y-44499902D01*
X40579815Y-44566941D01*
X40563181Y-44587583D01*
X40519481Y-44631282D01*
X40519475Y-44631290D01*
X40440426Y-44768209D01*
X40440423Y-44768216D01*
X40399500Y-44920943D01*
X40399500Y-45079057D01*
X40405246Y-45100499D01*
X40440423Y-45231783D01*
X40440426Y-45231790D01*
X40519475Y-45368709D01*
X40519479Y-45368714D01*
X40519480Y-45368716D01*
X40631284Y-45480520D01*
X40631286Y-45480521D01*
X40631290Y-45480524D01*
X40768209Y-45559573D01*
X40768216Y-45559577D01*
X40920943Y-45600500D01*
X40920945Y-45600500D01*
X41079055Y-45600500D01*
X41079057Y-45600500D01*
X41231784Y-45559577D01*
X41368716Y-45480520D01*
X41480520Y-45368716D01*
X41559577Y-45231784D01*
X41600500Y-45079057D01*
X41600500Y-44920943D01*
X41559577Y-44768216D01*
X41538543Y-44731783D01*
X41480524Y-44631290D01*
X41480518Y-44631282D01*
X41436819Y-44587583D01*
X41403334Y-44526260D01*
X41400500Y-44499902D01*
X41400500Y-36182936D01*
X41420185Y-36115897D01*
X41472989Y-36070142D01*
X41542147Y-36060198D01*
X41556587Y-36063159D01*
X41695943Y-36100500D01*
X41695945Y-36100500D01*
X41854055Y-36100500D01*
X41854057Y-36100500D01*
X42006784Y-36059577D01*
X42143716Y-35980520D01*
X42187417Y-35936819D01*
X42248740Y-35903334D01*
X42275098Y-35900500D01*
X44052725Y-35900500D01*
X44052727Y-35900500D01*
X44154588Y-35873207D01*
X44245913Y-35820480D01*
X46412319Y-33654072D01*
X46420264Y-33649734D01*
X46425690Y-33642487D01*
X46450449Y-33633252D01*
X46473642Y-33620588D01*
X46482671Y-33621233D01*
X46491154Y-33618070D01*
X46516974Y-33623686D01*
X46543334Y-33625572D01*
X46552387Y-33631390D01*
X46559427Y-33632922D01*
X46587681Y-33654073D01*
X46675179Y-33741571D01*
X46675200Y-33741594D01*
X47175179Y-34241571D01*
X47175200Y-34241594D01*
X47671157Y-34737550D01*
X47671162Y-34737554D01*
X47679518Y-34745910D01*
X47679520Y-34745913D01*
X47754087Y-34820480D01*
X47799750Y-34846843D01*
X47808912Y-34852133D01*
X47808916Y-34852136D01*
X47836256Y-34867921D01*
X47845412Y-34873207D01*
X47947273Y-34900500D01*
X48052727Y-34900500D01*
X49499902Y-34900500D01*
X49566941Y-34920185D01*
X49587583Y-34936819D01*
X49631284Y-34980520D01*
X49631286Y-34980521D01*
X49631290Y-34980524D01*
X49741729Y-35044285D01*
X49768216Y-35059577D01*
X49920943Y-35100500D01*
X49920945Y-35100500D01*
X50079055Y-35100500D01*
X50079057Y-35100500D01*
X50231784Y-35059577D01*
X50368716Y-34980520D01*
X50480520Y-34868716D01*
X50559577Y-34731784D01*
X50600500Y-34579057D01*
X50600500Y-34420943D01*
X50559577Y-34268216D01*
X50548113Y-34248360D01*
X50480524Y-34131290D01*
X50480518Y-34131282D01*
X50368717Y-34019481D01*
X50368709Y-34019475D01*
X50231790Y-33940426D01*
X50231786Y-33940424D01*
X50231784Y-33940423D01*
X50079057Y-33899500D01*
X49920943Y-33899500D01*
X49768216Y-33940423D01*
X49768209Y-33940426D01*
X49631290Y-34019475D01*
X49631282Y-34019481D01*
X49587583Y-34063181D01*
X49526260Y-34096666D01*
X49499902Y-34099500D01*
X48217254Y-34099500D01*
X48150215Y-34079815D01*
X48129573Y-34063181D01*
X47741594Y-33675200D01*
X47741571Y-33675179D01*
X47241594Y-33175200D01*
X47241571Y-33175179D01*
X46936819Y-32870426D01*
X46903334Y-32809103D01*
X46900500Y-32782745D01*
X46900500Y-29062729D01*
X46900501Y-29062716D01*
X46900501Y-28947274D01*
X46876073Y-28856110D01*
X46873207Y-28845413D01*
X46850475Y-28806040D01*
X46820480Y-28754087D01*
X46745913Y-28679520D01*
X46745910Y-28679518D01*
X46529286Y-28462894D01*
X46136819Y-28070426D01*
X46103334Y-28009103D01*
X46100500Y-27982745D01*
X46100500Y-27920945D01*
X46100500Y-27920943D01*
X46059577Y-27768216D01*
X46029697Y-27716462D01*
X45980524Y-27631290D01*
X45980518Y-27631282D01*
X45868717Y-27519481D01*
X45868709Y-27519475D01*
X45731790Y-27440426D01*
X45731786Y-27440424D01*
X45731784Y-27440423D01*
X45579057Y-27399500D01*
X45420943Y-27399500D01*
X45268216Y-27440423D01*
X45268209Y-27440426D01*
X45131290Y-27519475D01*
X45131282Y-27519481D01*
X45019481Y-27631282D01*
X45019475Y-27631290D01*
X44940426Y-27768209D01*
X44940423Y-27768216D01*
X44899500Y-27920943D01*
X44899500Y-28079057D01*
X44936861Y-28218488D01*
X44940423Y-28231783D01*
X44940426Y-28231790D01*
X45019475Y-28368709D01*
X45019479Y-28368714D01*
X45019480Y-28368716D01*
X45131284Y-28480520D01*
X45131286Y-28480521D01*
X45131290Y-28480524D01*
X45268209Y-28559573D01*
X45268216Y-28559577D01*
X45420943Y-28600500D01*
X45482745Y-28600500D01*
X45549784Y-28620185D01*
X45570426Y-28636819D01*
X46063181Y-29129573D01*
X46096666Y-29190896D01*
X46099500Y-29217254D01*
X46099500Y-32782745D01*
X46079815Y-32849784D01*
X46063181Y-32870426D01*
X43870426Y-35063181D01*
X43809103Y-35096666D01*
X43782745Y-35099500D01*
X42275098Y-35099500D01*
X42208059Y-35079815D01*
X42187417Y-35063181D01*
X42143717Y-35019481D01*
X42143709Y-35019475D01*
X42006790Y-34940426D01*
X42006786Y-34940424D01*
X42006784Y-34940423D01*
X41854057Y-34899500D01*
X41695943Y-34899500D01*
X41556593Y-34936838D01*
X41486743Y-34935175D01*
X41428881Y-34896012D01*
X41401377Y-34831783D01*
X41400500Y-34817063D01*
X41400500Y-30947274D01*
X41400499Y-30947270D01*
X41395926Y-30930202D01*
X41379656Y-30869481D01*
X41373207Y-30845412D01*
X41320480Y-30754087D01*
X39138340Y-28571947D01*
X39104855Y-28510624D01*
X39102021Y-28484266D01*
X39102021Y-20947948D01*
X39121706Y-20880909D01*
X39127649Y-20872456D01*
X39130512Y-20868723D01*
X39130520Y-20868716D01*
X39209577Y-20731784D01*
X39250500Y-20579057D01*
X39250500Y-20420943D01*
X39209577Y-20268216D01*
X39209573Y-20268209D01*
X39130524Y-20131290D01*
X39130518Y-20131282D01*
X39018717Y-20019481D01*
X39018709Y-20019475D01*
X38881790Y-19940426D01*
X38881786Y-19940424D01*
X38881784Y-19940423D01*
X38729057Y-19899500D01*
X38570943Y-19899500D01*
X38418216Y-19940423D01*
X38418209Y-19940426D01*
X38281290Y-20019475D01*
X38281282Y-20019481D01*
X38169481Y-20131282D01*
X38169475Y-20131290D01*
X38090426Y-20268209D01*
X38090423Y-20268216D01*
X38049500Y-20420943D01*
X32145450Y-20420943D01*
X34129574Y-18436819D01*
X34190897Y-18403334D01*
X34217255Y-18400500D01*
X42282745Y-18400500D01*
X42349784Y-18420185D01*
X42370426Y-18436819D01*
X46863181Y-22929574D01*
X46896666Y-22990897D01*
X46899500Y-23017255D01*
X46899500Y-23079056D01*
X46940423Y-23231783D01*
X46940426Y-23231790D01*
X47019475Y-23368709D01*
X47019479Y-23368714D01*
X47019480Y-23368716D01*
X47131284Y-23480520D01*
X47131286Y-23480521D01*
X47131290Y-23480524D01*
X47268209Y-23559573D01*
X47268216Y-23559577D01*
X47420943Y-23600500D01*
X47420945Y-23600500D01*
X47579055Y-23600500D01*
X47579057Y-23600500D01*
X47731784Y-23559577D01*
X47868716Y-23480520D01*
X47980520Y-23368716D01*
X48059577Y-23231784D01*
X48100500Y-23079057D01*
X48100500Y-22920943D01*
X48059577Y-22768216D01*
X48059573Y-22768209D01*
X47980524Y-22631290D01*
X47980518Y-22631282D01*
X47868717Y-22519481D01*
X47868709Y-22519475D01*
X47731790Y-22440426D01*
X47731786Y-22440424D01*
X47731784Y-22440423D01*
X47579057Y-22399500D01*
X47579056Y-22399500D01*
X47517255Y-22399500D01*
X47450216Y-22379815D01*
X47429574Y-22363181D01*
X42745915Y-17679522D01*
X42745913Y-17679520D01*
X42700250Y-17653156D01*
X42654589Y-17626793D01*
X42603657Y-17613146D01*
X42552727Y-17599500D01*
X34052727Y-17599500D01*
X33947273Y-17599500D01*
X33845410Y-17626793D01*
X33754087Y-17679520D01*
X33754084Y-17679522D01*
X30820426Y-20613181D01*
X30759103Y-20646666D01*
X30732745Y-20649500D01*
X30670943Y-20649500D01*
X30518216Y-20690423D01*
X30518209Y-20690426D01*
X30381290Y-20769475D01*
X30381282Y-20769481D01*
X30269481Y-20881282D01*
X30269475Y-20881290D01*
X30190426Y-21018209D01*
X30190423Y-21018216D01*
X30149500Y-21170943D01*
X16400500Y-21170943D01*
X16400500Y-18688096D01*
X16400500Y-18677239D01*
X16401180Y-18674820D01*
X16400504Y-18620231D01*
X16400505Y-18619486D01*
X16400544Y-18619352D01*
X16400649Y-18613517D01*
X16412988Y-18359005D01*
X16414628Y-18344055D01*
X16457098Y-18096673D01*
X16460537Y-18082039D01*
X16532696Y-17841639D01*
X16537891Y-17827513D01*
X16638673Y-17597642D01*
X16645542Y-17584252D01*
X16773466Y-17368291D01*
X16781894Y-17355855D01*
X16935071Y-17156997D01*
X16944964Y-17145655D01*
X16958112Y-17132310D01*
X17121103Y-16966871D01*
X17132298Y-16956809D01*
X17328834Y-16800696D01*
X17341163Y-16792070D01*
X17555185Y-16660946D01*
X17568475Y-16653876D01*
X17796816Y-16549678D01*
X17810863Y-16544274D01*
X18050149Y-16468543D01*
X18064740Y-16464883D01*
X18311472Y-16418727D01*
X18326394Y-16416865D01*
X18573686Y-16401180D01*
X18580481Y-16400749D01*
X18588330Y-16400500D01*
X52311917Y-16400500D01*
X52322765Y-16400500D01*
X52325188Y-16401180D01*
G37*
%TD.AperFunction*%
%TD*%
M02*
