%TF.GenerationSoftware,KiCad,Pcbnew,9.0.6*%
%TF.CreationDate,2026-01-08T09:33:55+01:00*%
%TF.ProjectId,Adapat_24pin_22pin,41646170-6174-45f3-9234-70696e5f3232,rev?*%
%TF.SameCoordinates,Original*%
%TF.FileFunction,Copper,L1,Top*%
%TF.FilePolarity,Positive*%
%FSLAX46Y46*%
G04 Gerber Fmt 4.6, Leading zero omitted, Abs format (unit mm)*
G04 Created by KiCad (PCBNEW 9.0.6) date 2026-01-08 09:33:55*
%MOMM*%
%LPD*%
G01*
G04 APERTURE LIST*
G04 Aperture macros list*
%AMRoundRect*
0 Rectangle with rounded corners*
0 $1 Rounding radius*
0 $2 $3 $4 $5 $6 $7 $8 $9 X,Y pos of 4 corners*
0 Add a 4 corners polygon primitive as box body*
4,1,4,$2,$3,$4,$5,$6,$7,$8,$9,$2,$3,0*
0 Add four circle primitives for the rounded corners*
1,1,$1+$1,$2,$3*
1,1,$1+$1,$4,$5*
1,1,$1+$1,$6,$7*
1,1,$1+$1,$8,$9*
0 Add four rect primitives between the rounded corners*
20,1,$1+$1,$2,$3,$4,$5,0*
20,1,$1+$1,$4,$5,$6,$7,0*
20,1,$1+$1,$6,$7,$8,$9,0*
20,1,$1+$1,$8,$9,$2,$3,0*%
G04 Aperture macros list end*
%ADD10C,0.200000*%
%TA.AperFunction,SMDPad,CuDef*%
%ADD11R,0.300000X1.300000*%
%TD*%
%TA.AperFunction,SMDPad,CuDef*%
%ADD12R,1.800000X2.200000*%
%TD*%
%TA.AperFunction,SMDPad,CuDef*%
%ADD13RoundRect,0.237500X-0.237500X0.300000X-0.237500X-0.300000X0.237500X-0.300000X0.237500X0.300000X0*%
%TD*%
%TA.AperFunction,SMDPad,CuDef*%
%ADD14R,0.900000X1.000000*%
%TD*%
%TA.AperFunction,SMDPad,CuDef*%
%ADD15RoundRect,0.150000X0.850000X0.350000X-0.850000X0.350000X-0.850000X-0.350000X0.850000X-0.350000X0*%
%TD*%
%TA.AperFunction,SMDPad,CuDef*%
%ADD16RoundRect,0.237500X0.344715X-0.008839X-0.008839X0.344715X-0.344715X0.008839X0.008839X-0.344715X0*%
%TD*%
%TA.AperFunction,ComponentPad*%
%ADD17R,1.700000X1.700000*%
%TD*%
%TA.AperFunction,ComponentPad*%
%ADD18C,1.700000*%
%TD*%
%TA.AperFunction,ViaPad*%
%ADD19C,0.600000*%
%TD*%
%TA.AperFunction,ViaPad*%
%ADD20C,1.200000*%
%TD*%
%TA.AperFunction,Conductor*%
%ADD21C,0.200000*%
%TD*%
G04 APERTURE END LIST*
D10*
X40250000Y-36103069D02*
X40249960Y-36089698D01*
X40249840Y-36076318D01*
X40249641Y-36062927D01*
X40249361Y-36049524D01*
X40249001Y-36036107D01*
X40248561Y-36022675D01*
X40248040Y-36009227D01*
X40247439Y-35995762D01*
X40246757Y-35982277D01*
X40245994Y-35968772D01*
X40245149Y-35955245D01*
X40244224Y-35941694D01*
X40243216Y-35928119D01*
X40242127Y-35914517D01*
X40240955Y-35900886D01*
X40239701Y-35887226D01*
X40238363Y-35873534D01*
X40236942Y-35859810D01*
X40235437Y-35846050D01*
X40233848Y-35832254D01*
X40232174Y-35818419D01*
X40230414Y-35804544D01*
X40228569Y-35790626D01*
X40226638Y-35776665D01*
X40224619Y-35762657D01*
X40222513Y-35748601D01*
X40220318Y-35734494D01*
X40218035Y-35720335D01*
X40215662Y-35706121D01*
X40213198Y-35691850D01*
X40210643Y-35677519D01*
X40207996Y-35663126D01*
X40205256Y-35648669D01*
X40202422Y-35634144D01*
X40199493Y-35619550D01*
X40196468Y-35604883D01*
X40193346Y-35590140D01*
X40190126Y-35575318D01*
X40186806Y-35560415D01*
X40183385Y-35545427D01*
X40179863Y-35530350D01*
X40176237Y-35515181D01*
X40172506Y-35499917D01*
X40168669Y-35484553D01*
X40164723Y-35469086D01*
X40160668Y-35453511D01*
X40156502Y-35437825D01*
X40152221Y-35422021D01*
X40147826Y-35406097D01*
X40143312Y-35390045D01*
X40138679Y-35373863D01*
X40133924Y-35357542D01*
X40129043Y-35341079D01*
X40124036Y-35324466D01*
X40118898Y-35307698D01*
X40113626Y-35290766D01*
X40108219Y-35273664D01*
X40102671Y-35256384D01*
X40096979Y-35238917D01*
X40091140Y-35221254D01*
X40085150Y-35203386D01*
X40079003Y-35185303D01*
X40072695Y-35166993D01*
X40066220Y-35148445D01*
X40059574Y-35129646D01*
X40052749Y-35110581D01*
X40045740Y-35091236D01*
X40038538Y-35071594D01*
X40031136Y-35051637D01*
X40023525Y-35031345D01*
X40015695Y-35010696D01*
X40007635Y-34989665D01*
X39999334Y-34968227D01*
X39990778Y-34946349D01*
X39981952Y-34923998D01*
X39972838Y-34901135D01*
X39963417Y-34877716D01*
X39953666Y-34853689D01*
X39943558Y-34828994D01*
X39933064Y-34803562D01*
X39922145Y-34777308D01*
X39910756Y-34750132D01*
X39898844Y-34721909D01*
X39886339Y-34692483D01*
X39873151Y-34661654D01*
X39859165Y-34629154D01*
X39844217Y-34594618D01*
X39828071Y-34557510D01*
X39810361Y-34516998D01*
X39790447Y-34471633D01*
X39767007Y-34418420D01*
X39732073Y-34339303D01*
X39711665Y-34293101D01*
X39691104Y-34246504D01*
X39670405Y-34199499D01*
X39649584Y-34152070D01*
X39639132Y-34128193D01*
X39628655Y-34104204D01*
X39618155Y-34080103D01*
X39607634Y-34055888D01*
X39597093Y-34031556D01*
X39586535Y-34007106D01*
X39575962Y-33982536D01*
X39565375Y-33957845D01*
X39554777Y-33933030D01*
X39544168Y-33908091D01*
X39533552Y-33883024D01*
X39522930Y-33857829D01*
X39512304Y-33832503D01*
X39501675Y-33807046D01*
X39491046Y-33781454D01*
X39480419Y-33755727D01*
X39469795Y-33729862D01*
X39459177Y-33703859D01*
X39448566Y-33677714D01*
X39437964Y-33651427D01*
X39427373Y-33624995D01*
X39416796Y-33598417D01*
X39406233Y-33571691D01*
X39395686Y-33544815D01*
X39385159Y-33517788D01*
X39374652Y-33490608D01*
X39364168Y-33463272D01*
X39358935Y-33449546D01*
X39353708Y-33435780D01*
X39348487Y-33421975D01*
X39343274Y-33408129D01*
X39338068Y-33394244D01*
X39332868Y-33380318D01*
X39327677Y-33366352D01*
X39322493Y-33352345D01*
X39317317Y-33338298D01*
X39312149Y-33324209D01*
X39306990Y-33310078D01*
X39301840Y-33295906D01*
X39296698Y-33281692D01*
X39291566Y-33267436D01*
X39286443Y-33253138D01*
X39281329Y-33238798D01*
X39276226Y-33224414D01*
X39271133Y-33209988D01*
X39266050Y-33195519D01*
X39260977Y-33181006D01*
X39255916Y-33166449D01*
X39250865Y-33151849D01*
X39245826Y-33137205D01*
X39240799Y-33122517D01*
X39235783Y-33107784D01*
X39230779Y-33093006D01*
X39225787Y-33078183D01*
X39220808Y-33063316D01*
X39215842Y-33048403D01*
X39210889Y-33033444D01*
X39205949Y-33018440D01*
X39201022Y-33003389D01*
X39196109Y-32988293D01*
X39191210Y-32973150D01*
X39186325Y-32957960D01*
X39181455Y-32942723D01*
X39176599Y-32927440D01*
X39171758Y-32912109D01*
X39166932Y-32896730D01*
X39162121Y-32881304D01*
X39157326Y-32865829D01*
X39152547Y-32850307D01*
X39147784Y-32834736D01*
X39143037Y-32819116D01*
X39138307Y-32803448D01*
X39133593Y-32787730D01*
X39128897Y-32771963D01*
X39124218Y-32756147D01*
X39119556Y-32740280D01*
X39114912Y-32724364D01*
X39110286Y-32708398D01*
X39105678Y-32692381D01*
X39101088Y-32676314D01*
X39096517Y-32660195D01*
X39091965Y-32644026D01*
X39087433Y-32627806D01*
X39082919Y-32611533D01*
X39078425Y-32595210D01*
X39073951Y-32578834D01*
X39069497Y-32562406D01*
X39065064Y-32545926D01*
X39060651Y-32529393D01*
X39056259Y-32512807D01*
X39051888Y-32496168D01*
X39047538Y-32479476D01*
X39043209Y-32462730D01*
X39038903Y-32445931D01*
X39034618Y-32429078D01*
X39030356Y-32412171D01*
X39026116Y-32395209D01*
X39021898Y-32378193D01*
X39017704Y-32361121D01*
X39013533Y-32343995D01*
X39009385Y-32326814D01*
X39005261Y-32309577D01*
X39001161Y-32292284D01*
X38997085Y-32274936D01*
X38993033Y-32257531D01*
X38989006Y-32240071D01*
X38985003Y-32222553D01*
X38981026Y-32204979D01*
X38977074Y-32187347D01*
X38973148Y-32169659D01*
X38969247Y-32151913D01*
X38965373Y-32134109D01*
X38961524Y-32116248D01*
X38957702Y-32098328D01*
X38953907Y-32080350D01*
X38950139Y-32062314D01*
X38946398Y-32044218D01*
X38942685Y-32026064D01*
X38938999Y-32007851D01*
X38935341Y-31989578D01*
X38931711Y-31971245D01*
X38928110Y-31952853D01*
X38924537Y-31934400D01*
X38920993Y-31915888D01*
X38917478Y-31897314D01*
X38913993Y-31878680D01*
X38910537Y-31859985D01*
X38907111Y-31841229D01*
X38903715Y-31822411D01*
X38900349Y-31803532D01*
X38897014Y-31784591D01*
X38893709Y-31765588D01*
X38890436Y-31746522D01*
X38887194Y-31727395D01*
X38883983Y-31708204D01*
X38880804Y-31688950D01*
X38877657Y-31669633D01*
X38874542Y-31650253D01*
X38871459Y-31630809D01*
X38868409Y-31611302D01*
X38865392Y-31591730D01*
X38862409Y-31572094D01*
X38859458Y-31552394D01*
X38856541Y-31532629D01*
X38853658Y-31512799D01*
X38850810Y-31492904D01*
X38847995Y-31472943D01*
X38845215Y-31452917D01*
X38842470Y-31432825D01*
X38839760Y-31412667D01*
X38837085Y-31392443D01*
X38834445Y-31372152D01*
X38831842Y-31351795D01*
X38829274Y-31331370D01*
X38826742Y-31310879D01*
X38824247Y-31290320D01*
X38821789Y-31269694D01*
X38819368Y-31249000D01*
X38816983Y-31228238D01*
X38814636Y-31207408D01*
X38812327Y-31186509D01*
X38810056Y-31165541D01*
X38807823Y-31144505D01*
X38805628Y-31123400D01*
X38803472Y-31102225D01*
X38801354Y-31080981D01*
X38799276Y-31059667D01*
X38797237Y-31038282D01*
X38795237Y-31016828D01*
X38793277Y-30995304D01*
X38791358Y-30973708D01*
X38789478Y-30952042D01*
X38787639Y-30930305D01*
X38785841Y-30908496D01*
X38784083Y-30886616D01*
X38782367Y-30864664D01*
X38780693Y-30842641D01*
X38779060Y-30820545D01*
X38777468Y-30798376D01*
X38775919Y-30776135D01*
X38774413Y-30753821D01*
X38772949Y-30731434D01*
X38771528Y-30708974D01*
X38770150Y-30686440D01*
X38768815Y-30663833D01*
X38767524Y-30641152D01*
X38766277Y-30618396D01*
X38765073Y-30595566D01*
X38763914Y-30572662D01*
X38762800Y-30549682D01*
X38761730Y-30526628D01*
X38760706Y-30503498D01*
X38759726Y-30480293D01*
X38758792Y-30457012D01*
X38757904Y-30433656D01*
X38757061Y-30410223D01*
X38756265Y-30386713D01*
X38755515Y-30363127D01*
X38754812Y-30339465D01*
X38754156Y-30315725D01*
X38753547Y-30291908D01*
X38752985Y-30268014D01*
X38752471Y-30244042D01*
X38752005Y-30219992D01*
X38751587Y-30195864D01*
X38751217Y-30171657D01*
X38750895Y-30147372D01*
X38750623Y-30123008D01*
X38750399Y-30098566D01*
X38750225Y-30074044D01*
X38750100Y-30049442D01*
X38750025Y-30024761D01*
X38750000Y-30000000D01*
X38750000Y-45500000D02*
X38750010Y-45490338D01*
X38750040Y-45480715D01*
X38750090Y-45471121D01*
X38750159Y-45461568D01*
X38750248Y-45452042D01*
X38750357Y-45442556D01*
X38750485Y-45433097D01*
X38750633Y-45423677D01*
X38750801Y-45414283D01*
X38750987Y-45404928D01*
X38751193Y-45395599D01*
X38751418Y-45386307D01*
X38751663Y-45377040D01*
X38751926Y-45367811D01*
X38752209Y-45358606D01*
X38752511Y-45349438D01*
X38752831Y-45340292D01*
X38753171Y-45331184D01*
X38753529Y-45322097D01*
X38753906Y-45313048D01*
X38754302Y-45304018D01*
X38754717Y-45295026D01*
X38755602Y-45277115D01*
X38756561Y-45259314D01*
X38757595Y-45241619D01*
X38758702Y-45224027D01*
X38759883Y-45206537D01*
X38761136Y-45189144D01*
X38762463Y-45171846D01*
X38763862Y-45154640D01*
X38765335Y-45137523D01*
X38766879Y-45120492D01*
X38768496Y-45103544D01*
X38770185Y-45086676D01*
X38771947Y-45069884D01*
X38773781Y-45053166D01*
X38775687Y-45036518D01*
X38777665Y-45019937D01*
X38779717Y-45003419D01*
X38781841Y-44986960D01*
X38784038Y-44970557D01*
X38786308Y-44954207D01*
X38788652Y-44937904D01*
X38791069Y-44921646D01*
X38793562Y-44905427D01*
X38796129Y-44889244D01*
X38798772Y-44873092D01*
X38801491Y-44856966D01*
X38804287Y-44840862D01*
X38807161Y-44824774D01*
X38810114Y-44808697D01*
X38813146Y-44792625D01*
X38816260Y-44776552D01*
X38819456Y-44760472D01*
X38822735Y-44744379D01*
X38826100Y-44728264D01*
X38829552Y-44712122D01*
X38833093Y-44695942D01*
X38836725Y-44679718D01*
X38840451Y-44663439D01*
X38844272Y-44647096D01*
X38848193Y-44630677D01*
X38852216Y-44614170D01*
X38856346Y-44597563D01*
X38860585Y-44580841D01*
X38864940Y-44563988D01*
X38869415Y-44546986D01*
X38874016Y-44529816D01*
X38878750Y-44512455D01*
X38883625Y-44494877D01*
X38888650Y-44477053D01*
X38893836Y-44458949D01*
X38899196Y-44440526D01*
X38904744Y-44421736D01*
X38910500Y-44402522D01*
X38916485Y-44382816D01*
X38922728Y-44362532D01*
X38929265Y-44341557D01*
X38936143Y-44319749D01*
X38943429Y-44296909D01*
X38951215Y-44272755D01*
X38959644Y-44246855D01*
X38968956Y-44218488D01*
X38979616Y-44186252D01*
X38992811Y-44146571D01*
X39003933Y-44113200D01*
X39015048Y-44079814D01*
X39022717Y-44056708D01*
X39030367Y-44033564D01*
X39035740Y-44017235D01*
X39041097Y-44000876D01*
X39045691Y-43986780D01*
X39050270Y-43972655D01*
X39054400Y-43959851D01*
X39058515Y-43947020D01*
X39062319Y-43935093D01*
X39066108Y-43923140D01*
X39069663Y-43911861D01*
X39073203Y-43900554D01*
X39076557Y-43889777D01*
X39079897Y-43878973D01*
X39083083Y-43868598D01*
X39086255Y-43858197D01*
X39089297Y-43848153D01*
X39092325Y-43838082D01*
X39095241Y-43828315D01*
X39098143Y-43818520D01*
X39100947Y-43808988D01*
X39103737Y-43799428D01*
X39106439Y-43790097D01*
X39109128Y-43780739D01*
X39111738Y-43771581D01*
X39114335Y-43762396D01*
X39116860Y-43753389D01*
X39119371Y-43744356D01*
X39121818Y-43735481D01*
X39124250Y-43726579D01*
X39126623Y-43717820D01*
X39128982Y-43709033D01*
X39131285Y-43700376D01*
X39133575Y-43691690D01*
X39135813Y-43683122D01*
X39138037Y-43674526D01*
X39140213Y-43666036D01*
X39142375Y-43657519D01*
X39144491Y-43649098D01*
X39146594Y-43640649D01*
X39148654Y-43632288D01*
X39150700Y-43623899D01*
X39152705Y-43615592D01*
X39154697Y-43607256D01*
X39156650Y-43598993D01*
X39158588Y-43590703D01*
X39160491Y-43582480D01*
X39162379Y-43574229D01*
X39164232Y-43566041D01*
X39166071Y-43557823D01*
X39167877Y-43549663D01*
X39169668Y-43541473D01*
X39171427Y-43533337D01*
X39173172Y-43525171D01*
X39174886Y-43517053D01*
X39176585Y-43508906D01*
X39178255Y-43500803D01*
X39179910Y-43492671D01*
X39181536Y-43484579D01*
X39183148Y-43476458D01*
X39184732Y-43468373D01*
X39186301Y-43460259D01*
X39187843Y-43452178D01*
X39189370Y-43444068D01*
X39190871Y-43435988D01*
X39192357Y-43427878D01*
X39193818Y-43419795D01*
X39195264Y-43411683D01*
X39196684Y-43403595D01*
X39198090Y-43395477D01*
X39199471Y-43387381D01*
X39200837Y-43379254D01*
X39202180Y-43371148D01*
X39203507Y-43363010D01*
X39204811Y-43354891D01*
X39206099Y-43346740D01*
X39207365Y-43338604D01*
X39208615Y-43330438D01*
X39209843Y-43322285D01*
X39211055Y-43314100D01*
X39212245Y-43305927D01*
X39213419Y-43297722D01*
X39214572Y-43289526D01*
X39215709Y-43281299D01*
X39216824Y-43273079D01*
X39217924Y-43264827D01*
X39219003Y-43256581D01*
X39220065Y-43248302D01*
X39221107Y-43240028D01*
X39222132Y-43231721D01*
X39223137Y-43223416D01*
X39224126Y-43215079D01*
X39225094Y-43206743D01*
X39226046Y-43198374D01*
X39226978Y-43190004D01*
X39227894Y-43181601D01*
X39228789Y-43173195D01*
X39229668Y-43164757D01*
X39230527Y-43156314D01*
X39231369Y-43147838D01*
X39232191Y-43139357D01*
X39232997Y-43130842D01*
X39233783Y-43122321D01*
X39234551Y-43113765D01*
X39235301Y-43105202D01*
X39236033Y-43096604D01*
X39236746Y-43087997D01*
X39237442Y-43079356D01*
X39238118Y-43070704D01*
X39238777Y-43062018D01*
X39239417Y-43053320D01*
X39240039Y-43044587D01*
X39240642Y-43035841D01*
X39241227Y-43027059D01*
X39241793Y-43018264D01*
X39242341Y-43009433D01*
X39242870Y-43000587D01*
X39243381Y-42991704D01*
X39243873Y-42982806D01*
X39244347Y-42973871D01*
X39244802Y-42964919D01*
X39245238Y-42955931D01*
X39245655Y-42946924D01*
X39246054Y-42937880D01*
X39246434Y-42928817D01*
X39246795Y-42919716D01*
X39247137Y-42910595D01*
X39247460Y-42901437D01*
X39247763Y-42892257D01*
X39248048Y-42883039D01*
X39248314Y-42873799D01*
X39248561Y-42864520D01*
X39248788Y-42855218D01*
X39248996Y-42845877D01*
X39249184Y-42836512D01*
X39249353Y-42827108D01*
X39249503Y-42817679D01*
X39249633Y-42808210D01*
X39249744Y-42798715D01*
X39249835Y-42789181D01*
X39249906Y-42779618D01*
X39249957Y-42770017D01*
X39249988Y-42760386D01*
X39250000Y-42750716D01*
X39250000Y-42750000D01*
X39250000Y-22500000D02*
X39249960Y-22530984D01*
X39249840Y-22562129D01*
X39249640Y-22593438D01*
X39249359Y-22624914D01*
X39248996Y-22656560D01*
X39248552Y-22688381D01*
X39248026Y-22720379D01*
X39247416Y-22752559D01*
X39246724Y-22784923D01*
X39245948Y-22817476D01*
X39245087Y-22850223D01*
X39244141Y-22883167D01*
X39243110Y-22916313D01*
X39241992Y-22949666D01*
X39240788Y-22983230D01*
X39239496Y-23017011D01*
X39238116Y-23051014D01*
X39236647Y-23085244D01*
X39235087Y-23119708D01*
X39233438Y-23154412D01*
X39231697Y-23189361D01*
X39229863Y-23224563D01*
X39227936Y-23260025D01*
X39225915Y-23295754D01*
X39223798Y-23331758D01*
X39221585Y-23368046D01*
X39219274Y-23404626D01*
X39216865Y-23441508D01*
X39214355Y-23478701D01*
X39211744Y-23516215D01*
X39209030Y-23554063D01*
X39206211Y-23592256D01*
X39203286Y-23630806D01*
X39200253Y-23669726D01*
X39197110Y-23709032D01*
X39193855Y-23748739D01*
X39190486Y-23788863D01*
X39187001Y-23829423D01*
X39183397Y-23870436D01*
X39179672Y-23911926D01*
X39175822Y-23953914D01*
X39171844Y-23996425D01*
X39167735Y-24039485D01*
X39163490Y-24083126D01*
X39159107Y-24127380D01*
X39154579Y-24172282D01*
X39149902Y-24217872D01*
X39145070Y-24264197D01*
X39140077Y-24311305D01*
X39134915Y-24359253D01*
X39129576Y-24408106D01*
X39124050Y-24457937D01*
X39118327Y-24508830D01*
X39112394Y-24560886D01*
X39106236Y-24614219D01*
X39099835Y-24668967D01*
X39093169Y-24725297D01*
X39086213Y-24783414D01*
X39078934Y-24843571D01*
X39071290Y-24906096D01*
X39063225Y-24971416D01*
X39054664Y-25040119D01*
X39045499Y-25113041D01*
X39035566Y-25191459D01*
X39024590Y-25277505D01*
X39012042Y-25375300D01*
X38996582Y-25495229D01*
X38987491Y-25565627D01*
X38976191Y-25653135D01*
X38964934Y-25740462D01*
X38953741Y-25827601D01*
X38942634Y-25914548D01*
X38937118Y-25957947D01*
X38931631Y-26001297D01*
X38926176Y-26044596D01*
X38920756Y-26087844D01*
X38915371Y-26131039D01*
X38910026Y-26174182D01*
X38904723Y-26217272D01*
X38899465Y-26260308D01*
X38894253Y-26303290D01*
X38889092Y-26346216D01*
X38883982Y-26389086D01*
X38878927Y-26431900D01*
X38873930Y-26474657D01*
X38868992Y-26517356D01*
X38864117Y-26559997D01*
X38859308Y-26602579D01*
X38854566Y-26645101D01*
X38849894Y-26687562D01*
X38845295Y-26729963D01*
X38840772Y-26772302D01*
X38836327Y-26814578D01*
X38831962Y-26856792D01*
X38827681Y-26898942D01*
X38825572Y-26919993D01*
X38823485Y-26941028D01*
X38821420Y-26962047D01*
X38819378Y-26983049D01*
X38817358Y-27004035D01*
X38815362Y-27025005D01*
X38813389Y-27045958D01*
X38811439Y-27066894D01*
X38809514Y-27087814D01*
X38807613Y-27108717D01*
X38805736Y-27129603D01*
X38803885Y-27150472D01*
X38802059Y-27171324D01*
X38800258Y-27192159D01*
X38798484Y-27212976D01*
X38796736Y-27233777D01*
X38795014Y-27254560D01*
X38793320Y-27275326D01*
X38791653Y-27296074D01*
X38790013Y-27316804D01*
X38788401Y-27337517D01*
X38786818Y-27358213D01*
X38785263Y-27378890D01*
X38783737Y-27399549D01*
X38782240Y-27420191D01*
X38780772Y-27440814D01*
X38779335Y-27461419D01*
X38777928Y-27482006D01*
X38776551Y-27502575D01*
X38775205Y-27523125D01*
X38773890Y-27543657D01*
X38772606Y-27564170D01*
X38771355Y-27584665D01*
X38770135Y-27605141D01*
X38768948Y-27625598D01*
X38767794Y-27646036D01*
X38766673Y-27666455D01*
X38765585Y-27686855D01*
X38764531Y-27707236D01*
X38763511Y-27727598D01*
X38762525Y-27747941D01*
X38761574Y-27768264D01*
X38760658Y-27788568D01*
X38759778Y-27808852D01*
X38758933Y-27829116D01*
X38758124Y-27849361D01*
X38757351Y-27869586D01*
X38756615Y-27889792D01*
X38755916Y-27909977D01*
X38755254Y-27930142D01*
X38754630Y-27950288D01*
X38754044Y-27970413D01*
X38753496Y-27990517D01*
X38752987Y-28010602D01*
X38752516Y-28030666D01*
X38752085Y-28050710D01*
X38751693Y-28070733D01*
X38751341Y-28090735D01*
X38751029Y-28110716D01*
X38750758Y-28130677D01*
X38750528Y-28150617D01*
X38750339Y-28170536D01*
X38750191Y-28190434D01*
X38750085Y-28210310D01*
X38750021Y-28230166D01*
X38750000Y-28250000D01*
D11*
%TO.P,J1,1,Pin_1*%
%TO.N,/ID3V3*%
X30250000Y-19200000D03*
%TO.P,J1,2,Pin_2*%
%TO.N,/SEN_PEN*%
X30750000Y-19200000D03*
%TO.P,J1,3,Pin_3*%
%TO.N,/DMIC_DAT*%
X31250000Y-19200000D03*
%TO.P,J1,4,Pin_4*%
%TO.N,/DMIC_CLK*%
X31750000Y-19200000D03*
%TO.P,J1,5,Pin_5*%
%TO.N,/ILED*%
X32250000Y-19200000D03*
%TO.P,J1,6,Pin_6*%
%TO.N,GND*%
X32750000Y-19200000D03*
%TO.P,J1,7,Pin_7*%
%TO.N,/MP_DN4*%
X33250000Y-19200000D03*
%TO.P,J1,8,Pin_8*%
%TO.N,/MP_DP4*%
X33750000Y-19200000D03*
%TO.P,J1,9,Pin_9*%
%TO.N,/MP_DN2*%
X34250000Y-19200000D03*
%TO.P,J1,10,Pin_10*%
%TO.N,/MP_DP2*%
X34750000Y-19200000D03*
%TO.P,J1,11,Pin_11*%
%TO.N,/MP_CN*%
X35250000Y-19200000D03*
%TO.P,J1,12,Pin_12*%
%TO.N,/MP_CP*%
X35750000Y-19200000D03*
%TO.P,J1,13,Pin_13*%
%TO.N,/MP_DN1*%
X36250000Y-19200000D03*
%TO.P,J1,14,Pin_14*%
%TO.N,/MP_DP1*%
X36750000Y-19200000D03*
%TO.P,J1,15,Pin_15*%
%TO.N,/MP_DN3*%
X37250000Y-19200000D03*
%TO.P,J1,16,Pin_16*%
%TO.N,/MP_DP3*%
X37750000Y-19200000D03*
%TO.P,J1,17,Pin_17*%
%TO.N,GND*%
X38250000Y-19200000D03*
%TO.P,J1,18,Pin_18*%
%TO.N,/SEN_SDA*%
X38750000Y-19200000D03*
%TO.P,J1,19,Pin_19*%
%TO.N,/SEN_SCK*%
X39250000Y-19200000D03*
%TO.P,J1,20,Pin_20*%
%TO.N,/SEN_RST*%
X39750000Y-19200000D03*
%TO.P,J1,21,Pin_21*%
%TO.N,GND*%
X40250000Y-19200000D03*
%TO.P,J1,22,Pin_22*%
%TO.N,/SEN_MCLK*%
X40750000Y-19200000D03*
%TO.P,J1,23,Pin_23*%
%TO.N,GND*%
X41250000Y-19200000D03*
%TO.P,J1,24,Pin_24*%
%TO.N,/SVDD*%
X41750000Y-19200000D03*
D12*
%TO.P,J1,MP,MP*%
%TO.N,GND*%
X28350000Y-22450000D03*
X43650000Y-22450000D03*
%TD*%
D13*
%TO.P,C1,1*%
%TO.N,GND*%
X41775000Y-31637500D03*
%TO.P,C1,2*%
%TO.N,/SVDD*%
X41775000Y-33362500D03*
%TD*%
D14*
%TO.P,Y1,1,EN*%
%TO.N,/SEN_PEN*%
X44775000Y-33575000D03*
%TO.P,Y1,2,GND*%
%TO.N,GND*%
X44775000Y-31425000D03*
%TO.P,Y1,3,OUT*%
%TO.N,Net-(Y1-OUT)*%
X43225000Y-31425000D03*
%TO.P,Y1,4,V+*%
%TO.N,/SVDD*%
X43225000Y-33575000D03*
%TD*%
D15*
%TO.P,SW1,1,A*%
%TO.N,/SVDD*%
X51500000Y-34500000D03*
%TO.P,SW1,2,B*%
%TO.N,/SEN_PEN*%
X51500000Y-31500000D03*
%TO.P,SW1,3,C*%
%TO.N,GND*%
X51500000Y-30000000D03*
%TD*%
D16*
%TO.P,R1,1*%
%TO.N,Net-(Y1-OUT)*%
X42645235Y-29145235D03*
%TO.P,R1,2*%
%TO.N,/SEN_MCLK*%
X41354765Y-27854765D03*
%TD*%
D17*
%TO.P,J3,1,Pin_1*%
%TO.N,/SEN_PEN*%
X27000000Y-32150000D03*
D18*
%TO.P,J3,2,Pin_2*%
%TO.N,/DMIC_DAT*%
X27000000Y-34690000D03*
%TO.P,J3,3,Pin_3*%
%TO.N,/DMIC_CLK*%
X27000000Y-37230000D03*
%TO.P,J3,4,Pin_4*%
%TO.N,/ILED*%
X27000000Y-39770000D03*
%TD*%
D11*
%TO.P,J2,1,Pin_1*%
%TO.N,GND*%
X30750000Y-47150000D03*
%TO.P,J2,2,Pin_2*%
%TO.N,/MP_DN1*%
X31250000Y-47150000D03*
%TO.P,J2,3,Pin_3*%
%TO.N,/MP_DP1*%
X31750000Y-47150000D03*
%TO.P,J2,4,Pin_4*%
%TO.N,GND*%
X32250000Y-47150000D03*
%TO.P,J2,5,Pin_5*%
%TO.N,/MP_DN2*%
X32750000Y-47150000D03*
%TO.P,J2,6,Pin_6*%
%TO.N,/MP_DP2*%
X33250000Y-47150000D03*
%TO.P,J2,7,Pin_7*%
%TO.N,GND*%
X33750000Y-47150000D03*
%TO.P,J2,8,Pin_8*%
%TO.N,/MP_CN*%
X34250000Y-47150000D03*
%TO.P,J2,9,Pin_9*%
%TO.N,/MP_CP*%
X34750000Y-47150000D03*
%TO.P,J2,10,Pin_10*%
%TO.N,GND*%
X35250000Y-47150000D03*
%TO.P,J2,11,Pin_11*%
%TO.N,/MP_DN3*%
X35750000Y-47150000D03*
%TO.P,J2,12,Pin_12*%
%TO.N,/MP_DP3*%
X36250000Y-47150000D03*
%TO.P,J2,13,Pin_13*%
%TO.N,GND*%
X36750000Y-47150000D03*
%TO.P,J2,14,Pin_14*%
%TO.N,/MP_DN4*%
X37250000Y-47150000D03*
%TO.P,J2,15,Pin_15*%
%TO.N,/MP_DP4*%
X37750000Y-47150000D03*
%TO.P,J2,16,Pin_16*%
%TO.N,GND*%
X38250000Y-47150000D03*
%TO.P,J2,17,Pin_17*%
%TO.N,/SEN_RST*%
X38750000Y-47150000D03*
%TO.P,J2,18,Pin_18*%
%TO.N,unconnected-(J2-Pin_18-Pad18)*%
X39250000Y-47150000D03*
%TO.P,J2,19,Pin_19*%
%TO.N,GND*%
X39750000Y-47150000D03*
%TO.P,J2,20,Pin_20*%
%TO.N,/SEN_SCK*%
X40250000Y-47150000D03*
%TO.P,J2,21,Pin_21*%
%TO.N,/SEN_SDA*%
X40750000Y-47150000D03*
%TO.P,J2,22,Pin_22*%
%TO.N,/SVDD*%
X41250000Y-47150000D03*
D12*
%TO.P,J2,MP,MP*%
%TO.N,GND*%
X28850000Y-50400000D03*
X43150000Y-50400000D03*
%TD*%
D19*
%TO.N,GND*%
X31000000Y-40750000D03*
D20*
X43000000Y-40000000D03*
D19*
X21250000Y-34500000D03*
X20250000Y-42000000D03*
X53000000Y-37500000D03*
D20*
X21500000Y-45000000D03*
X35250000Y-49750000D03*
X48000000Y-21000000D03*
D19*
X51750000Y-18000000D03*
X46750000Y-18000000D03*
D20*
X53000000Y-21000000D03*
D19*
X27000000Y-19000000D03*
X17500000Y-33000000D03*
D20*
X50500000Y-42000000D03*
X49250000Y-40500000D03*
D19*
X48000000Y-40500000D03*
X24500000Y-26250000D03*
X51750000Y-21000000D03*
D20*
X17500000Y-19500000D03*
D19*
X25000000Y-34500000D03*
X37750000Y-17000000D03*
D20*
X26750000Y-50250000D03*
X51750000Y-19500000D03*
D19*
X35250000Y-17000000D03*
X30000000Y-35500000D03*
D20*
X21250000Y-30000000D03*
D19*
X49250000Y-24000000D03*
D20*
X49000000Y-29500000D03*
D19*
X50500000Y-37500000D03*
X33000000Y-48500000D03*
X29000000Y-36250000D03*
X18750000Y-22500000D03*
X44000000Y-17000000D03*
D20*
X53000000Y-18000000D03*
D19*
X17500000Y-42000000D03*
X35500000Y-38000000D03*
D20*
X18750000Y-30000000D03*
D19*
X50500000Y-40500000D03*
D20*
X51750000Y-43500000D03*
D19*
X44500000Y-30500000D03*
D20*
X17500000Y-40500000D03*
D19*
X24500000Y-21500000D03*
X23250000Y-42000000D03*
D20*
X46000000Y-26000000D03*
D19*
X34000000Y-27000000D03*
D20*
X25500000Y-25500000D03*
D19*
X24500000Y-23250000D03*
X23250000Y-45000000D03*
X26500000Y-23250000D03*
D20*
X17500000Y-31500000D03*
X18750000Y-21000000D03*
D19*
X46750000Y-45000000D03*
D20*
X27000000Y-20500000D03*
X50500000Y-45000000D03*
X28500000Y-19500000D03*
D19*
X32750000Y-17000000D03*
X17500000Y-18000000D03*
D20*
X23250000Y-43500000D03*
X51750000Y-37500000D03*
X50500000Y-39000000D03*
X53000000Y-45000000D03*
X23250000Y-40500000D03*
D19*
X48000000Y-43500000D03*
X20000000Y-33000000D03*
D20*
X30000000Y-43000000D03*
X44750000Y-24500000D03*
X21750000Y-39000000D03*
D19*
X18750000Y-31500000D03*
X18750000Y-43500000D03*
D20*
X45500000Y-50250000D03*
D19*
X50500000Y-17000000D03*
D20*
X48000000Y-39000000D03*
D19*
X23750000Y-36500000D03*
X29000000Y-31750000D03*
X21750000Y-40500000D03*
X29000000Y-34750000D03*
X53000000Y-40500000D03*
X18750000Y-34500000D03*
X17500000Y-36000000D03*
X34500000Y-26500000D03*
X39000000Y-48500000D03*
X36000000Y-48500000D03*
X29000000Y-42250000D03*
X24500000Y-24750000D03*
X40250000Y-17000000D03*
D20*
X17500000Y-34500000D03*
X38250000Y-49750000D03*
D19*
X22500000Y-18000000D03*
D20*
X46750000Y-37500000D03*
D19*
X35500000Y-32000000D03*
X53000000Y-22500000D03*
D20*
X48000000Y-18000000D03*
X20000000Y-34500000D03*
X21250000Y-33000000D03*
D19*
X21500000Y-43500000D03*
X23250000Y-39000000D03*
X31000000Y-42250000D03*
X24250000Y-33750000D03*
X29000000Y-28750000D03*
D20*
X23250000Y-46500000D03*
X21250000Y-24000000D03*
D19*
X24500000Y-46500000D03*
X42750000Y-17000000D03*
D20*
X49250000Y-22500000D03*
D19*
X36500000Y-17000000D03*
D20*
X43000000Y-46000000D03*
D19*
X35482999Y-30000000D03*
X51750000Y-39000000D03*
X48000000Y-17000000D03*
D20*
X53000000Y-42000000D03*
D19*
X21250000Y-25500000D03*
D20*
X36750000Y-49750000D03*
X27000000Y-24500000D03*
D19*
X53000000Y-43500000D03*
X20000000Y-30000000D03*
D20*
X18750000Y-33000000D03*
D19*
X49250000Y-42000000D03*
X37150000Y-42150000D03*
X25000000Y-37750000D03*
X25500000Y-24000000D03*
X35500000Y-33500000D03*
X48000000Y-46500000D03*
D20*
X49250000Y-37500000D03*
D19*
X18750000Y-40500000D03*
X17500000Y-45000000D03*
X24500000Y-30500000D03*
D20*
X49000000Y-33000000D03*
D19*
X49250000Y-36000000D03*
X21500000Y-46500000D03*
D20*
X17500000Y-43500000D03*
D19*
X29000000Y-37750000D03*
X50500000Y-22500000D03*
D20*
X30000000Y-40000000D03*
D19*
X45750000Y-35250000D03*
X46000000Y-24500000D03*
D20*
X49250000Y-19500000D03*
D19*
X50500000Y-43500000D03*
D20*
X24500000Y-45000000D03*
X18750000Y-42000000D03*
X17500000Y-28750000D03*
D19*
X29000000Y-30250000D03*
X39000000Y-17000000D03*
D20*
X30000000Y-37000000D03*
X49250000Y-46500000D03*
D19*
X34500000Y-48500000D03*
D20*
X48000000Y-36000000D03*
D19*
X48000000Y-37500000D03*
D20*
X48000000Y-42000000D03*
X46750000Y-46500000D03*
D19*
X24500000Y-27500000D03*
D20*
X20000000Y-28750000D03*
D19*
X21250000Y-19500000D03*
X21250000Y-31500000D03*
D20*
X21250000Y-21000000D03*
X51750000Y-22500000D03*
X32250000Y-49750000D03*
D19*
X21250000Y-28500000D03*
D20*
X21250000Y-18000000D03*
D19*
X35500000Y-31000000D03*
D20*
X17500000Y-22500000D03*
D19*
X46750000Y-42000000D03*
D20*
X50500000Y-18000000D03*
X39809597Y-49754438D03*
D19*
X35500000Y-37000000D03*
X30000000Y-41500000D03*
D20*
X20250000Y-40500000D03*
D19*
X35482999Y-29000000D03*
D20*
X30000000Y-28000000D03*
X50500000Y-21000000D03*
X30000000Y-31000000D03*
D19*
X20000000Y-18000000D03*
X51750000Y-45000000D03*
X50500000Y-46500000D03*
X50500000Y-19500000D03*
X18750000Y-19500000D03*
D20*
X43000000Y-37000000D03*
D19*
X42000000Y-30500000D03*
D20*
X20250000Y-37500000D03*
X25500000Y-28500000D03*
X46750000Y-19500000D03*
X20000000Y-22500000D03*
D19*
X53000000Y-19500000D03*
X17500000Y-21000000D03*
D20*
X20000000Y-31500000D03*
D19*
X49250000Y-39000000D03*
D20*
X20000000Y-19500000D03*
D19*
X51750000Y-42000000D03*
D20*
X49250000Y-43500000D03*
D19*
X20000000Y-21000000D03*
D20*
X20250000Y-43500000D03*
D19*
X25500000Y-30000000D03*
X26500000Y-26250000D03*
D20*
X46750000Y-43500000D03*
X43000000Y-43000000D03*
D19*
X48000000Y-19500000D03*
D20*
X18750000Y-45000000D03*
D19*
X41500000Y-17000000D03*
X39500000Y-45500000D03*
X29000000Y-40750000D03*
D20*
X18750000Y-36000000D03*
D19*
X29000000Y-33250000D03*
X43000000Y-44500000D03*
D20*
X45500000Y-18000000D03*
D19*
X30000000Y-38500000D03*
X49250000Y-18000000D03*
X24500000Y-20250000D03*
X21740000Y-37500000D03*
D20*
X18750000Y-18000000D03*
X17500000Y-37500000D03*
D19*
X17500000Y-39000000D03*
X25500000Y-27000000D03*
X24500000Y-29250000D03*
X31000000Y-26750000D03*
X30000000Y-32500000D03*
X43000000Y-41500000D03*
D20*
X21500000Y-42000000D03*
X53000000Y-39000000D03*
D19*
X18750000Y-28750000D03*
X17500000Y-30000000D03*
X43000000Y-38500000D03*
X20000000Y-36000000D03*
X34000000Y-17000000D03*
X46750000Y-39000000D03*
D20*
X25500000Y-22500000D03*
D19*
X26500000Y-21500000D03*
D20*
X46750000Y-40500000D03*
D19*
X20250000Y-45000000D03*
X29000000Y-39250000D03*
X45500000Y-17000000D03*
X37500000Y-48500000D03*
X46750000Y-34750000D03*
X21250000Y-22500000D03*
X49250000Y-21000000D03*
D20*
X30000000Y-34000000D03*
X21250000Y-27000000D03*
D19*
X37850000Y-41340000D03*
X30000000Y-29500000D03*
X20250000Y-39000000D03*
D20*
X25500000Y-19500000D03*
X18750000Y-39000000D03*
D19*
X44750000Y-26000000D03*
D20*
X48000000Y-45000000D03*
D19*
X31500000Y-48500000D03*
X18750000Y-37500000D03*
D20*
X33750000Y-49750000D03*
D19*
X24500000Y-43500000D03*
X25500000Y-21000000D03*
X49250000Y-45000000D03*
X46750000Y-36000000D03*
D20*
X51750000Y-40500000D03*
X24500000Y-42000000D03*
D19*
X40500000Y-48500000D03*
%TO.N,/SVDD*%
X45500000Y-28000000D03*
X50000000Y-34500000D03*
X41775000Y-35500000D03*
%TO.N,/MP_DP4*%
X38058191Y-43926278D03*
X32800521Y-23800521D03*
%TO.N,/MP_DN1*%
X31075000Y-44500000D03*
X35699479Y-39199479D03*
%TO.N,/MP_DN4*%
X37457149Y-43325236D03*
X32199479Y-23199479D03*
%TO.N,/MP_DP1*%
X31925000Y-44500000D03*
X36300521Y-39800521D03*
%TO.N,/SEN_RST*%
X39750000Y-31350000D03*
X39250000Y-35500000D03*
%TO.N,/SEN_SDA*%
X38650000Y-20500000D03*
X41000000Y-45000000D03*
%TO.N,/SEN_PEN*%
X30750000Y-21250000D03*
X47500000Y-23000000D03*
%TD*%
D21*
%TO.N,GND*%
X41775000Y-30725000D02*
X41775000Y-31637500D01*
X35500000Y-29017001D02*
X35482999Y-29000000D01*
X42000000Y-30500000D02*
X41775000Y-30725000D01*
X44775000Y-31425000D02*
X44775000Y-30775000D01*
X32750000Y-19200000D02*
X32750000Y-17250000D01*
X36750000Y-42550000D02*
X37150000Y-42150000D01*
X35250000Y-47150000D02*
X35250000Y-45750000D01*
X33750000Y-47150000D02*
X33750000Y-48500000D01*
X44775000Y-30775000D02*
X44500000Y-30500000D01*
X39750000Y-45750000D02*
X39750000Y-47150000D01*
X33750000Y-47150000D02*
X33750000Y-41500000D01*
X33000000Y-40750000D02*
X33000000Y-28000000D01*
X35500000Y-33500000D02*
X35500000Y-37000000D01*
X41250000Y-19200000D02*
X41250000Y-17150000D01*
X38250000Y-47150000D02*
X38250000Y-48500000D01*
X32250000Y-47150000D02*
X32250000Y-48500000D01*
X40250000Y-19200000D02*
X40250000Y-17200000D01*
X39500000Y-45500000D02*
X39750000Y-45750000D01*
X30750000Y-47150000D02*
X30750000Y-48500000D01*
X36750000Y-47150000D02*
X36750000Y-48500000D01*
X39750000Y-47150000D02*
X39750000Y-48500000D01*
X35250000Y-47150000D02*
X35250000Y-48500000D01*
X32750000Y-19200000D02*
X32750000Y-20850000D01*
X36750000Y-47150000D02*
X36750000Y-42550000D01*
X33000000Y-28000000D02*
X34000000Y-27000000D01*
X38250000Y-19200000D02*
X38250000Y-17250000D01*
X35500000Y-33500000D02*
X35500000Y-29017001D01*
X33750000Y-41500000D02*
X33000000Y-40750000D01*
%TO.N,/SVDD*%
X43225000Y-33575000D02*
X41987500Y-33575000D01*
X41775000Y-33362500D02*
X41775000Y-45475000D01*
X41250000Y-46000000D02*
X41250000Y-47150000D01*
X41987500Y-33575000D02*
X41775000Y-33362500D01*
X41750000Y-24250000D02*
X41750000Y-19200000D01*
X45500000Y-28000000D02*
X41750000Y-24250000D01*
X41775000Y-45475000D02*
X41250000Y-46000000D01*
X50000000Y-34500000D02*
X51500000Y-34500000D01*
%TO.N,/MP_DP4*%
X37725000Y-46595000D02*
X37725000Y-43976626D01*
X33750000Y-19200000D02*
X33750000Y-20175001D01*
X32800521Y-23517678D02*
X32800521Y-23800521D01*
X33725000Y-22593199D02*
X32800521Y-23517678D01*
X37720000Y-46600000D02*
X37725000Y-46595000D01*
X33725000Y-20200001D02*
X33725000Y-22593199D01*
X37725000Y-43976626D02*
X37775348Y-43926278D01*
X33750000Y-20175001D02*
X33725000Y-20200001D01*
X37775348Y-43926278D02*
X38058191Y-43926278D01*
%TO.N,/MP_DN1*%
X36250000Y-19200000D02*
X36250000Y-20175001D01*
X35982322Y-39199479D02*
X35699479Y-39199479D01*
X31274999Y-47125001D02*
X31274999Y-44699999D01*
X36250000Y-20175001D02*
X36275000Y-20200001D01*
X31274999Y-44699999D02*
X31075000Y-44500000D01*
X36275000Y-38906801D02*
X35982322Y-39199479D01*
X36275000Y-20200001D02*
X36275000Y-38906801D01*
X31250000Y-47150000D02*
X31274999Y-47125001D01*
%TO.N,/ILED*%
X31352300Y-17199000D02*
X24599700Y-17199000D01*
X22500000Y-36750000D02*
X25520000Y-39770000D01*
X32250000Y-18096700D02*
X31352300Y-17199000D01*
X22500000Y-19298700D02*
X22500000Y-36750000D01*
X32250000Y-19200000D02*
X32250000Y-18096700D01*
X24599700Y-17199000D02*
X22500000Y-19298700D01*
X25520000Y-39770000D02*
X27000000Y-39770000D01*
%TO.N,/MP_CP*%
X34055000Y-38335474D02*
X34160000Y-38335474D01*
X33940000Y-39750474D02*
X33940000Y-39920474D01*
X33940000Y-38050474D02*
X33940000Y-38220474D01*
X34725000Y-41250000D02*
X34725000Y-46685000D01*
X33940000Y-34650474D02*
X33940000Y-34820474D01*
X34160000Y-39635474D02*
X34055000Y-39635474D01*
X34160000Y-37935474D02*
X34055000Y-37935474D01*
X34160000Y-36235474D02*
X34055000Y-36235474D01*
X34725000Y-30400474D02*
X34725000Y-30570474D01*
X33940000Y-29550474D02*
X33940000Y-29720474D01*
X34055000Y-34935474D02*
X34160000Y-34935474D01*
X34725000Y-40770474D02*
X34725000Y-41250000D01*
X33940000Y-32950474D02*
X33940000Y-33120474D01*
X34055000Y-33235474D02*
X34160000Y-33235474D01*
X35725000Y-20200001D02*
X35725000Y-27093197D01*
X34725000Y-38900474D02*
X34725000Y-39070474D01*
X33940000Y-31250474D02*
X33940000Y-31420474D01*
X34160000Y-31135474D02*
X34055000Y-31135474D01*
X34725000Y-33800474D02*
X34725000Y-33970474D01*
X35750000Y-19200000D02*
X35750000Y-20175001D01*
X35725000Y-27093197D02*
X34725000Y-28093197D01*
X34725000Y-35500474D02*
X34725000Y-35670474D01*
X34725000Y-46685000D02*
X34720000Y-46690000D01*
X34160000Y-34535474D02*
X34055000Y-34535474D01*
X34055000Y-29835474D02*
X34160000Y-29835474D01*
X34055000Y-40035474D02*
X34160000Y-40035474D01*
X34725000Y-37200474D02*
X34725000Y-37370474D01*
X34725000Y-28093197D02*
X34725000Y-28870474D01*
X33940000Y-36350474D02*
X33940000Y-36520474D01*
X34160000Y-32835474D02*
X34055000Y-32835474D01*
X34055000Y-31535474D02*
X34160000Y-31535474D01*
X34725000Y-32100474D02*
X34725000Y-32270474D01*
X34160000Y-29435474D02*
X34055000Y-29435474D01*
X35750000Y-20175001D02*
X35725000Y-20200001D01*
X34055000Y-36635474D02*
X34160000Y-36635474D01*
X34725000Y-40600474D02*
X34725000Y-40770474D01*
X34055000Y-29435474D02*
G75*
G03*
X33939974Y-29550474I0J-115026D01*
G01*
X34055000Y-37935474D02*
G75*
G03*
X33939974Y-38050474I0J-115026D01*
G01*
X33940000Y-34820474D02*
G75*
G03*
X34055000Y-34935500I115000J-26D01*
G01*
X34055000Y-39635474D02*
G75*
G03*
X33939974Y-39750474I0J-115026D01*
G01*
X34055000Y-36235474D02*
G75*
G03*
X33939974Y-36350474I0J-115026D01*
G01*
X34725000Y-35670474D02*
G75*
G02*
X34160000Y-36235500I-565000J-26D01*
G01*
X34055000Y-32835474D02*
G75*
G03*
X33939974Y-32950474I0J-115026D01*
G01*
X34725000Y-32270474D02*
G75*
G02*
X34160000Y-32835500I-565000J-26D01*
G01*
X33940000Y-29720474D02*
G75*
G03*
X34055000Y-29835500I115000J-26D01*
G01*
X34725000Y-28870474D02*
G75*
G02*
X34160000Y-29435500I-565000J-26D01*
G01*
X33940000Y-39920474D02*
G75*
G03*
X34055000Y-40035500I115000J-26D01*
G01*
X34725000Y-33970474D02*
G75*
G02*
X34160000Y-34535500I-565000J-26D01*
G01*
X34725000Y-39070474D02*
G75*
G02*
X34160000Y-39635500I-565000J-26D01*
G01*
X34160000Y-33235474D02*
G75*
G02*
X34725026Y-33800474I0J-565026D01*
G01*
X34160000Y-34935474D02*
G75*
G02*
X34725026Y-35500474I0J-565026D01*
G01*
X33940000Y-31420474D02*
G75*
G03*
X34055000Y-31535500I115000J-26D01*
G01*
X34160000Y-40035474D02*
G75*
G02*
X34725026Y-40600474I0J-565026D01*
G01*
X34055000Y-31135474D02*
G75*
G03*
X33939974Y-31250474I0J-115026D01*
G01*
X34160000Y-36635474D02*
G75*
G02*
X34725026Y-37200474I0J-565026D01*
G01*
X33940000Y-38220474D02*
G75*
G03*
X34055000Y-38335500I115000J-26D01*
G01*
X34160000Y-31535474D02*
G75*
G02*
X34725026Y-32100474I0J-565026D01*
G01*
X33940000Y-33120474D02*
G75*
G03*
X34055000Y-33235500I115000J-26D01*
G01*
X34725000Y-37370474D02*
G75*
G02*
X34160000Y-37935500I-565000J-26D01*
G01*
X33940000Y-36520474D02*
G75*
G03*
X34055000Y-36635500I115000J-26D01*
G01*
X34160000Y-29835474D02*
G75*
G02*
X34725026Y-30400474I0J-565026D01*
G01*
X34160000Y-38335474D02*
G75*
G02*
X34725026Y-38900474I0J-565026D01*
G01*
X34725000Y-30570474D02*
G75*
G02*
X34160000Y-31135500I-565000J-26D01*
G01*
X34055000Y-34535474D02*
G75*
G03*
X33939974Y-34650474I0J-115026D01*
G01*
%TO.N,/MP_DN4*%
X33250000Y-19200000D02*
X33250000Y-20175001D01*
X33275000Y-22406801D02*
X32482322Y-23199479D01*
X37275000Y-43790228D02*
X37457149Y-43608079D01*
X37275000Y-46835000D02*
X37275000Y-43790228D01*
X33275000Y-20200001D02*
X33275000Y-22406801D01*
X37280000Y-46840000D02*
X37275000Y-46835000D01*
X32482322Y-23199479D02*
X32199479Y-23199479D01*
X37457149Y-43608079D02*
X37457149Y-43325236D01*
X33250000Y-20175001D02*
X33275000Y-20200001D01*
%TO.N,/MP_DN2*%
X31235000Y-31048000D02*
X31235000Y-31230000D01*
X32775000Y-46755000D02*
X32780000Y-46760000D01*
X31911000Y-28639000D02*
X31824000Y-28639000D01*
X31911000Y-34099000D02*
X31824000Y-34099000D01*
X32050000Y-27131802D02*
X32050000Y-28500000D01*
X31911000Y-37739000D02*
X31824000Y-37739000D01*
X31824000Y-29999000D02*
X31911000Y-29999000D01*
X34275000Y-20200001D02*
X34275000Y-24906802D01*
X34250000Y-20175001D02*
X34275000Y-20200001D01*
X31824000Y-35459000D02*
X31911000Y-35459000D01*
X32050000Y-31958000D02*
X32050000Y-32140000D01*
X31235000Y-34688000D02*
X31235000Y-34870000D01*
X31235000Y-38328000D02*
X31235000Y-38510000D01*
X31235000Y-32868000D02*
X31235000Y-33050000D01*
X32050000Y-41411396D02*
X32775000Y-42136396D01*
X32775000Y-42136396D02*
X32775000Y-46755000D01*
X31235000Y-29228000D02*
X31235000Y-29410000D01*
X32050000Y-30138000D02*
X32050000Y-30320000D01*
X31824000Y-33639000D02*
X31911000Y-33639000D01*
X32050000Y-35598000D02*
X32050000Y-35780000D01*
X31824000Y-31819000D02*
X31911000Y-31819000D01*
X31824000Y-37279000D02*
X31911000Y-37279000D01*
X31235000Y-36508000D02*
X31235000Y-36690000D01*
X32050000Y-33778000D02*
X32050000Y-33960000D01*
X32050000Y-39420000D02*
X32050000Y-40500000D01*
X32050000Y-39238000D02*
X32050000Y-39420000D01*
X31911000Y-30459000D02*
X31824000Y-30459000D01*
X31911000Y-32279000D02*
X31824000Y-32279000D01*
X32050000Y-37418000D02*
X32050000Y-37600000D01*
X31824000Y-39099000D02*
X31911000Y-39099000D01*
X34275000Y-24906802D02*
X32050000Y-27131802D01*
X34250000Y-19200000D02*
X34250000Y-20175001D01*
X31911000Y-35919000D02*
X31824000Y-35919000D01*
X32050000Y-40500000D02*
X32050000Y-41411396D01*
X31824000Y-28639000D02*
G75*
G03*
X31235000Y-29228000I0J-589000D01*
G01*
X31911000Y-35459000D02*
G75*
G02*
X32050000Y-35598000I0J-139000D01*
G01*
X31824000Y-35919000D02*
G75*
G03*
X31235000Y-36508000I0J-589000D01*
G01*
X32050000Y-30320000D02*
G75*
G02*
X31911000Y-30459000I-139000J0D01*
G01*
X31235000Y-38510000D02*
G75*
G03*
X31824000Y-39099000I589000J0D01*
G01*
X31824000Y-37739000D02*
G75*
G03*
X31235000Y-38328000I0J-589000D01*
G01*
X31911000Y-31819000D02*
G75*
G02*
X32050000Y-31958000I0J-139000D01*
G01*
X31235000Y-31230000D02*
G75*
G03*
X31824000Y-31819000I589000J0D01*
G01*
X32050000Y-35780000D02*
G75*
G02*
X31911000Y-35919000I-139000J0D01*
G01*
X32050000Y-32140000D02*
G75*
G02*
X31911000Y-32279000I-139000J0D01*
G01*
X31824000Y-30459000D02*
G75*
G03*
X31235000Y-31048000I0J-589000D01*
G01*
X31911000Y-39099000D02*
G75*
G02*
X32050000Y-39238000I0J-139000D01*
G01*
X31911000Y-29999000D02*
G75*
G02*
X32050000Y-30138000I0J-139000D01*
G01*
X32050000Y-37600000D02*
G75*
G02*
X31911000Y-37739000I-139000J0D01*
G01*
X31235000Y-34870000D02*
G75*
G03*
X31824000Y-35459000I589000J0D01*
G01*
X31235000Y-33050000D02*
G75*
G03*
X31824000Y-33639000I589000J0D01*
G01*
X31824000Y-34099000D02*
G75*
G03*
X31235000Y-34688000I0J-589000D01*
G01*
X31235000Y-36690000D02*
G75*
G03*
X31824000Y-37279000I589000J0D01*
G01*
X31235000Y-29410000D02*
G75*
G03*
X31824000Y-29999000I589000J0D01*
G01*
X31911000Y-33639000D02*
G75*
G02*
X32050000Y-33778000I0J-139000D01*
G01*
X31824000Y-32279000D02*
G75*
G03*
X31235000Y-32868000I0J-589000D01*
G01*
X32050000Y-28500000D02*
G75*
G02*
X31911000Y-28639000I-139000J0D01*
G01*
X31911000Y-37279000D02*
G75*
G02*
X32050000Y-37418000I0J-139000D01*
G01*
X32050000Y-33960000D02*
G75*
G02*
X31911000Y-34099000I-139000J0D01*
G01*
%TO.N,/MP_DP3*%
X36225000Y-41635000D02*
X36225000Y-46675000D01*
X36225000Y-46675000D02*
X36230000Y-46680000D01*
X37725000Y-32298000D02*
X37725000Y-32470000D01*
X38161000Y-35619000D02*
X37844000Y-35619000D01*
X37725000Y-37458000D02*
X37725000Y-37630000D01*
X37725000Y-20200001D02*
X37725000Y-30750000D01*
X37725000Y-34018000D02*
X37725000Y-34190000D01*
X37844000Y-32589000D02*
X38161000Y-32589000D01*
X38430000Y-31438000D02*
X38430000Y-31610000D01*
X37750000Y-19200000D02*
X37750000Y-20175001D01*
X38730000Y-34878000D02*
X38730000Y-35050000D01*
X37844000Y-36029000D02*
X38161000Y-36029000D01*
X37725000Y-39350000D02*
X37725000Y-39721194D01*
X38161000Y-39059000D02*
X37844000Y-39059000D01*
X38730000Y-36598000D02*
X38730000Y-36770000D01*
X38161000Y-33899000D02*
X37844000Y-33899000D01*
X38730000Y-33158000D02*
X38730000Y-33330000D01*
X37750000Y-20175001D02*
X37725000Y-20200001D01*
X38161000Y-37339000D02*
X37844000Y-37339000D01*
X37725000Y-39721194D02*
X37725000Y-40135000D01*
X37725000Y-39178000D02*
X37725000Y-39350000D01*
X38730000Y-38318000D02*
X38730000Y-38490000D01*
X37861000Y-32179000D02*
X37844000Y-32179000D01*
X37844000Y-30869000D02*
X37861000Y-30869000D01*
X37844000Y-37749000D02*
X38161000Y-37749000D01*
X37844000Y-34309000D02*
X38161000Y-34309000D01*
X37725000Y-40135000D02*
X36225000Y-41635000D01*
X37725000Y-35738000D02*
X37725000Y-35910000D01*
X38730000Y-36770000D02*
G75*
G02*
X38161000Y-37339000I-569000J0D01*
G01*
X38730000Y-38490000D02*
G75*
G02*
X38161000Y-39059000I-569000J0D01*
G01*
X38161000Y-34309000D02*
G75*
G02*
X38730000Y-34878000I0J-569000D01*
G01*
X38161000Y-32589000D02*
G75*
G02*
X38730000Y-33158000I0J-569000D01*
G01*
X38161000Y-37749000D02*
G75*
G02*
X38730000Y-38318000I0J-569000D01*
G01*
X38730000Y-35050000D02*
G75*
G02*
X38161000Y-35619000I-569000J0D01*
G01*
X38161000Y-36029000D02*
G75*
G02*
X38730000Y-36598000I0J-569000D01*
G01*
X37844000Y-39059000D02*
G75*
G03*
X37725000Y-39178000I0J-119000D01*
G01*
X37725000Y-30750000D02*
G75*
G03*
X37844000Y-30869000I119000J0D01*
G01*
X37725000Y-34190000D02*
G75*
G03*
X37844000Y-34309000I119000J0D01*
G01*
X37844000Y-32179000D02*
G75*
G03*
X37725000Y-32298000I0J-119000D01*
G01*
X37725000Y-35910000D02*
G75*
G03*
X37844000Y-36029000I119000J0D01*
G01*
X38730000Y-33330000D02*
G75*
G02*
X38161000Y-33899000I-569000J0D01*
G01*
X37844000Y-35619000D02*
G75*
G03*
X37725000Y-35738000I0J-119000D01*
G01*
X38430000Y-31610000D02*
G75*
G02*
X37861000Y-32179000I-569000J0D01*
G01*
X37861000Y-30869000D02*
G75*
G02*
X38430000Y-31438000I0J-569000D01*
G01*
X37844000Y-33899000D02*
G75*
G03*
X37725000Y-34018000I0J-119000D01*
G01*
X37725000Y-32470000D02*
G75*
G03*
X37844000Y-32589000I119000J0D01*
G01*
X37725000Y-37630000D02*
G75*
G03*
X37844000Y-37749000I119000J0D01*
G01*
X37844000Y-37339000D02*
G75*
G03*
X37725000Y-37458000I0J-119000D01*
G01*
%TO.N,/DMIC_CLK*%
X25980000Y-37230000D02*
X27000000Y-37230000D01*
X23000000Y-34250000D02*
X25980000Y-37230000D01*
X23000000Y-19365800D02*
X23000000Y-34250000D01*
X31750000Y-19200000D02*
X31750000Y-18163800D01*
X31750000Y-18163800D02*
X31186200Y-17600000D01*
X24765800Y-17600000D02*
X23000000Y-19365800D01*
X31186200Y-17600000D02*
X24765800Y-17600000D01*
%TO.N,/MP_DP1*%
X31725001Y-47125001D02*
X31725001Y-44699999D01*
X36725000Y-39093199D02*
X36300521Y-39517678D01*
X36750000Y-19200000D02*
X36750000Y-20175001D01*
X31725001Y-44699999D02*
X31925000Y-44500000D01*
X36750000Y-20175001D02*
X36725000Y-20200001D01*
X36300521Y-39517678D02*
X36300521Y-39800521D01*
X36725000Y-20200001D02*
X36725000Y-39093199D01*
X31750000Y-47150000D02*
X31725001Y-47125001D01*
%TO.N,/SEN_RST*%
X38750000Y-47150000D02*
X38750000Y-45500000D01*
X39750000Y-31350000D02*
X39750000Y-19200000D01*
X39250000Y-42750000D02*
X39250000Y-35500000D01*
%TO.N,/DMIC_DAT*%
X23500000Y-19432900D02*
X23500000Y-31470000D01*
X26720000Y-34690000D02*
X27000000Y-34690000D01*
X31019100Y-18000000D02*
X24932900Y-18000000D01*
X31250000Y-19200000D02*
X31250000Y-18230900D01*
X23500000Y-31470000D02*
X26720000Y-34690000D01*
X31250000Y-18230900D02*
X31019100Y-18000000D01*
X24932900Y-18000000D02*
X23500000Y-19432900D01*
%TO.N,/MP_DN3*%
X37275000Y-39178000D02*
X37275000Y-39350000D01*
X37275000Y-39350000D02*
X37275000Y-39721194D01*
X37250000Y-19200000D02*
X37250000Y-20175001D01*
X37275000Y-35738000D02*
X37275000Y-35910000D01*
X37275000Y-34018000D02*
X37275000Y-34190000D01*
X37844000Y-33039000D02*
X38161000Y-33039000D01*
X38280000Y-33158000D02*
X38280000Y-33330000D01*
X37980000Y-31438000D02*
X37980000Y-31610000D01*
X37861000Y-31729000D02*
X37844000Y-31729000D01*
X38161000Y-38609000D02*
X37844000Y-38609000D01*
X37275000Y-20200001D02*
X37275000Y-30750000D01*
X38161000Y-33449000D02*
X37844000Y-33449000D01*
X38161000Y-36889000D02*
X37844000Y-36889000D01*
X37250000Y-20175001D02*
X37275000Y-20200001D01*
X38280000Y-38318000D02*
X38280000Y-38490000D01*
X37275000Y-37458000D02*
X37275000Y-37630000D01*
X37275000Y-32298000D02*
X37275000Y-32470000D01*
X38280000Y-34878000D02*
X38280000Y-35050000D01*
X37844000Y-34759000D02*
X38161000Y-34759000D01*
X35775000Y-41448606D02*
X35775000Y-46875000D01*
X37844000Y-31319000D02*
X37861000Y-31319000D01*
X37275000Y-39721194D02*
X37275000Y-39948606D01*
X35775000Y-46875000D02*
X35780000Y-46880000D01*
X38161000Y-35169000D02*
X37844000Y-35169000D01*
X37844000Y-36479000D02*
X38161000Y-36479000D01*
X38280000Y-36598000D02*
X38280000Y-36770000D01*
X37844000Y-38199000D02*
X38161000Y-38199000D01*
X37275000Y-39948606D02*
X35775000Y-41448606D01*
X37275000Y-30750000D02*
G75*
G03*
X37844000Y-31319000I569000J0D01*
G01*
X37861000Y-31319000D02*
G75*
G02*
X37980000Y-31438000I0J-119000D01*
G01*
X37844000Y-35169000D02*
G75*
G03*
X37275000Y-35738000I0J-569000D01*
G01*
X38280000Y-36770000D02*
G75*
G02*
X38161000Y-36889000I-119000J0D01*
G01*
X37275000Y-37630000D02*
G75*
G03*
X37844000Y-38199000I569000J0D01*
G01*
X37980000Y-31610000D02*
G75*
G02*
X37861000Y-31729000I-119000J0D01*
G01*
X38280000Y-35050000D02*
G75*
G02*
X38161000Y-35169000I-119000J0D01*
G01*
X37844000Y-31729000D02*
G75*
G03*
X37275000Y-32298000I0J-569000D01*
G01*
X37844000Y-36889000D02*
G75*
G03*
X37275000Y-37458000I0J-569000D01*
G01*
X37275000Y-35910000D02*
G75*
G03*
X37844000Y-36479000I569000J0D01*
G01*
X38280000Y-33330000D02*
G75*
G02*
X38161000Y-33449000I-119000J0D01*
G01*
X37844000Y-38609000D02*
G75*
G03*
X37275000Y-39178000I0J-569000D01*
G01*
X37844000Y-33449000D02*
G75*
G03*
X37275000Y-34018000I0J-569000D01*
G01*
X38161000Y-33039000D02*
G75*
G02*
X38280000Y-33158000I0J-119000D01*
G01*
X38280000Y-38490000D02*
G75*
G02*
X38161000Y-38609000I-119000J0D01*
G01*
X38161000Y-38199000D02*
G75*
G02*
X38280000Y-38318000I0J-119000D01*
G01*
X37275000Y-32470000D02*
G75*
G03*
X37844000Y-33039000I569000J0D01*
G01*
X37275000Y-34190000D02*
G75*
G03*
X37844000Y-34759000I569000J0D01*
G01*
X38161000Y-34759000D02*
G75*
G02*
X38280000Y-34878000I0J-119000D01*
G01*
X38161000Y-36479000D02*
G75*
G02*
X38280000Y-36598000I0J-119000D01*
G01*
%TO.N,/SEN_SDA*%
X38750000Y-19200000D02*
X38750000Y-20400000D01*
X38750000Y-20400000D02*
X38650000Y-20500000D01*
X41000000Y-45000000D02*
X40750000Y-45250000D01*
X40750000Y-45250000D02*
X40750000Y-47150000D01*
%TO.N,/SEN_PEN*%
X30750000Y-21250000D02*
X30750000Y-19200000D01*
X30750000Y-21250000D02*
X30750000Y-24450000D01*
X48500000Y-31500000D02*
X47500000Y-30500000D01*
X47500000Y-30500000D02*
X47500000Y-23000000D01*
X30750000Y-24450000D02*
X27000000Y-28200000D01*
X27000000Y-28200000D02*
X27000000Y-32150000D01*
X47500000Y-32000000D02*
X47500000Y-30500000D01*
X44775000Y-33575000D02*
X45925000Y-33575000D01*
X45925000Y-33575000D02*
X47500000Y-32000000D01*
X51500000Y-31500000D02*
X48500000Y-31500000D01*
%TO.N,/SEN_SCK*%
X40250000Y-47150000D02*
X40250000Y-36103069D01*
X38750000Y-28250000D02*
X38750000Y-30000000D01*
X39250000Y-22500000D02*
X39250000Y-19200000D01*
%TO.N,/MP_CN*%
X34275000Y-41250000D02*
X34275000Y-46615000D01*
X34160000Y-34085474D02*
X34055000Y-34085474D01*
X35275000Y-26906803D02*
X34275000Y-27906803D01*
X34160000Y-39185474D02*
X34055000Y-39185474D01*
X34275000Y-37200474D02*
X34275000Y-37370474D01*
X34160000Y-30685474D02*
X34055000Y-30685474D01*
X34055000Y-35385474D02*
X34160000Y-35385474D01*
X33490000Y-31250474D02*
X33490000Y-31420474D01*
X34160000Y-35785474D02*
X34055000Y-35785474D01*
X35275000Y-20200001D02*
X35275000Y-26906803D01*
X34275000Y-38900474D02*
X34275000Y-39070474D01*
X35250000Y-20175001D02*
X35275000Y-20200001D01*
X35250000Y-19200000D02*
X35250000Y-20175001D01*
X34275000Y-40600474D02*
X34275000Y-40770474D01*
X34055000Y-38785474D02*
X34160000Y-38785474D01*
X34275000Y-46615000D02*
X34260000Y-46630000D01*
X33490000Y-36350474D02*
X33490000Y-36520474D01*
X34055000Y-31985474D02*
X34160000Y-31985474D01*
X33490000Y-39750474D02*
X33490000Y-39920474D01*
X34055000Y-30285474D02*
X34160000Y-30285474D01*
X33490000Y-32950474D02*
X33490000Y-33120474D01*
X34275000Y-40770474D02*
X34275000Y-41250000D01*
X34160000Y-37485474D02*
X34055000Y-37485474D01*
X34160000Y-28985474D02*
X34055000Y-28985474D01*
X34275000Y-32100474D02*
X34275000Y-32270474D01*
X34055000Y-33685474D02*
X34160000Y-33685474D01*
X33490000Y-38050474D02*
X33490000Y-38220474D01*
X33490000Y-34650474D02*
X33490000Y-34820474D01*
X34055000Y-37085474D02*
X34160000Y-37085474D01*
X34275000Y-35500474D02*
X34275000Y-35670474D01*
X34275000Y-30400474D02*
X34275000Y-30570474D01*
X34275000Y-27906803D02*
X34275000Y-28870474D01*
X33490000Y-29550474D02*
X33490000Y-29720474D01*
X34055000Y-40485474D02*
X34160000Y-40485474D01*
X34275000Y-33800474D02*
X34275000Y-33970474D01*
X34160000Y-32385474D02*
X34055000Y-32385474D01*
X34160000Y-38785474D02*
G75*
G02*
X34275026Y-38900474I0J-115026D01*
G01*
X34055000Y-34085474D02*
G75*
G03*
X33489974Y-34650474I0J-565026D01*
G01*
X34275000Y-37370474D02*
G75*
G02*
X34160000Y-37485500I-115000J-26D01*
G01*
X34055000Y-37485474D02*
G75*
G03*
X33489974Y-38050474I0J-565026D01*
G01*
X34160000Y-30285474D02*
G75*
G02*
X34275026Y-30400474I0J-115026D01*
G01*
X33490000Y-38220474D02*
G75*
G03*
X34055000Y-38785500I565000J-26D01*
G01*
X34055000Y-30685474D02*
G75*
G03*
X33489974Y-31250474I0J-565026D01*
G01*
X33490000Y-29720474D02*
G75*
G03*
X34055000Y-30285500I565000J-26D01*
G01*
X34160000Y-33685474D02*
G75*
G02*
X34275026Y-33800474I0J-115026D01*
G01*
X34275000Y-33970474D02*
G75*
G02*
X34160000Y-34085500I-115000J-26D01*
G01*
X34160000Y-37085474D02*
G75*
G02*
X34275026Y-37200474I0J-115026D01*
G01*
X34055000Y-32385474D02*
G75*
G03*
X33489974Y-32950474I0J-565026D01*
G01*
X33490000Y-34820474D02*
G75*
G03*
X34055000Y-35385500I565000J-26D01*
G01*
X34055000Y-35785474D02*
G75*
G03*
X33489974Y-36350474I0J-565026D01*
G01*
X34055000Y-39185474D02*
G75*
G03*
X33489974Y-39750474I0J-565026D01*
G01*
X34160000Y-31985474D02*
G75*
G02*
X34275026Y-32100474I0J-115026D01*
G01*
X34275000Y-39070474D02*
G75*
G02*
X34160000Y-39185500I-115000J-26D01*
G01*
X34160000Y-35385474D02*
G75*
G02*
X34275026Y-35500474I0J-115026D01*
G01*
X33490000Y-39920474D02*
G75*
G03*
X34055000Y-40485500I565000J-26D01*
G01*
X34275000Y-35670474D02*
G75*
G02*
X34160000Y-35785500I-115000J-26D01*
G01*
X34275000Y-32270474D02*
G75*
G02*
X34160000Y-32385500I-115000J-26D01*
G01*
X34275000Y-30570474D02*
G75*
G02*
X34160000Y-30685500I-115000J-26D01*
G01*
X34275000Y-28870474D02*
G75*
G02*
X34160000Y-28985500I-115000J-26D01*
G01*
X34160000Y-40485474D02*
G75*
G02*
X34275026Y-40600474I0J-115026D01*
G01*
X34055000Y-28985474D02*
G75*
G03*
X33489974Y-29550474I0J-565026D01*
G01*
X33490000Y-33120474D02*
G75*
G03*
X34055000Y-33685500I565000J-26D01*
G01*
X33490000Y-31420474D02*
G75*
G03*
X34055000Y-31985500I565000J-26D01*
G01*
X33490000Y-36520474D02*
G75*
G03*
X34055000Y-37085500I565000J-26D01*
G01*
%TO.N,/SEN_MCLK*%
X41354765Y-27854765D02*
X40750000Y-27250000D01*
X40750000Y-27250000D02*
X40750000Y-19200000D01*
%TO.N,/MP_DP2*%
X31824000Y-29549000D02*
X31911000Y-29549000D01*
X33225000Y-46675000D02*
X33220000Y-46680000D01*
X34750000Y-19200000D02*
X34750000Y-20175001D01*
X31911000Y-30909000D02*
X31824000Y-30909000D01*
X34750000Y-20175001D02*
X34725000Y-20200001D01*
X32500000Y-35598000D02*
X32500000Y-35780000D01*
X31911000Y-36369000D02*
X31824000Y-36369000D01*
X31911000Y-34549000D02*
X31824000Y-34549000D01*
X31685000Y-34688000D02*
X31685000Y-34870000D01*
X32500000Y-39238000D02*
X32500000Y-39420000D01*
X32500000Y-31958000D02*
X32500000Y-32140000D01*
X31685000Y-38328000D02*
X31685000Y-38510000D01*
X32500000Y-39420000D02*
X32500000Y-40500000D01*
X31685000Y-31048000D02*
X31685000Y-31230000D01*
X31685000Y-36508000D02*
X31685000Y-36690000D01*
X31685000Y-32868000D02*
X31685000Y-33050000D01*
X31685000Y-29228000D02*
X31685000Y-29410000D01*
X33225000Y-41950000D02*
X33225000Y-46675000D01*
X31911000Y-32729000D02*
X31824000Y-32729000D01*
X31824000Y-35009000D02*
X31911000Y-35009000D01*
X32500000Y-27318198D02*
X32500000Y-28500000D01*
X31824000Y-38649000D02*
X31911000Y-38649000D01*
X32500000Y-37418000D02*
X32500000Y-37600000D01*
X32500000Y-40500000D02*
X32500000Y-41225000D01*
X31824000Y-31369000D02*
X31911000Y-31369000D01*
X32500000Y-33778000D02*
X32500000Y-33960000D01*
X34725000Y-25093198D02*
X32500000Y-27318198D01*
X32500000Y-41225000D02*
X33225000Y-41950000D01*
X31824000Y-33189000D02*
X31911000Y-33189000D01*
X31911000Y-38189000D02*
X31824000Y-38189000D01*
X34725000Y-20200001D02*
X34725000Y-25093198D01*
X31911000Y-29089000D02*
X31824000Y-29089000D01*
X32500000Y-30138000D02*
X32500000Y-30320000D01*
X31824000Y-36829000D02*
X31911000Y-36829000D01*
X32500000Y-33960000D02*
G75*
G02*
X31911000Y-34549000I-589000J0D01*
G01*
X31911000Y-36829000D02*
G75*
G02*
X32500000Y-37418000I0J-589000D01*
G01*
X31685000Y-38510000D02*
G75*
G03*
X31824000Y-38649000I139000J0D01*
G01*
X31685000Y-31230000D02*
G75*
G03*
X31824000Y-31369000I139000J0D01*
G01*
X31685000Y-34870000D02*
G75*
G03*
X31824000Y-35009000I139000J0D01*
G01*
X31911000Y-38649000D02*
G75*
G02*
X32500000Y-39238000I0J-589000D01*
G01*
X31911000Y-33189000D02*
G75*
G02*
X32500000Y-33778000I0J-589000D01*
G01*
X31824000Y-32729000D02*
G75*
G03*
X31685000Y-32868000I0J-139000D01*
G01*
X31824000Y-34549000D02*
G75*
G03*
X31685000Y-34688000I0J-139000D01*
G01*
X31911000Y-29549000D02*
G75*
G02*
X32500000Y-30138000I0J-589000D01*
G01*
X32500000Y-37600000D02*
G75*
G02*
X31911000Y-38189000I-589000J0D01*
G01*
X31911000Y-35009000D02*
G75*
G02*
X32500000Y-35598000I0J-589000D01*
G01*
X31824000Y-29089000D02*
G75*
G03*
X31685000Y-29228000I0J-139000D01*
G01*
X32500000Y-35780000D02*
G75*
G02*
X31911000Y-36369000I-589000J0D01*
G01*
X31685000Y-29410000D02*
G75*
G03*
X31824000Y-29549000I139000J0D01*
G01*
X31685000Y-36690000D02*
G75*
G03*
X31824000Y-36829000I139000J0D01*
G01*
X31824000Y-36369000D02*
G75*
G03*
X31685000Y-36508000I0J-139000D01*
G01*
X32500000Y-30320000D02*
G75*
G02*
X31911000Y-30909000I-589000J0D01*
G01*
X31685000Y-33050000D02*
G75*
G03*
X31824000Y-33189000I139000J0D01*
G01*
X32500000Y-32140000D02*
G75*
G02*
X31911000Y-32729000I-589000J0D01*
G01*
X32500000Y-28500000D02*
G75*
G02*
X31911000Y-29089000I-589000J0D01*
G01*
X31911000Y-31369000D02*
G75*
G02*
X32500000Y-31958000I0J-589000D01*
G01*
X31824000Y-30909000D02*
G75*
G03*
X31685000Y-31048000I0J-139000D01*
G01*
X31824000Y-38189000D02*
G75*
G03*
X31685000Y-38328000I0J-139000D01*
G01*
%TO.N,Net-(Y1-OUT)*%
X42645235Y-29145235D02*
X43225000Y-29725000D01*
X43225000Y-29725000D02*
X43225000Y-31425000D01*
%TD*%
%TA.AperFunction,Conductor*%
%TO.N,GND*%
G36*
X33054843Y-40157691D02*
G01*
X33068758Y-40158798D01*
X33085996Y-40171918D01*
X33105703Y-40180918D01*
X33114378Y-40193520D01*
X33124356Y-40201114D01*
X33141024Y-40232225D01*
X33176627Y-40330057D01*
X33261094Y-40476368D01*
X33369682Y-40605784D01*
X33369690Y-40605792D01*
X33499092Y-40714377D01*
X33499097Y-40714381D01*
X33645403Y-40798854D01*
X33792914Y-40852545D01*
X33849175Y-40893970D01*
X33874110Y-40959238D01*
X33874500Y-40969065D01*
X33874500Y-46249851D01*
X33868976Y-46268662D01*
X33868401Y-46288261D01*
X33855578Y-46314290D01*
X33854815Y-46316890D01*
X33852804Y-46319922D01*
X33852304Y-46320652D01*
X33798180Y-46364838D01*
X33728760Y-46372748D01*
X33666083Y-46341871D01*
X33647696Y-46320652D01*
X33647196Y-46319922D01*
X33640502Y-46299375D01*
X33630049Y-46282010D01*
X33630445Y-46268506D01*
X33625553Y-46253489D01*
X33625500Y-46249851D01*
X33625500Y-41897275D01*
X33625500Y-41897273D01*
X33598207Y-41795413D01*
X33598207Y-41795412D01*
X33545480Y-41704087D01*
X32936819Y-41095426D01*
X32903334Y-41034103D01*
X32900500Y-41007745D01*
X32900500Y-40274631D01*
X32904432Y-40261238D01*
X32903548Y-40247308D01*
X32914081Y-40228376D01*
X32920185Y-40207592D01*
X32930732Y-40198452D01*
X32937520Y-40186254D01*
X32956617Y-40176022D01*
X32972989Y-40161837D01*
X32986805Y-40159850D01*
X32999109Y-40153259D01*
X33020703Y-40154976D01*
X33042147Y-40151893D01*
X33054843Y-40157691D01*
G37*
%TD.AperFunction*%
%TA.AperFunction,Conductor*%
G36*
X35179886Y-39518287D02*
G01*
X35210625Y-39553760D01*
X35218959Y-39568195D01*
X35330763Y-39679999D01*
X35330765Y-39680000D01*
X35330769Y-39680003D01*
X35435520Y-39740480D01*
X35467695Y-39759056D01*
X35614049Y-39798271D01*
X35673708Y-39834635D01*
X35701728Y-39885949D01*
X35709563Y-39915190D01*
X35740944Y-40032306D01*
X35740947Y-40032311D01*
X35819996Y-40169230D01*
X35820000Y-40169235D01*
X35820001Y-40169237D01*
X35931805Y-40281041D01*
X36068737Y-40360098D01*
X36068738Y-40360098D01*
X36073572Y-40362889D01*
X36121788Y-40413456D01*
X36135012Y-40482063D01*
X36109044Y-40546928D01*
X36099254Y-40557958D01*
X35454522Y-41202690D01*
X35454518Y-41202696D01*
X35401792Y-41294019D01*
X35396300Y-41314518D01*
X35396300Y-41314520D01*
X35374500Y-41395879D01*
X35374500Y-46249851D01*
X35368976Y-46268662D01*
X35368401Y-46288261D01*
X35355578Y-46314290D01*
X35354815Y-46316890D01*
X35352804Y-46319922D01*
X35352304Y-46320652D01*
X35298180Y-46364838D01*
X35228760Y-46372748D01*
X35166083Y-46341871D01*
X35147696Y-46320652D01*
X35147196Y-46319922D01*
X35140502Y-46299375D01*
X35130049Y-46282010D01*
X35130445Y-46268506D01*
X35125553Y-46253489D01*
X35125500Y-46249851D01*
X35125500Y-40668044D01*
X35125501Y-40668019D01*
X35125501Y-40658042D01*
X35125502Y-40658039D01*
X35125501Y-40651845D01*
X35125527Y-40651756D01*
X35125525Y-40600456D01*
X35125526Y-40600456D01*
X35125522Y-40515985D01*
X35096179Y-40349613D01*
X35038393Y-40190863D01*
X35006319Y-40135313D01*
X34953921Y-40044563D01*
X34845359Y-39915190D01*
X34817345Y-39851182D01*
X34828383Y-39782190D01*
X34845353Y-39755782D01*
X34953928Y-39626381D01*
X34995853Y-39553760D01*
X35046414Y-39505548D01*
X35115020Y-39492322D01*
X35179886Y-39518287D01*
G37*
%TD.AperFunction*%
%TA.AperFunction,Conductor*%
G36*
X36830703Y-43389792D02*
G01*
X36868477Y-43448570D01*
X36869263Y-43451371D01*
X36897572Y-43557020D01*
X36899676Y-43564871D01*
X36897910Y-43565344D01*
X36904285Y-43624678D01*
X36902032Y-43634745D01*
X36885895Y-43694973D01*
X36885895Y-43694974D01*
X36874500Y-43737501D01*
X36874500Y-46249851D01*
X36868976Y-46268662D01*
X36868401Y-46288261D01*
X36855578Y-46314290D01*
X36854815Y-46316890D01*
X36852804Y-46319922D01*
X36852304Y-46320652D01*
X36798180Y-46364838D01*
X36728760Y-46372748D01*
X36666083Y-46341871D01*
X36647696Y-46320652D01*
X36647196Y-46319922D01*
X36640502Y-46299375D01*
X36630049Y-46282010D01*
X36630445Y-46268506D01*
X36625553Y-46253489D01*
X36625500Y-46249851D01*
X36625500Y-43483505D01*
X36645185Y-43416466D01*
X36697989Y-43370711D01*
X36767147Y-43360767D01*
X36830703Y-43389792D01*
G37*
%TD.AperFunction*%
%TA.AperFunction,Conductor*%
G36*
X39740425Y-43311895D02*
G01*
X39772596Y-43315253D01*
X39774775Y-43316998D01*
X39777540Y-43317409D01*
X39801897Y-43338715D01*
X39827135Y-43358924D01*
X39828025Y-43361570D01*
X39830129Y-43363411D01*
X39839099Y-43394498D01*
X39849407Y-43425149D01*
X39849500Y-43429961D01*
X39849500Y-46225167D01*
X39843261Y-46246412D01*
X39841682Y-46268501D01*
X39833609Y-46279284D01*
X39829815Y-46292206D01*
X39813081Y-46306705D01*
X39799810Y-46324434D01*
X39787189Y-46329141D01*
X39777011Y-46337961D01*
X39755093Y-46341112D01*
X39734346Y-46348851D01*
X39721185Y-46345988D01*
X39707853Y-46347905D01*
X39687709Y-46338705D01*
X39666073Y-46333999D01*
X39648347Y-46320730D01*
X39644297Y-46318880D01*
X39637819Y-46312848D01*
X39636319Y-46311348D01*
X39602834Y-46250025D01*
X39600000Y-46223667D01*
X39600000Y-46000000D01*
X39552155Y-46000000D01*
X39492627Y-46006401D01*
X39492620Y-46006403D01*
X39357913Y-46056645D01*
X39357911Y-46056646D01*
X39348810Y-46063460D01*
X39283345Y-46087876D01*
X39215072Y-46073024D01*
X39165667Y-46023618D01*
X39150500Y-45964192D01*
X39150500Y-45506117D01*
X39150533Y-45503237D01*
X39154902Y-45315192D01*
X39155191Y-45309148D01*
X39166482Y-45152657D01*
X39167515Y-45143308D01*
X39212753Y-44840276D01*
X39215176Y-44828204D01*
X39289873Y-44533007D01*
X39292124Y-44525203D01*
X39297577Y-44508385D01*
X39407999Y-44167819D01*
X39410651Y-44163498D01*
X39424235Y-44117744D01*
X39438960Y-44072329D01*
X39438960Y-44072317D01*
X39439805Y-44067747D01*
X39442873Y-44054965D01*
X39453408Y-44019481D01*
X39510461Y-43827316D01*
X39516322Y-43816301D01*
X39525421Y-43776928D01*
X39536924Y-43738186D01*
X39536924Y-43738164D01*
X39540065Y-43713564D01*
X39544473Y-43694494D01*
X39559663Y-43628769D01*
X39564344Y-43618674D01*
X39571505Y-43577531D01*
X39580905Y-43536860D01*
X39580905Y-43536856D01*
X39581542Y-43530251D01*
X39582728Y-43513052D01*
X39587871Y-43483505D01*
X39597478Y-43428308D01*
X39600827Y-43414089D01*
X39602376Y-43408900D01*
X39603896Y-43405072D01*
X39604135Y-43403013D01*
X39606688Y-43394469D01*
X39624306Y-43367333D01*
X39640722Y-43339470D01*
X39643214Y-43338212D01*
X39644737Y-43335868D01*
X39674223Y-43322569D01*
X39703103Y-43308000D01*
X39705883Y-43308290D01*
X39708429Y-43307142D01*
X39740425Y-43311895D01*
G37*
%TD.AperFunction*%
%TA.AperFunction,Conductor*%
G36*
X38797427Y-39325741D02*
G01*
X38840617Y-39380662D01*
X38849500Y-39426749D01*
X38849500Y-42745514D01*
X38849481Y-42747657D01*
X38847068Y-42887265D01*
X38846853Y-42892741D01*
X38835536Y-43076579D01*
X38834939Y-43083295D01*
X38816074Y-43245384D01*
X38815068Y-43252313D01*
X38786715Y-43415206D01*
X38785367Y-43421865D01*
X38763319Y-43517260D01*
X38729044Y-43578145D01*
X38667293Y-43610834D01*
X38597671Y-43604949D01*
X38544049Y-43563714D01*
X38543661Y-43564013D01*
X38542543Y-43562556D01*
X38542284Y-43562357D01*
X38541694Y-43561450D01*
X38538709Y-43557560D01*
X38426908Y-43445759D01*
X38426900Y-43445753D01*
X38289981Y-43366704D01*
X38289976Y-43366701D01*
X38188347Y-43339470D01*
X38143619Y-43327485D01*
X38083961Y-43291121D01*
X38055941Y-43239806D01*
X38016726Y-43093452D01*
X38008929Y-43079947D01*
X37937673Y-42956526D01*
X37937667Y-42956518D01*
X37825866Y-42844717D01*
X37825858Y-42844711D01*
X37688939Y-42765662D01*
X37688935Y-42765660D01*
X37688933Y-42765659D01*
X37536206Y-42724736D01*
X37378092Y-42724736D01*
X37225365Y-42765659D01*
X37225358Y-42765662D01*
X37088439Y-42844711D01*
X37088431Y-42844717D01*
X36976630Y-42956518D01*
X36976624Y-42956526D01*
X36897575Y-43093445D01*
X36897572Y-43093450D01*
X36896238Y-43098429D01*
X36869274Y-43199061D01*
X36832910Y-43258720D01*
X36770063Y-43289249D01*
X36700687Y-43280954D01*
X36646809Y-43236469D01*
X36625535Y-43169917D01*
X36625500Y-43166966D01*
X36625500Y-41852255D01*
X36645185Y-41785216D01*
X36661819Y-41764574D01*
X38045477Y-40380916D01*
X38045480Y-40380913D01*
X38051796Y-40369974D01*
X38055887Y-40362889D01*
X38063551Y-40349613D01*
X38098207Y-40289587D01*
X38125500Y-40187727D01*
X38125500Y-39668467D01*
X38125500Y-39583500D01*
X38145185Y-39516461D01*
X38197989Y-39470706D01*
X38240553Y-39461446D01*
X38240424Y-39459972D01*
X38245811Y-39459500D01*
X38245820Y-39459500D01*
X38412883Y-39430042D01*
X38572293Y-39372021D01*
X38663502Y-39319361D01*
X38731400Y-39302889D01*
X38797427Y-39325741D01*
G37*
%TD.AperFunction*%
%TA.AperFunction,Conductor*%
G36*
X32970023Y-37837093D02*
G01*
X32984296Y-37835148D01*
X33003536Y-37844105D01*
X33024312Y-37848453D01*
X33034578Y-37858558D01*
X33047637Y-37864638D01*
X33058980Y-37882576D01*
X33074107Y-37897465D01*
X33077280Y-37911515D01*
X33084980Y-37923691D01*
X33089747Y-37958662D01*
X33089701Y-37964868D01*
X33089504Y-37965988D01*
X33089502Y-37992049D01*
X33089500Y-37992371D01*
X33089500Y-38050456D01*
X33089498Y-38118019D01*
X33089500Y-38118044D01*
X33089500Y-38281047D01*
X33089522Y-38281399D01*
X33089522Y-38304928D01*
X33118852Y-38471302D01*
X33118854Y-38471311D01*
X33176623Y-38630049D01*
X33176627Y-38630056D01*
X33261093Y-38776367D01*
X33369678Y-38905780D01*
X33397689Y-38969789D01*
X33386647Y-39038781D01*
X33369674Y-39065191D01*
X33261099Y-39194578D01*
X33176631Y-39340873D01*
X33141021Y-39438702D01*
X33099593Y-39494965D01*
X33034323Y-39519898D01*
X32965935Y-39505586D01*
X32916141Y-39456573D01*
X32900500Y-39396288D01*
X32900500Y-39151434D01*
X32900500Y-39151430D01*
X32870435Y-38980920D01*
X32811217Y-38818222D01*
X32724647Y-38668278D01*
X32683718Y-38619500D01*
X32613355Y-38535644D01*
X32587548Y-38513990D01*
X32548845Y-38455819D01*
X32547736Y-38385958D01*
X32584573Y-38326588D01*
X32587548Y-38324010D01*
X32613355Y-38302355D01*
X32637818Y-38273201D01*
X32724647Y-38169722D01*
X32811217Y-38019778D01*
X32849229Y-37915341D01*
X32857769Y-37903742D01*
X32861929Y-37889951D01*
X32878070Y-37876170D01*
X32890654Y-37859079D01*
X32904109Y-37853938D01*
X32915066Y-37844584D01*
X32936097Y-37841717D01*
X32955923Y-37834143D01*
X32970023Y-37837093D01*
G37*
%TD.AperFunction*%
%TA.AperFunction,Conductor*%
G36*
X23105703Y-34922542D02*
G01*
X23112181Y-34928574D01*
X25659519Y-37475912D01*
X25659520Y-37475913D01*
X25734087Y-37550480D01*
X25825413Y-37603207D01*
X25857216Y-37611728D01*
X25916875Y-37648091D01*
X25935606Y-37675206D01*
X26010025Y-37821260D01*
X26016006Y-37832997D01*
X26122441Y-37979494D01*
X26122445Y-37979499D01*
X26250500Y-38107554D01*
X26250505Y-38107558D01*
X26336069Y-38169723D01*
X26397006Y-38213996D01*
X26502484Y-38267740D01*
X26558360Y-38296211D01*
X26558363Y-38296212D01*
X26625908Y-38318158D01*
X26730591Y-38352171D01*
X26803639Y-38363740D01*
X26890678Y-38377527D01*
X26953813Y-38407456D01*
X26990744Y-38466768D01*
X26989746Y-38536631D01*
X26951136Y-38594863D01*
X26890678Y-38622473D01*
X26730589Y-38647829D01*
X26558363Y-38703787D01*
X26558360Y-38703788D01*
X26397002Y-38786006D01*
X26250505Y-38892441D01*
X26250500Y-38892445D01*
X26122445Y-39020500D01*
X26122441Y-39020505D01*
X26016006Y-39167002D01*
X25947325Y-39301795D01*
X25936875Y-39312859D01*
X25930553Y-39326703D01*
X25913372Y-39337744D01*
X25899350Y-39352591D01*
X25883670Y-39356832D01*
X25871775Y-39364477D01*
X25836840Y-39369500D01*
X25737255Y-39369500D01*
X25670216Y-39349815D01*
X25649574Y-39333181D01*
X22936819Y-36620426D01*
X22903334Y-36559103D01*
X22900500Y-36532745D01*
X22900500Y-35016255D01*
X22920185Y-34949216D01*
X22972989Y-34903461D01*
X23042147Y-34893517D01*
X23105703Y-34922542D01*
G37*
%TD.AperFunction*%
%TA.AperFunction,Conductor*%
G36*
X35793834Y-27693269D02*
G01*
X35849767Y-27735141D01*
X35874184Y-27800605D01*
X35874500Y-27809451D01*
X35874500Y-38474979D01*
X35854815Y-38542018D01*
X35802011Y-38587773D01*
X35750500Y-38598979D01*
X35620422Y-38598979D01*
X35467695Y-38639902D01*
X35467688Y-38639905D01*
X35330769Y-38718954D01*
X35330765Y-38718957D01*
X35310170Y-38739552D01*
X35248846Y-38773036D01*
X35179154Y-38768050D01*
X35123221Y-38726178D01*
X35100375Y-38673406D01*
X35096179Y-38649613D01*
X35038393Y-38490863D01*
X34993809Y-38413647D01*
X34953921Y-38344563D01*
X34938837Y-38326588D01*
X34845359Y-38215190D01*
X34817345Y-38151182D01*
X34828383Y-38082190D01*
X34845353Y-38055782D01*
X34953928Y-37926381D01*
X35038396Y-37780067D01*
X35046326Y-37758279D01*
X35096172Y-37621311D01*
X35108659Y-37550480D01*
X35125504Y-37454928D01*
X35125500Y-37370456D01*
X35125500Y-37365032D01*
X35125500Y-37268044D01*
X35125501Y-37268019D01*
X35125501Y-37258042D01*
X35125502Y-37258039D01*
X35125501Y-37251845D01*
X35125527Y-37251756D01*
X35125525Y-37200456D01*
X35125526Y-37200456D01*
X35125522Y-37115985D01*
X35096179Y-36949613D01*
X35038393Y-36790863D01*
X34982459Y-36693990D01*
X34953921Y-36644563D01*
X34939188Y-36627006D01*
X34845359Y-36515190D01*
X34817345Y-36451182D01*
X34828383Y-36382190D01*
X34845353Y-36355782D01*
X34953928Y-36226381D01*
X35038396Y-36080067D01*
X35038603Y-36079500D01*
X35096172Y-35921311D01*
X35105444Y-35868716D01*
X35125504Y-35754928D01*
X35125500Y-35670456D01*
X35125500Y-35660947D01*
X35125500Y-35568044D01*
X35125501Y-35568019D01*
X35125501Y-35558042D01*
X35125502Y-35558039D01*
X35125501Y-35551845D01*
X35125527Y-35551756D01*
X35125525Y-35500456D01*
X35125526Y-35500456D01*
X35125522Y-35415985D01*
X35096179Y-35249613D01*
X35038393Y-35090863D01*
X35001092Y-35026260D01*
X34953921Y-34944563D01*
X34945645Y-34934701D01*
X34845359Y-34815190D01*
X34817345Y-34751182D01*
X34828383Y-34682190D01*
X34845353Y-34655782D01*
X34953928Y-34526381D01*
X35038396Y-34380067D01*
X35038502Y-34379778D01*
X35096172Y-34221311D01*
X35102732Y-34184101D01*
X35125504Y-34054928D01*
X35125500Y-33970456D01*
X35125500Y-33965165D01*
X35125500Y-33868044D01*
X35125501Y-33868019D01*
X35125501Y-33858042D01*
X35125502Y-33858039D01*
X35125501Y-33851845D01*
X35125527Y-33851756D01*
X35125525Y-33800456D01*
X35125526Y-33800456D01*
X35125522Y-33715985D01*
X35096179Y-33549613D01*
X35038393Y-33390863D01*
X35000498Y-33325232D01*
X34953921Y-33244563D01*
X34893672Y-33172765D01*
X34845359Y-33115190D01*
X34817345Y-33051182D01*
X34828383Y-32982190D01*
X34845353Y-32955782D01*
X34953928Y-32826381D01*
X35038396Y-32680067D01*
X35038967Y-32678500D01*
X35096172Y-32521311D01*
X35096173Y-32521308D01*
X35125504Y-32354928D01*
X35125500Y-32270456D01*
X35125500Y-32265093D01*
X35125500Y-32168044D01*
X35125501Y-32168019D01*
X35125501Y-32158042D01*
X35125502Y-32158039D01*
X35125501Y-32151845D01*
X35125527Y-32151756D01*
X35125525Y-32100456D01*
X35125526Y-32100456D01*
X35125522Y-32015985D01*
X35096179Y-31849613D01*
X35038393Y-31690863D01*
X34975415Y-31581790D01*
X34953921Y-31544563D01*
X34845359Y-31415190D01*
X34817345Y-31351182D01*
X34828383Y-31282190D01*
X34845353Y-31255782D01*
X34953928Y-31126381D01*
X35038396Y-30980067D01*
X35053858Y-30937583D01*
X35096172Y-30821311D01*
X35096173Y-30821308D01*
X35125504Y-30654928D01*
X35125500Y-30570456D01*
X35125500Y-30563210D01*
X35125500Y-30468044D01*
X35125501Y-30468019D01*
X35125501Y-30458042D01*
X35125502Y-30458039D01*
X35125501Y-30451845D01*
X35125527Y-30451756D01*
X35125525Y-30400456D01*
X35125526Y-30400456D01*
X35125522Y-30315985D01*
X35096179Y-30149613D01*
X35038393Y-29990863D01*
X34970497Y-29873272D01*
X34953921Y-29844563D01*
X34941514Y-29829778D01*
X34845359Y-29715190D01*
X34817345Y-29651182D01*
X34828383Y-29582190D01*
X34845353Y-29555782D01*
X34953928Y-29426381D01*
X35038396Y-29280067D01*
X35049904Y-29248447D01*
X35096172Y-29121311D01*
X35096173Y-29121308D01*
X35125504Y-28954928D01*
X35125500Y-28870456D01*
X35125500Y-28865165D01*
X35125500Y-28310451D01*
X35145185Y-28243412D01*
X35161819Y-28222770D01*
X35662819Y-27721770D01*
X35724142Y-27688285D01*
X35793834Y-27693269D01*
G37*
%TD.AperFunction*%
%TA.AperFunction,Conductor*%
G36*
X33105703Y-29980918D02*
G01*
X33141023Y-30032223D01*
X33148013Y-30051430D01*
X33176627Y-30130057D01*
X33261093Y-30276367D01*
X33369678Y-30405780D01*
X33397689Y-30469789D01*
X33386647Y-30538781D01*
X33369674Y-30565191D01*
X33261099Y-30694578D01*
X33176631Y-30840873D01*
X33158387Y-30890994D01*
X33118890Y-30999501D01*
X33118846Y-30999621D01*
X33118843Y-30999630D01*
X33089504Y-31165980D01*
X33089503Y-31165990D01*
X33089502Y-31191607D01*
X33089502Y-31197737D01*
X33089500Y-31197747D01*
X33089500Y-31230000D01*
X33089500Y-31238542D01*
X33089500Y-31250456D01*
X33089498Y-31318019D01*
X33089500Y-31318044D01*
X33089500Y-31481047D01*
X33089522Y-31481399D01*
X33089522Y-31504928D01*
X33118852Y-31671302D01*
X33118854Y-31671311D01*
X33176623Y-31830049D01*
X33176627Y-31830056D01*
X33261093Y-31976367D01*
X33369678Y-32105780D01*
X33397689Y-32169789D01*
X33386647Y-32238781D01*
X33369674Y-32265191D01*
X33261099Y-32394578D01*
X33176631Y-32540873D01*
X33169748Y-32559782D01*
X33125964Y-32680067D01*
X33118846Y-32699621D01*
X33118843Y-32699630D01*
X33089504Y-32865980D01*
X33089503Y-32865990D01*
X33089502Y-32891607D01*
X33089502Y-32897737D01*
X33089500Y-32897747D01*
X33089500Y-32941772D01*
X33089500Y-32950456D01*
X33089499Y-32995819D01*
X33089498Y-33018019D01*
X33089500Y-33018044D01*
X33089500Y-33181047D01*
X33089522Y-33181399D01*
X33089522Y-33204928D01*
X33118852Y-33371302D01*
X33118854Y-33371311D01*
X33176623Y-33530049D01*
X33176627Y-33530056D01*
X33261093Y-33676367D01*
X33369678Y-33805780D01*
X33397689Y-33869789D01*
X33386647Y-33938781D01*
X33369674Y-33965191D01*
X33261099Y-34094578D01*
X33176631Y-34240873D01*
X33166681Y-34268209D01*
X33125964Y-34380067D01*
X33118846Y-34399621D01*
X33118843Y-34399630D01*
X33089504Y-34565980D01*
X33089503Y-34565990D01*
X33089502Y-34591607D01*
X33089502Y-34597737D01*
X33089500Y-34597747D01*
X33089500Y-34626117D01*
X33089500Y-34636597D01*
X33089500Y-34650456D01*
X33089498Y-34718019D01*
X33089500Y-34718044D01*
X33089500Y-34881047D01*
X33089522Y-34881399D01*
X33089522Y-34904928D01*
X33118852Y-35071302D01*
X33118854Y-35071311D01*
X33176623Y-35230049D01*
X33176627Y-35230056D01*
X33261093Y-35376367D01*
X33369678Y-35505780D01*
X33397689Y-35569789D01*
X33386647Y-35638781D01*
X33369674Y-35665191D01*
X33261099Y-35794578D01*
X33176631Y-35940873D01*
X33176631Y-35940874D01*
X33122312Y-36090100D01*
X33118846Y-36099621D01*
X33118843Y-36099630D01*
X33089504Y-36265980D01*
X33089503Y-36265990D01*
X33089502Y-36291607D01*
X33089502Y-36297737D01*
X33089500Y-36297747D01*
X33089500Y-36345289D01*
X33089500Y-36350456D01*
X33089498Y-36418019D01*
X33089500Y-36418044D01*
X33089500Y-36581047D01*
X33089522Y-36581399D01*
X33089522Y-36604928D01*
X33118852Y-36771302D01*
X33118854Y-36771311D01*
X33176623Y-36930049D01*
X33176627Y-36930056D01*
X33261093Y-37076367D01*
X33369678Y-37205780D01*
X33397689Y-37269789D01*
X33386647Y-37338781D01*
X33369674Y-37365191D01*
X33261099Y-37494578D01*
X33176629Y-37640876D01*
X33176627Y-37640879D01*
X33140524Y-37740064D01*
X33099096Y-37796327D01*
X33033827Y-37821260D01*
X32965439Y-37806948D01*
X32915645Y-37757935D01*
X32900751Y-37691984D01*
X32900500Y-37691984D01*
X32900500Y-37690870D01*
X32900254Y-37689781D01*
X32900476Y-37686836D01*
X32900498Y-37686578D01*
X32900500Y-37686570D01*
X32900500Y-37600000D01*
X32900500Y-37542417D01*
X32900500Y-37365273D01*
X32900500Y-37331430D01*
X32870435Y-37160920D01*
X32811217Y-36998222D01*
X32724647Y-36848278D01*
X32686425Y-36802727D01*
X32613355Y-36715644D01*
X32587548Y-36693990D01*
X32548845Y-36635819D01*
X32547736Y-36565958D01*
X32584573Y-36506588D01*
X32587548Y-36504010D01*
X32613355Y-36482355D01*
X32652685Y-36435483D01*
X32724647Y-36349722D01*
X32811217Y-36199778D01*
X32870435Y-36037080D01*
X32900500Y-35866570D01*
X32900500Y-35780000D01*
X32900500Y-35722417D01*
X32900500Y-35545273D01*
X32900500Y-35511430D01*
X32870435Y-35340920D01*
X32811217Y-35178222D01*
X32724647Y-35028278D01*
X32679381Y-34974332D01*
X32613355Y-34895644D01*
X32587548Y-34873990D01*
X32548845Y-34815819D01*
X32547736Y-34745958D01*
X32584573Y-34686588D01*
X32587548Y-34684010D01*
X32613355Y-34662355D01*
X32643762Y-34626117D01*
X32724647Y-34529722D01*
X32811217Y-34379778D01*
X32870435Y-34217080D01*
X32900500Y-34046570D01*
X32900500Y-33960000D01*
X32900500Y-33902417D01*
X32900500Y-33725273D01*
X32900500Y-33691430D01*
X32870435Y-33520920D01*
X32811217Y-33358222D01*
X32724647Y-33208278D01*
X32692089Y-33169477D01*
X32613355Y-33075644D01*
X32587548Y-33053990D01*
X32548845Y-32995819D01*
X32547736Y-32925958D01*
X32584573Y-32866588D01*
X32587548Y-32864010D01*
X32613355Y-32842355D01*
X32629272Y-32823386D01*
X32724647Y-32709722D01*
X32811217Y-32559778D01*
X32870435Y-32397080D01*
X32900500Y-32226570D01*
X32900500Y-32140000D01*
X32900500Y-32082417D01*
X32900500Y-31905273D01*
X32900500Y-31871430D01*
X32870435Y-31700920D01*
X32811217Y-31538222D01*
X32724647Y-31388278D01*
X32657319Y-31308039D01*
X32613355Y-31255644D01*
X32587548Y-31233990D01*
X32548845Y-31175819D01*
X32547736Y-31105958D01*
X32584573Y-31046588D01*
X32587548Y-31044010D01*
X32613355Y-31022355D01*
X32618307Y-31016453D01*
X32724647Y-30889722D01*
X32811217Y-30739778D01*
X32870435Y-30577080D01*
X32900500Y-30406570D01*
X32900500Y-30320000D01*
X32900500Y-30262417D01*
X32900500Y-30085273D01*
X32900500Y-30074631D01*
X32920185Y-30007592D01*
X32972989Y-29961837D01*
X33042147Y-29951893D01*
X33105703Y-29980918D01*
G37*
%TD.AperFunction*%
%TA.AperFunction,Conductor*%
G36*
X23605703Y-32142541D02*
G01*
X23612181Y-32148573D01*
X25834024Y-34370416D01*
X25867509Y-34431739D01*
X25868816Y-34477495D01*
X25849500Y-34599448D01*
X25849500Y-34780551D01*
X25877829Y-34959410D01*
X25933787Y-35131636D01*
X25933788Y-35131639D01*
X25957524Y-35178222D01*
X26014367Y-35289782D01*
X26016006Y-35292997D01*
X26122441Y-35439494D01*
X26122445Y-35439499D01*
X26250500Y-35567554D01*
X26250505Y-35567558D01*
X26348536Y-35638781D01*
X26397006Y-35673996D01*
X26476315Y-35714406D01*
X26558360Y-35756211D01*
X26558363Y-35756212D01*
X26631577Y-35780000D01*
X26730591Y-35812171D01*
X26803639Y-35823740D01*
X26890678Y-35837527D01*
X26953813Y-35867456D01*
X26990744Y-35926768D01*
X26989746Y-35996631D01*
X26951136Y-36054863D01*
X26890678Y-36082473D01*
X26730589Y-36107829D01*
X26558363Y-36163787D01*
X26558360Y-36163788D01*
X26397002Y-36246006D01*
X26250505Y-36352441D01*
X26250500Y-36352445D01*
X26122445Y-36480500D01*
X26122441Y-36480505D01*
X26070788Y-36551600D01*
X26015458Y-36594266D01*
X25945845Y-36600245D01*
X25884050Y-36567639D01*
X25882789Y-36566396D01*
X23436819Y-34120426D01*
X23403334Y-34059103D01*
X23400500Y-34032745D01*
X23400500Y-32236254D01*
X23420185Y-32169215D01*
X23472989Y-32123460D01*
X23542147Y-32113516D01*
X23605703Y-32142541D01*
G37*
%TD.AperFunction*%
%TA.AperFunction,Conductor*%
G36*
X29742539Y-18420185D02*
G01*
X29788294Y-18472989D01*
X29799500Y-18524500D01*
X29799500Y-19894856D01*
X29799502Y-19894882D01*
X29802413Y-19919987D01*
X29802415Y-19919991D01*
X29847793Y-20022764D01*
X29847794Y-20022765D01*
X29927235Y-20102206D01*
X30030009Y-20147585D01*
X30055135Y-20150500D01*
X30225500Y-20150499D01*
X30292539Y-20170183D01*
X30338294Y-20222987D01*
X30349500Y-20274499D01*
X30349500Y-20749902D01*
X30329815Y-20816941D01*
X30313181Y-20837583D01*
X30269481Y-20881282D01*
X30269475Y-20881290D01*
X30190426Y-21018209D01*
X30190423Y-21018216D01*
X30149500Y-21170943D01*
X30149500Y-21329056D01*
X30190423Y-21481783D01*
X30190426Y-21481790D01*
X30269475Y-21618709D01*
X30269481Y-21618717D01*
X30313181Y-21662417D01*
X30346666Y-21723740D01*
X30349500Y-21750098D01*
X30349500Y-24232745D01*
X30329815Y-24299784D01*
X30313181Y-24320426D01*
X26679522Y-27954084D01*
X26679520Y-27954087D01*
X26643050Y-28017255D01*
X26626793Y-28045412D01*
X26617778Y-28079057D01*
X26617778Y-28079058D01*
X26617777Y-28079057D01*
X26599500Y-28147271D01*
X26599500Y-30875500D01*
X26579815Y-30942539D01*
X26527011Y-30988294D01*
X26475500Y-30999500D01*
X26105143Y-30999500D01*
X26105117Y-30999502D01*
X26080012Y-31002413D01*
X26080008Y-31002415D01*
X25977235Y-31047793D01*
X25897794Y-31127234D01*
X25852415Y-31230006D01*
X25852415Y-31230008D01*
X25849500Y-31255131D01*
X25849500Y-32953746D01*
X25829815Y-33020785D01*
X25777011Y-33066540D01*
X25707853Y-33076484D01*
X25644297Y-33047459D01*
X25637819Y-33041427D01*
X25120892Y-32524500D01*
X23936819Y-31340426D01*
X23903334Y-31279103D01*
X23900500Y-31252745D01*
X23900500Y-23597844D01*
X26950000Y-23597844D01*
X26956401Y-23657372D01*
X26956403Y-23657379D01*
X27006645Y-23792086D01*
X27006649Y-23792093D01*
X27092809Y-23907187D01*
X27092812Y-23907190D01*
X27207906Y-23993350D01*
X27207913Y-23993354D01*
X27342620Y-24043596D01*
X27342627Y-24043598D01*
X27402155Y-24049999D01*
X27402172Y-24050000D01*
X28100000Y-24050000D01*
X28600000Y-24050000D01*
X29297828Y-24050000D01*
X29297844Y-24049999D01*
X29357372Y-24043598D01*
X29357379Y-24043596D01*
X29492086Y-23993354D01*
X29492093Y-23993350D01*
X29607187Y-23907190D01*
X29607190Y-23907187D01*
X29693350Y-23792093D01*
X29693354Y-23792086D01*
X29743596Y-23657379D01*
X29743598Y-23657372D01*
X29749999Y-23597844D01*
X29750000Y-23597827D01*
X29750000Y-22700000D01*
X28600000Y-22700000D01*
X28600000Y-24050000D01*
X28100000Y-24050000D01*
X28100000Y-22700000D01*
X26950000Y-22700000D01*
X26950000Y-23597844D01*
X23900500Y-23597844D01*
X23900500Y-21302155D01*
X26950000Y-21302155D01*
X26950000Y-22200000D01*
X28100000Y-22200000D01*
X28600000Y-22200000D01*
X29750000Y-22200000D01*
X29750000Y-21302172D01*
X29749999Y-21302155D01*
X29743598Y-21242627D01*
X29743596Y-21242620D01*
X29693354Y-21107913D01*
X29693350Y-21107906D01*
X29607190Y-20992812D01*
X29607187Y-20992809D01*
X29492093Y-20906649D01*
X29492086Y-20906645D01*
X29357379Y-20856403D01*
X29357372Y-20856401D01*
X29297844Y-20850000D01*
X28600000Y-20850000D01*
X28600000Y-22200000D01*
X28100000Y-22200000D01*
X28100000Y-20850000D01*
X27402155Y-20850000D01*
X27342627Y-20856401D01*
X27342620Y-20856403D01*
X27207913Y-20906645D01*
X27207906Y-20906649D01*
X27092812Y-20992809D01*
X27092809Y-20992812D01*
X27006649Y-21107906D01*
X27006645Y-21107913D01*
X26956403Y-21242620D01*
X26956401Y-21242627D01*
X26950000Y-21302155D01*
X23900500Y-21302155D01*
X23900500Y-19650154D01*
X23920185Y-19583115D01*
X23936819Y-19562473D01*
X25062473Y-18436819D01*
X25123796Y-18403334D01*
X25150154Y-18400500D01*
X29675500Y-18400500D01*
X29742539Y-18420185D01*
G37*
%TD.AperFunction*%
%TA.AperFunction,Conductor*%
G36*
X34793834Y-25693271D02*
G01*
X34849767Y-25735143D01*
X34874184Y-25800607D01*
X34874500Y-25809453D01*
X34874500Y-26689548D01*
X34854815Y-26756587D01*
X34838181Y-26777229D01*
X33954522Y-27660887D01*
X33954518Y-27660893D01*
X33901793Y-27752213D01*
X33897507Y-27768214D01*
X33897506Y-27768216D01*
X33874500Y-27854076D01*
X33874500Y-28501907D01*
X33854815Y-28568946D01*
X33802011Y-28614701D01*
X33792910Y-28618429D01*
X33645421Y-28672109D01*
X33645414Y-28672112D01*
X33499110Y-28756578D01*
X33499105Y-28756582D01*
X33369698Y-28865162D01*
X33369696Y-28865164D01*
X33261103Y-28994573D01*
X33261101Y-28994576D01*
X33176631Y-29140873D01*
X33171826Y-29154073D01*
X33125964Y-29280067D01*
X33118846Y-29299621D01*
X33118843Y-29299630D01*
X33089504Y-29465980D01*
X33089503Y-29465990D01*
X33089502Y-29491607D01*
X33089502Y-29497737D01*
X33089500Y-29497747D01*
X33089500Y-29541192D01*
X33089500Y-29550456D01*
X33089498Y-29618019D01*
X33089500Y-29618044D01*
X33089500Y-29779559D01*
X33069815Y-29846598D01*
X33017011Y-29892353D01*
X32947853Y-29902297D01*
X32884297Y-29873272D01*
X32848979Y-29821972D01*
X32811217Y-29718222D01*
X32724647Y-29568278D01*
X32665465Y-29497747D01*
X32613355Y-29435644D01*
X32587548Y-29413990D01*
X32548845Y-29355819D01*
X32547736Y-29285958D01*
X32584573Y-29226588D01*
X32587548Y-29224010D01*
X32613355Y-29202355D01*
X32653868Y-29154073D01*
X32724647Y-29069722D01*
X32811217Y-28919778D01*
X32870435Y-28757080D01*
X32900500Y-28586570D01*
X32900500Y-28500000D01*
X32900500Y-28442417D01*
X32900500Y-27535453D01*
X32920185Y-27468414D01*
X32936819Y-27447772D01*
X34662819Y-25721772D01*
X34724142Y-25688287D01*
X34793834Y-25693271D01*
G37*
%TD.AperFunction*%
%TA.AperFunction,Conductor*%
G36*
X52322764Y-16401209D02*
G01*
X52325184Y-16401179D01*
X52325188Y-16401180D01*
X52379003Y-16400515D01*
X52386490Y-16400650D01*
X52640996Y-16412990D01*
X52655954Y-16414631D01*
X52903323Y-16457100D01*
X52917971Y-16460542D01*
X53158365Y-16532702D01*
X53172499Y-16537900D01*
X53402357Y-16638679D01*
X53415747Y-16645548D01*
X53441749Y-16660950D01*
X53631685Y-16773460D01*
X53644158Y-16781912D01*
X53665693Y-16798500D01*
X53842994Y-16935074D01*
X53854333Y-16944963D01*
X54033123Y-17121108D01*
X54043189Y-17132310D01*
X54199293Y-17328837D01*
X54207931Y-17341183D01*
X54339042Y-17555184D01*
X54346118Y-17568486D01*
X54450307Y-17796810D01*
X54455717Y-17810872D01*
X54531443Y-18050141D01*
X54535109Y-18064755D01*
X54581260Y-18311458D01*
X54583125Y-18326410D01*
X54599251Y-18580648D01*
X54599500Y-18588497D01*
X54599500Y-24972666D01*
X54579815Y-25039705D01*
X54527011Y-25085460D01*
X54457853Y-25095404D01*
X54394297Y-25066379D01*
X54368113Y-25034667D01*
X54355732Y-25013222D01*
X54250249Y-24830521D01*
X54146961Y-24695913D01*
X54082629Y-24612073D01*
X54082623Y-24612066D01*
X53887933Y-24417376D01*
X53887926Y-24417370D01*
X53669483Y-24249754D01*
X53669482Y-24249753D01*
X53669479Y-24249751D01*
X53530013Y-24169230D01*
X53431028Y-24112080D01*
X53431017Y-24112075D01*
X53176630Y-24006704D01*
X53043649Y-23971072D01*
X52910666Y-23935440D01*
X52910660Y-23935439D01*
X52910655Y-23935438D01*
X52637684Y-23899501D01*
X52637679Y-23899500D01*
X52637674Y-23899500D01*
X52362326Y-23899500D01*
X52362320Y-23899500D01*
X52362315Y-23899501D01*
X52089344Y-23935438D01*
X52089337Y-23935439D01*
X52089334Y-23935440D01*
X52067319Y-23941339D01*
X51823369Y-24006704D01*
X51568982Y-24112075D01*
X51568971Y-24112080D01*
X51330516Y-24249754D01*
X51112073Y-24417370D01*
X51112066Y-24417376D01*
X50917376Y-24612066D01*
X50917370Y-24612073D01*
X50749754Y-24830516D01*
X50612080Y-25068971D01*
X50612075Y-25068982D01*
X50506704Y-25323369D01*
X50471425Y-25455036D01*
X50439120Y-25575602D01*
X50435441Y-25589331D01*
X50435438Y-25589344D01*
X50399501Y-25862315D01*
X50399500Y-25862332D01*
X50399500Y-26137667D01*
X50399501Y-26137684D01*
X50435438Y-26410655D01*
X50435439Y-26410660D01*
X50435440Y-26410666D01*
X50435441Y-26410668D01*
X50506704Y-26676630D01*
X50612075Y-26931017D01*
X50612080Y-26931028D01*
X50678490Y-27046052D01*
X50749751Y-27169479D01*
X50749753Y-27169482D01*
X50749754Y-27169483D01*
X50917370Y-27387926D01*
X50917376Y-27387933D01*
X51112066Y-27582623D01*
X51112073Y-27582629D01*
X51214069Y-27660893D01*
X51330521Y-27750249D01*
X51433062Y-27809451D01*
X51568971Y-27887919D01*
X51568976Y-27887921D01*
X51568979Y-27887923D01*
X51823368Y-27993295D01*
X52089334Y-28064560D01*
X52362326Y-28100500D01*
X52362333Y-28100500D01*
X52637667Y-28100500D01*
X52637674Y-28100500D01*
X52910666Y-28064560D01*
X53176632Y-27993295D01*
X53431021Y-27887923D01*
X53669479Y-27750249D01*
X53887928Y-27582628D01*
X54082628Y-27387928D01*
X54250249Y-27169479D01*
X54368113Y-26965333D01*
X54418680Y-26917117D01*
X54487287Y-26903895D01*
X54552152Y-26929863D01*
X54592680Y-26986777D01*
X54599500Y-27027333D01*
X54599500Y-47472666D01*
X54579815Y-47539705D01*
X54527011Y-47585460D01*
X54457853Y-47595404D01*
X54394297Y-47566379D01*
X54368113Y-47534667D01*
X54355732Y-47513222D01*
X54250249Y-47330521D01*
X54082628Y-47112072D01*
X54082623Y-47112066D01*
X53887933Y-46917376D01*
X53887926Y-46917370D01*
X53669483Y-46749754D01*
X53669482Y-46749753D01*
X53669479Y-46749751D01*
X53574407Y-46694861D01*
X53431028Y-46612080D01*
X53431017Y-46612075D01*
X53176630Y-46506704D01*
X53043649Y-46471072D01*
X52910666Y-46435440D01*
X52910660Y-46435439D01*
X52910655Y-46435438D01*
X52637684Y-46399501D01*
X52637679Y-46399500D01*
X52637674Y-46399500D01*
X52362326Y-46399500D01*
X52362320Y-46399500D01*
X52362315Y-46399501D01*
X52089344Y-46435438D01*
X52089337Y-46435439D01*
X52089334Y-46435440D01*
X52033125Y-46450500D01*
X51823369Y-46506704D01*
X51568982Y-46612075D01*
X51568971Y-46612080D01*
X51330516Y-46749754D01*
X51112073Y-46917370D01*
X51112066Y-46917376D01*
X50917376Y-47112066D01*
X50917370Y-47112073D01*
X50749754Y-47330516D01*
X50612080Y-47568971D01*
X50612075Y-47568982D01*
X50506704Y-47823369D01*
X50456002Y-48012596D01*
X50439496Y-48074199D01*
X50435441Y-48089331D01*
X50435438Y-48089344D01*
X50399501Y-48362315D01*
X50399500Y-48362332D01*
X50399500Y-48637667D01*
X50399501Y-48637684D01*
X50435438Y-48910655D01*
X50435439Y-48910660D01*
X50435440Y-48910666D01*
X50471072Y-49043649D01*
X50506704Y-49176630D01*
X50612075Y-49431017D01*
X50612080Y-49431028D01*
X50667683Y-49527333D01*
X50749751Y-49669479D01*
X50749753Y-49669482D01*
X50749754Y-49669483D01*
X50917370Y-49887926D01*
X50917376Y-49887933D01*
X51112066Y-50082623D01*
X51112072Y-50082628D01*
X51330521Y-50250249D01*
X51483778Y-50338732D01*
X51568971Y-50387919D01*
X51568976Y-50387921D01*
X51568979Y-50387923D01*
X51823368Y-50493295D01*
X52089334Y-50564560D01*
X52362326Y-50600500D01*
X52362333Y-50600500D01*
X52637667Y-50600500D01*
X52637674Y-50600500D01*
X52910666Y-50564560D01*
X53176632Y-50493295D01*
X53431021Y-50387923D01*
X53669479Y-50250249D01*
X53887928Y-50082628D01*
X54082628Y-49887928D01*
X54250249Y-49669479D01*
X54368113Y-49465333D01*
X54418680Y-49417117D01*
X54487287Y-49403895D01*
X54552152Y-49429863D01*
X54592680Y-49486777D01*
X54599500Y-49527333D01*
X54599500Y-52275337D01*
X54599498Y-52286150D01*
X54598830Y-52288536D01*
X54599493Y-52343077D01*
X54599493Y-52343858D01*
X54599453Y-52343991D01*
X54599346Y-52349872D01*
X54586748Y-52608757D01*
X54585103Y-52623733D01*
X54541843Y-52875448D01*
X54538394Y-52890114D01*
X54464926Y-53134722D01*
X54459723Y-53148862D01*
X54357127Y-53382764D01*
X54350249Y-53396168D01*
X54220047Y-53615896D01*
X54211593Y-53628367D01*
X54055705Y-53830680D01*
X54045801Y-53842034D01*
X53866526Y-54023949D01*
X53855318Y-54034018D01*
X53655303Y-54192849D01*
X53642957Y-54201484D01*
X53425158Y-54334884D01*
X53411856Y-54341958D01*
X53179487Y-54447958D01*
X53165425Y-54453367D01*
X52921909Y-54530406D01*
X52907295Y-54534069D01*
X52656240Y-54581005D01*
X52641288Y-54582869D01*
X52382571Y-54599252D01*
X52374735Y-54599500D01*
X18688093Y-54599500D01*
X18677246Y-54599498D01*
X18674824Y-54598820D01*
X18620315Y-54599493D01*
X18619486Y-54599493D01*
X18619352Y-54599453D01*
X18613495Y-54599348D01*
X18359036Y-54587013D01*
X18344059Y-54585370D01*
X18096724Y-54542909D01*
X18082059Y-54539463D01*
X18017867Y-54520196D01*
X17841688Y-54467316D01*
X17827548Y-54462116D01*
X17597703Y-54361351D01*
X17584298Y-54354474D01*
X17368375Y-54226580D01*
X17355902Y-54218128D01*
X17157082Y-54064989D01*
X17145726Y-54055088D01*
X16966944Y-53878966D01*
X16956873Y-53867760D01*
X16936436Y-53842034D01*
X16800769Y-53671253D01*
X16792136Y-53658915D01*
X16661012Y-53444920D01*
X16653941Y-53431629D01*
X16549738Y-53203309D01*
X16544334Y-53189268D01*
X16468589Y-52949994D01*
X16464927Y-52935396D01*
X16418760Y-52688697D01*
X16416896Y-52673775D01*
X16400748Y-52419510D01*
X16400500Y-52411667D01*
X16400500Y-51547844D01*
X27450000Y-51547844D01*
X27456401Y-51607372D01*
X27456403Y-51607379D01*
X27506645Y-51742086D01*
X27506649Y-51742093D01*
X27592809Y-51857187D01*
X27592812Y-51857190D01*
X27707906Y-51943350D01*
X27707913Y-51943354D01*
X27842620Y-51993596D01*
X27842627Y-51993598D01*
X27902155Y-51999999D01*
X27902172Y-52000000D01*
X28600000Y-52000000D01*
X29100000Y-52000000D01*
X29797828Y-52000000D01*
X29797844Y-51999999D01*
X29857372Y-51993598D01*
X29857379Y-51993596D01*
X29992086Y-51943354D01*
X29992093Y-51943350D01*
X30107187Y-51857190D01*
X30107190Y-51857187D01*
X30193350Y-51742093D01*
X30193354Y-51742086D01*
X30243596Y-51607379D01*
X30243598Y-51607372D01*
X30249999Y-51547844D01*
X41750000Y-51547844D01*
X41756401Y-51607372D01*
X41756403Y-51607379D01*
X41806645Y-51742086D01*
X41806649Y-51742093D01*
X41892809Y-51857187D01*
X41892812Y-51857190D01*
X42007906Y-51943350D01*
X42007913Y-51943354D01*
X42142620Y-51993596D01*
X42142627Y-51993598D01*
X42202155Y-51999999D01*
X42202172Y-52000000D01*
X42900000Y-52000000D01*
X43400000Y-52000000D01*
X44097828Y-52000000D01*
X44097844Y-51999999D01*
X44157372Y-51993598D01*
X44157379Y-51993596D01*
X44292086Y-51943354D01*
X44292093Y-51943350D01*
X44407187Y-51857190D01*
X44407190Y-51857187D01*
X44493350Y-51742093D01*
X44493354Y-51742086D01*
X44543596Y-51607379D01*
X44543598Y-51607372D01*
X44549999Y-51547844D01*
X44550000Y-51547827D01*
X44550000Y-50650000D01*
X43400000Y-50650000D01*
X43400000Y-52000000D01*
X42900000Y-52000000D01*
X42900000Y-50650000D01*
X41750000Y-50650000D01*
X41750000Y-51547844D01*
X30249999Y-51547844D01*
X30250000Y-51547827D01*
X30250000Y-50650000D01*
X29100000Y-50650000D01*
X29100000Y-52000000D01*
X28600000Y-52000000D01*
X28600000Y-50650000D01*
X27450000Y-50650000D01*
X27450000Y-51547844D01*
X16400500Y-51547844D01*
X16400500Y-49527333D01*
X16420185Y-49460294D01*
X16472989Y-49414539D01*
X16542147Y-49404595D01*
X16605703Y-49433620D01*
X16631887Y-49465333D01*
X16749751Y-49669479D01*
X16749753Y-49669482D01*
X16749754Y-49669483D01*
X16917370Y-49887926D01*
X16917376Y-49887933D01*
X17112066Y-50082623D01*
X17112072Y-50082628D01*
X17330521Y-50250249D01*
X17483778Y-50338732D01*
X17568971Y-50387919D01*
X17568976Y-50387921D01*
X17568979Y-50387923D01*
X17823368Y-50493295D01*
X18089334Y-50564560D01*
X18362326Y-50600500D01*
X18362333Y-50600500D01*
X18637667Y-50600500D01*
X18637674Y-50600500D01*
X18910666Y-50564560D01*
X19176632Y-50493295D01*
X19431021Y-50387923D01*
X19669479Y-50250249D01*
X19887928Y-50082628D01*
X20082628Y-49887928D01*
X20250249Y-49669479D01*
X20387923Y-49431021D01*
X20462012Y-49252155D01*
X27450000Y-49252155D01*
X27450000Y-50150000D01*
X28600000Y-50150000D01*
X29100000Y-50150000D01*
X30250000Y-50150000D01*
X30250000Y-49252172D01*
X30249999Y-49252155D01*
X41750000Y-49252155D01*
X41750000Y-50150000D01*
X42900000Y-50150000D01*
X43400000Y-50150000D01*
X44550000Y-50150000D01*
X44550000Y-49252172D01*
X44549999Y-49252155D01*
X44543598Y-49192627D01*
X44543596Y-49192620D01*
X44493354Y-49057913D01*
X44493350Y-49057906D01*
X44407190Y-48942812D01*
X44407187Y-48942809D01*
X44292093Y-48856649D01*
X44292086Y-48856645D01*
X44157379Y-48806403D01*
X44157372Y-48806401D01*
X44097844Y-48800000D01*
X43400000Y-48800000D01*
X43400000Y-50150000D01*
X42900000Y-50150000D01*
X42900000Y-48800000D01*
X42202155Y-48800000D01*
X42142627Y-48806401D01*
X42142620Y-48806403D01*
X42007913Y-48856645D01*
X42007906Y-48856649D01*
X41892812Y-48942809D01*
X41892809Y-48942812D01*
X41806649Y-49057906D01*
X41806645Y-49057913D01*
X41756403Y-49192620D01*
X41756401Y-49192627D01*
X41750000Y-49252155D01*
X30249999Y-49252155D01*
X30243598Y-49192627D01*
X30243596Y-49192620D01*
X30193354Y-49057913D01*
X30193350Y-49057906D01*
X30107190Y-48942812D01*
X30107187Y-48942809D01*
X29992093Y-48856649D01*
X29992086Y-48856645D01*
X29857379Y-48806403D01*
X29857372Y-48806401D01*
X29797844Y-48800000D01*
X29100000Y-48800000D01*
X29100000Y-50150000D01*
X28600000Y-50150000D01*
X28600000Y-48800000D01*
X27902155Y-48800000D01*
X27842627Y-48806401D01*
X27842620Y-48806403D01*
X27707913Y-48856645D01*
X27707906Y-48856649D01*
X27592812Y-48942809D01*
X27592809Y-48942812D01*
X27506649Y-49057906D01*
X27506645Y-49057913D01*
X27456403Y-49192620D01*
X27456401Y-49192627D01*
X27450000Y-49252155D01*
X20462012Y-49252155D01*
X20493295Y-49176632D01*
X20564560Y-48910666D01*
X20600500Y-48637674D01*
X20600500Y-48362326D01*
X20564560Y-48089334D01*
X20493295Y-47823368D01*
X20387923Y-47568979D01*
X20387921Y-47568976D01*
X20387919Y-47568971D01*
X20338732Y-47483778D01*
X20250249Y-47330521D01*
X20082628Y-47112072D01*
X20082623Y-47112066D01*
X19887933Y-46917376D01*
X19887926Y-46917370D01*
X19669483Y-46749754D01*
X19669482Y-46749753D01*
X19669479Y-46749751D01*
X19574407Y-46694861D01*
X19431028Y-46612080D01*
X19431017Y-46612075D01*
X19176630Y-46506704D01*
X19043649Y-46471072D01*
X18910666Y-46435440D01*
X18910660Y-46435439D01*
X18910655Y-46435438D01*
X18637684Y-46399501D01*
X18637679Y-46399500D01*
X18637674Y-46399500D01*
X18362326Y-46399500D01*
X18362320Y-46399500D01*
X18362315Y-46399501D01*
X18089344Y-46435438D01*
X18089337Y-46435439D01*
X18089334Y-46435440D01*
X18033125Y-46450500D01*
X17823369Y-46506704D01*
X17568982Y-46612075D01*
X17568971Y-46612080D01*
X17330516Y-46749754D01*
X17112073Y-46917370D01*
X17112066Y-46917376D01*
X16917376Y-47112066D01*
X16917370Y-47112073D01*
X16749756Y-47330513D01*
X16631887Y-47534667D01*
X16581320Y-47582882D01*
X16512712Y-47596104D01*
X16447848Y-47570136D01*
X16407320Y-47513222D01*
X16400500Y-47472666D01*
X16400500Y-27027333D01*
X16420185Y-26960294D01*
X16472989Y-26914539D01*
X16542147Y-26904595D01*
X16605703Y-26933620D01*
X16631887Y-26965333D01*
X16638852Y-26977396D01*
X16749751Y-27169479D01*
X16749753Y-27169482D01*
X16749754Y-27169483D01*
X16917370Y-27387926D01*
X16917376Y-27387933D01*
X17112066Y-27582623D01*
X17112073Y-27582629D01*
X17214069Y-27660893D01*
X17330521Y-27750249D01*
X17433062Y-27809451D01*
X17568971Y-27887919D01*
X17568976Y-27887921D01*
X17568979Y-27887923D01*
X17823368Y-27993295D01*
X18089334Y-28064560D01*
X18362326Y-28100500D01*
X18362333Y-28100500D01*
X18637667Y-28100500D01*
X18637674Y-28100500D01*
X18910666Y-28064560D01*
X19176632Y-27993295D01*
X19431021Y-27887923D01*
X19669479Y-27750249D01*
X19887928Y-27582628D01*
X20082628Y-27387928D01*
X20250249Y-27169479D01*
X20387923Y-26931021D01*
X20493295Y-26676632D01*
X20564560Y-26410666D01*
X20600500Y-26137674D01*
X20600500Y-25862326D01*
X20564560Y-25589334D01*
X20493295Y-25323368D01*
X20387923Y-25068979D01*
X20387921Y-25068976D01*
X20387919Y-25068971D01*
X20338732Y-24983778D01*
X20250249Y-24830521D01*
X20082628Y-24612072D01*
X20082623Y-24612066D01*
X19887933Y-24417376D01*
X19887926Y-24417370D01*
X19669483Y-24249754D01*
X19669482Y-24249753D01*
X19669479Y-24249751D01*
X19530013Y-24169230D01*
X19431028Y-24112080D01*
X19431017Y-24112075D01*
X19176630Y-24006704D01*
X19043649Y-23971072D01*
X18910666Y-23935440D01*
X18910660Y-23935439D01*
X18910655Y-23935438D01*
X18637684Y-23899501D01*
X18637679Y-23899500D01*
X18637674Y-23899500D01*
X18362326Y-23899500D01*
X18362320Y-23899500D01*
X18362315Y-23899501D01*
X18089344Y-23935438D01*
X18089337Y-23935439D01*
X18089334Y-23935440D01*
X18067319Y-23941339D01*
X17823369Y-24006704D01*
X17568982Y-24112075D01*
X17568971Y-24112080D01*
X17330516Y-24249754D01*
X17112073Y-24417370D01*
X17112066Y-24417376D01*
X16917376Y-24612066D01*
X16917370Y-24612073D01*
X16749756Y-24830513D01*
X16749752Y-24830518D01*
X16749751Y-24830521D01*
X16667683Y-24972666D01*
X16631887Y-25034667D01*
X16581320Y-25082882D01*
X16512712Y-25096104D01*
X16447848Y-25070136D01*
X16407320Y-25013222D01*
X16400500Y-24972666D01*
X16400500Y-19245973D01*
X22099500Y-19245973D01*
X22099500Y-36802726D01*
X22126793Y-36904589D01*
X22151326Y-36947080D01*
X22179520Y-36995913D01*
X25274087Y-40090480D01*
X25365412Y-40143207D01*
X25467273Y-40170500D01*
X25836840Y-40170500D01*
X25903879Y-40190185D01*
X25947325Y-40238205D01*
X26014465Y-40369974D01*
X26016006Y-40372997D01*
X26122441Y-40519494D01*
X26122445Y-40519499D01*
X26250500Y-40647554D01*
X26250505Y-40647558D01*
X26342475Y-40714377D01*
X26397006Y-40753996D01*
X26502484Y-40807740D01*
X26558360Y-40836211D01*
X26558363Y-40836212D01*
X26621227Y-40856637D01*
X26730591Y-40892171D01*
X26813429Y-40905291D01*
X26909449Y-40920500D01*
X26909454Y-40920500D01*
X27090551Y-40920500D01*
X27177259Y-40906765D01*
X27269409Y-40892171D01*
X27441639Y-40836211D01*
X27602994Y-40753996D01*
X27749501Y-40647553D01*
X27877553Y-40519501D01*
X27983996Y-40372994D01*
X28066211Y-40211639D01*
X28122171Y-40039409D01*
X28136765Y-39947259D01*
X28150500Y-39860551D01*
X28150500Y-39679448D01*
X28130592Y-39553760D01*
X28122171Y-39500591D01*
X28092806Y-39410214D01*
X28066212Y-39328363D01*
X28066211Y-39328360D01*
X28037740Y-39272484D01*
X27983996Y-39167006D01*
X27920581Y-39079722D01*
X27877558Y-39020505D01*
X27877554Y-39020500D01*
X27749499Y-38892445D01*
X27749494Y-38892441D01*
X27602997Y-38786006D01*
X27602996Y-38786005D01*
X27602994Y-38786004D01*
X27551300Y-38759664D01*
X27441639Y-38703788D01*
X27441636Y-38703787D01*
X27269410Y-38647829D01*
X27109321Y-38622473D01*
X27046186Y-38592544D01*
X27009255Y-38533232D01*
X27010253Y-38463370D01*
X27048863Y-38405137D01*
X27109321Y-38377527D01*
X27179425Y-38366422D01*
X27269409Y-38352171D01*
X27441639Y-38296211D01*
X27602994Y-38213996D01*
X27749501Y-38107553D01*
X27877553Y-37979501D01*
X27983996Y-37832994D01*
X28066211Y-37671639D01*
X28122171Y-37499409D01*
X28143433Y-37365165D01*
X28150500Y-37320551D01*
X28150500Y-37139448D01*
X28128130Y-36998217D01*
X28122171Y-36960591D01*
X28070879Y-36802727D01*
X28066212Y-36788363D01*
X28066211Y-36788360D01*
X28029160Y-36715645D01*
X27983996Y-36627006D01*
X27940864Y-36567639D01*
X27877558Y-36480505D01*
X27877554Y-36480500D01*
X27749499Y-36352445D01*
X27749494Y-36352441D01*
X27602997Y-36246006D01*
X27602996Y-36246005D01*
X27602994Y-36246004D01*
X27512279Y-36199782D01*
X27441639Y-36163788D01*
X27441636Y-36163787D01*
X27269410Y-36107829D01*
X27109321Y-36082473D01*
X27046186Y-36052544D01*
X27009255Y-35993232D01*
X27010253Y-35923370D01*
X27048863Y-35865137D01*
X27109321Y-35837527D01*
X27179425Y-35826422D01*
X27269409Y-35812171D01*
X27441639Y-35756211D01*
X27602994Y-35673996D01*
X27749501Y-35567553D01*
X27877553Y-35439501D01*
X27983996Y-35292994D01*
X28066211Y-35131639D01*
X28122171Y-34959409D01*
X28143416Y-34825273D01*
X28150500Y-34780551D01*
X28150500Y-34599448D01*
X28129474Y-34466702D01*
X28122171Y-34420591D01*
X28072664Y-34268222D01*
X28066212Y-34248363D01*
X28066211Y-34248360D01*
X28022412Y-34162401D01*
X27983996Y-34087006D01*
X27936989Y-34022306D01*
X27877558Y-33940505D01*
X27877554Y-33940500D01*
X27749499Y-33812445D01*
X27749494Y-33812441D01*
X27602997Y-33706006D01*
X27602996Y-33706005D01*
X27602994Y-33706004D01*
X27551300Y-33679664D01*
X27441639Y-33623788D01*
X27441636Y-33623787D01*
X27269410Y-33567829D01*
X27137728Y-33546972D01*
X27074594Y-33517042D01*
X27037663Y-33457731D01*
X27038661Y-33387868D01*
X27077271Y-33329636D01*
X27141235Y-33301522D01*
X27157120Y-33300499D01*
X27894864Y-33300499D01*
X27894879Y-33300497D01*
X27894882Y-33300497D01*
X27919987Y-33297586D01*
X27919988Y-33297585D01*
X27919991Y-33297585D01*
X28022765Y-33252206D01*
X28102206Y-33172765D01*
X28147585Y-33069991D01*
X28150500Y-33044865D01*
X28150499Y-31255136D01*
X28150222Y-31252745D01*
X28147586Y-31230012D01*
X28147585Y-31230010D01*
X28147585Y-31230009D01*
X28102206Y-31127235D01*
X28022765Y-31047794D01*
X27968170Y-31023688D01*
X27919992Y-31002415D01*
X27894868Y-30999500D01*
X27894865Y-30999500D01*
X27524500Y-30999500D01*
X27457461Y-30979815D01*
X27411706Y-30927011D01*
X27400500Y-30875500D01*
X27400500Y-28417255D01*
X27420185Y-28350216D01*
X27436819Y-28329574D01*
X29089763Y-26676630D01*
X31070480Y-24695913D01*
X31123207Y-24604588D01*
X31150500Y-24502727D01*
X31150500Y-24397273D01*
X31150500Y-21750098D01*
X31170185Y-21683059D01*
X31186819Y-21662417D01*
X31230520Y-21618716D01*
X31309577Y-21481784D01*
X31350500Y-21329057D01*
X31350500Y-21170943D01*
X31309577Y-21018216D01*
X31294910Y-20992812D01*
X31230524Y-20881290D01*
X31230518Y-20881282D01*
X31186819Y-20837583D01*
X31153334Y-20776260D01*
X31150500Y-20749902D01*
X31150500Y-20274499D01*
X31152537Y-20267560D01*
X31151300Y-20260435D01*
X31162250Y-20234480D01*
X31170185Y-20207460D01*
X31175649Y-20202725D01*
X31178461Y-20196061D01*
X31201706Y-20180146D01*
X31222989Y-20161705D01*
X31231556Y-20159710D01*
X31236114Y-20156590D01*
X31263874Y-20152184D01*
X31270888Y-20150552D01*
X31272707Y-20150499D01*
X31444864Y-20150499D01*
X31469991Y-20147585D01*
X31476866Y-20144548D01*
X31496388Y-20143980D01*
X31512789Y-20148281D01*
X31520540Y-20148281D01*
X31520745Y-20146510D01*
X31530007Y-20147584D01*
X31530009Y-20147585D01*
X31555135Y-20150500D01*
X31944864Y-20150499D01*
X31944879Y-20150497D01*
X31944882Y-20150497D01*
X31979258Y-20146511D01*
X31979312Y-20146978D01*
X32005886Y-20144067D01*
X32023990Y-20144927D01*
X32030009Y-20147585D01*
X32055135Y-20150500D01*
X32141259Y-20150499D01*
X32144189Y-20150639D01*
X32174534Y-20161137D01*
X32205341Y-20170183D01*
X32208097Y-20172749D01*
X32210218Y-20173483D01*
X32213863Y-20178116D01*
X32237567Y-20200185D01*
X32242807Y-20207185D01*
X32242813Y-20207190D01*
X32357911Y-20293352D01*
X32357913Y-20293354D01*
X32492620Y-20343596D01*
X32492627Y-20343598D01*
X32552155Y-20349999D01*
X32552172Y-20350000D01*
X32600000Y-20350000D01*
X32600000Y-20126333D01*
X32608644Y-20096892D01*
X32615168Y-20066906D01*
X32618922Y-20061890D01*
X32619685Y-20059294D01*
X32636319Y-20038652D01*
X32637819Y-20037152D01*
X32699142Y-20003667D01*
X32768834Y-20008651D01*
X32824767Y-20050523D01*
X32849184Y-20115987D01*
X32849500Y-20124833D01*
X32849500Y-20227727D01*
X32870275Y-20305262D01*
X32874500Y-20337355D01*
X32874500Y-22189545D01*
X32854815Y-22256584D01*
X32838181Y-22277226D01*
X32516778Y-22598628D01*
X32455455Y-22632113D01*
X32397004Y-22630722D01*
X32330261Y-22612838D01*
X32278536Y-22598979D01*
X32120422Y-22598979D01*
X31967695Y-22639902D01*
X31967688Y-22639905D01*
X31830769Y-22718954D01*
X31830761Y-22718960D01*
X31718960Y-22830761D01*
X31718954Y-22830769D01*
X31639905Y-22967688D01*
X31639902Y-22967695D01*
X31598979Y-23120422D01*
X31598979Y-23278536D01*
X31634853Y-23412417D01*
X31639902Y-23431262D01*
X31639905Y-23431269D01*
X31718954Y-23568188D01*
X31718958Y-23568193D01*
X31718959Y-23568195D01*
X31830763Y-23679999D01*
X31830765Y-23680000D01*
X31830769Y-23680003D01*
X31967688Y-23759052D01*
X31967695Y-23759056D01*
X32114049Y-23798271D01*
X32173708Y-23834635D01*
X32201728Y-23885949D01*
X32215970Y-23939099D01*
X32240944Y-24032306D01*
X32240947Y-24032311D01*
X32319996Y-24169230D01*
X32320000Y-24169235D01*
X32320001Y-24169237D01*
X32431805Y-24281041D01*
X32431807Y-24281042D01*
X32431811Y-24281045D01*
X32500022Y-24320426D01*
X32568737Y-24360098D01*
X32721464Y-24401021D01*
X32721466Y-24401021D01*
X32879576Y-24401021D01*
X32879578Y-24401021D01*
X33032305Y-24360098D01*
X33169237Y-24281041D01*
X33281041Y-24169237D01*
X33360098Y-24032305D01*
X33401021Y-23879578D01*
X33401021Y-23721464D01*
X33369276Y-23602990D01*
X33370939Y-23533144D01*
X33401368Y-23483221D01*
X33662820Y-23221770D01*
X33724142Y-23188286D01*
X33793834Y-23193270D01*
X33849767Y-23235142D01*
X33874184Y-23300606D01*
X33874500Y-23309452D01*
X33874500Y-24689547D01*
X33854815Y-24756586D01*
X33838181Y-24777228D01*
X31729522Y-26885886D01*
X31729518Y-26885892D01*
X31676793Y-26977213D01*
X31676745Y-26977394D01*
X31649500Y-27079075D01*
X31649500Y-28151683D01*
X31629815Y-28218722D01*
X31577011Y-28264477D01*
X31567911Y-28268205D01*
X31566923Y-28268564D01*
X31566920Y-28268565D01*
X31451841Y-28310451D01*
X31404224Y-28327782D01*
X31404217Y-28327785D01*
X31254279Y-28414352D01*
X31254276Y-28414354D01*
X31121644Y-28525644D01*
X31010354Y-28658276D01*
X31010352Y-28658279D01*
X30923785Y-28808217D01*
X30923782Y-28808224D01*
X30864563Y-28970925D01*
X30834500Y-29141427D01*
X30834500Y-29496572D01*
X30864563Y-29667074D01*
X30864564Y-29667079D01*
X30864565Y-29667080D01*
X30920941Y-29821970D01*
X30923782Y-29829775D01*
X30923785Y-29829782D01*
X30964413Y-29900152D01*
X31010353Y-29979722D01*
X31024659Y-29996771D01*
X31121643Y-30112353D01*
X31147453Y-30134011D01*
X31186154Y-30192183D01*
X31187262Y-30262044D01*
X31150424Y-30321414D01*
X31147453Y-30323989D01*
X31121643Y-30345646D01*
X31010354Y-30478276D01*
X31010352Y-30478279D01*
X30923785Y-30628217D01*
X30923782Y-30628224D01*
X30864563Y-30790925D01*
X30834500Y-30961427D01*
X30834500Y-31316572D01*
X30864563Y-31487074D01*
X30864564Y-31487079D01*
X30864565Y-31487080D01*
X30921504Y-31643516D01*
X30923782Y-31649775D01*
X30923785Y-31649782D01*
X30936210Y-31671302D01*
X31010353Y-31799722D01*
X31039205Y-31834107D01*
X31120119Y-31930537D01*
X31121645Y-31932355D01*
X31124441Y-31934701D01*
X31147453Y-31954011D01*
X31186154Y-32012183D01*
X31187262Y-32082044D01*
X31150424Y-32141414D01*
X31147453Y-32143989D01*
X31121643Y-32165646D01*
X31010354Y-32298276D01*
X31010352Y-32298279D01*
X30923785Y-32448217D01*
X30923782Y-32448224D01*
X30864563Y-32610925D01*
X30834500Y-32781427D01*
X30834500Y-33136572D01*
X30864563Y-33307074D01*
X30864564Y-33307079D01*
X30864565Y-33307080D01*
X30898376Y-33399974D01*
X30923782Y-33469775D01*
X30923785Y-33469782D01*
X31010352Y-33619720D01*
X31010354Y-33619723D01*
X31121643Y-33752353D01*
X31147453Y-33774011D01*
X31186154Y-33832183D01*
X31187262Y-33902044D01*
X31150424Y-33961414D01*
X31147453Y-33963989D01*
X31121643Y-33985646D01*
X31010354Y-34118276D01*
X31010352Y-34118279D01*
X30923785Y-34268217D01*
X30923782Y-34268224D01*
X30864563Y-34430925D01*
X30834500Y-34601427D01*
X30834500Y-34956572D01*
X30864563Y-35127074D01*
X30864564Y-35127079D01*
X30864565Y-35127080D01*
X30915935Y-35268216D01*
X30923782Y-35289775D01*
X30923785Y-35289782D01*
X30929973Y-35300500D01*
X31010225Y-35439501D01*
X31010352Y-35439720D01*
X31010354Y-35439723D01*
X31121643Y-35572353D01*
X31147453Y-35594011D01*
X31186154Y-35652183D01*
X31187262Y-35722044D01*
X31150424Y-35781414D01*
X31147453Y-35783989D01*
X31121643Y-35805646D01*
X31010354Y-35938276D01*
X31010352Y-35938279D01*
X30923785Y-36088217D01*
X30923782Y-36088224D01*
X30864563Y-36250925D01*
X30834500Y-36421427D01*
X30834500Y-36776572D01*
X30864563Y-36947074D01*
X30864564Y-36947079D01*
X30864565Y-36947080D01*
X30883180Y-36998224D01*
X30923782Y-37109775D01*
X30923785Y-37109782D01*
X31010352Y-37259720D01*
X31010354Y-37259723D01*
X31121643Y-37392353D01*
X31147453Y-37414011D01*
X31186154Y-37472183D01*
X31187262Y-37542044D01*
X31150424Y-37601414D01*
X31147453Y-37603989D01*
X31121643Y-37625646D01*
X31010354Y-37758276D01*
X31010352Y-37758279D01*
X30923785Y-37908217D01*
X30923782Y-37908224D01*
X30864563Y-38070925D01*
X30834500Y-38241427D01*
X30834500Y-38596572D01*
X30864563Y-38767074D01*
X30864564Y-38767079D01*
X30864565Y-38767080D01*
X30913111Y-38900456D01*
X30923782Y-38929775D01*
X30923785Y-38929782D01*
X31010352Y-39079720D01*
X31010354Y-39079723D01*
X31121644Y-39212355D01*
X31210843Y-39287201D01*
X31254278Y-39323647D01*
X31404222Y-39410217D01*
X31566920Y-39469435D01*
X31566923Y-39469435D01*
X31567911Y-39469795D01*
X31624175Y-39511222D01*
X31649110Y-39576490D01*
X31649500Y-39586317D01*
X31649500Y-41464122D01*
X31676793Y-41565985D01*
X31703156Y-41611646D01*
X31729520Y-41657309D01*
X31729522Y-41657311D01*
X32338181Y-42265970D01*
X32371666Y-42327293D01*
X32374500Y-42353651D01*
X32374500Y-43851346D01*
X32354815Y-43918385D01*
X32302011Y-43964140D01*
X32232853Y-43974084D01*
X32188503Y-43958735D01*
X32156786Y-43940424D01*
X32156785Y-43940423D01*
X32156784Y-43940423D01*
X32004057Y-43899500D01*
X31845943Y-43899500D01*
X31693216Y-43940423D01*
X31693215Y-43940423D01*
X31561999Y-44016180D01*
X31494099Y-44032652D01*
X31438001Y-44016180D01*
X31306784Y-43940423D01*
X31154057Y-43899500D01*
X30995943Y-43899500D01*
X30843216Y-43940423D01*
X30843209Y-43940426D01*
X30706290Y-44019475D01*
X30706282Y-44019481D01*
X30594481Y-44131282D01*
X30594475Y-44131290D01*
X30515426Y-44268209D01*
X30515423Y-44268216D01*
X30474500Y-44420943D01*
X30474500Y-44579057D01*
X30511805Y-44718279D01*
X30515423Y-44731783D01*
X30515426Y-44731790D01*
X30594475Y-44868709D01*
X30594479Y-44868714D01*
X30594480Y-44868716D01*
X30706284Y-44980520D01*
X30812500Y-45041843D01*
X30860714Y-45092408D01*
X30874499Y-45149229D01*
X30874499Y-46249852D01*
X30871181Y-46263374D01*
X30872136Y-46273944D01*
X30863620Y-46294195D01*
X30860421Y-46307237D01*
X30852369Y-46322659D01*
X30847794Y-46327235D01*
X30835800Y-46354397D01*
X30833922Y-46357996D01*
X30812380Y-46380357D01*
X30792347Y-46404074D01*
X30788350Y-46405302D01*
X30785448Y-46408315D01*
X30755232Y-46415481D01*
X30725561Y-46424601D01*
X30721534Y-46423473D01*
X30717464Y-46424439D01*
X30688169Y-46414131D01*
X30658279Y-46405762D01*
X30655501Y-46402636D01*
X30651555Y-46401248D01*
X30632485Y-46376741D01*
X30611863Y-46353538D01*
X30610824Y-46348902D01*
X30608647Y-46346105D01*
X30607601Y-46334523D01*
X30600000Y-46300611D01*
X30600000Y-46000000D01*
X30552155Y-46000000D01*
X30492627Y-46006401D01*
X30492620Y-46006403D01*
X30357913Y-46056645D01*
X30357906Y-46056649D01*
X30242812Y-46142809D01*
X30242809Y-46142812D01*
X30156649Y-46257906D01*
X30156645Y-46257913D01*
X30106403Y-46392620D01*
X30106401Y-46392627D01*
X30100000Y-46452155D01*
X30100000Y-47000000D01*
X30609064Y-47000000D01*
X30623989Y-46987067D01*
X30637317Y-46985150D01*
X30649139Y-46978695D01*
X30671229Y-46980274D01*
X30693147Y-46977123D01*
X30705397Y-46982717D01*
X30718831Y-46983678D01*
X30736558Y-46996948D01*
X30756703Y-47006148D01*
X30763984Y-47017478D01*
X30774766Y-47025549D01*
X30782505Y-47046297D01*
X30794477Y-47064926D01*
X30797627Y-47086839D01*
X30799184Y-47091012D01*
X30799500Y-47099861D01*
X30799500Y-47200138D01*
X30779815Y-47267177D01*
X30727011Y-47312932D01*
X30657853Y-47322876D01*
X30607761Y-47300000D01*
X30100000Y-47300000D01*
X30100000Y-47847844D01*
X30106401Y-47907372D01*
X30106403Y-47907379D01*
X30156645Y-48042086D01*
X30156649Y-48042093D01*
X30242809Y-48157187D01*
X30242812Y-48157190D01*
X30357906Y-48243350D01*
X30357913Y-48243354D01*
X30492620Y-48293596D01*
X30492627Y-48293598D01*
X30552155Y-48299999D01*
X30552172Y-48300000D01*
X30600000Y-48300000D01*
X30600000Y-47999388D01*
X30619685Y-47932349D01*
X30672489Y-47886594D01*
X30741647Y-47876650D01*
X30805203Y-47905675D01*
X30826739Y-47929956D01*
X30832950Y-47939146D01*
X30847794Y-47972765D01*
X30872087Y-47997058D01*
X30878739Y-48006901D01*
X30885889Y-48029323D01*
X30897166Y-48049975D01*
X30899552Y-48072166D01*
X30899967Y-48073468D01*
X30899770Y-48074199D01*
X30900000Y-48076333D01*
X30900000Y-48300000D01*
X30947828Y-48300000D01*
X30947844Y-48299999D01*
X31007372Y-48293598D01*
X31007379Y-48293596D01*
X31142086Y-48243354D01*
X31142088Y-48243352D01*
X31257188Y-48157189D01*
X31262429Y-48150189D01*
X31263662Y-48149265D01*
X31264235Y-48147836D01*
X31291531Y-48128402D01*
X31318363Y-48108317D01*
X31320304Y-48107918D01*
X31321154Y-48107314D01*
X31332815Y-48105353D01*
X31355811Y-48100639D01*
X31358752Y-48100499D01*
X31444864Y-48100499D01*
X31469991Y-48097585D01*
X31476009Y-48094927D01*
X31494114Y-48094067D01*
X31511476Y-48098281D01*
X31520540Y-48098281D01*
X31520745Y-48096510D01*
X31530007Y-48097584D01*
X31530009Y-48097585D01*
X31555135Y-48100500D01*
X31638304Y-48100499D01*
X31705341Y-48120183D01*
X31737567Y-48150185D01*
X31742807Y-48157185D01*
X31742813Y-48157190D01*
X31857911Y-48243352D01*
X31857913Y-48243354D01*
X31992620Y-48293596D01*
X31992627Y-48293598D01*
X32052155Y-48299999D01*
X32052172Y-48300000D01*
X32100000Y-48300000D01*
X32100000Y-48076333D01*
X32108354Y-48047880D01*
X32114157Y-48018797D01*
X32118715Y-48012596D01*
X32119685Y-48009294D01*
X32134816Y-47990181D01*
X32135554Y-47989416D01*
X32152206Y-47972765D01*
X32152682Y-47971685D01*
X32160816Y-47963266D01*
X32182492Y-47950938D01*
X32201810Y-47935165D01*
X32212340Y-47933964D01*
X32221551Y-47928726D01*
X32246452Y-47930074D01*
X32271230Y-47927249D01*
X32280735Y-47931930D01*
X32291318Y-47932504D01*
X32311539Y-47947102D01*
X32333910Y-47958121D01*
X32339609Y-47964699D01*
X32339669Y-47964640D01*
X32363681Y-47988652D01*
X32397166Y-48049975D01*
X32400000Y-48076333D01*
X32400000Y-48300000D01*
X32447828Y-48300000D01*
X32447844Y-48299999D01*
X32507372Y-48293598D01*
X32507379Y-48293596D01*
X32642086Y-48243354D01*
X32642088Y-48243352D01*
X32757188Y-48157189D01*
X32762429Y-48150189D01*
X32763662Y-48149265D01*
X32764235Y-48147836D01*
X32791531Y-48128402D01*
X32818363Y-48108317D01*
X32820304Y-48107918D01*
X32821154Y-48107314D01*
X32832815Y-48105353D01*
X32855811Y-48100639D01*
X32858752Y-48100499D01*
X32944864Y-48100499D01*
X32969991Y-48097585D01*
X32976009Y-48094927D01*
X32994114Y-48094067D01*
X33011476Y-48098281D01*
X33020540Y-48098281D01*
X33020745Y-48096510D01*
X33030007Y-48097584D01*
X33030009Y-48097585D01*
X33055135Y-48100500D01*
X33138304Y-48100499D01*
X33205341Y-48120183D01*
X33237567Y-48150185D01*
X33242807Y-48157185D01*
X33242813Y-48157190D01*
X33357911Y-48243352D01*
X33357913Y-48243354D01*
X33492620Y-48293596D01*
X33492627Y-48293598D01*
X33552155Y-48299999D01*
X33552172Y-48300000D01*
X33600000Y-48300000D01*
X33600000Y-48076333D01*
X33608354Y-48047880D01*
X33614157Y-48018797D01*
X33618715Y-48012596D01*
X33619685Y-48009294D01*
X33634816Y-47990181D01*
X33635554Y-47989416D01*
X33652206Y-47972765D01*
X33652682Y-47971685D01*
X33660816Y-47963266D01*
X33682492Y-47950938D01*
X33701810Y-47935165D01*
X33712340Y-47933964D01*
X33721551Y-47928726D01*
X33746452Y-47930074D01*
X33771230Y-47927249D01*
X33780735Y-47931930D01*
X33791318Y-47932504D01*
X33811539Y-47947102D01*
X33833910Y-47958121D01*
X33839609Y-47964699D01*
X33839669Y-47964640D01*
X33863681Y-47988652D01*
X33897166Y-48049975D01*
X33900000Y-48076333D01*
X33900000Y-48300000D01*
X33947828Y-48300000D01*
X33947844Y-48299999D01*
X34007372Y-48293598D01*
X34007379Y-48293596D01*
X34142086Y-48243354D01*
X34142088Y-48243352D01*
X34257188Y-48157189D01*
X34262429Y-48150189D01*
X34263662Y-48149265D01*
X34264235Y-48147836D01*
X34291531Y-48128402D01*
X34318363Y-48108317D01*
X34320304Y-48107918D01*
X34321154Y-48107314D01*
X34332815Y-48105353D01*
X34355811Y-48100639D01*
X34358752Y-48100499D01*
X34444864Y-48100499D01*
X34469991Y-48097585D01*
X34476009Y-48094927D01*
X34494114Y-48094067D01*
X34511476Y-48098281D01*
X34520540Y-48098281D01*
X34520745Y-48096510D01*
X34530007Y-48097584D01*
X34530009Y-48097585D01*
X34555135Y-48100500D01*
X34638304Y-48100499D01*
X34705341Y-48120183D01*
X34737567Y-48150185D01*
X34742807Y-48157185D01*
X34742813Y-48157190D01*
X34857911Y-48243352D01*
X34857913Y-48243354D01*
X34992620Y-48293596D01*
X34992627Y-48293598D01*
X35052155Y-48299999D01*
X35052172Y-48300000D01*
X35100000Y-48300000D01*
X35100000Y-48076333D01*
X35108354Y-48047880D01*
X35114157Y-48018797D01*
X35118715Y-48012596D01*
X35119685Y-48009294D01*
X35134816Y-47990181D01*
X35135554Y-47989416D01*
X35152206Y-47972765D01*
X35152682Y-47971685D01*
X35160816Y-47963266D01*
X35182492Y-47950938D01*
X35201810Y-47935165D01*
X35212340Y-47933964D01*
X35221551Y-47928726D01*
X35246452Y-47930074D01*
X35271230Y-47927249D01*
X35280735Y-47931930D01*
X35291318Y-47932504D01*
X35311539Y-47947102D01*
X35333910Y-47958121D01*
X35339609Y-47964699D01*
X35339669Y-47964640D01*
X35363681Y-47988652D01*
X35397166Y-48049975D01*
X35400000Y-48076333D01*
X35400000Y-48300000D01*
X35447828Y-48300000D01*
X35447844Y-48299999D01*
X35507372Y-48293598D01*
X35507379Y-48293596D01*
X35642086Y-48243354D01*
X35642088Y-48243352D01*
X35757188Y-48157189D01*
X35762429Y-48150189D01*
X35763662Y-48149265D01*
X35764235Y-48147836D01*
X35791531Y-48128402D01*
X35818363Y-48108317D01*
X35820304Y-48107918D01*
X35821154Y-48107314D01*
X35832815Y-48105353D01*
X35855811Y-48100639D01*
X35858752Y-48100499D01*
X35944864Y-48100499D01*
X35969991Y-48097585D01*
X35976009Y-48094927D01*
X35994114Y-48094067D01*
X36011476Y-48098281D01*
X36020540Y-48098281D01*
X36020745Y-48096510D01*
X36030007Y-48097584D01*
X36030009Y-48097585D01*
X36055135Y-48100500D01*
X36138304Y-48100499D01*
X36205341Y-48120183D01*
X36237567Y-48150185D01*
X36242807Y-48157185D01*
X36242813Y-48157190D01*
X36357911Y-48243352D01*
X36357913Y-48243354D01*
X36492620Y-48293596D01*
X36492627Y-48293598D01*
X36552155Y-48299999D01*
X36552172Y-48300000D01*
X36600000Y-48300000D01*
X36600000Y-48076333D01*
X36608354Y-48047880D01*
X36614157Y-48018797D01*
X36618715Y-48012596D01*
X36619685Y-48009294D01*
X36634816Y-47990181D01*
X36635554Y-47989416D01*
X36652206Y-47972765D01*
X36652682Y-47971685D01*
X36660816Y-47963266D01*
X36682492Y-47950938D01*
X36701810Y-47935165D01*
X36712340Y-47933964D01*
X36721551Y-47928726D01*
X36746452Y-47930074D01*
X36771230Y-47927249D01*
X36780735Y-47931930D01*
X36791318Y-47932504D01*
X36811539Y-47947102D01*
X36833910Y-47958121D01*
X36839609Y-47964699D01*
X36839669Y-47964640D01*
X36863681Y-47988652D01*
X36897166Y-48049975D01*
X36900000Y-48076333D01*
X36900000Y-48300000D01*
X36947828Y-48300000D01*
X36947844Y-48299999D01*
X37007372Y-48293598D01*
X37007379Y-48293596D01*
X37142086Y-48243354D01*
X37142088Y-48243352D01*
X37257188Y-48157189D01*
X37262429Y-48150189D01*
X37263662Y-48149265D01*
X37264235Y-48147836D01*
X37291531Y-48128402D01*
X37318363Y-48108317D01*
X37320304Y-48107918D01*
X37321154Y-48107314D01*
X37332815Y-48105353D01*
X37355811Y-48100639D01*
X37358752Y-48100499D01*
X37444864Y-48100499D01*
X37469991Y-48097585D01*
X37476009Y-48094927D01*
X37494114Y-48094067D01*
X37511476Y-48098281D01*
X37520540Y-48098281D01*
X37520745Y-48096510D01*
X37530007Y-48097584D01*
X37530009Y-48097585D01*
X37555135Y-48100500D01*
X37638304Y-48100499D01*
X37705341Y-48120183D01*
X37737567Y-48150185D01*
X37742807Y-48157185D01*
X37742813Y-48157190D01*
X37857911Y-48243352D01*
X37857913Y-48243354D01*
X37992620Y-48293596D01*
X37992627Y-48293598D01*
X38052155Y-48299999D01*
X38052172Y-48300000D01*
X38100000Y-48300000D01*
X38100000Y-48076333D01*
X38108354Y-48047880D01*
X38114157Y-48018797D01*
X38118715Y-48012596D01*
X38119685Y-48009294D01*
X38134816Y-47990181D01*
X38135554Y-47989416D01*
X38152206Y-47972765D01*
X38152682Y-47971685D01*
X38160816Y-47963266D01*
X38182492Y-47950938D01*
X38201810Y-47935165D01*
X38212340Y-47933964D01*
X38221551Y-47928726D01*
X38246452Y-47930074D01*
X38271230Y-47927249D01*
X38280735Y-47931930D01*
X38291318Y-47932504D01*
X38311539Y-47947102D01*
X38333910Y-47958121D01*
X38339609Y-47964699D01*
X38339669Y-47964640D01*
X38363681Y-47988652D01*
X38397166Y-48049975D01*
X38400000Y-48076333D01*
X38400000Y-48300000D01*
X38447828Y-48300000D01*
X38447844Y-48299999D01*
X38507372Y-48293598D01*
X38507379Y-48293596D01*
X38642086Y-48243354D01*
X38642088Y-48243352D01*
X38757188Y-48157189D01*
X38762429Y-48150189D01*
X38763662Y-48149265D01*
X38764235Y-48147836D01*
X38791531Y-48128402D01*
X38818363Y-48108317D01*
X38820304Y-48107918D01*
X38821154Y-48107314D01*
X38832815Y-48105353D01*
X38855811Y-48100639D01*
X38858752Y-48100499D01*
X38944864Y-48100499D01*
X38969991Y-48097585D01*
X38976009Y-48094927D01*
X38994114Y-48094067D01*
X39011476Y-48098281D01*
X39020540Y-48098281D01*
X39020745Y-48096510D01*
X39030007Y-48097584D01*
X39030009Y-48097585D01*
X39055135Y-48100500D01*
X39138304Y-48100499D01*
X39205341Y-48120183D01*
X39237567Y-48150185D01*
X39242807Y-48157185D01*
X39242813Y-48157190D01*
X39357911Y-48243352D01*
X39357913Y-48243354D01*
X39492620Y-48293596D01*
X39492627Y-48293598D01*
X39552155Y-48299999D01*
X39552172Y-48300000D01*
X39600000Y-48300000D01*
X39600000Y-48076333D01*
X39608354Y-48047880D01*
X39614157Y-48018797D01*
X39618715Y-48012596D01*
X39619685Y-48009294D01*
X39634816Y-47990181D01*
X39635554Y-47989416D01*
X39652206Y-47972765D01*
X39652682Y-47971685D01*
X39660816Y-47963266D01*
X39682492Y-47950938D01*
X39701810Y-47935165D01*
X39712340Y-47933964D01*
X39721551Y-47928726D01*
X39746452Y-47930074D01*
X39771230Y-47927249D01*
X39780735Y-47931930D01*
X39791318Y-47932504D01*
X39811539Y-47947102D01*
X39833910Y-47958121D01*
X39839609Y-47964699D01*
X39839669Y-47964640D01*
X39863681Y-47988652D01*
X39897166Y-48049975D01*
X39900000Y-48076333D01*
X39900000Y-48300000D01*
X39947828Y-48300000D01*
X39947844Y-48299999D01*
X40007372Y-48293598D01*
X40007379Y-48293596D01*
X40142086Y-48243354D01*
X40142088Y-48243352D01*
X40257188Y-48157189D01*
X40262429Y-48150189D01*
X40263662Y-48149265D01*
X40264235Y-48147836D01*
X40291531Y-48128402D01*
X40318363Y-48108317D01*
X40320304Y-48107918D01*
X40321154Y-48107314D01*
X40332815Y-48105353D01*
X40355811Y-48100639D01*
X40358752Y-48100499D01*
X40444864Y-48100499D01*
X40469991Y-48097585D01*
X40476009Y-48094927D01*
X40494114Y-48094067D01*
X40511476Y-48098281D01*
X40520540Y-48098281D01*
X40520745Y-48096510D01*
X40530007Y-48097584D01*
X40530009Y-48097585D01*
X40555135Y-48100500D01*
X40944864Y-48100499D01*
X40944879Y-48100497D01*
X40944882Y-48100497D01*
X40979258Y-48096511D01*
X40979463Y-48098281D01*
X41020540Y-48098281D01*
X41020745Y-48096510D01*
X41030007Y-48097584D01*
X41030009Y-48097585D01*
X41055135Y-48100500D01*
X41444864Y-48100499D01*
X41444879Y-48100497D01*
X41444882Y-48100497D01*
X41469987Y-48097586D01*
X41469988Y-48097585D01*
X41469991Y-48097585D01*
X41572765Y-48052206D01*
X41652206Y-47972765D01*
X41697585Y-47869991D01*
X41700500Y-47844865D01*
X41700499Y-46455136D01*
X41700497Y-46455117D01*
X41697586Y-46430013D01*
X41697585Y-46430011D01*
X41697585Y-46430009D01*
X41661064Y-46347297D01*
X41659015Y-46337583D01*
X41655523Y-46332149D01*
X41650500Y-46297214D01*
X41650500Y-46217255D01*
X41670185Y-46150216D01*
X41686819Y-46129574D01*
X41852201Y-45964192D01*
X42095480Y-45720913D01*
X42148207Y-45629588D01*
X42175500Y-45527727D01*
X42175500Y-45422273D01*
X42175500Y-36000098D01*
X42195185Y-35933059D01*
X42211819Y-35912417D01*
X42255520Y-35868716D01*
X42334577Y-35731784D01*
X42375500Y-35579057D01*
X42375500Y-35420943D01*
X42334577Y-35268216D01*
X42312546Y-35230056D01*
X42255524Y-35131290D01*
X42255518Y-35131282D01*
X42211819Y-35087583D01*
X42178334Y-35026260D01*
X42175500Y-34999902D01*
X42175500Y-34420943D01*
X49399500Y-34420943D01*
X49399500Y-34579057D01*
X49436742Y-34718044D01*
X49440423Y-34731783D01*
X49440426Y-34731790D01*
X49519475Y-34868709D01*
X49519479Y-34868714D01*
X49519480Y-34868716D01*
X49631284Y-34980520D01*
X49631286Y-34980521D01*
X49631290Y-34980524D01*
X49751354Y-35049842D01*
X49768216Y-35059577D01*
X49920943Y-35100500D01*
X49920945Y-35100500D01*
X50079054Y-35100500D01*
X50079057Y-35100500D01*
X50160964Y-35078553D01*
X50230812Y-35080216D01*
X50288675Y-35119378D01*
X50292826Y-35124694D01*
X50327850Y-35172150D01*
X50437118Y-35252793D01*
X50479845Y-35267744D01*
X50565299Y-35297646D01*
X50595730Y-35300500D01*
X50595734Y-35300500D01*
X52404270Y-35300500D01*
X52434699Y-35297646D01*
X52434701Y-35297646D01*
X52518825Y-35268209D01*
X52562882Y-35252793D01*
X52672150Y-35172150D01*
X52752793Y-35062882D01*
X52783778Y-34974332D01*
X52797646Y-34934701D01*
X52797646Y-34934699D01*
X52800500Y-34904269D01*
X52800500Y-34095730D01*
X52797646Y-34065300D01*
X52797646Y-34065298D01*
X52762607Y-33965165D01*
X52752793Y-33937118D01*
X52672150Y-33827850D01*
X52562882Y-33747207D01*
X52562880Y-33747206D01*
X52434700Y-33702353D01*
X52404270Y-33699500D01*
X52404266Y-33699500D01*
X50595734Y-33699500D01*
X50595730Y-33699500D01*
X50565300Y-33702353D01*
X50565298Y-33702353D01*
X50437119Y-33747206D01*
X50437117Y-33747207D01*
X50327850Y-33827850D01*
X50292826Y-33875306D01*
X50237178Y-33917557D01*
X50167522Y-33923015D01*
X50160984Y-33921452D01*
X50079057Y-33899500D01*
X49920943Y-33899500D01*
X49768216Y-33940423D01*
X49768209Y-33940426D01*
X49631290Y-34019475D01*
X49631282Y-34019481D01*
X49519481Y-34131282D01*
X49519475Y-34131290D01*
X49440426Y-34268209D01*
X49440423Y-34268216D01*
X49399500Y-34420943D01*
X42175500Y-34420943D01*
X42175500Y-34260936D01*
X42179087Y-34248719D01*
X42178027Y-34236030D01*
X42188744Y-34215832D01*
X42195185Y-34193897D01*
X42205580Y-34184101D01*
X42210776Y-34174310D01*
X42228400Y-34162599D01*
X42238775Y-34152823D01*
X42246145Y-34148683D01*
X42278658Y-34135862D01*
X42306325Y-34114881D01*
X42313743Y-34110715D01*
X42339825Y-34104713D01*
X42364852Y-34095201D01*
X42373360Y-34096996D01*
X42381833Y-34095047D01*
X42407022Y-34104100D01*
X42433216Y-34109628D01*
X42439402Y-34115738D01*
X42447585Y-34118679D01*
X42463882Y-34139915D01*
X42482928Y-34158725D01*
X42487902Y-34168742D01*
X42522793Y-34247764D01*
X42522794Y-34247765D01*
X42602235Y-34327206D01*
X42705009Y-34372585D01*
X42730135Y-34375500D01*
X43719864Y-34375499D01*
X43719879Y-34375497D01*
X43719882Y-34375497D01*
X43744987Y-34372586D01*
X43744988Y-34372585D01*
X43744991Y-34372585D01*
X43847765Y-34327206D01*
X43912319Y-34262652D01*
X43973642Y-34229167D01*
X44043334Y-34234151D01*
X44087681Y-34262652D01*
X44152235Y-34327206D01*
X44255009Y-34372585D01*
X44280135Y-34375500D01*
X45269864Y-34375499D01*
X45269879Y-34375497D01*
X45269882Y-34375497D01*
X45294987Y-34372586D01*
X45294988Y-34372585D01*
X45294991Y-34372585D01*
X45397765Y-34327206D01*
X45477206Y-34247765D01*
X45522585Y-34144991D01*
X45525500Y-34119865D01*
X45525500Y-34099500D01*
X45545185Y-34032461D01*
X45597989Y-33986706D01*
X45649500Y-33975500D01*
X45977725Y-33975500D01*
X45977727Y-33975500D01*
X46079588Y-33948207D01*
X46170913Y-33895480D01*
X47820480Y-32245913D01*
X47834894Y-32220947D01*
X47873207Y-32154587D01*
X47900500Y-32052727D01*
X47900500Y-31766254D01*
X47906738Y-31745008D01*
X47908318Y-31722920D01*
X47916390Y-31712136D01*
X47920185Y-31699215D01*
X47936918Y-31684715D01*
X47950190Y-31666987D01*
X47962810Y-31662279D01*
X47972989Y-31653460D01*
X47994906Y-31650308D01*
X48015654Y-31642570D01*
X48028814Y-31645432D01*
X48042147Y-31643516D01*
X48062290Y-31652715D01*
X48083927Y-31657422D01*
X48101652Y-31670690D01*
X48105703Y-31672541D01*
X48112181Y-31678573D01*
X48175179Y-31741571D01*
X48175189Y-31741582D01*
X48179519Y-31745912D01*
X48179520Y-31745913D01*
X48254087Y-31820480D01*
X48321114Y-31859178D01*
X48321115Y-31859178D01*
X48321115Y-31859179D01*
X48345407Y-31873204D01*
X48345410Y-31873206D01*
X48345412Y-31873206D01*
X48345413Y-31873207D01*
X48447273Y-31900501D01*
X48447275Y-31900501D01*
X48560323Y-31900501D01*
X48560339Y-31900500D01*
X50102404Y-31900500D01*
X50169443Y-31920185D01*
X50215198Y-31972989D01*
X50219445Y-31983544D01*
X50240476Y-32043647D01*
X50247207Y-32062882D01*
X50327850Y-32172150D01*
X50437118Y-32252793D01*
X50472270Y-32265093D01*
X50565299Y-32297646D01*
X50595730Y-32300500D01*
X50595734Y-32300500D01*
X52404270Y-32300500D01*
X52434699Y-32297646D01*
X52434701Y-32297646D01*
X52500227Y-32274717D01*
X52562882Y-32252793D01*
X52672150Y-32172150D01*
X52752793Y-32062882D01*
X52779466Y-31986654D01*
X52797646Y-31934701D01*
X52797646Y-31934699D01*
X52800500Y-31904269D01*
X52800500Y-31095730D01*
X52797646Y-31065301D01*
X52783085Y-31023688D01*
X52760206Y-30958305D01*
X52756644Y-30888529D01*
X52789568Y-30829670D01*
X52867678Y-30751561D01*
X52867685Y-30751552D01*
X52951282Y-30610196D01*
X52951283Y-30610193D01*
X52997099Y-30452495D01*
X52997100Y-30452489D01*
X52999999Y-30415649D01*
X53000000Y-30415634D01*
X53000000Y-30250000D01*
X50000000Y-30250000D01*
X50000000Y-30415649D01*
X50002899Y-30452489D01*
X50002900Y-30452495D01*
X50048716Y-30610193D01*
X50048717Y-30610196D01*
X50132314Y-30751552D01*
X50132321Y-30751561D01*
X50210431Y-30829671D01*
X50218379Y-30844227D01*
X50230347Y-30855716D01*
X50234779Y-30874262D01*
X50243916Y-30890994D01*
X50242867Y-30908102D01*
X50246589Y-30923672D01*
X50239792Y-30958305D01*
X50219446Y-31016453D01*
X50178725Y-31073230D01*
X50113773Y-31098978D01*
X50102404Y-31099500D01*
X48717254Y-31099500D01*
X48650215Y-31079815D01*
X48629573Y-31063181D01*
X47936819Y-30370426D01*
X47903334Y-30309103D01*
X47900500Y-30282745D01*
X47900500Y-29584350D01*
X50000000Y-29584350D01*
X50000000Y-29750000D01*
X51250000Y-29750000D01*
X51750000Y-29750000D01*
X53000000Y-29750000D01*
X53000000Y-29584365D01*
X52999999Y-29584350D01*
X52997100Y-29547510D01*
X52997099Y-29547504D01*
X52951283Y-29389806D01*
X52951282Y-29389803D01*
X52867685Y-29248447D01*
X52867678Y-29248438D01*
X52751561Y-29132321D01*
X52751552Y-29132314D01*
X52610196Y-29048717D01*
X52610193Y-29048716D01*
X52452495Y-29002900D01*
X52452489Y-29002899D01*
X52415649Y-29000000D01*
X51750000Y-29000000D01*
X51750000Y-29750000D01*
X51250000Y-29750000D01*
X51250000Y-29000000D01*
X50584350Y-29000000D01*
X50547510Y-29002899D01*
X50547504Y-29002900D01*
X50389806Y-29048716D01*
X50389803Y-29048717D01*
X50248447Y-29132314D01*
X50248438Y-29132321D01*
X50132321Y-29248438D01*
X50132314Y-29248447D01*
X50048717Y-29389803D01*
X50048716Y-29389806D01*
X50002900Y-29547504D01*
X50002899Y-29547510D01*
X50000000Y-29584350D01*
X47900500Y-29584350D01*
X47900500Y-23500098D01*
X47920185Y-23433059D01*
X47936819Y-23412417D01*
X47980520Y-23368716D01*
X48059577Y-23231784D01*
X48100500Y-23079057D01*
X48100500Y-22920943D01*
X48059577Y-22768216D01*
X48059573Y-22768209D01*
X47980524Y-22631290D01*
X47980518Y-22631282D01*
X47868717Y-22519481D01*
X47868709Y-22519475D01*
X47731790Y-22440426D01*
X47731786Y-22440424D01*
X47731784Y-22440423D01*
X47579057Y-22399500D01*
X47420943Y-22399500D01*
X47268216Y-22440423D01*
X47268209Y-22440426D01*
X47131290Y-22519475D01*
X47131282Y-22519481D01*
X47019481Y-22631282D01*
X47019475Y-22631290D01*
X46940426Y-22768209D01*
X46940423Y-22768216D01*
X46899500Y-22920943D01*
X46899500Y-23079057D01*
X46924500Y-23172356D01*
X46940423Y-23231783D01*
X46940426Y-23231790D01*
X47019475Y-23368709D01*
X47019481Y-23368717D01*
X47063181Y-23412417D01*
X47096666Y-23473740D01*
X47099500Y-23500098D01*
X47099500Y-31782745D01*
X47079815Y-31849784D01*
X47063181Y-31870426D01*
X45795426Y-33138181D01*
X45768498Y-33152884D01*
X45742680Y-33169477D01*
X45736479Y-33170368D01*
X45734103Y-33171666D01*
X45707745Y-33174500D01*
X45649499Y-33174500D01*
X45582460Y-33154815D01*
X45536705Y-33102011D01*
X45525499Y-33050500D01*
X45525499Y-33030143D01*
X45525499Y-33030136D01*
X45524094Y-33018019D01*
X45522586Y-33005012D01*
X45522585Y-33005010D01*
X45522585Y-33005009D01*
X45477206Y-32902235D01*
X45397765Y-32822794D01*
X45388948Y-32818901D01*
X45294992Y-32777415D01*
X45269865Y-32774500D01*
X44280143Y-32774500D01*
X44280117Y-32774502D01*
X44255012Y-32777413D01*
X44255008Y-32777415D01*
X44152235Y-32822793D01*
X44152234Y-32822794D01*
X44087681Y-32887348D01*
X44026358Y-32920833D01*
X43956666Y-32915849D01*
X43912319Y-32887348D01*
X43847765Y-32822794D01*
X43744992Y-32777415D01*
X43719865Y-32774500D01*
X42730143Y-32774500D01*
X42730117Y-32774502D01*
X42705013Y-32777413D01*
X42673256Y-32791434D01*
X42619743Y-32815063D01*
X42590428Y-32818901D01*
X42561581Y-32825365D01*
X42556174Y-32823386D01*
X42550466Y-32824134D01*
X42523727Y-32811513D01*
X42495966Y-32801354D01*
X42490254Y-32795713D01*
X42487282Y-32794310D01*
X42470858Y-32776556D01*
X42421467Y-32711424D01*
X42396645Y-32646114D01*
X42411073Y-32577751D01*
X42455177Y-32530961D01*
X42473039Y-32519943D01*
X42594943Y-32398039D01*
X42665036Y-32284402D01*
X42716984Y-32237678D01*
X42770570Y-32225499D01*
X43719864Y-32225499D01*
X43719879Y-32225497D01*
X43719882Y-32225497D01*
X43744986Y-32222586D01*
X43744987Y-32222585D01*
X43744991Y-32222585D01*
X43788687Y-32203291D01*
X43857960Y-32194220D01*
X43921146Y-32224042D01*
X43938037Y-32242415D01*
X43967813Y-32282191D01*
X44082906Y-32368350D01*
X44082913Y-32368354D01*
X44217620Y-32418596D01*
X44217627Y-32418598D01*
X44277155Y-32424999D01*
X44277172Y-32425000D01*
X44525000Y-32425000D01*
X45025000Y-32425000D01*
X45272828Y-32425000D01*
X45272844Y-32424999D01*
X45332372Y-32418598D01*
X45332379Y-32418596D01*
X45467086Y-32368354D01*
X45467093Y-32368350D01*
X45582187Y-32282190D01*
X45582190Y-32282187D01*
X45668350Y-32167093D01*
X45668354Y-32167086D01*
X45718596Y-32032379D01*
X45718598Y-32032372D01*
X45724999Y-31972844D01*
X45725000Y-31972827D01*
X45725000Y-31675000D01*
X45025000Y-31675000D01*
X45025000Y-32425000D01*
X44525000Y-32425000D01*
X44525000Y-31175000D01*
X45025000Y-31175000D01*
X45725000Y-31175000D01*
X45725000Y-30877172D01*
X45724999Y-30877155D01*
X45718598Y-30817627D01*
X45718596Y-30817620D01*
X45668354Y-30682913D01*
X45668350Y-30682906D01*
X45582190Y-30567812D01*
X45582187Y-30567809D01*
X45467093Y-30481649D01*
X45467086Y-30481645D01*
X45332379Y-30431403D01*
X45332372Y-30431401D01*
X45272844Y-30425000D01*
X45025000Y-30425000D01*
X45025000Y-31175000D01*
X44525000Y-31175000D01*
X44525000Y-30425000D01*
X44277155Y-30425000D01*
X44217627Y-30431401D01*
X44217620Y-30431403D01*
X44082913Y-30481645D01*
X44082906Y-30481649D01*
X43967812Y-30567809D01*
X43938036Y-30607585D01*
X43918373Y-30622303D01*
X43901554Y-30640204D01*
X43890895Y-30642872D01*
X43882102Y-30649455D01*
X43857602Y-30651207D01*
X43833776Y-30657172D01*
X43819740Y-30653914D01*
X43812410Y-30654439D01*
X43799072Y-30650747D01*
X43793792Y-30648962D01*
X43744991Y-30627415D01*
X43722205Y-30624771D01*
X43709802Y-30620580D01*
X43691480Y-30607734D01*
X43670884Y-30598999D01*
X43663428Y-30588066D01*
X43652593Y-30580469D01*
X43644125Y-30559758D01*
X43631520Y-30541273D01*
X43628349Y-30521173D01*
X43626151Y-30515796D01*
X43626880Y-30511857D01*
X43625500Y-30503106D01*
X43625500Y-29787729D01*
X43625501Y-29787716D01*
X43625501Y-29672276D01*
X43625501Y-29672274D01*
X43598207Y-29570413D01*
X43594843Y-29564587D01*
X43545480Y-29479087D01*
X43519837Y-29453444D01*
X43513115Y-29443437D01*
X43506077Y-29421155D01*
X43494881Y-29400650D01*
X43495752Y-29388462D01*
X43492073Y-29376812D01*
X43498198Y-29354266D01*
X43499865Y-29330958D01*
X43502314Y-29324888D01*
X43512869Y-29300589D01*
X43533008Y-29154074D01*
X43512869Y-29007558D01*
X43474740Y-28919775D01*
X43453951Y-28871913D01*
X43453947Y-28871907D01*
X43400152Y-28803428D01*
X42987041Y-28390317D01*
X42918562Y-28336522D01*
X42918556Y-28336518D01*
X42782915Y-28277602D01*
X42782909Y-28277600D01*
X42636396Y-28257462D01*
X42489883Y-28277600D01*
X42354231Y-28336521D01*
X42354228Y-28336523D01*
X42285763Y-28390307D01*
X42285746Y-28390322D01*
X41890322Y-28785746D01*
X41890307Y-28785763D01*
X41836523Y-28854228D01*
X41836521Y-28854231D01*
X41777600Y-28989883D01*
X41757462Y-29136396D01*
X41777600Y-29282909D01*
X41777602Y-29282915D01*
X41836518Y-29418556D01*
X41836522Y-29418562D01*
X41890317Y-29487041D01*
X42303428Y-29900152D01*
X42371907Y-29953947D01*
X42371913Y-29953951D01*
X42456895Y-29990863D01*
X42507558Y-30012869D01*
X42654074Y-30033008D01*
X42683615Y-30028947D01*
X42752709Y-30039319D01*
X42805228Y-30085400D01*
X42824500Y-30151792D01*
X42824500Y-30503106D01*
X42804815Y-30570145D01*
X42757754Y-30613097D01*
X42735845Y-30624500D01*
X42730136Y-30624501D01*
X42705009Y-30627415D01*
X42602235Y-30672794D01*
X42557901Y-30717127D01*
X42540970Y-30725941D01*
X42524661Y-30729150D01*
X42510073Y-30737117D01*
X42491088Y-30735758D01*
X42472416Y-30739434D01*
X42456960Y-30733317D01*
X42440381Y-30732131D01*
X42418619Y-30721488D01*
X42326311Y-30664551D01*
X42326300Y-30664546D01*
X42162652Y-30610319D01*
X42061654Y-30600000D01*
X42025000Y-30600000D01*
X42025000Y-31513500D01*
X42005315Y-31580539D01*
X41952511Y-31626294D01*
X41901000Y-31637500D01*
X41775000Y-31637500D01*
X41775000Y-31763500D01*
X41755315Y-31830539D01*
X41702511Y-31876294D01*
X41651000Y-31887500D01*
X40800001Y-31887500D01*
X40800001Y-31986654D01*
X40810319Y-32087652D01*
X40864546Y-32251300D01*
X40864551Y-32251311D01*
X40955052Y-32398034D01*
X40955055Y-32398038D01*
X41076961Y-32519944D01*
X41076965Y-32519947D01*
X41094824Y-32530963D01*
X41141549Y-32582911D01*
X41152770Y-32651873D01*
X41128531Y-32711426D01*
X41064139Y-32796339D01*
X41009882Y-32933924D01*
X41009882Y-32933925D01*
X40999500Y-33020381D01*
X40999500Y-33704618D01*
X41009882Y-33791074D01*
X41009882Y-33791075D01*
X41014007Y-33801534D01*
X41061294Y-33921447D01*
X41064139Y-33928660D01*
X41153499Y-34046500D01*
X41271339Y-34135860D01*
X41271342Y-34135862D01*
X41295990Y-34145581D01*
X41351133Y-34188486D01*
X41374327Y-34254394D01*
X41374500Y-34260936D01*
X41374500Y-34999902D01*
X41354815Y-35066941D01*
X41338181Y-35087583D01*
X41294481Y-35131282D01*
X41294475Y-35131290D01*
X41215426Y-35268209D01*
X41215423Y-35268216D01*
X41174500Y-35420943D01*
X41174500Y-35579057D01*
X41214866Y-35729703D01*
X41215423Y-35731783D01*
X41215426Y-35731790D01*
X41294475Y-35868709D01*
X41294481Y-35868717D01*
X41338181Y-35912417D01*
X41371666Y-35973740D01*
X41374500Y-36000098D01*
X41374500Y-44317063D01*
X41354815Y-44384102D01*
X41302011Y-44429857D01*
X41232853Y-44439801D01*
X41218407Y-44436838D01*
X41119717Y-44410394D01*
X41079057Y-44399500D01*
X40920943Y-44399500D01*
X40840917Y-44420943D01*
X40806593Y-44430140D01*
X40736743Y-44428477D01*
X40678881Y-44389314D01*
X40651377Y-44325086D01*
X40650500Y-44310365D01*
X40650500Y-36142662D01*
X40653072Y-36129781D01*
X40650500Y-36090100D01*
X40650500Y-36050342D01*
X40650274Y-36049499D01*
X40646307Y-36025424D01*
X40632356Y-35810190D01*
X40634203Y-35785464D01*
X40628961Y-35757802D01*
X40627140Y-35729703D01*
X40621956Y-35714398D01*
X40617576Y-35697724D01*
X40571664Y-35455433D01*
X40570996Y-35434032D01*
X40561888Y-35403842D01*
X40556017Y-35372860D01*
X40550932Y-35362310D01*
X40543921Y-35344291D01*
X40462240Y-35073549D01*
X40460437Y-35057413D01*
X40447066Y-35023253D01*
X40436471Y-34988134D01*
X40433870Y-34983938D01*
X40423802Y-34963819D01*
X40290638Y-34623610D01*
X40289497Y-34616011D01*
X40271459Y-34574612D01*
X40255002Y-34532566D01*
X40255000Y-34532563D01*
X40251076Y-34525448D01*
X40251554Y-34525183D01*
X40244875Y-34513597D01*
X40120208Y-34227465D01*
X40120175Y-34227243D01*
X40099047Y-34178895D01*
X40078176Y-34130993D01*
X40078175Y-34130992D01*
X40075168Y-34124089D01*
X40074703Y-34123190D01*
X40072557Y-34118279D01*
X39934681Y-33802776D01*
X39933647Y-33800338D01*
X39770091Y-33402233D01*
X39768321Y-33397667D01*
X39611760Y-32968721D01*
X39609673Y-32962496D01*
X39596922Y-32920833D01*
X39466125Y-32493473D01*
X39464121Y-32486117D01*
X39361325Y-32057116D01*
X39364846Y-31987337D01*
X39405534Y-31930537D01*
X39470472Y-31904752D01*
X39514005Y-31908448D01*
X39518213Y-31909575D01*
X39518216Y-31909577D01*
X39670943Y-31950500D01*
X39670945Y-31950500D01*
X39829055Y-31950500D01*
X39829057Y-31950500D01*
X39981784Y-31909577D01*
X40118716Y-31830520D01*
X40230520Y-31718716D01*
X40309577Y-31581784D01*
X40350500Y-31429057D01*
X40350500Y-31288345D01*
X40800000Y-31288345D01*
X40800000Y-31387500D01*
X41525000Y-31387500D01*
X41525000Y-30600000D01*
X41488361Y-30600000D01*
X41488343Y-30600001D01*
X41387347Y-30610319D01*
X41223699Y-30664546D01*
X41223688Y-30664551D01*
X41076965Y-30755052D01*
X41076961Y-30755055D01*
X40955055Y-30876961D01*
X40955052Y-30876965D01*
X40864551Y-31023688D01*
X40864546Y-31023699D01*
X40810319Y-31187347D01*
X40800000Y-31288345D01*
X40350500Y-31288345D01*
X40350500Y-31270943D01*
X40309577Y-31118216D01*
X40302500Y-31105958D01*
X40230524Y-30981290D01*
X40230518Y-30981282D01*
X40186819Y-30937583D01*
X40153334Y-30876260D01*
X40150500Y-30849902D01*
X40150500Y-27475411D01*
X40159365Y-27445219D01*
X40166460Y-27414556D01*
X40169133Y-27411951D01*
X40170185Y-27408372D01*
X40193960Y-27387770D01*
X40216511Y-27365806D01*
X40220169Y-27365060D01*
X40222989Y-27362617D01*
X40254135Y-27358138D01*
X40284974Y-27351854D01*
X40288453Y-27353204D01*
X40292147Y-27352673D01*
X40320774Y-27365746D01*
X40350111Y-27377131D01*
X40353049Y-27380486D01*
X40355703Y-27381698D01*
X40374737Y-27402414D01*
X40378602Y-27407721D01*
X40429520Y-27495913D01*
X40478486Y-27544879D01*
X40484189Y-27552710D01*
X40492832Y-27576849D01*
X40505118Y-27599349D01*
X40504413Y-27609195D01*
X40507742Y-27618490D01*
X40501962Y-27643467D01*
X40500134Y-27669041D01*
X40497687Y-27675107D01*
X40487131Y-27699410D01*
X40466992Y-27845926D01*
X40487130Y-27992439D01*
X40487132Y-27992445D01*
X40546048Y-28128086D01*
X40546052Y-28128092D01*
X40599847Y-28196571D01*
X41012958Y-28609682D01*
X41081437Y-28663477D01*
X41081443Y-28663481D01*
X41179965Y-28706274D01*
X41217088Y-28722399D01*
X41363604Y-28742538D01*
X41510119Y-28722399D01*
X41645768Y-28663479D01*
X41714245Y-28609685D01*
X42109685Y-28214245D01*
X42163479Y-28145768D01*
X42222399Y-28010119D01*
X42242538Y-27863604D01*
X42222399Y-27717088D01*
X42185132Y-27631290D01*
X42163481Y-27581443D01*
X42163477Y-27581437D01*
X42109682Y-27512958D01*
X41696571Y-27099847D01*
X41628092Y-27046052D01*
X41628086Y-27046048D01*
X41492445Y-26987132D01*
X41492439Y-26987130D01*
X41345926Y-26966992D01*
X41345924Y-26966992D01*
X41291384Y-26974488D01*
X41222288Y-26964115D01*
X41169770Y-26918033D01*
X41150500Y-26851643D01*
X41150500Y-24475411D01*
X41170185Y-24408372D01*
X41222989Y-24362617D01*
X41292147Y-24352673D01*
X41355703Y-24381698D01*
X41381887Y-24413411D01*
X41429517Y-24495909D01*
X41429522Y-24495915D01*
X44863181Y-27929574D01*
X44896666Y-27990897D01*
X44899500Y-28017255D01*
X44899500Y-28079057D01*
X44935724Y-28214245D01*
X44940423Y-28231783D01*
X44940426Y-28231790D01*
X45019475Y-28368709D01*
X45019479Y-28368714D01*
X45019480Y-28368716D01*
X45131284Y-28480520D01*
X45131286Y-28480521D01*
X45131290Y-28480524D01*
X45268209Y-28559573D01*
X45268216Y-28559577D01*
X45420943Y-28600500D01*
X45420945Y-28600500D01*
X45579055Y-28600500D01*
X45579057Y-28600500D01*
X45731784Y-28559577D01*
X45868716Y-28480520D01*
X45980520Y-28368716D01*
X46059577Y-28231784D01*
X46100500Y-28079057D01*
X46100500Y-27920943D01*
X46059577Y-27768216D01*
X46016307Y-27693269D01*
X45980524Y-27631290D01*
X45980518Y-27631282D01*
X45868717Y-27519481D01*
X45868709Y-27519475D01*
X45731790Y-27440426D01*
X45731786Y-27440424D01*
X45731784Y-27440423D01*
X45579057Y-27399500D01*
X45579056Y-27399500D01*
X45517255Y-27399500D01*
X45450216Y-27379815D01*
X45429574Y-27363181D01*
X42186819Y-24120426D01*
X42153334Y-24059103D01*
X42150500Y-24032745D01*
X42150500Y-23956059D01*
X42170185Y-23889020D01*
X42222989Y-23843265D01*
X42292147Y-23833321D01*
X42355703Y-23862346D01*
X42373767Y-23881749D01*
X42392811Y-23907189D01*
X42392812Y-23907190D01*
X42507906Y-23993350D01*
X42507913Y-23993354D01*
X42642620Y-24043596D01*
X42642627Y-24043598D01*
X42702155Y-24049999D01*
X42702172Y-24050000D01*
X43400000Y-24050000D01*
X43900000Y-24050000D01*
X44597828Y-24050000D01*
X44597844Y-24049999D01*
X44657372Y-24043598D01*
X44657379Y-24043596D01*
X44792086Y-23993354D01*
X44792093Y-23993350D01*
X44907187Y-23907190D01*
X44907190Y-23907187D01*
X44993350Y-23792093D01*
X44993354Y-23792086D01*
X45043596Y-23657379D01*
X45043598Y-23657372D01*
X45049999Y-23597844D01*
X45050000Y-23597827D01*
X45050000Y-22700000D01*
X43900000Y-22700000D01*
X43900000Y-24050000D01*
X43400000Y-24050000D01*
X43400000Y-22200000D01*
X43900000Y-22200000D01*
X45050000Y-22200000D01*
X45050000Y-21302172D01*
X45049999Y-21302155D01*
X45043598Y-21242627D01*
X45043596Y-21242620D01*
X44993354Y-21107913D01*
X44993350Y-21107906D01*
X44907190Y-20992812D01*
X44907187Y-20992809D01*
X44792093Y-20906649D01*
X44792086Y-20906645D01*
X44657379Y-20856403D01*
X44657372Y-20856401D01*
X44597844Y-20850000D01*
X43900000Y-20850000D01*
X43900000Y-22200000D01*
X43400000Y-22200000D01*
X43400000Y-20850000D01*
X42702155Y-20850000D01*
X42642627Y-20856401D01*
X42642620Y-20856403D01*
X42507913Y-20906645D01*
X42507906Y-20906649D01*
X42392812Y-20992809D01*
X42373766Y-21018252D01*
X42317832Y-21060122D01*
X42248140Y-21065106D01*
X42186818Y-21031620D01*
X42153333Y-20970297D01*
X42150500Y-20943940D01*
X42150500Y-20052785D01*
X42161066Y-20002698D01*
X42166873Y-19989548D01*
X42197585Y-19919991D01*
X42200500Y-19894865D01*
X42200499Y-18505136D01*
X42200497Y-18505117D01*
X42197586Y-18480012D01*
X42197585Y-18480010D01*
X42197585Y-18480009D01*
X42152206Y-18377235D01*
X42072765Y-18297794D01*
X42021520Y-18275167D01*
X41969992Y-18252415D01*
X41944868Y-18249500D01*
X41861696Y-18249500D01*
X41794657Y-18229815D01*
X41762431Y-18199813D01*
X41757190Y-18192813D01*
X41757186Y-18192809D01*
X41642088Y-18106647D01*
X41642086Y-18106645D01*
X41507379Y-18056403D01*
X41507372Y-18056401D01*
X41447844Y-18050000D01*
X41400000Y-18050000D01*
X41400000Y-18273667D01*
X41391644Y-18302121D01*
X41385842Y-18331205D01*
X41381284Y-18337403D01*
X41380315Y-18340706D01*
X41365182Y-18359821D01*
X41364442Y-18360586D01*
X41347794Y-18377235D01*
X41347318Y-18378312D01*
X41339182Y-18386735D01*
X41317496Y-18399067D01*
X41298171Y-18414842D01*
X41287650Y-18416039D01*
X41278447Y-18421274D01*
X41253537Y-18419924D01*
X41228750Y-18422747D01*
X41219251Y-18418066D01*
X41208679Y-18417494D01*
X41188452Y-18402890D01*
X41166076Y-18391865D01*
X41160389Y-18385301D01*
X41160331Y-18385360D01*
X41136319Y-18361348D01*
X41102834Y-18300025D01*
X41100000Y-18273667D01*
X41100000Y-18050000D01*
X41052155Y-18050000D01*
X40992627Y-18056401D01*
X40992620Y-18056403D01*
X40857913Y-18106645D01*
X40857907Y-18106648D01*
X40824309Y-18131800D01*
X40758845Y-18156216D01*
X40690572Y-18141364D01*
X40675691Y-18131800D01*
X40642092Y-18106648D01*
X40642086Y-18106645D01*
X40507379Y-18056403D01*
X40507372Y-18056401D01*
X40447844Y-18050000D01*
X40400000Y-18050000D01*
X40400000Y-18273667D01*
X40391644Y-18302121D01*
X40385842Y-18331205D01*
X40381284Y-18337403D01*
X40380315Y-18340706D01*
X40365182Y-18359821D01*
X40364442Y-18360586D01*
X40347794Y-18377235D01*
X40347318Y-18378312D01*
X40339182Y-18386735D01*
X40317496Y-18399067D01*
X40298171Y-18414842D01*
X40287650Y-18416039D01*
X40278447Y-18421274D01*
X40253537Y-18419924D01*
X40228750Y-18422747D01*
X40219251Y-18418066D01*
X40208679Y-18417494D01*
X40188452Y-18402890D01*
X40166076Y-18391865D01*
X40160389Y-18385301D01*
X40160331Y-18385360D01*
X40136319Y-18361348D01*
X40102834Y-18300025D01*
X40100000Y-18273667D01*
X40100000Y-18050000D01*
X40052155Y-18050000D01*
X39992627Y-18056401D01*
X39992620Y-18056403D01*
X39857913Y-18106645D01*
X39857906Y-18106649D01*
X39742814Y-18192808D01*
X39742804Y-18192817D01*
X39737567Y-18199814D01*
X39736336Y-18200735D01*
X39735764Y-18202164D01*
X39708447Y-18221610D01*
X39681632Y-18241683D01*
X39679694Y-18242080D01*
X39678845Y-18242685D01*
X39667183Y-18244645D01*
X39644188Y-18249360D01*
X39641224Y-18249500D01*
X39555136Y-18249501D01*
X39530009Y-18252415D01*
X39523994Y-18255070D01*
X39505884Y-18255931D01*
X39488560Y-18251725D01*
X39479459Y-18251725D01*
X39479255Y-18253490D01*
X39469991Y-18252415D01*
X39444865Y-18249500D01*
X39055143Y-18249500D01*
X39055117Y-18249502D01*
X39020742Y-18253489D01*
X39020688Y-18253023D01*
X38994114Y-18255931D01*
X38976005Y-18255070D01*
X38969991Y-18252415D01*
X38944865Y-18249500D01*
X38858762Y-18249500D01*
X38855811Y-18249360D01*
X38825463Y-18238860D01*
X38794657Y-18229815D01*
X38791901Y-18227249D01*
X38789781Y-18226516D01*
X38786135Y-18221881D01*
X38762431Y-18199813D01*
X38757190Y-18192813D01*
X38757186Y-18192809D01*
X38642088Y-18106647D01*
X38642086Y-18106645D01*
X38507379Y-18056403D01*
X38507372Y-18056401D01*
X38447844Y-18050000D01*
X38400000Y-18050000D01*
X38400000Y-18273667D01*
X38391644Y-18302121D01*
X38385842Y-18331205D01*
X38381284Y-18337403D01*
X38380315Y-18340706D01*
X38365182Y-18359821D01*
X38364442Y-18360586D01*
X38347794Y-18377235D01*
X38347318Y-18378312D01*
X38339182Y-18386735D01*
X38317496Y-18399067D01*
X38298171Y-18414842D01*
X38287650Y-18416039D01*
X38278447Y-18421274D01*
X38253537Y-18419924D01*
X38228750Y-18422747D01*
X38219251Y-18418066D01*
X38208679Y-18417494D01*
X38188452Y-18402890D01*
X38166076Y-18391865D01*
X38160389Y-18385301D01*
X38160331Y-18385360D01*
X38136319Y-18361348D01*
X38102834Y-18300025D01*
X38100000Y-18273667D01*
X38100000Y-18050000D01*
X38052155Y-18050000D01*
X37992627Y-18056401D01*
X37992620Y-18056403D01*
X37857913Y-18106645D01*
X37857906Y-18106649D01*
X37742814Y-18192808D01*
X37742804Y-18192817D01*
X37737567Y-18199814D01*
X37736336Y-18200735D01*
X37735764Y-18202164D01*
X37708447Y-18221610D01*
X37681632Y-18241683D01*
X37679694Y-18242080D01*
X37678845Y-18242685D01*
X37667183Y-18244645D01*
X37644188Y-18249360D01*
X37641224Y-18249500D01*
X37555136Y-18249501D01*
X37530009Y-18252415D01*
X37523994Y-18255070D01*
X37505884Y-18255931D01*
X37488560Y-18251725D01*
X37479459Y-18251725D01*
X37479255Y-18253490D01*
X37469991Y-18252415D01*
X37444865Y-18249500D01*
X37055143Y-18249500D01*
X37055117Y-18249502D01*
X37020742Y-18253489D01*
X37020537Y-18251727D01*
X36979459Y-18251725D01*
X36979255Y-18253490D01*
X36969991Y-18252415D01*
X36944865Y-18249500D01*
X36555143Y-18249500D01*
X36555117Y-18249502D01*
X36520742Y-18253489D01*
X36520537Y-18251727D01*
X36479459Y-18251725D01*
X36479255Y-18253490D01*
X36469991Y-18252415D01*
X36444865Y-18249500D01*
X36055143Y-18249500D01*
X36055117Y-18249502D01*
X36020742Y-18253489D01*
X36020537Y-18251727D01*
X35979459Y-18251725D01*
X35979255Y-18253490D01*
X35969991Y-18252415D01*
X35944865Y-18249500D01*
X35555143Y-18249500D01*
X35555117Y-18249502D01*
X35520742Y-18253489D01*
X35520537Y-18251727D01*
X35479459Y-18251725D01*
X35479255Y-18253490D01*
X35469991Y-18252415D01*
X35444865Y-18249500D01*
X35055143Y-18249500D01*
X35055117Y-18249502D01*
X35020742Y-18253489D01*
X35020537Y-18251727D01*
X34979459Y-18251725D01*
X34979255Y-18253490D01*
X34969991Y-18252415D01*
X34944865Y-18249500D01*
X34555143Y-18249500D01*
X34555117Y-18249502D01*
X34520742Y-18253489D01*
X34520537Y-18251727D01*
X34479459Y-18251725D01*
X34479255Y-18253490D01*
X34469991Y-18252415D01*
X34444865Y-18249500D01*
X34055143Y-18249500D01*
X34055117Y-18249502D01*
X34020742Y-18253489D01*
X34020537Y-18251727D01*
X33979459Y-18251725D01*
X33979255Y-18253490D01*
X33969991Y-18252415D01*
X33944865Y-18249500D01*
X33555143Y-18249500D01*
X33555117Y-18249502D01*
X33520742Y-18253489D01*
X33520688Y-18253023D01*
X33494114Y-18255931D01*
X33476005Y-18255070D01*
X33469991Y-18252415D01*
X33444865Y-18249500D01*
X33358762Y-18249500D01*
X33355811Y-18249360D01*
X33325463Y-18238860D01*
X33294657Y-18229815D01*
X33291901Y-18227249D01*
X33289781Y-18226516D01*
X33286135Y-18221881D01*
X33262431Y-18199813D01*
X33257190Y-18192813D01*
X33257186Y-18192809D01*
X33142088Y-18106647D01*
X33142086Y-18106645D01*
X33007379Y-18056403D01*
X33007372Y-18056401D01*
X32947844Y-18050000D01*
X32900000Y-18050000D01*
X32900000Y-18273667D01*
X32891355Y-18303107D01*
X32884832Y-18333094D01*
X32881077Y-18338109D01*
X32880315Y-18340706D01*
X32863681Y-18361348D01*
X32862181Y-18362848D01*
X32800858Y-18396333D01*
X32731166Y-18391349D01*
X32675233Y-18349477D01*
X32650816Y-18284013D01*
X32650500Y-18275167D01*
X32650500Y-18159429D01*
X32650501Y-18159416D01*
X32650501Y-18043976D01*
X32650501Y-18043974D01*
X32623207Y-17942113D01*
X32574467Y-17857693D01*
X32570480Y-17850787D01*
X32495913Y-17776220D01*
X32495910Y-17776218D01*
X31598213Y-16878520D01*
X31552550Y-16852156D01*
X31506889Y-16825793D01*
X31455957Y-16812146D01*
X31405027Y-16798500D01*
X24652427Y-16798500D01*
X24546973Y-16798500D01*
X24445110Y-16825793D01*
X24353787Y-16878520D01*
X24353784Y-16878522D01*
X22179522Y-19052784D01*
X22179518Y-19052790D01*
X22126792Y-19144112D01*
X22126793Y-19144113D01*
X22099500Y-19245973D01*
X16400500Y-19245973D01*
X16400500Y-18688096D01*
X16400500Y-18677239D01*
X16401180Y-18674820D01*
X16400504Y-18620231D01*
X16400505Y-18619486D01*
X16400544Y-18619352D01*
X16400649Y-18613517D01*
X16412988Y-18359005D01*
X16414628Y-18344055D01*
X16457098Y-18096673D01*
X16460537Y-18082039D01*
X16532696Y-17841639D01*
X16537891Y-17827513D01*
X16638673Y-17597642D01*
X16645542Y-17584252D01*
X16773466Y-17368291D01*
X16781894Y-17355855D01*
X16935071Y-17156997D01*
X16944964Y-17145655D01*
X16958112Y-17132310D01*
X17121103Y-16966871D01*
X17132298Y-16956809D01*
X17328834Y-16800696D01*
X17341163Y-16792070D01*
X17555185Y-16660946D01*
X17568475Y-16653876D01*
X17796816Y-16549678D01*
X17810863Y-16544274D01*
X18050149Y-16468543D01*
X18064740Y-16464883D01*
X18311472Y-16418727D01*
X18326394Y-16416865D01*
X18570410Y-16401387D01*
X18580481Y-16400749D01*
X18588330Y-16400500D01*
X52311906Y-16400500D01*
X52322764Y-16401209D01*
G37*
%TD.AperFunction*%
%TD*%
M02*
